<svg width="183" height="54" viewBox="0 0 183 54" fill="none" xmlns="http://www.w3.org/2000/svg">
<g clip-path="url(#clip0_2956_9360)">
<path d="M113.506 42.1854C102.885 49.8395 87.489 53.9233 74.2337 53.9233C55.6476 53.9233 38.9154 47.2026 26.2569 36.0247C25.2623 35.1457 26.1534 33.9478 27.3469 34.6323C41.0079 42.4032 57.8993 47.0781 75.3476 47.0781C87.115 47.0781 100.06 44.6979 111.963 39.7584C113.761 39.0117 115.265 40.9097 113.506 42.1854Z" fill="#FF9900"/>
<path d="M117.923 37.2465C116.571 35.5508 108.948 36.4453 105.527 36.842C104.485 36.9665 104.326 36.0797 105.265 35.4419C111.335 31.2648 121.297 32.4705 122.458 33.8706C123.62 35.2785 122.156 45.0407 116.451 49.7001C115.576 50.4157 114.741 50.0346 115.13 49.0856C116.411 45.9586 119.284 38.95 117.923 37.2465Z" fill="#FF9900"/>
<path d="M105.761 5.95441V1.89397C105.761 1.27945 106.239 0.867188 106.812 0.867188H125.406C126.002 0.867188 126.48 1.28723 126.48 1.89397V5.37101C126.472 5.95441 125.97 6.71671 125.079 7.9224L115.444 21.3716C119.025 21.2861 122.804 21.8072 126.05 23.5963C126.782 24.0008 126.981 24.592 127.037 25.1754V29.5081C127.037 30.0993 126.368 30.7916 125.668 30.4337C119.948 27.5012 112.349 27.1823 106.024 30.4649C105.379 30.8071 104.703 30.1226 104.703 29.5314V25.4165C104.703 24.7553 104.711 23.6274 105.387 22.624L116.55 6.97341H106.835C106.239 6.97341 105.761 6.56114 105.761 5.95441Z" fill="#221F1F"/>
<path d="M37.933 31.2871H32.2761C31.7351 31.2482 31.3054 30.8515 31.2656 30.3459V1.96171C31.2656 1.39387 31.751 0.942705 32.3556 0.942705H37.6307C38.1797 0.966026 38.6173 1.37831 38.6571 1.8917V5.6021H38.7605C40.137 2.01615 42.7228 0.34375 46.2077 0.34375C49.7482 0.34375 51.9601 2.01615 53.5514 5.6021C54.9199 2.01615 58.0308 0.34375 61.3645 0.34375C63.7355 0.34375 66.3293 1.30052 67.9126 3.44742C69.7028 5.83546 69.3368 9.30473 69.3368 12.3462L69.3288 30.2603C69.3288 30.8282 68.8435 31.2871 68.2388 31.2871H62.5898C62.0249 31.2482 61.5714 30.8048 61.5714 30.2603V15.2165C61.5714 14.0186 61.6828 11.0316 61.4123 9.8959C60.9906 7.99014 59.7255 7.45341 58.0865 7.45341C56.718 7.45341 55.2859 8.34795 54.705 9.77923C54.1242 11.2105 54.1799 13.6063 54.1799 15.2165V30.2603C54.1799 30.8282 53.6946 31.2871 53.0899 31.2871H47.4409C46.868 31.2482 46.4225 30.8048 46.4225 30.2603L46.4145 15.2165C46.4145 12.0506 46.9476 7.39118 42.9296 7.39118C38.8639 7.39118 39.0231 11.9339 39.0231 15.2165V30.2603C39.0231 30.8282 38.5377 31.2871 37.933 31.2871Z" fill="#221F1F"/>
<path d="M142.488 0.34375C150.882 0.34375 155.425 7.39118 155.425 16.3522C155.425 25.0098 150.405 31.8783 142.488 31.8783C134.245 31.8783 129.758 24.8309 129.758 16.0488C129.758 7.21228 134.301 0.34375 142.488 0.34375ZM142.536 6.13883C138.367 6.13883 138.104 11.6928 138.104 15.1543C138.104 18.6235 138.048 26.0288 142.488 26.0288C146.872 26.0288 147.079 20.0548 147.079 16.4144C147.079 14.0186 146.975 11.156 146.235 8.88468C145.599 6.90891 144.334 6.13883 142.536 6.13883Z" fill="#221F1F"/>
<path d="M166.312 31.2871H160.679C160.114 31.2482 159.66 30.8048 159.66 30.2603L159.652 1.86836C159.7 1.34719 160.169 0.942705 160.742 0.942705H165.986C166.479 0.966026 166.885 1.29274 166.996 1.73613V6.0766H167.099C168.683 2.19506 170.903 0.34375 174.809 0.34375C177.347 0.34375 179.822 1.23829 181.413 3.68856C182.893 5.95992 182.893 9.77923 182.893 12.5251V30.3926C182.829 30.8904 182.36 31.2871 181.803 31.2871H176.13C175.613 31.2482 175.183 30.8749 175.127 30.3926V14.9753C175.127 11.8717 175.493 7.32895 171.587 7.32895C170.21 7.32895 168.945 8.23128 168.317 9.60031C167.521 11.335 167.418 13.0618 167.418 14.9753V30.2603C167.41 30.8282 166.916 31.2871 166.312 31.2871Z" fill="#221F1F"/>
<path d="M90.942 17.7278V16.5299C86.8524 16.5299 82.5321 17.3855 82.5321 22.0994C82.5321 24.4874 83.7972 26.1054 85.9693 26.1054C87.5605 26.1054 88.9847 25.1486 89.8838 23.5929C90.9977 21.6793 90.942 19.8825 90.942 17.7278ZM96.6467 31.2081C96.2728 31.5348 95.7317 31.5582 95.31 31.3404C93.4323 29.8158 93.0982 29.1079 92.0638 27.6533C88.9609 30.7492 86.7649 31.6749 82.739 31.6749C77.9811 31.6749 74.2734 28.8045 74.2734 23.0562C74.2734 18.5679 76.7638 15.5109 80.3044 14.0174C83.3755 12.695 87.664 12.4617 90.942 12.0961V11.3804C90.942 10.0658 91.0454 8.51012 90.2578 7.37444C89.5655 6.35544 88.2448 5.93539 87.0832 5.93539C84.927 5.93539 83.0016 7.01662 82.5321 9.25687C82.4367 9.7547 82.0627 10.2448 81.5535 10.2681L76.0636 9.69247C75.6021 9.59135 75.0929 9.22575 75.2202 8.53346C76.4853 2.03053 82.4923 0.0703125 87.8709 0.0703125C90.6237 0.0703125 94.22 0.785946 96.3921 2.82394C99.145 5.33644 98.8824 8.68903 98.8824 12.3372V20.9559C98.8824 23.5462 99.9804 24.6819 101.015 26.082C101.381 26.5799 101.46 27.1788 100.999 27.5522C99.8452 28.4934 97.7924 30.2436 96.6626 31.2237L96.6467 31.2081Z" fill="#221F1F"/>
<path d="M16.7779 17.7278V16.5299C12.6884 16.5299 8.36807 17.3855 8.36807 22.0994C8.36807 24.4874 9.63313 26.1054 11.8052 26.1054C13.3965 26.1054 14.8207 25.1486 15.7197 23.5929C16.8336 21.6793 16.7779 19.8825 16.7779 17.7278ZM22.4826 31.2081C22.1087 31.5348 21.5677 31.5582 21.146 31.3404C19.2683 29.8158 18.9341 29.1079 17.8998 27.6533C14.7968 30.7492 12.6009 31.6749 8.57493 31.6749C3.81703 31.6749 0.109375 28.8045 0.109375 23.0562C0.109375 18.5679 2.59971 15.5109 6.14029 14.0174C9.21144 12.695 13.4999 12.4617 16.7779 12.0961V11.3804C16.7779 10.0658 16.8814 8.51012 16.0937 7.37444C15.4015 6.35544 14.0807 5.93539 12.9191 5.93539C10.7629 5.93539 8.83749 7.01662 8.36807 9.25687C8.27259 9.7547 7.89864 10.2448 7.38944 10.2681L1.89956 9.69247C1.43809 9.59135 0.928878 9.22575 1.05618 8.53346C2.32124 2.03053 8.32829 0.0703125 13.7068 0.0703125C16.4597 0.0703125 20.056 0.785946 22.228 2.82394C24.9809 5.33644 24.7184 8.68903 24.7184 12.3372V20.9559C24.7184 23.5462 25.8164 24.6819 26.8507 26.082C27.2167 26.5799 27.2962 27.1788 26.8348 27.5522C25.6811 28.4934 23.6284 30.2436 22.4986 31.2237L22.4826 31.2081Z" fill="#221F1F"/>
</g>
<defs>
<clipPath id="clip0_2956_9360">
<rect width="183" height="54" fill="white"/>
</clipPath>
</defs>
</svg>
