<svg width="163" height="36" viewBox="0 0 163 36" fill="none" xmlns="http://www.w3.org/2000/svg">
<path d="M68.0815 26.6591H54.0219L71.9712 2.90771C72.3624 2.38618 72.2537 1.62562 71.7322 1.23447C71.5366 1.08235 71.2758 0.995432 71.0151 0.995432H45.0472C42.7655 0.995432 40.8967 2.86425 40.8967 5.14595C40.8967 7.42764 42.7655 9.29646 45.0472 9.29646H56.7164L38.7019 33.0696C38.289 33.5911 38.3977 34.3299 38.9192 34.7428C39.1365 34.9166 39.3973 35.0036 39.658 34.9818H68.0597C70.3414 34.8732 72.1016 32.9174 71.9929 30.614C71.8843 28.4844 70.1893 26.7895 68.0597 26.6808V26.6591H68.0815ZM158.828 0.995432C156.546 0.995432 154.677 2.86425 154.677 5.14595V19.0752L132.251 1.27793C131.752 0.86505 130.991 0.930242 130.578 1.45177C130.404 1.66908 130.317 1.92984 130.317 2.21234V30.8313C130.317 33.113 132.186 34.9818 134.468 34.9818C136.75 34.9818 138.618 33.1347 138.618 30.8313V16.9021L161.044 34.7211C161.566 35.1339 162.326 35.047 162.739 34.5255C162.913 34.3082 163 34.0474 163 33.7867V5.14595C162.978 2.84252 161.131 0.995432 158.828 0.995432ZM99.4819 27.4414C89.9857 27.4414 82.9016 22.4434 82.9016 17.9669C82.9016 13.4904 90.0075 8.49243 99.4819 8.49243C108.978 8.49243 116.062 13.4904 116.062 17.9669C116.062 22.4434 109 27.4414 99.4819 27.4414ZM99.4819 0.191406C85.7483 0.191406 74.6006 8.14475 74.6006 17.9669C74.6006 27.7891 85.7483 35.7424 99.4819 35.7424C113.216 35.7424 124.363 27.7891 124.363 17.9669C124.363 8.14475 113.216 0.191406 99.4819 0.191406ZM17.7972 27.4631C12.5602 27.4631 8.30103 23.2257 8.30103 17.9886C8.30103 12.7516 12.5385 8.49243 17.7755 8.49243C23.0125 8.49243 27.2717 12.7299 27.2717 17.9669V17.9886C27.2717 23.2039 23.0343 27.4414 17.7972 27.4631ZM17.7972 0.191406C7.97507 0.191406 0.0217304 8.14475 0 17.9669C0 27.7891 7.95334 35.7424 17.7755 35.7641C27.5977 35.7641 35.551 27.8108 35.5727 17.9886V17.9669C35.551 8.14475 27.5977 0.191406 17.7972 0.191406Z" fill="white"/>
</svg>
