<svg width="210" height="62" viewBox="0 0 210 62" fill="none" xmlns="http://www.w3.org/2000/svg">
<g clip-path="url(#clip0_2755_13414)">
<path d="M130.251 48.4359C118.062 57.224 100.395 61.9128 85.1841 61.9128C63.8558 61.9128 44.6549 54.1964 30.1287 41.3626C28.9874 40.3533 30.01 38.978 31.3795 39.7639C47.0562 48.686 66.4397 54.0535 86.4623 54.0535C99.9659 54.0535 114.821 51.3206 128.48 45.6494C130.543 44.7921 132.269 46.9712 130.251 48.4359Z" fill="#FF9900"/>
<path d="M135.32 42.7647C133.768 40.8177 125.021 41.8448 121.095 42.3003C119.899 42.4432 119.716 41.425 120.794 40.6927C127.76 35.8967 139.191 37.281 140.524 38.8886C141.857 40.5051 140.177 51.7136 133.631 57.0632C132.626 57.8849 131.668 57.4473 132.115 56.3577C133.585 52.7674 136.881 44.7206 135.32 42.7647Z" fill="#FF9900"/>
<path d="M121.367 6.83697V2.17499C121.367 1.46944 121.914 0.996094 122.572 0.996094H143.909C144.594 0.996094 145.142 1.47837 145.142 2.17499V6.16715C145.133 6.83697 144.557 7.71221 143.535 9.09652L132.478 24.5382C136.587 24.44 140.924 25.0384 144.649 27.0925C145.489 27.5569 145.717 28.2357 145.781 28.9055V33.8801C145.781 34.5588 145.014 35.3537 144.211 34.9429C137.646 31.5759 128.927 31.2097 121.668 34.9786C120.928 35.3716 120.152 34.5856 120.152 33.9069V29.1824C120.152 28.4232 120.161 27.1282 120.938 25.9761L133.747 8.00694H122.599C121.914 8.00694 121.367 7.5336 121.367 6.83697Z" fill="#221F1F"/>
<path d="M43.53 35.9221H37.0384C36.4176 35.8774 35.9246 35.422 35.8789 34.8414V2.25219C35.8789 1.60022 36.4359 1.08222 37.1297 1.08222H43.1831C43.8131 1.109 44.3153 1.58236 44.3609 2.1718V6.4319H44.4796C46.0591 2.3147 49.0265 0.394531 53.0255 0.394531C57.0885 0.394531 59.6267 2.3147 61.4527 6.4319C63.0231 2.3147 66.593 0.394531 70.4186 0.394531C73.1394 0.394531 76.1159 1.49305 77.9328 3.95801C79.9871 6.69983 79.5671 10.6831 79.5671 14.1751L79.558 34.7432C79.558 35.3952 79.0011 35.9221 78.3072 35.9221H71.8247C71.1764 35.8774 70.656 35.3684 70.656 34.7432V17.4706C70.656 16.0953 70.7838 12.6657 70.4734 11.3618C69.9895 9.17372 68.5378 8.55748 66.657 8.55748C65.0866 8.55748 63.4431 9.58454 62.7766 11.2279C62.1101 12.8712 62.174 15.6219 62.174 17.4706V34.7432C62.174 35.3952 61.6171 35.9221 60.9232 35.9221H54.4407C53.7833 35.8774 53.272 35.3684 53.272 34.7432L53.2629 17.4706C53.2629 13.8357 53.8746 8.48603 49.2638 8.48603C44.5983 8.48603 44.7809 13.7017 44.7809 17.4706V34.7432C44.7809 35.3952 44.2239 35.9221 43.53 35.9221Z" fill="#221F1F"/>
<path d="M163.511 0.394531C173.143 0.394531 178.357 8.48603 178.357 18.7746C178.357 28.7148 172.595 36.6009 163.511 36.6009C154.052 36.6009 148.902 28.5094 148.902 18.4262C148.902 8.28062 154.116 0.394531 163.511 0.394531ZM163.566 7.04814C158.781 7.04814 158.48 13.4249 158.48 17.3992C158.48 21.3824 158.416 29.8847 163.511 29.8847C168.542 29.8847 168.779 23.0257 168.779 18.846C168.779 16.0953 168.66 12.8086 167.811 10.2008C167.081 7.93231 165.629 7.04814 163.566 7.04814Z" fill="#221F1F"/>
<path d="M190.849 35.9221H184.385C183.737 35.8774 183.216 35.3684 183.216 34.7432L183.207 2.14501C183.262 1.54663 183.8 1.08222 184.458 1.08222H190.475C191.041 1.109 191.506 1.48412 191.634 1.99318V6.97669H191.753C193.57 2.52011 196.117 0.394531 200.6 0.394531C203.513 0.394531 206.352 1.4216 208.178 4.23487C209.876 6.84272 209.876 11.2279 209.876 14.3805V34.895C209.803 35.4666 209.265 35.9221 208.626 35.9221H202.116C201.522 35.8774 201.029 35.4488 200.965 34.895V17.1938C200.965 13.6303 201.385 8.41458 196.902 8.41458C195.323 8.41458 193.871 9.45058 193.15 11.0224C192.237 13.0141 192.118 14.9967 192.118 17.1938V34.7432C192.109 35.3952 191.543 35.9221 190.849 35.9221Z" fill="#221F1F"/>
<path d="M104.358 20.3554V18.9801C99.6654 18.9801 94.7077 19.9625 94.7077 25.3747C94.7077 28.1165 96.1594 29.9741 98.6519 29.9741C100.478 29.9741 102.112 28.8756 103.144 27.0894C104.422 24.8924 104.358 22.8293 104.358 20.3554ZM110.905 35.8329C110.476 36.208 109.855 36.2348 109.371 35.9847C107.216 34.2342 106.833 33.4215 105.646 31.7514C102.085 35.3059 99.565 36.3687 94.945 36.3687C89.4852 36.3687 85.2305 33.0732 85.2305 26.4732C85.2305 21.32 88.0882 17.8101 92.1512 16.0953C95.6755 14.5771 100.597 14.3091 104.358 13.8894V13.0677C104.358 11.5584 104.477 9.77218 103.573 8.46826C102.779 7.29829 101.263 6.81601 99.9302 6.81601C97.4559 6.81601 95.2463 8.05742 94.7077 10.6296C94.5981 11.2011 94.169 11.7638 93.5846 11.7906L87.2848 11.1297C86.7552 11.0136 86.1709 10.5938 86.317 9.79898C87.7687 2.33265 94.662 0.0820312 100.834 0.0820312C103.993 0.0820312 108.12 0.903684 110.613 3.24361C113.772 6.12833 113.47 9.97759 113.47 14.1662V24.0618C113.47 27.0358 114.73 28.3398 115.917 29.9473C116.337 30.5189 116.429 31.2066 115.899 31.6353C114.575 32.716 112.219 34.7254 110.923 35.8507L110.905 35.8329Z" fill="#221F1F"/>
<path d="M19.2529 20.3554V18.9801C14.5599 18.9801 9.60219 19.9625 9.60219 25.3747C9.60219 28.1165 11.0539 29.9741 13.5465 29.9741C15.3725 29.9741 17.0068 28.8756 18.0385 27.0894C19.3168 24.8924 19.2529 22.8293 19.2529 20.3554ZM25.7992 35.8329C25.3701 36.208 24.7493 36.2348 24.2654 35.9847C22.1106 34.2342 21.7272 33.4215 20.5402 31.7514C16.9794 35.3059 14.4595 36.3687 9.83958 36.3687C4.37969 36.3687 0.125 33.0732 0.125 26.4732C0.125 21.32 2.98277 17.8101 7.04572 16.0953C10.57 14.5771 15.4912 14.3091 19.2529 13.8894V13.0677C19.2529 11.5584 19.3716 9.77218 18.4677 8.46826C17.6733 7.29829 16.1577 6.81601 14.8247 6.81601C12.3504 6.81601 10.1409 8.05742 9.60219 10.6296C9.49263 11.2011 9.06351 11.7638 8.47917 11.7906L2.17931 11.1297C1.64975 11.0136 1.06541 10.5938 1.2115 9.79898C2.66321 2.33265 9.55654 0.0820312 15.7286 0.0820312C18.8876 0.0820312 23.0145 0.903684 25.5071 3.24361C28.6661 6.12833 28.3648 9.97759 28.3648 14.1662V24.0618C28.3648 27.0358 29.6248 28.3398 30.8118 29.9473C31.2317 30.5189 31.323 31.2066 30.7935 31.6353C29.4696 32.716 27.114 34.7254 25.8175 35.8507L25.7992 35.8329Z" fill="#221F1F"/>
</g>
<defs>
<clipPath id="clip0_2755_13414">
<rect width="210" height="62" fill="white"/>
</clipPath>
</defs>
</svg>
