<svg width="249" height="66" viewBox="0 0 249 66" fill="none" xmlns="http://www.w3.org/2000/svg">
<g clip-path="url(#clip0_2755_13146)">
<mask id="mask0_2755_13146" style="mask-type:luminance" maskUnits="userSpaceOnUse" x="0" y="0" width="249" height="66">
<path d="M249 0H0V66H249V0Z" fill="white"/>
</mask>
<g mask="url(#mask0_2755_13146)">
<path d="M7.73291 46.9052L0.132812 19.0565H5.11825L10.9577 40.4458L17.216 19.0547L21.8633 19.0565L28.1434 40.5594L34.0092 19.0618L38.9945 19.0547L31.3911 46.9003L25.6125 46.8944L19.5415 26.0974L13.4649 46.8998L7.73291 46.9052Z" fill="white"/>
<path d="M42.4258 19.0703H47.1714V46.8865H42.4258V19.0703Z" fill="white"/>
<path d="M57.3194 42.5232H68.8726V46.8865H52.6719V19.0703H57.3194V42.5232Z" fill="white"/>
<path d="M83.477 19.1024C87.3717 19.1024 90.6119 20.4499 93.1648 23.1128C95.7503 25.7757 97.0595 29.0803 97.0595 32.9945C97.0595 36.8766 95.7503 40.1811 93.1648 42.8761C90.6119 45.5391 87.3717 46.8865 83.477 46.8865H72.3164V19.0703H83.477V19.1024ZM83.477 42.5553C86.1607 42.5553 88.3536 41.657 89.99 39.8603C91.6919 38.0637 92.5429 35.7537 92.5429 33.0265C92.5429 30.2353 91.6919 27.9895 89.99 26.1928C88.3209 24.3961 86.128 23.4978 83.477 23.4978H76.9967V42.5553H83.477Z" fill="white"/>
<path d="M122.095 38.9402C122.095 41.2193 121.277 43.1132 119.608 44.6219C117.938 46.1306 115.974 46.901 113.553 46.901H101.41V19.0703H112.669C114.993 19.0703 116.956 19.8408 118.56 21.2852C120.197 22.7618 120.982 24.5915 120.982 26.7743C120.982 29.2139 120 31.0757 118.102 32.456C120.589 33.7401 122.095 36.0512 122.095 38.9402ZM106.09 23.3718V30.6905H112.701C114.764 30.6905 116.334 29.0855 116.334 27.0312C116.334 24.9767 114.764 23.3718 112.701 23.3718H106.09ZM113.585 42.5996C115.745 42.5996 117.448 40.8983 117.448 38.7155C117.448 36.5327 115.745 34.8314 113.585 34.8314H106.09V42.6317H113.585V42.5996Z" fill="white"/>
<path d="M131.163 42.5354H143.731V46.901H126.516V19.0703H143.535V23.4359H131.163V30.6584H142.52V34.9919H131.163V42.5354Z" fill="white"/>
<path d="M164.086 46.901L158.064 36.7574H152.565V46.901H147.918V19.0703H159.274C161.828 19.0703 163.988 19.937 165.723 21.7025C167.489 23.4038 168.407 25.5224 168.407 28.0262C168.407 31.5572 166.148 34.7992 162.777 36.0833L169.224 46.901H164.086ZM152.565 23.3717V32.6806H159.242C161.729 32.6806 163.693 30.6263 163.693 28.0262C163.693 25.4582 161.697 23.3717 159.242 23.3717H152.565Z" fill="white"/>
<path d="M188.928 46.8998L182.939 36.7509H177.44V46.8998H172.793V19.0547H184.149C186.703 19.0547 188.863 19.9219 190.598 21.6883C192.364 23.3905 193.282 25.5101 193.282 28.0152C193.282 31.5481 191.023 34.7919 187.652 36.0765L194.099 46.8998H188.928ZM177.44 23.3583V32.6721H184.117C186.604 32.6721 188.568 30.6166 188.568 28.0152C188.568 25.446 186.572 23.3583 184.117 23.3583H177.44Z" fill="white"/>
<path d="M197.508 19.0625H202.156V46.9045H197.508V19.0625Z" fill="white"/>
<path d="M212.293 42.5354H224.861V46.9009H207.645V19.0703H224.664V23.4359H212.293V30.6584H223.649V34.9919H212.293V42.5354Z" fill="white"/>
<path d="M228.105 40.5677L232.131 38.2577C233.276 41.4019 235.6 42.9419 239.167 42.9419C242.702 42.9419 244.437 41.4661 244.437 39.2845C244.437 38.1295 243.946 37.2953 243.03 36.7178C242.113 36.1082 240.411 35.4344 237.99 34.7286C235.273 33.9265 233.931 33.4131 232.032 32.194C230.2 30.9107 229.283 29.0819 229.283 26.5794C229.283 24.109 230.167 22.1841 231.967 20.7403C233.735 19.2644 235.895 18.5586 238.415 18.5586C242.965 18.5586 246.466 20.8686 248.299 24.6865L244.371 26.9003C243.193 24.3336 241.197 23.0181 238.415 23.0181C235.698 23.0181 233.963 24.3657 233.963 26.4831C233.963 28.5366 235.338 29.499 239.691 30.8144C240.771 31.1674 241.557 31.4241 242.047 31.6165C242.571 31.777 243.258 32.0657 244.142 32.4186C245.059 32.7715 245.779 33.1886 246.205 33.5415C247.71 34.6965 249.313 36.5894 249.117 39.2524C249.117 41.7548 248.201 43.7761 246.335 45.2519C244.502 46.7278 242.081 47.4336 239.07 47.4336C233.571 47.4015 229.578 44.8348 228.105 40.5677Z" fill="white"/>
</g>
</g>
<defs>
<clipPath id="clip0_2755_13146">
<rect width="249" height="66" fill="white"/>
</clipPath>
</defs>
</svg>
