<svg width="225" height="60" viewBox="0 0 225 60" fill="none" xmlns="http://www.w3.org/2000/svg">
<g clip-path="url(#clip0_2956_8750)">
<mask id="mask0_2956_8750" style="mask-type:luminance" maskUnits="userSpaceOnUse" x="0" y="0" width="225" height="60">
<path d="M225 0H0V60H225V0Z" fill="white"/>
</mask>
<g mask="url(#mask0_2956_8750)">
<path d="M6.98866 42.639L0.121094 17.322H4.62601L9.90259 36.7668L15.5577 17.3203L19.757 17.322L25.4319 36.8701L30.7323 17.3268L35.237 17.3203L28.3666 42.6345L23.1449 42.6292L17.6591 23.7228L12.1682 42.634L6.98866 42.639Z" fill="white"/>
<path d="M38.3359 17.3359H42.6242V42.6234H38.3359V17.3359Z" fill="white"/>
<path d="M51.7972 38.6567H62.2369V42.6234H47.5977V17.3359H51.7972V38.6567Z" fill="white"/>
<path d="M75.4325 17.3651C78.9518 17.3651 81.8797 18.5901 84.1865 21.0109C86.5229 23.4318 87.7059 26.436 87.7059 29.9943C87.7059 33.5235 86.5229 36.5276 84.1865 38.9776C81.8797 41.3985 78.9518 42.6234 75.4325 42.6234H65.3477V17.3359H75.4325V17.3651ZM75.4325 38.6859C77.8576 38.6859 79.8391 37.8692 81.3178 36.2359C82.8557 34.6026 83.6246 32.5026 83.6246 30.0234C83.6246 27.486 82.8557 25.4443 81.3178 23.811C79.8095 22.1776 77.828 21.3609 75.4325 21.3609H69.5768V38.6859H75.4325Z" fill="white"/>
<path d="M110.327 35.3995C110.327 37.4714 109.589 39.1931 108.08 40.5647C106.572 41.9362 104.797 42.6365 102.609 42.6365H91.6367V17.3359H101.81C103.91 17.3359 105.684 18.0363 107.133 19.3495C108.613 20.6918 109.322 22.3552 109.322 24.3395C109.322 26.5574 108.435 28.2499 106.72 29.5048C108.967 30.6721 110.327 32.7731 110.327 35.3995ZM95.8656 21.2463V27.8998H101.839C103.703 27.8998 105.122 26.4407 105.122 24.5731C105.122 22.7054 103.703 21.2463 101.839 21.2463H95.8656ZM102.638 38.7262C104.59 38.7262 106.128 37.1795 106.128 35.1952C106.128 33.2108 104.59 31.6642 102.638 31.6642H95.8656V38.7554H102.638V38.7262Z" fill="white"/>
<path d="M118.523 38.6678H129.88V42.6365H114.324V17.3359H129.703V21.3047H118.523V27.8705H128.786V31.8101H118.523V38.6678Z" fill="white"/>
<path d="M148.27 42.6365L142.828 33.4151H137.859V42.6365H133.66V17.3359H143.922C146.229 17.3359 148.181 18.1238 149.749 19.7288C151.345 21.2755 152.174 23.2015 152.174 25.4777C152.174 28.6877 150.133 31.635 147.087 32.8022L152.913 42.6365H148.27ZM137.859 21.2462V29.709H143.893C146.14 29.709 147.915 27.8414 147.915 25.4777C147.915 23.1431 146.111 21.2462 143.893 21.2462H137.859Z" fill="white"/>
<path d="M170.721 42.634L165.308 33.4078H160.34V42.634H156.141V17.3203H166.402C168.71 17.3203 170.662 18.1087 172.229 19.7145C173.826 21.2619 174.654 23.1889 174.654 25.4662C174.654 28.6779 172.613 31.6268 169.567 32.7947L175.393 42.634H170.721ZM160.34 21.2327V29.6998H166.373C168.621 29.6998 170.395 27.8312 170.395 25.4662C170.395 23.1306 168.592 21.2327 166.373 21.2327H160.34Z" fill="white"/>
<path d="M178.473 17.3281H182.673V42.639H178.473V17.3281Z" fill="white"/>
<path d="M191.833 38.6678H203.19V42.6364H187.633V17.3359H203.012V21.3047H191.833V27.8705H202.095V31.8101H191.833V38.6678Z" fill="white"/>
<path d="M206.121 36.8794L209.759 34.7794C210.794 37.6377 212.894 39.0377 216.117 39.0377C219.311 39.0377 220.878 37.6961 220.878 35.7128C220.878 34.6628 220.435 33.9044 219.607 33.3794C218.778 32.8253 217.241 32.2127 215.053 31.5711C212.597 30.8419 211.385 30.3752 209.67 29.2669C208.014 28.1003 207.185 26.4377 207.185 24.1628C207.185 21.9169 207.984 20.167 209.61 18.8545C211.208 17.5127 213.16 16.8711 215.437 16.8711C219.548 16.8711 222.712 18.9711 224.369 22.4419L220.819 24.4544C219.754 22.1211 217.95 20.9252 215.437 20.9252C212.982 20.9252 211.414 22.1503 211.414 24.0752C211.414 25.942 212.656 26.8169 216.59 28.0127C217.566 28.3336 218.276 28.567 218.719 28.7419C219.193 28.8878 219.813 29.1503 220.612 29.4711C221.441 29.7919 222.091 30.1711 222.476 30.4919C223.836 31.5419 225.285 33.2627 225.107 35.6836C225.107 37.9586 224.28 39.7961 222.594 41.1377C220.937 42.4795 218.749 43.1211 216.029 43.1211C211.06 43.0919 207.451 40.7586 206.121 36.8794Z" fill="white"/>
</g>
</g>
<defs>
<clipPath id="clip0_2956_8750">
<rect width="225" height="60" fill="white"/>
</clipPath>
</defs>
</svg>
