<svg width="192" height="42" viewBox="0 0 192 42" fill="none" xmlns="http://www.w3.org/2000/svg">
<path d="M80.1941 31.204H63.6331L84.7759 3.22692C85.2366 2.6126 85.1087 1.71672 84.4943 1.25598C84.264 1.0768 83.9568 0.974417 83.6497 0.974417H53.0617C50.3741 0.974417 48.1728 3.17572 48.1728 5.86337C48.1728 8.55101 50.3741 10.7523 53.0617 10.7523H66.8071L45.5875 38.755C45.1012 39.3693 45.2292 40.2396 45.8435 40.7259C46.0995 40.9307 46.4066 41.0331 46.7138 41.0075H80.1685C82.8562 40.8795 84.9295 38.5758 84.8015 35.8626C84.6735 33.3541 82.677 31.3576 80.1685 31.2296V31.204H80.1941ZM187.085 0.974417C184.398 0.974417 182.197 3.17572 182.197 5.86337V22.2708L155.781 1.30717C155.192 0.820838 154.296 0.897629 153.81 1.51195C153.605 1.76791 153.503 2.07507 153.503 2.40783V36.1185C153.503 38.8062 155.704 41.0075 158.392 41.0075C161.079 41.0075 163.281 38.8318 163.281 36.1185V19.7111L189.696 40.7003C190.311 41.1867 191.207 41.0843 191.693 40.47C191.898 40.214 192 39.9068 192 39.5997V5.86337C191.974 3.15013 189.799 0.974417 187.085 0.974417ZM117.181 32.1255C105.995 32.1255 97.651 26.2383 97.651 20.9654C97.651 15.6925 106.021 9.80524 117.181 9.80524C128.367 9.80524 136.711 15.6925 136.711 20.9654C136.711 26.2383 128.392 32.1255 117.181 32.1255ZM117.181 0.0273438C101.004 0.0273438 87.8731 9.3957 87.8731 20.9654C87.8731 32.535 101.004 41.9034 117.181 41.9034C133.358 41.9034 146.489 32.535 146.489 20.9654C146.489 9.3957 133.358 0.0273438 117.181 0.0273438ZM20.9636 32.1511C14.7948 32.1511 9.7779 27.1597 9.7779 20.9909C9.7779 14.8222 14.7692 9.80524 20.938 9.80524C27.1068 9.80524 32.1237 14.7966 32.1237 20.9654V20.9909C32.1237 27.1341 27.1324 32.1255 20.9636 32.1511ZM20.9636 0.0273438C9.39395 0.0273438 0.0255966 9.3957 0 20.9654C0 32.535 9.36835 41.9034 20.938 41.929C32.5077 41.929 41.876 32.5606 41.9016 20.9909V20.9654C41.876 9.3957 32.5077 0.0273438 20.9636 0.0273438Z" fill="white"/>
</svg>
