<svg width="186" height="42" viewBox="0 0 186 42" fill="none" xmlns="http://www.w3.org/2000/svg">
<rect width="186" height="42" rx="4" fill="url(#paint0_linear_2755_10668)"/>
<g clip-path="url(#clip0_2755_10668)">
<mask id="mask0_2755_10668" style="mask-type:luminance" maskUnits="userSpaceOnUse" x="20" y="0" width="146" height="42">
<path d="M166 0.75H20V41.25H166V0.75Z" fill="white"/>
</mask>
<g mask="url(#mask0_2755_10668)">
<path d="M24.5344 29.5315L20.0781 12.4425H23.0013L26.4252 25.5678L30.0948 12.4414L32.8197 12.4425L36.502 25.6375L39.9414 12.4458L42.8645 12.4414L38.4063 29.5285L35.018 29.5249L31.4583 16.7631L27.8953 29.5282L24.5344 29.5315Z" fill="white"/>
<path d="M44.8828 12.4492H47.6654V29.5183H44.8828V12.4492Z" fill="white"/>
<path d="M53.6078 26.8408H60.3821V29.5183H50.8828V12.4492H53.6078V26.8408Z" fill="white"/>
<path d="M68.9424 12.4689C71.226 12.4689 73.1259 13.2958 74.6228 14.9298C76.1388 16.5639 76.9065 18.5917 76.9065 20.9936C76.9065 23.3758 76.1388 25.4036 74.6228 27.0573C73.1259 28.6914 71.226 29.5183 68.9424 29.5183H62.3984V12.4492H68.9424V12.4689ZM68.9424 26.8604C70.516 26.8604 71.8017 26.3092 72.7613 25.2067C73.7592 24.1042 74.2581 22.6867 74.2581 21.0133C74.2581 19.3005 73.7592 17.9224 72.7613 16.8199C71.7826 15.7173 70.4968 15.1661 68.9424 15.1661H65.1427V26.8604H68.9424Z" fill="white"/>
<path d="M91.5892 24.6421C91.5892 26.0406 91.1098 27.2028 90.131 28.1286C89.1522 29.0544 88.0006 29.5271 86.5807 29.5271H79.4609V12.4492H86.0624C87.4251 12.4492 88.5761 12.922 89.5166 13.8084C90.4765 14.7144 90.937 15.8372 90.937 17.1766C90.937 18.6737 90.3609 19.8162 89.2483 20.6632C90.7065 21.4511 91.5892 22.8693 91.5892 24.6421ZM82.205 15.0887V19.5798H86.0813C87.2907 19.5798 88.2117 18.5949 88.2117 17.3343C88.2117 16.0736 87.2907 15.0887 86.0813 15.0887H82.205ZM86.5996 26.8877C87.8662 26.8877 88.8644 25.8436 88.8644 24.5042C88.8644 23.1648 87.8662 22.1208 86.5996 22.1208H82.205V26.9073H86.5996V26.8877Z" fill="white"/>
<path d="M96.9044 26.8482H104.274V29.5271H94.1797V12.4492H104.159V15.1281H96.9044V19.5601H103.564V22.2193H96.9044V26.8482Z" fill="white"/>
<path d="M116.215 29.5271L112.683 23.3026H109.459V29.5271H106.734V12.4492H113.393C114.89 12.4492 116.157 12.981 117.174 14.0644C118.21 15.1084 118.748 16.4085 118.748 17.9449C118.748 20.1116 117.423 22.1011 115.447 22.889L119.227 29.5271H116.215ZM109.459 15.0887V20.801H113.374C114.833 20.801 115.984 19.5404 115.984 17.9449C115.984 16.369 114.814 15.0887 113.374 15.0887H109.459Z" fill="white"/>
<path d="M130.773 29.5282L127.261 23.3005H124.037V29.5282H121.312V12.4414H127.971C129.468 12.4414 130.735 12.9735 131.752 14.0575C132.788 15.102 133.326 16.4027 133.326 17.9399C133.326 20.1078 132.002 22.0983 130.025 22.8866L133.805 29.5282H130.773ZM124.037 15.0823V20.7976H127.952C129.411 20.7976 130.562 19.5362 130.562 17.9399C130.562 16.3633 129.392 15.0823 127.952 15.0823H124.037Z" fill="white"/>
<path d="M135.805 12.4453H138.53V29.5302H135.805V12.4453Z" fill="white"/>
<path d="M144.483 26.8482H151.852V29.5271H141.758V12.4492H151.737V15.1281H144.483V19.5601H151.142V22.2193H144.483V26.8482Z" fill="white"/>
<path d="M153.75 25.6423L156.11 24.2248C156.782 26.1542 158.145 27.0992 160.236 27.0992C162.309 27.0992 163.326 26.1936 163.326 24.8549C163.326 24.1461 163.038 23.6342 162.501 23.2799C161.963 22.9058 160.965 22.4923 159.546 22.0592C157.952 21.567 157.166 21.252 156.053 20.5039C154.978 19.7164 154.44 18.5942 154.44 17.0586C154.44 15.5426 154.959 14.3614 156.014 13.4755C157.051 12.5698 158.317 12.1367 159.795 12.1367C162.463 12.1367 164.516 13.5542 165.591 15.897L163.287 17.2555C162.596 15.6805 161.426 14.8733 159.795 14.8733C158.202 14.8733 157.185 15.7001 157.185 16.9995C157.185 18.2596 157.991 18.8502 160.543 19.6573C161.177 19.8739 161.637 20.0314 161.925 20.1495C162.232 20.248 162.635 20.4252 163.153 20.6417C163.691 20.8583 164.113 21.1142 164.362 21.3308C165.245 22.0395 166.185 23.2011 166.07 24.8352C166.07 26.3708 165.533 27.6111 164.439 28.5167C163.364 29.4224 161.944 29.8555 160.179 29.8555C156.955 29.8358 154.613 28.2608 153.75 25.6423Z" fill="white"/>
</g>
</g>
<defs>
<linearGradient id="paint0_linear_2755_10668" x1="0" y1="0" x2="72.9619" y2="114.212" gradientUnits="userSpaceOnUse">
<stop stop-color="#570F8D"/>
<stop offset="1" stop-color="#E6559F"/>
</linearGradient>
<clipPath id="clip0_2755_10668">
<rect width="146" height="18" fill="white" transform="translate(20 12)"/>
</clipPath>
</defs>
</svg>
