<svg width="242" height="42" viewBox="0 0 242 42" fill="none" xmlns="http://www.w3.org/2000/svg">
<rect width="242" height="42" rx="4" fill="white"/>
<g clip-path="url(#clip0_3347_7157)">
<path d="M130.858 30.7477C126.098 34.1496 119.2 35.9646 113.26 35.9646C104.932 35.9646 97.4346 32.9776 91.7624 28.0097C91.3168 27.619 91.7161 27.0866 92.2508 27.3908C98.3722 30.8445 105.941 32.9223 113.759 32.9223C119.032 32.9223 124.833 31.8644 130.166 29.6691C130.972 29.3372 131.646 30.1808 130.858 30.7477Z" fill="#FF9900"/>
<path d="M132.841 28.5544C132.235 27.8008 128.819 28.1984 127.286 28.3747C126.819 28.43 126.748 28.0359 127.168 27.7524C129.889 25.8959 134.352 26.4317 134.873 27.054C135.393 27.6798 134.737 32.0185 132.181 34.0894C131.789 34.4074 131.415 34.238 131.589 33.8163C132.163 32.4265 133.45 29.3116 132.841 28.5544Z" fill="#FF9900"/>
<path d="M127.388 14.6477V12.8431C127.388 12.5699 127.602 12.3867 127.859 12.3867H136.191C136.458 12.3867 136.672 12.5734 136.672 12.8431V14.3884C136.668 14.6477 136.444 14.9865 136.044 15.5224L131.727 21.4998C133.331 21.4618 135.025 21.6934 136.479 22.4886C136.807 22.6683 136.896 22.9311 136.921 23.1904V25.116C136.921 25.3788 136.622 25.6864 136.308 25.5274C133.745 24.2241 130.34 24.0823 127.506 25.5412C127.217 25.6934 126.914 25.3891 126.914 25.1264V23.2975C126.914 23.0037 126.918 22.5024 127.221 22.0564L132.223 15.1006H127.87C127.602 15.1006 127.388 14.9174 127.388 14.6477Z" fill="#221F1F"/>
<path d="M96.9954 25.905H94.4606C94.2182 25.8877 94.0256 25.7114 94.0078 25.4866V12.8714C94.0078 12.6191 94.2253 12.4185 94.4962 12.4185H96.8599C97.1059 12.4289 97.302 12.6121 97.3198 12.8403V14.4894H97.3662C97.9829 12.8956 99.1416 12.1523 100.703 12.1523C102.29 12.1523 103.281 12.8956 103.994 14.4894C104.607 12.8956 106.001 12.1523 107.495 12.1523C108.557 12.1523 109.719 12.5776 110.429 13.5318C111.231 14.5931 111.067 16.135 111.067 17.4868L111.063 25.4486C111.063 25.701 110.846 25.905 110.575 25.905H108.044C107.791 25.8877 107.587 25.6906 107.587 25.4486V18.7624C107.587 18.23 107.637 16.9025 107.516 16.3977C107.327 15.5507 106.76 15.3122 106.026 15.3122C105.413 15.3122 104.771 15.7098 104.511 16.3459C104.25 16.982 104.275 18.0468 104.275 18.7624V25.4486C104.275 25.701 104.058 25.905 103.787 25.905H101.256C100.999 25.8877 100.799 25.6906 100.799 25.4486L100.796 18.7624C100.796 17.3554 101.035 15.2845 99.2343 15.2845C97.4125 15.2845 97.4838 17.3035 97.4838 18.7624V25.4486C97.4838 25.701 97.2664 25.905 96.9954 25.905Z" fill="#221F1F"/>
<path d="M143.845 12.1523C147.606 12.1523 149.642 15.2845 149.642 19.2672C149.642 23.115 147.392 26.1677 143.845 26.1677C140.151 26.1677 138.141 23.0355 138.141 19.1324C138.141 15.205 140.176 12.1523 143.845 12.1523ZM143.866 14.7279C141.998 14.7279 141.88 17.1963 141.88 18.7348C141.88 20.2767 141.856 23.5679 143.845 23.5679C145.809 23.5679 145.902 20.9128 145.902 19.2948C145.902 18.23 145.856 16.9578 145.524 15.9483C145.239 15.0702 144.672 14.7279 143.866 14.7279Z" fill="#221F1F"/>
<path d="M154.523 25.905H151.999C151.746 25.8877 151.543 25.6906 151.543 25.4486L151.539 12.8299C151.56 12.5983 151.771 12.4185 152.027 12.4185H154.377C154.598 12.4289 154.78 12.5741 154.83 12.7712V14.7003H154.876C155.585 12.9751 156.58 12.1523 158.331 12.1523C159.468 12.1523 160.577 12.5499 161.29 13.6389C161.953 14.6484 161.953 16.3459 161.953 17.5663V25.5074C161.924 25.7286 161.714 25.905 161.464 25.905H158.922C158.691 25.8877 158.498 25.7217 158.473 25.5074V18.6553C158.473 17.2759 158.637 15.2569 156.887 15.2569C156.27 15.2569 155.703 15.6579 155.421 16.2664C155.065 17.0373 155.019 17.8048 155.019 18.6553V25.4486C155.015 25.701 154.794 25.905 154.523 25.905Z" fill="#221F1F"/>
<path d="M120.75 19.879V19.3466C118.918 19.3466 116.982 19.7269 116.982 21.8219C116.982 22.8833 117.549 23.6024 118.522 23.6024C119.235 23.6024 119.873 23.1772 120.276 22.4857C120.775 21.6353 120.75 20.8367 120.75 19.879ZM123.306 25.8703C123.139 26.0155 122.896 26.0259 122.707 25.9291C121.866 25.2515 121.716 24.9369 121.253 24.2904C119.863 25.6663 118.879 26.0777 117.075 26.0777C114.943 26.0777 113.281 24.802 113.281 22.2472C113.281 20.2524 114.397 18.8937 115.984 18.2299C117.36 17.6422 119.281 17.5385 120.75 17.376V17.058C120.75 16.4737 120.797 15.7823 120.444 15.2775C120.133 14.8246 119.542 14.638 119.021 14.638C118.055 14.638 117.192 15.1185 116.982 16.1142C116.939 16.3354 116.772 16.5532 116.543 16.5636L114.083 16.3078C113.877 16.2628 113.648 16.1003 113.706 15.7926C114.272 12.9025 116.964 12.0312 119.374 12.0312C120.608 12.0312 122.219 12.3493 123.192 13.2551C124.426 14.3718 124.308 15.8618 124.308 17.4832V21.3137C124.308 22.465 124.8 22.9697 125.264 23.592C125.428 23.8133 125.463 24.0795 125.257 24.2454C124.74 24.6637 123.82 25.4416 123.314 25.8772L123.306 25.8703Z" fill="#221F1F"/>
<path d="M87.5159 19.879V19.3466C85.6834 19.3466 83.7475 19.7269 83.7475 21.8219C83.7475 22.8833 84.3143 23.6024 85.2876 23.6024C86.0007 23.6024 86.6388 23.1772 87.0417 22.4857C87.5408 21.6353 87.5159 20.8367 87.5159 19.879ZM90.0721 25.8703C89.9045 26.0155 89.6621 26.0259 89.4731 25.9291C88.6317 25.2515 88.482 24.9369 88.0185 24.2904C86.6281 25.6663 85.6442 26.0777 83.8402 26.0777C81.7082 26.0777 80.0469 24.802 80.0469 22.2472C80.0469 20.2524 81.1628 18.8937 82.7493 18.2299C84.1254 17.6422 86.047 17.5385 87.5159 17.376V17.058C87.5159 16.4737 87.5622 15.7823 87.2092 15.2775C86.8991 14.8246 86.3073 14.638 85.7868 14.638C84.8206 14.638 83.9578 15.1185 83.7475 16.1142C83.7047 16.3354 83.5371 16.5532 83.309 16.5636L80.849 16.3078C80.6423 16.2628 80.4141 16.1003 80.4711 15.7926C81.038 12.9025 83.7297 12.0312 86.1397 12.0312C87.3732 12.0312 88.9847 12.3493 89.958 13.2551C91.1915 14.3718 91.0739 15.8618 91.0739 17.4832V21.3137C91.0739 22.465 91.5659 22.9697 92.0293 23.592C92.1933 23.8133 92.229 24.0795 92.0222 24.2454C91.5052 24.6637 90.5854 25.4416 90.0792 25.8772L90.0721 25.8703Z" fill="#221F1F"/>
</g>
<defs>
<clipPath id="clip0_3347_7157">
<rect width="82" height="24" fill="white" transform="translate(80 12)"/>
</clipPath>
</defs>
</svg>
