<svg width="162" height="42" viewBox="0 0 162 42" fill="none" xmlns="http://www.w3.org/2000/svg">
<rect width="162" height="42" rx="4" fill="white"/>
<mask id="mask0_2487_79" style="mask-type:luminance" maskUnits="userSpaceOnUse" x="6" y="7" width="150" height="28">
<path d="M156 7.09766H6V34.9026H156V7.09766Z" fill="white"/>
</mask>
<g mask="url(#mask0_2487_79)">
<path d="M30.1135 15.8811H30.6314C32.3825 15.8811 33.8049 17.3027 33.8049 19.0527V22.9474C33.8049 24.6976 32.3825 26.119 30.6314 26.119H26.4714C25.4848 26.119 25.0162 26.6202 25.0162 27.5733V31.731C25.0162 33.481 23.5939 34.9026 21.8427 34.9026H17.9458C16.1946 34.9026 14.7723 33.481 14.7723 31.731C14.7723 31.731 14.7723 28.6169 14.7723 27.5733C14.7723 26.5381 14.2625 26.119 13.3088 26.119H9.17347C7.42231 26.1108 6 24.6894 6 22.9392V19.0445C6 17.2944 7.42231 15.873 9.17347 15.873H13.3253C14.2461 15.873 14.7887 15.3553 14.7887 14.394V10.2693C14.7887 8.5191 16.211 7.09766 17.9622 7.09766H21.8592C23.6103 7.09766 25.0326 8.5191 25.0326 10.2693V14.4021C25.0326 15.4128 25.4025 15.8811 26.4631 15.8811H27.1948L25.0573 18.7981C23.4212 18.6666 22.114 17.2944 22.114 15.6265V11.4853C22.114 10.4747 21.7276 10.0145 20.6424 10.0145H19.1625C18.2417 10.0145 17.7073 10.5076 17.7073 11.4853V15.6265C17.7073 17.3766 16.285 18.7981 14.5338 18.7981H10.3902C9.32146 18.7981 8.91861 19.4965 8.91861 20.2771V21.7396C8.91861 22.6188 9.453 23.2021 10.3738 23.2021H14.5338C16.285 23.2021 17.7073 24.6236 17.7073 26.3738V30.5231C17.7073 31.4598 18.1759 31.9856 19.1461 31.9856H20.6342C21.5549 31.9856 22.1058 31.4269 22.1058 30.5066V26.3738C22.1058 24.6236 23.5281 23.2021 25.2792 23.2021H29.4393C30.4423 23.2021 30.8945 22.6927 30.8945 21.7232V20.2606C30.8945 19.2582 30.3683 18.7981 29.4064 18.7981H27.9758L30.1135 15.8811Z" fill="url(#paint0_linear_2487_79)"/>
<path d="M66.5489 12.9504L73.1719 29.048H70.1134L68.5728 25.2302H61.1908L59.6728 29.048H56.7549L63.2823 12.9504H66.5489ZM62.2253 22.5876H67.5159L64.8734 15.9866L62.2253 22.5876Z" fill="#8168F0"/>
<path d="M86.8923 15.5987H78.3183V29.048H75.4453V12.9504H89.7709V29.048H86.8979V15.5987H86.8923Z" fill="#8168F0"/>
<path d="M105.817 15.5997H100.391V29.049H97.5182V15.5997H92.1826V12.957H105.817V15.5997Z" fill="#8168F0"/>
<path d="M118.509 22.0815H111.104V26.4054H119.61V29.048H108.231V12.9504H119.358V15.5931H111.104V19.4333H118.509V22.0815Z" fill="#8168F0"/>
<path d="M54.3273 22.0815H46.9228V26.4054H55.4292V29.048H44.0498V12.9504H55.1762V15.5931H46.9228V19.4333H54.3273V22.0815Z" fill="#8168F0"/>
<path d="M125.908 29.048H123.035V12.9504H125.908V19.7088H128.321L133.493 12.9504H136.99L130.85 20.6084L137.979 29.048H134.302L128.461 22.0815H125.908V29.048Z" fill="#8168F0"/>
<path d="M148.057 12.9504L154.68 29.048H151.621L150.08 25.2302H142.699L141.18 29.048H138.263L144.791 12.9504H148.057ZM143.733 22.5876H149.024L146.381 15.9866L143.733 22.5876Z" fill="#8168F0"/>
</g>
<defs>
<linearGradient id="paint0_linear_2487_79" x1="13.8108" y1="31.5405" x2="26.3632" y2="9.78613" gradientUnits="userSpaceOnUse">
<stop stop-color="#8168F0"/>
<stop offset="0.137" stop-color="#7F6DF0"/>
<stop offset="0.2924" stop-color="#787AF0"/>
<stop offset="0.4568" stop-color="#6C91F1"/>
<stop offset="0.6273" stop-color="#5DB1F1"/>
<stop offset="0.8012" stop-color="#48D9F2"/>
<stop offset="0.8195" stop-color="#46DEF2"/>
<stop offset="1" stop-color="#50E3C2"/>
</linearGradient>
</defs>
</svg>
