<svg width="335" height="42" viewBox="0 0 335 42" fill="none" xmlns="http://www.w3.org/2000/svg">
<rect width="335" height="42" rx="4" fill="white"/>
<g clip-path="url(#clip0_3347_7219)">
<path d="M178.683 29.5927C173.285 33.4198 165.461 35.4617 158.725 35.4617C149.279 35.4617 140.776 32.1013 134.343 26.5123C133.837 26.0729 134.29 25.4739 134.897 25.8162C141.839 29.7016 150.423 32.0391 159.291 32.0391C165.271 32.0391 171.849 30.8489 177.898 28.3792C178.812 28.0058 179.576 28.9548 178.683 29.5927Z" fill="#FF9900"/>
<path d="M180.928 27.1233C180.24 26.2754 176.367 26.7227 174.628 26.921C174.099 26.9833 174.018 26.5399 174.495 26.2209C177.58 24.1324 182.642 24.7352 183.233 25.4353C183.823 26.1393 183.079 31.0204 180.18 33.3501C179.735 33.7079 179.31 33.5173 179.509 33.0428C180.16 31.4793 181.619 27.975 180.928 27.1233Z" fill="#FF9900"/>
<path d="M174.749 11.4772V9.44698C174.749 9.13973 174.991 8.93359 175.282 8.93359H184.732C185.035 8.93359 185.278 9.14362 185.278 9.44698V11.1855C185.274 11.4772 185.019 11.8584 184.566 12.4612L179.67 19.1858C181.489 19.143 183.41 19.4036 185.059 20.2982C185.431 20.5004 185.532 20.796 185.561 21.0877V23.254C185.561 23.5496 185.221 23.8958 184.865 23.7169C181.958 22.2506 178.097 22.0911 174.882 23.7324C174.555 23.9036 174.211 23.5613 174.211 23.2657V21.2083C174.211 20.8777 174.215 20.3137 174.559 19.812L180.232 11.9867H175.295C174.991 11.9867 174.749 11.7806 174.749 11.4772Z" fill="#221F1F"/>
<path d="M140.279 24.1436H137.404C137.129 24.1241 136.911 23.9258 136.891 23.6729V9.48085C136.891 9.19693 137.137 8.97135 137.445 8.97135H140.125C140.404 8.98301 140.627 9.18915 140.647 9.44585V11.3011H140.7C141.399 9.50808 142.713 8.67188 144.484 8.67188C146.283 8.67188 147.407 9.50808 148.216 11.3011C148.912 9.50808 150.493 8.67188 152.187 8.67188C153.392 8.67188 154.71 9.15026 155.514 10.2237C156.424 11.4177 156.238 13.1524 156.238 14.6731L156.234 23.6302C156.234 23.9141 155.988 24.1436 155.68 24.1436H152.809C152.522 24.1241 152.292 23.9024 152.292 23.6302V16.1082C152.292 15.5093 152.349 14.0158 152.211 13.4479C151.997 12.4951 151.354 12.2267 150.521 12.2267C149.825 12.2267 149.098 12.674 148.802 13.3896C148.507 14.1052 148.536 15.3032 148.536 16.1082V23.6302C148.536 23.9141 148.289 24.1436 147.982 24.1436H145.111C144.82 24.1241 144.593 23.9024 144.593 23.6302L144.589 16.1082C144.589 14.5253 144.86 12.1956 142.818 12.1956C140.752 12.1956 140.833 14.4669 140.833 16.1082V23.6302C140.833 23.9141 140.586 24.1436 140.279 24.1436Z" fill="#221F1F"/>
<path d="M193.415 8.67188C197.681 8.67188 199.989 12.1956 199.989 16.6761C199.989 21.0049 197.438 24.4391 193.415 24.4391C189.226 24.4391 186.945 20.9154 186.945 16.5244C186.945 12.1061 189.254 8.67188 193.415 8.67188ZM193.439 11.5694C191.32 11.5694 191.187 14.3464 191.187 16.0771C191.187 17.8118 191.159 21.5144 193.415 21.5144C195.643 21.5144 195.748 18.5274 195.748 16.7072C195.748 15.5093 195.695 14.078 195.319 12.9423C194.996 11.9545 194.353 11.5694 193.439 11.5694Z" fill="#221F1F"/>
<path d="M205.517 24.1436H202.654C202.367 24.1241 202.137 23.9024 202.137 23.6302L202.133 9.43418C202.157 9.1736 202.396 8.97135 202.687 8.97135H205.351C205.602 8.98301 205.808 9.14637 205.865 9.36806V11.5383H205.917C206.722 9.59753 207.85 8.67188 209.835 8.67188C211.125 8.67188 212.383 9.11915 213.191 10.3443C213.944 11.48 213.944 13.3896 213.944 14.7625V23.6963C213.911 23.9452 213.673 24.1436 213.39 24.1436H210.507C210.244 24.1241 210.026 23.9374 209.997 23.6963V15.9877C209.997 14.4358 210.183 12.1645 208.198 12.1645C207.498 12.1645 206.855 12.6156 206.536 13.3002C206.132 14.1675 206.079 15.0309 206.079 15.9877V23.6302C206.075 23.9141 205.824 24.1436 205.517 24.1436Z" fill="#221F1F"/>
<path d="M167.213 17.3639V16.7649C165.135 16.7649 162.939 17.1928 162.939 19.5497C162.939 20.7437 163.582 21.5527 164.686 21.5527C165.495 21.5527 166.218 21.0743 166.675 20.2964C167.241 19.3397 167.213 18.4412 167.213 17.3639ZM170.112 24.1041C169.922 24.2674 169.647 24.2791 169.433 24.1702C168.479 23.4079 168.309 23.054 167.783 22.3267C166.206 23.8746 165.09 24.3374 163.044 24.3374C160.626 24.3374 158.742 22.9023 158.742 20.0281C158.742 17.7839 160.008 16.2554 161.807 15.5087C163.368 14.8475 165.547 14.7308 167.213 14.548V14.1902C167.213 13.5329 167.266 12.7551 166.865 12.1872C166.514 11.6777 165.842 11.4677 165.252 11.4677C164.156 11.4677 163.178 12.0083 162.939 13.1284C162.891 13.3774 162.701 13.6224 162.442 13.634L159.652 13.3462C159.417 13.2957 159.159 13.1129 159.223 12.7667C159.866 9.51527 162.919 8.53516 165.652 8.53516C167.051 8.53516 168.879 8.89297 169.983 9.91197C171.382 11.1682 171.248 12.8445 171.248 14.6686V18.978C171.248 20.2731 171.806 20.8409 172.332 21.541C172.518 21.7899 172.558 22.0894 172.324 22.2761C171.738 22.7467 170.694 23.6218 170.12 24.1119L170.112 24.1041Z" fill="#221F1F"/>
<path d="M129.526 17.3639V16.7649C127.447 16.7649 125.252 17.1928 125.252 19.5497C125.252 20.7437 125.895 21.5527 126.998 21.5527C127.807 21.5527 128.531 21.0743 128.988 20.2964C129.554 19.3397 129.526 18.4412 129.526 17.3639ZM132.425 24.1041C132.235 24.2674 131.96 24.2791 131.745 24.1702C130.791 23.4079 130.621 23.054 130.096 22.3267C128.519 23.8746 127.403 24.3374 125.357 24.3374C122.939 24.3374 121.055 22.9023 121.055 20.0281C121.055 17.7839 122.32 16.2554 124.12 15.5087C125.68 14.8475 127.86 14.7308 129.526 14.548V14.1902C129.526 13.5329 129.578 12.7551 129.178 12.1872C128.826 11.6777 128.155 11.4677 127.565 11.4677C126.469 11.4677 125.49 12.0083 125.252 13.1284C125.203 13.3774 125.013 13.6224 124.754 13.634L121.964 13.3462C121.73 13.2957 121.471 13.1129 121.536 12.7667C122.179 9.51527 125.232 8.53516 127.965 8.53516C129.364 8.53516 131.191 8.89297 132.295 9.91197C133.694 11.1682 133.561 12.8445 133.561 14.6686V18.978C133.561 20.2731 134.119 20.8409 134.645 21.541C134.831 21.7899 134.871 22.0894 134.636 22.2761C134.05 22.7467 133.007 23.6218 132.433 24.1119L132.425 24.1041Z" fill="#221F1F"/>
</g>
<defs>
<clipPath id="clip0_3347_7219">
<rect width="93" height="27" fill="white" transform="translate(121 8.5)"/>
</clipPath>
</defs>
</svg>
