<svg width="162" height="42" viewBox="0 0 162 42" fill="none" xmlns="http://www.w3.org/2000/svg">
<rect x="0.5" width="161.5" height="42" rx="4" fill="url(#paint0_linear_2838_8660)"/>
<g clip-path="url(#clip0_2838_8660)">
<mask id="mask0_2838_8660" style="mask-type:luminance" maskUnits="userSpaceOnUse" x="20" y="5" width="123" height="32">
<path d="M142.25 5.25H20.25V36.75H142.25V5.25Z" fill="white"/>
</mask>
<g mask="url(#mask0_2838_8660)">
<path d="M24.0362 27.6361L20.3125 14.3446H22.7552L25.6162 24.5531L28.6826 14.3438L30.9595 14.3446L34.0366 24.6074L36.9105 14.3471L39.3531 14.3438L35.6278 27.6337L32.7965 27.6309L29.822 17.705L26.8447 27.6335L24.0362 27.6361Z" fill="white"/>
<path d="M41.0391 14.3477H43.3642V27.6236H41.0391V14.3477Z" fill="white"/>
<path d="M48.3318 25.5411H53.9924V27.6236H46.0547V14.3477H48.3318V25.5411Z" fill="white"/>
<path d="M61.1479 14.363C63.0562 14.363 64.6437 15.0061 65.8945 16.277C67.1614 17.548 67.8028 19.1252 67.8028 20.9933C67.8028 22.8461 67.1614 24.4233 65.8945 25.7095C64.6437 26.9805 63.0562 27.6236 61.1479 27.6236H55.6797V14.3477H61.1479V14.363ZM61.1479 25.5564C62.4628 25.5564 63.5372 25.1276 64.339 24.2702C65.1729 23.4127 65.5898 22.3102 65.5898 21.0086C65.5898 19.6764 65.1729 18.6045 64.339 17.747C63.5212 16.8895 62.4468 16.4608 61.1479 16.4608H57.9728V25.5564H61.1479Z" fill="white"/>
<path d="M80.072 23.831C80.072 24.9188 79.6715 25.8227 78.8536 26.5427C78.0357 27.2628 77.0734 27.6305 75.8869 27.6305H69.9375V14.3477H75.4538C76.5925 14.3477 77.5543 14.7154 78.3401 15.4048C79.1423 16.1095 79.5271 16.9828 79.5271 18.0245C79.5271 19.1889 79.0457 20.0775 78.116 20.7363C79.3344 21.3491 80.072 22.4522 80.072 23.831ZM72.2305 16.4006V19.8937H75.4696C76.4802 19.8937 77.2498 19.1276 77.2498 18.1471C77.2498 17.1666 76.4802 16.4006 75.4696 16.4006H72.2305ZM75.9027 25.5776C76.961 25.5776 77.7952 24.7655 77.7952 23.7238C77.7952 22.682 76.961 21.87 75.9027 21.87H72.2305V25.5929H75.9027V25.5776Z" fill="white"/>
<path d="M84.5112 25.5469H90.6692V27.6305H82.2344V14.3477H90.5731V16.4312H84.5112V19.8783H90.0759V21.9466H84.5112V25.5469Z" fill="white"/>
<path d="M100.648 27.6305L97.6976 22.7892H95.0034V27.6305H92.7266V14.3477H98.2908C99.5418 14.3477 100.6 14.7613 101.45 15.6039C102.316 16.4159 102.765 17.4271 102.765 18.6221C102.765 20.3073 101.658 21.8546 100.007 22.4675L103.166 27.6305H100.648ZM95.0034 16.4006V20.8435H98.275C99.4935 20.8435 100.456 19.863 100.456 18.6221C100.456 17.3964 99.4777 16.4006 98.275 16.4006H95.0034Z" fill="white"/>
<path d="M112.812 27.6335L109.877 22.7897H107.183V27.6335H104.906V14.3438H110.47C111.721 14.3438 112.78 14.7576 113.63 15.6007C114.495 16.4131 114.945 17.4247 114.945 18.6204C114.945 20.3065 113.838 21.8547 112.187 22.4678L115.345 27.6335H112.812ZM107.183 16.3977V20.843H110.455C111.673 20.843 112.635 19.862 112.635 18.6204C112.635 17.3941 111.657 16.3977 110.455 16.3977H107.183Z" fill="white"/>
<path d="M117.016 14.3438H119.293V27.632H117.016V14.3438Z" fill="white"/>
<path d="M124.27 25.5469H130.427V27.6304H121.992V14.3477H130.331V16.4312H124.27V19.8783H129.834V21.9466H124.27V25.5469Z" fill="white"/>
<path d="M132.008 24.6098L133.98 23.5073C134.541 25.008 135.68 25.7429 137.428 25.7429C139.16 25.7429 140.009 25.0386 140.009 23.9974C140.009 23.4461 139.769 23.048 139.32 22.7723C138.871 22.4814 138.037 22.1598 136.851 21.823C135.519 21.4401 134.862 21.1951 133.932 20.6133C133.034 20.0008 132.585 19.1279 132.585 17.9336C132.585 16.7545 133.018 15.8358 133.9 15.1467C134.766 14.4423 135.824 14.1055 137.059 14.1055C139.288 14.1055 141.004 15.208 141.902 17.0301L139.977 18.0867C139.4 16.8617 138.422 16.2339 137.059 16.2339C135.728 16.2339 134.878 16.877 134.878 17.8876C134.878 18.8677 135.551 19.327 137.684 19.9548C138.214 20.1233 138.598 20.2458 138.839 20.3376C139.096 20.4142 139.432 20.552 139.865 20.7205C140.314 20.8889 140.667 21.088 140.876 21.2564C141.613 21.8077 142.399 22.7111 142.303 23.982C142.303 25.1764 141.854 26.1411 140.94 26.8454C140.042 27.5499 138.855 27.8867 137.38 27.8867C134.686 27.8714 132.729 26.6464 132.008 24.6098Z" fill="white"/>
</g>
</g>
<defs>
<linearGradient id="paint0_linear_2838_8660" x1="0.5" y1="0" x2="77.2678" y2="104.341" gradientUnits="userSpaceOnUse">
<stop stop-color="#570F8D"/>
<stop offset="1" stop-color="#E6559F"/>
</linearGradient>
<clipPath id="clip0_2838_8660">
<rect width="122" height="14" fill="white" transform="translate(20.25 14)"/>
</clipPath>
</defs>
</svg>
