<svg width="162" height="42" viewBox="0 0 162 42" fill="none" xmlns="http://www.w3.org/2000/svg">
<rect width="161.5" height="42" rx="4" fill="url(#paint0_linear_2838_8657)"/>
<path d="M74.5758 24.9948H68.1067L76.3656 14.0662C76.5456 13.8263 76.4956 13.4763 76.2556 13.2963C76.1656 13.2264 76.0456 13.1864 75.9256 13.1864H63.9772C62.9274 13.1864 62.0675 14.0462 62.0675 15.0961C62.0675 16.146 62.9274 17.0058 63.9772 17.0058H69.3465L61.0576 27.9444C60.8677 28.1844 60.9176 28.5243 61.1576 28.7143C61.2576 28.7943 61.3776 28.8343 61.4976 28.8243H74.5658C75.6157 28.7743 76.4256 27.8744 76.3756 26.8145C76.3256 25.8347 75.5457 25.0548 74.5658 25.0048V24.9948H74.5758ZM116.33 13.1864C115.28 13.1864 114.421 14.0462 114.421 15.0961V21.5052L104.102 13.3163C103.872 13.1264 103.522 13.1564 103.332 13.3963C103.252 13.4963 103.212 13.6163 103.212 13.7463V26.9145C103.212 27.9644 104.072 28.8243 105.122 28.8243C106.172 28.8243 107.032 27.9744 107.032 26.9145V20.5054L117.35 28.7043C117.59 28.8943 117.94 28.8543 118.13 28.6143C118.21 28.5143 118.25 28.3943 118.25 28.2743V15.0961C118.24 14.0362 117.39 13.1864 116.33 13.1864ZM89.0239 25.3547C84.6545 25.3547 81.3949 23.055 81.3949 20.9953C81.3949 18.9356 84.6645 16.6359 89.0239 16.6359C93.3933 16.6359 96.6529 18.9356 96.6529 20.9953C96.6529 23.055 93.4033 25.3547 89.0239 25.3547ZM89.0239 12.8164C82.7047 12.8164 77.5754 16.4759 77.5754 20.9953C77.5754 25.5147 82.7047 29.1742 89.0239 29.1742C95.3431 29.1742 100.472 25.5147 100.472 20.9953C100.472 16.4759 95.3431 12.8164 89.0239 12.8164ZM51.4389 25.3647C49.0292 25.3647 47.0695 23.415 47.0695 21.0053C47.0695 18.5956 49.0192 16.6359 51.4289 16.6359C53.8386 16.6359 55.7983 18.5856 55.7983 20.9953V21.0053C55.7983 23.405 53.8486 25.3547 51.4389 25.3647ZM51.4389 12.8164C46.9195 12.8164 43.26 16.4759 43.25 20.9953C43.25 25.5147 46.9095 29.1742 51.4289 29.1842C55.9483 29.1842 59.6078 25.5247 59.6178 21.0053V20.9953C59.6078 16.4759 55.9483 12.8164 51.4389 12.8164Z" fill="white"/>
<defs>
<linearGradient id="paint0_linear_2838_8657" x1="0" y1="0" x2="76.7678" y2="104.341" gradientUnits="userSpaceOnUse">
<stop stop-color="#50C4FD"/>
<stop offset="1" stop-color="#2084FF"/>
</linearGradient>
</defs>
</svg>
