<svg width="162" height="42" viewBox="0 0 162 42" fill="none" xmlns="http://www.w3.org/2000/svg">
<rect width="162" height="42" rx="4" fill="white"/>
<g clip-path="url(#clip0_2487_92)">
<path fill-rule="evenodd" clip-rule="evenodd" d="M34.7496 25.7646C34.4498 22.4706 33.7239 22.619 32.4631 19.7562C31.4408 17.4305 30.7729 15.2109 31.4101 11.9805C29.311 14.7832 28.5 18.1021 28.5 21.2477C28.5 28.1009 33.5263 34.5264 40.3075 35.7635C37.5712 33.8125 35.1211 29.8716 34.7496 25.7646Z" fill="#20A357"/>
<path fill-rule="evenodd" clip-rule="evenodd" d="M44.283 24.3381C55.4806 15.898 46.6207 6.72974 46.3583 6.42578C47.217 14.1484 40.9231 16.5024 38.8887 18.6654C35.9786 21.7615 35.5356 24.1685 36.2376 27.406C37.0111 30.9616 39.9178 35.2347 43.6356 36.0017C39.7679 34.4713 38.4253 28.7526 44.283 24.3381Z" fill="#20A357"/>
<path fill-rule="evenodd" clip-rule="evenodd" d="M48.311 7.05859C50.1887 9.32415 51.579 12.961 50.9111 16.7323C49.623 23.9919 42.6407 25.0911 41.6355 29.8166C41.0119 32.7643 42.7225 35.2278 45.6906 35.2348C51.855 35.249 57.5424 28.3534 57.4367 20.9205C57.3515 15.0675 54.1381 9.49733 48.311 7.05859Z" fill="#00A0E3"/>
<path fill-rule="evenodd" clip-rule="evenodd" d="M40.609 15.762C46.5894 11.7257 45.1582 6.16612 45.1582 6.16612C44.6198 6.05655 43.9758 6 43.2636 6C39.4197 6.00353 33.6404 7.70005 32.6215 11.9237C31.2823 17.4797 35.2215 21.9967 35.2215 21.9967C35.2215 21.9967 36.162 18.7592 40.609 15.762ZM124.226 22.9227C123.125 22.9227 122.14 23.4317 121.473 24.2304L124.199 16.5078L126.461 22.9227H124.226ZM126.881 11.6197H123.248C122.741 11.6194 122.246 11.7806 121.831 12.0815C121.415 12.3824 121.099 12.8085 120.924 13.3021L114.899 30.3803H119.305L120.59 26.7328H127.804L129.092 30.3803H133.498L126.881 11.6197ZM116.116 13.6237V11.6197H102.921C102.266 11.6206 101.637 11.8914 101.174 12.3725C100.711 12.8536 100.451 13.5057 100.451 14.1857V16.1897H106.08V30.3803H110.486V16.1897H113.645C115.008 16.1897 116.116 15.041 116.116 13.6237ZM92.7359 13.0087L86.1114 22.7V11.6197H84.1793C83.5231 11.6197 82.8939 11.89 82.4299 12.3713C81.9659 12.8525 81.7053 13.5051 81.7053 14.1857V30.3803H86.1114L93.6866 19.558V30.3803H98.0927V11.6197H95.3257C94.8184 11.6196 94.3184 11.7457 93.8678 11.9874C93.4172 12.229 93.029 12.5793 92.7359 13.0087ZM73.7621 26.291H68.2042V22.6294H73.745C74.1944 22.656 74.6171 22.8593 74.9269 23.198C75.2368 23.5366 75.4105 23.985 75.4127 24.4519C75.4149 24.9187 75.2453 25.3689 74.9386 25.7106C74.6319 26.0523 74.2112 26.2599 73.7621 26.291ZM68.2042 15.709H73.6292C74.3482 15.709 74.982 16.2639 75.0399 17.0097C75.0549 17.2036 75.0312 17.3986 74.9704 17.5827C74.9095 17.7667 74.8128 17.9358 74.6862 18.0793C74.5596 18.2229 74.4059 18.3379 74.2346 18.4171C74.0633 18.4964 73.8781 18.5383 73.6905 18.5401H71.5914C70.1397 18.5401 68.8755 19.3636 68.2042 20.5794V15.709ZM78.9724 16.734C78.7781 13.8358 76.3825 11.6197 73.5815 11.6197H66.272C65.6159 11.6197 64.9866 11.89 64.5227 12.3713C64.0587 12.8525 63.7981 13.5051 63.7981 14.1857V30.3803H73.6496C76.6926 30.3803 79.2722 27.9451 79.4392 24.7924C79.5312 23.1171 78.9383 21.5655 77.9228 20.431C78.6589 19.4095 79.0644 18.1159 78.9724 16.734Z" fill="#EC691F"/>
</g>
<defs>
<clipPath id="clip0_2487_92">
<rect width="105" height="30" fill="white" transform="translate(28.5 6)"/>
</clipPath>
</defs>
</svg>
