<svg width="186" height="42" viewBox="0 0 186 42" fill="none" xmlns="http://www.w3.org/2000/svg">
<rect width="186" height="42" rx="4" fill="white"/>
<g clip-path="url(#clip0_2866_4140)">
<path fill-rule="evenodd" clip-rule="evenodd" d="M46.7496 25.7646C46.4498 22.4706 45.7239 22.619 44.4631 19.7562C43.4408 17.4305 42.7729 15.2109 43.4101 11.9805C41.311 14.7832 40.5 18.1021 40.5 21.2477C40.5 28.1009 45.5263 34.5264 52.3075 35.7635C49.5712 33.8125 47.1211 29.8716 46.7496 25.7646Z" fill="#20A357"/>
<path fill-rule="evenodd" clip-rule="evenodd" d="M56.283 24.3381C67.4806 15.898 58.6207 6.72974 58.3583 6.42578C59.217 14.1484 52.9231 16.5024 50.8887 18.6654C47.9786 21.7615 47.5356 24.1685 48.2376 27.406C49.0111 30.9616 51.9178 35.2347 55.6356 36.0017C51.7679 34.4713 50.4253 28.7526 56.283 24.3381Z" fill="#20A357"/>
<path fill-rule="evenodd" clip-rule="evenodd" d="M60.311 7.05859C62.1887 9.32415 63.579 12.961 62.9111 16.7323C61.623 23.9919 54.6407 25.0911 53.6355 29.8166C53.0119 32.7643 54.7225 35.2278 57.6906 35.2348C63.855 35.249 69.5424 28.3534 69.4367 20.9205C69.3515 15.0675 66.1381 9.49733 60.311 7.05859Z" fill="#00A0E3"/>
<path fill-rule="evenodd" clip-rule="evenodd" d="M52.609 15.762C58.5894 11.7257 57.1582 6.16612 57.1582 6.16612C56.6198 6.05655 55.9758 6 55.2636 6C51.4197 6.00353 45.6404 7.70005 44.6215 11.9237C43.2823 17.4797 47.2215 21.9967 47.2215 21.9967C47.2215 21.9967 48.162 18.7592 52.609 15.762ZM136.226 22.9227C135.125 22.9227 134.14 23.4317 133.473 24.2304L136.199 16.5078L138.461 22.9227H136.226ZM138.881 11.6197H135.248C134.741 11.6194 134.246 11.7806 133.831 12.0815C133.415 12.3824 133.099 12.8085 132.924 13.3021L126.899 30.3803H131.305L132.59 26.7328H139.804L141.092 30.3803H145.498L138.881 11.6197ZM128.116 13.6237V11.6197H114.921C114.266 11.6206 113.637 11.8914 113.174 12.3725C112.711 12.8536 112.451 13.5057 112.451 14.1857V16.1897H118.08V30.3803H122.486V16.1897H125.645C127.008 16.1897 128.116 15.041 128.116 13.6237ZM104.736 13.0087L98.1114 22.7V11.6197H96.1793C95.5231 11.6197 94.8939 11.89 94.4299 12.3713C93.9659 12.8525 93.7053 13.5051 93.7053 14.1857V30.3803H98.1114L105.687 19.558V30.3803H110.093V11.6197H107.326C106.818 11.6196 106.318 11.7457 105.868 11.9874C105.417 12.229 105.029 12.5793 104.736 13.0087ZM85.7621 26.291H80.2042V22.6294H85.745C86.1944 22.656 86.6171 22.8593 86.9269 23.198C87.2368 23.5366 87.4105 23.985 87.4127 24.4519C87.4149 24.9187 87.2453 25.3689 86.9386 25.7106C86.6319 26.0523 86.2112 26.2599 85.7621 26.291ZM80.2042 15.709H85.6292C86.3482 15.709 86.982 16.2639 87.0399 17.0097C87.0549 17.2036 87.0312 17.3986 86.9704 17.5827C86.9095 17.7667 86.8128 17.9358 86.6862 18.0793C86.5596 18.2229 86.4059 18.3379 86.2346 18.4171C86.0633 18.4964 85.8781 18.5383 85.6905 18.5401H83.5914C82.1397 18.5401 80.8755 19.3636 80.2042 20.5794V15.709ZM90.9724 16.734C90.7781 13.8358 88.3825 11.6197 85.5815 11.6197H78.272C77.6159 11.6197 76.9866 11.89 76.5227 12.3713C76.0587 12.8525 75.7981 13.5051 75.7981 14.1857V30.3803H85.6496C88.6926 30.3803 91.2722 27.9451 91.4392 24.7924C91.5312 23.1171 90.9383 21.5655 89.9228 20.431C90.6589 19.4095 91.0644 18.1159 90.9724 16.734Z" fill="#EC691F"/>
</g>
<defs>
<clipPath id="clip0_2866_4140">
<rect width="105" height="30" fill="white" transform="translate(40.5 6)"/>
</clipPath>
</defs>
</svg>
