<svg width="186" height="42" viewBox="0 0 186 42" fill="none" xmlns="http://www.w3.org/2000/svg">
<rect width="186" height="42" rx="4" fill="url(#paint0_linear_2755_10665)"/>
<path d="M86.8258 24.9948H80.3567L88.6156 14.0662C88.7956 13.8263 88.7456 13.4763 88.5056 13.2963C88.4156 13.2264 88.2956 13.1864 88.1756 13.1864H76.2272C75.1774 13.1864 74.3175 14.0462 74.3175 15.0961C74.3175 16.146 75.1774 17.0058 76.2272 17.0058H81.5965L73.3076 27.9444C73.1177 28.1844 73.1676 28.5243 73.4076 28.7143C73.5076 28.7943 73.6276 28.8343 73.7476 28.8243H86.8158C87.8657 28.7743 88.6756 27.8744 88.6256 26.8145C88.5756 25.8347 87.7957 25.0548 86.8158 25.0048V24.9948H86.8258ZM128.58 13.1864C127.53 13.1864 126.671 14.0462 126.671 15.0961V21.5052L116.352 13.3163C116.122 13.1264 115.772 13.1564 115.582 13.3963C115.502 13.4963 115.462 13.6163 115.462 13.7463V26.9145C115.462 27.9644 116.322 28.8243 117.372 28.8243C118.422 28.8243 119.282 27.9744 119.282 26.9145V20.5054L129.6 28.7043C129.84 28.8943 130.19 28.8543 130.38 28.6143C130.46 28.5143 130.5 28.3943 130.5 28.2743V15.0961C130.49 14.0362 129.64 13.1864 128.58 13.1864ZM101.274 25.3547C96.9045 25.3547 93.6449 23.055 93.6449 20.9953C93.6449 18.9356 96.9145 16.6359 101.274 16.6359C105.643 16.6359 108.903 18.9356 108.903 20.9953C108.903 23.055 105.653 25.3547 101.274 25.3547ZM101.274 12.8164C94.9547 12.8164 89.8254 16.4759 89.8254 20.9953C89.8254 25.5147 94.9547 29.1742 101.274 29.1742C107.593 29.1742 112.722 25.5147 112.722 20.9953C112.722 16.4759 107.593 12.8164 101.274 12.8164ZM63.6889 25.3647C61.2792 25.3647 59.3195 23.415 59.3195 21.0053C59.3195 18.5956 61.2692 16.6359 63.6789 16.6359C66.0886 16.6359 68.0483 18.5856 68.0483 20.9953V21.0053C68.0483 23.405 66.0986 25.3547 63.6889 25.3647ZM63.6889 12.8164C59.1695 12.8164 55.51 16.4759 55.5 20.9953C55.5 25.5147 59.1595 29.1742 63.6789 29.1842C68.1983 29.1842 71.8578 25.5247 71.8678 21.0053V20.9953C71.8578 16.4759 68.1983 12.8164 63.6889 12.8164Z" fill="white"/>
<defs>
<linearGradient id="paint0_linear_2755_10665" x1="0" y1="0" x2="72.9619" y2="114.212" gradientUnits="userSpaceOnUse">
<stop stop-color="#50C4FD"/>
<stop offset="1" stop-color="#2084FF"/>
</linearGradient>
</defs>
</svg>
