<svg width="186" height="42" viewBox="0 0 186 42" fill="none" xmlns="http://www.w3.org/2000/svg">
<rect width="186" height="42" rx="4" fill="white"/>
<mask id="mask0_2866_4143" style="mask-type:luminance" maskUnits="userSpaceOnUse" x="18" y="7" width="150" height="28">
<path d="M168 7.09766H18V34.9026H168V7.09766Z" fill="white"/>
</mask>
<g mask="url(#mask0_2866_4143)">
<path d="M42.1135 15.8811H42.6314C44.3825 15.8811 45.8049 17.3027 45.8049 19.0527V22.9474C45.8049 24.6976 44.3825 26.119 42.6314 26.119H38.4714C37.4848 26.119 37.0162 26.6202 37.0162 27.5733V31.731C37.0162 33.481 35.5939 34.9026 33.8427 34.9026H29.9458C28.1946 34.9026 26.7723 33.481 26.7723 31.731C26.7723 31.731 26.7723 28.6169 26.7723 27.5733C26.7723 26.5381 26.2625 26.119 25.3088 26.119H21.1735C19.4223 26.1108 18 24.6894 18 22.9392V19.0445C18 17.2944 19.4223 15.873 21.1735 15.873H25.3253C26.2461 15.873 26.7887 15.3553 26.7887 14.394V10.2693C26.7887 8.5191 28.211 7.09766 29.9622 7.09766H33.8592C35.6103 7.09766 37.0326 8.5191 37.0326 10.2693V14.4021C37.0326 15.4128 37.4025 15.8811 38.4631 15.8811H39.1948L37.0573 18.7981C35.4212 18.6666 34.114 17.2944 34.114 15.6265V11.4853C34.114 10.4747 33.7276 10.0145 32.6424 10.0145H31.1625C30.2417 10.0145 29.7073 10.5076 29.7073 11.4853V15.6265C29.7073 17.3766 28.285 18.7981 26.5338 18.7981H22.3902C21.3215 18.7981 20.9186 19.4965 20.9186 20.2771V21.7396C20.9186 22.6188 21.453 23.2021 22.3738 23.2021H26.5338C28.285 23.2021 29.7073 24.6236 29.7073 26.3738V30.5231C29.7073 31.4598 30.1759 31.9856 31.1461 31.9856H32.6342C33.5549 31.9856 34.1058 31.4269 34.1058 30.5066V26.3738C34.1058 24.6236 35.5281 23.2021 37.2792 23.2021H41.4393C42.4423 23.2021 42.8945 22.6927 42.8945 21.7232V20.2606C42.8945 19.2582 42.3683 18.7981 41.4064 18.7981H39.9758L42.1135 15.8811Z" fill="url(#paint0_linear_2866_4143)"/>
<path d="M78.5518 12.9492L85.1748 29.0468H82.1163L80.5758 25.229H73.1937L71.6758 29.0468H68.7578L75.2853 12.9492H78.5518ZM74.2282 22.5863H79.5188L76.8764 15.9854L74.2282 22.5863Z" fill="#8168F0"/>
<path d="M98.8923 15.5974H90.3183V29.0468H87.4453V12.9492H101.771V29.0468H98.8979V15.5974H98.8923Z" fill="#8168F0"/>
<path d="M117.814 15.5997H112.388V29.049H109.515V15.5997H104.18V12.957H117.814V15.5997Z" fill="#8168F0"/>
<path d="M130.511 22.0803H123.107V26.4041H131.613V29.0468H120.234V12.9492H131.361V15.5918H123.107V19.4321H130.511V22.0803Z" fill="#8168F0"/>
<path d="M66.3243 22.0803H58.9198V26.4041H67.4263V29.0468H56.0469V12.9492H67.1733V15.5918H58.9198V19.4321H66.3243V22.0803Z" fill="#8168F0"/>
<path d="M137.912 29.0468H135.039V12.9492H137.912V19.7076H140.325L145.497 12.9492H148.994L142.854 20.6072L149.983 29.0468H146.306L140.464 22.0803H137.912V29.0468Z" fill="#8168F0"/>
<path d="M160.06 12.9492L166.683 29.0468H163.624L162.083 25.229H154.702L153.183 29.0468H150.266L156.794 12.9492H160.06ZM155.736 22.5863H161.027L158.384 15.9854L155.736 22.5863Z" fill="#8168F0"/>
</g>
<defs>
<linearGradient id="paint0_linear_2866_4143" x1="25.8108" y1="31.5405" x2="38.3632" y2="9.78613" gradientUnits="userSpaceOnUse">
<stop stop-color="#8168F0"/>
<stop offset="0.137" stop-color="#7F6DF0"/>
<stop offset="0.2924" stop-color="#787AF0"/>
<stop offset="0.4568" stop-color="#6C91F1"/>
<stop offset="0.6273" stop-color="#5DB1F1"/>
<stop offset="0.8012" stop-color="#48D9F2"/>
<stop offset="0.8195" stop-color="#46DEF2"/>
<stop offset="1" stop-color="#50E3C2"/>
</linearGradient>
</defs>
</svg>
