<svg width="268" height="427" viewBox="0 0 268 427" fill="none" xmlns="http://www.w3.org/2000/svg">
<g clip-path="url(#clip0_2755_17277)">
<path d="M136.537 45.4051L133.465 52.3921L109.609 0H115.904L136.537 45.4051ZM129.112 0H122.689L139.866 37.8198L143.024 30.619L129.112 0ZM155.507 0H149.084L152.839 8.2477L155.997 1.04699L155.528 0L155.507 0ZM142.299 0H135.876L146.331 23.0337L149.489 15.833L142.299 0Z" fill="#FFCD00"/>
<path d="M136.537 45.4051L133.465 52.3921L109.609 0H115.904L136.537 45.4051ZM129.112 0H122.689L139.866 37.8198L143.024 30.619L129.112 0ZM155.507 0H149.084L152.839 8.2477L155.997 1.04699L155.528 0L155.507 0ZM142.299 0H135.876L146.331 23.0337L149.489 15.833L142.299 0Z" fill="url(#paint0_linear_2755_17277)"/>
<path d="M138.973 386.337C138.973 389.756 136.199 392.534 132.785 392.534C129.371 392.534 126.597 389.756 126.597 386.337C126.597 382.918 129.371 380.141 132.785 380.141C136.199 380.141 138.973 382.918 138.973 386.337ZM142.792 397.384C139.378 397.384 136.604 400.162 136.604 403.58C136.604 406.999 139.378 409.777 142.792 409.777C146.206 409.777 148.98 406.999 148.98 403.58C148.98 400.162 146.206 397.384 142.792 397.384ZM128.987 403.58C128.987 406.999 126.213 409.777 122.799 409.777C119.385 409.777 116.611 406.999 116.611 403.58C116.611 400.162 119.385 397.384 122.799 397.384C126.213 397.384 128.987 400.162 128.987 403.58ZM152.8 414.627C149.386 414.627 146.612 417.405 146.612 420.824C146.612 424.242 149.386 427.02 152.8 427.02C156.214 427.02 158.987 424.242 158.987 420.824C158.987 417.405 156.214 414.627 152.8 414.627ZM119.001 420.824C119.001 424.242 116.227 427.02 112.813 427.02C109.399 427.02 106.625 424.242 106.625 420.824C106.625 417.405 109.399 414.627 112.813 414.627C116.227 414.627 119.001 417.405 119.001 420.824ZM138.994 420.824C138.994 424.242 136.22 427.02 132.806 427.02C129.392 427.02 126.618 424.242 126.618 420.824C126.618 417.405 129.392 414.627 132.806 414.627C136.22 414.627 138.994 417.405 138.994 420.824Z" fill="#FFCD00"/>
<path d="M138.973 386.337C138.973 389.756 136.199 392.534 132.785 392.534C129.371 392.534 126.597 389.756 126.597 386.337C126.597 382.918 129.371 380.141 132.785 380.141C136.199 380.141 138.973 382.918 138.973 386.337ZM142.792 397.384C139.378 397.384 136.604 400.162 136.604 403.58C136.604 406.999 139.378 409.777 142.792 409.777C146.206 409.777 148.98 406.999 148.98 403.58C148.98 400.162 146.206 397.384 142.792 397.384ZM128.987 403.58C128.987 406.999 126.213 409.777 122.799 409.777C119.385 409.777 116.611 406.999 116.611 403.58C116.611 400.162 119.385 397.384 122.799 397.384C126.213 397.384 128.987 400.162 128.987 403.58ZM152.8 414.627C149.386 414.627 146.612 417.405 146.612 420.824C146.612 424.242 149.386 427.02 152.8 427.02C156.214 427.02 158.987 424.242 158.987 420.824C158.987 417.405 156.214 414.627 152.8 414.627ZM119.001 420.824C119.001 424.242 116.227 427.02 112.813 427.02C109.399 427.02 106.625 424.242 106.625 420.824C106.625 417.405 109.399 414.627 112.813 414.627C116.227 414.627 119.001 417.405 119.001 420.824ZM138.994 420.824C138.994 424.242 136.22 427.02 132.806 427.02C129.392 427.02 126.618 424.242 126.618 420.824C126.618 417.405 129.392 414.627 132.806 414.627C136.22 414.627 138.994 417.405 138.994 420.824Z" fill="url(#paint1_linear_2755_17277)"/>
<path d="M257.116 12.6475C260.498 12.6475 263.24 9.90198 263.24 6.51517C263.24 3.12836 260.498 0.382812 257.116 0.382812C253.734 0.382812 250.992 3.12836 250.992 6.51517C250.992 9.90198 253.734 12.6475 257.116 12.6475Z" fill="#FFCD00"/>
<path d="M257.116 12.6475C260.498 12.6475 263.24 9.90198 263.24 6.51517C263.24 3.12836 260.498 0.382812 257.116 0.382812C253.734 0.382812 250.992 3.12836 250.992 6.51517C250.992 9.90198 253.734 12.6475 257.116 12.6475Z" fill="url(#paint2_linear_2755_17277)"/>
<path d="M237.296 12.6475C240.678 12.6475 243.42 9.90198 243.42 6.51517C243.42 3.12836 240.678 0.382812 237.296 0.382812C233.914 0.382812 231.172 3.12836 231.172 6.51517C231.172 9.90198 233.914 12.6475 237.296 12.6475Z" fill="#FFCD00"/>
<path d="M237.296 12.6475C240.678 12.6475 243.42 9.90198 243.42 6.51517C243.42 3.12836 240.678 0.382812 237.296 0.382812C233.914 0.382812 231.172 3.12836 231.172 6.51517C231.172 9.90198 233.914 12.6475 237.296 12.6475Z" fill="url(#paint3_linear_2755_17277)"/>
<path d="M217.495 12.6475C220.877 12.6475 223.619 9.90198 223.619 6.51517C223.619 3.12836 220.877 0.382812 217.495 0.382812C214.113 0.382812 211.371 3.12836 211.371 6.51517C211.371 9.90198 214.113 12.6475 217.495 12.6475Z" fill="#FFCD00"/>
<path d="M217.495 12.6475C220.877 12.6475 223.619 9.90198 223.619 6.51517C223.619 3.12836 220.877 0.382812 217.495 0.382812C214.113 0.382812 211.371 3.12836 211.371 6.51517C211.371 9.90198 214.113 12.6475 217.495 12.6475Z" fill="url(#paint4_linear_2755_17277)"/>
<path d="M197.671 12.6475C201.053 12.6475 203.795 9.90198 203.795 6.51517C203.795 3.12836 201.053 0.382812 197.671 0.382812C194.289 0.382812 191.547 3.12836 191.547 6.51517C191.547 9.90198 194.289 12.6475 197.671 12.6475Z" fill="#FFCD00"/>
<path d="M197.671 12.6475C201.053 12.6475 203.795 9.90198 203.795 6.51517C203.795 3.12836 201.053 0.382812 197.671 0.382812C194.289 0.382812 191.547 3.12836 191.547 6.51517C191.547 9.90198 194.289 12.6475 197.671 12.6475Z" fill="url(#paint5_linear_2755_17277)"/>
<path d="M249.202 29.9131C252.584 29.9131 255.326 27.1676 255.326 23.7808C255.326 20.394 252.584 17.6484 249.202 17.6484C245.82 17.6484 243.078 20.394 243.078 23.7808C243.078 27.1676 245.82 29.9131 249.202 29.9131Z" fill="#FFCD00"/>
<path d="M249.202 29.9131C252.584 29.9131 255.326 27.1676 255.326 23.7808C255.326 20.394 252.584 17.6484 249.202 17.6484C245.82 17.6484 243.078 20.394 243.078 23.7808C243.078 27.1676 245.82 29.9131 249.202 29.9131Z" fill="url(#paint6_linear_2755_17277)"/>
<path d="M229.382 29.9131C232.764 29.9131 235.506 27.1676 235.506 23.7808C235.506 20.394 232.764 17.6484 229.382 17.6484C226 17.6484 223.258 20.394 223.258 23.7808C223.258 27.1676 226 29.9131 229.382 29.9131Z" fill="#FFCD00"/>
<path d="M229.382 29.9131C232.764 29.9131 235.506 27.1676 235.506 23.7808C235.506 20.394 232.764 17.6484 229.382 17.6484C226 17.6484 223.258 20.394 223.258 23.7808C223.258 27.1676 226 29.9131 229.382 29.9131Z" fill="url(#paint7_linear_2755_17277)"/>
<path d="M209.557 29.9131C212.94 29.9131 215.681 27.1676 215.681 23.7808C215.681 20.394 212.94 17.6484 209.557 17.6484C206.175 17.6484 203.434 20.394 203.434 23.7808C203.434 27.1676 206.175 29.9131 209.557 29.9131Z" fill="#FFCD00"/>
<path d="M209.557 29.9131C212.94 29.9131 215.681 27.1676 215.681 23.7808C215.681 20.394 212.94 17.6484 209.557 17.6484C206.175 17.6484 203.434 20.394 203.434 23.7808C203.434 27.1676 206.175 29.9131 209.557 29.9131Z" fill="url(#paint8_linear_2755_17277)"/>
<path d="M189.757 29.9131C193.139 29.9131 195.881 27.1676 195.881 23.7808C195.881 20.394 193.139 17.6484 189.757 17.6484C186.375 17.6484 183.633 20.394 183.633 23.7808C183.633 27.1676 186.375 29.9131 189.757 29.9131Z" fill="#FFCD00"/>
<path d="M189.757 29.9131C193.139 29.9131 195.881 27.1676 195.881 23.7808C195.881 20.394 193.139 17.6484 189.757 17.6484C186.375 17.6484 183.633 20.394 183.633 23.7808C183.633 27.1676 186.375 29.9131 189.757 29.9131Z" fill="url(#paint9_linear_2755_17277)"/>
<path d="M241.265 47.1749C244.647 47.1749 247.388 44.4293 247.388 41.0425C247.388 37.6557 244.647 34.9102 241.265 34.9102C237.882 34.9102 235.141 37.6557 235.141 41.0425C235.141 44.4293 237.882 47.1749 241.265 47.1749Z" fill="#FFCD00"/>
<path d="M241.265 47.1749C244.647 47.1749 247.388 44.4293 247.388 41.0425C247.388 37.6557 244.647 34.9102 241.265 34.9102C237.882 34.9102 235.141 37.6557 235.141 41.0425C235.141 44.4293 237.882 47.1749 241.265 47.1749Z" fill="url(#paint10_linear_2755_17277)"/>
<path d="M221.464 47.1749C224.846 47.1749 227.588 44.4293 227.588 41.0425C227.588 37.6557 224.846 34.9102 221.464 34.9102C218.082 34.9102 215.34 37.6557 215.34 41.0425C215.34 44.4293 218.082 47.1749 221.464 47.1749Z" fill="#FFCD00"/>
<path d="M221.464 47.1749C224.846 47.1749 227.588 44.4293 227.588 41.0425C227.588 37.6557 224.846 34.9102 221.464 34.9102C218.082 34.9102 215.34 37.6557 215.34 41.0425C215.34 44.4293 218.082 47.1749 221.464 47.1749Z" fill="url(#paint11_linear_2755_17277)"/>
<path d="M201.64 47.1749C205.022 47.1749 207.763 44.4293 207.763 41.0425C207.763 37.6557 205.022 34.9102 201.64 34.9102C198.257 34.9102 195.516 37.6557 195.516 41.0425C195.516 44.4293 198.257 47.1749 201.64 47.1749Z" fill="#FFCD00"/>
<path d="M201.64 47.1749C205.022 47.1749 207.763 44.4293 207.763 41.0425C207.763 37.6557 205.022 34.9102 201.64 34.9102C198.257 34.9102 195.516 37.6557 195.516 41.0425C195.516 44.4293 198.257 47.1749 201.64 47.1749Z" fill="url(#paint12_linear_2755_17277)"/>
<path d="M181.839 47.1749C185.221 47.1749 187.963 44.4293 187.963 41.0425C187.963 37.6557 185.221 34.9102 181.839 34.9102C178.457 34.9102 175.715 37.6557 175.715 41.0425C175.715 44.4293 178.457 47.1749 181.839 47.1749Z" fill="#FFCD00"/>
<path d="M181.839 47.1749C185.221 47.1749 187.963 44.4293 187.963 41.0425C187.963 37.6557 185.221 34.9102 181.839 34.9102C178.457 34.9102 175.715 37.6557 175.715 41.0425C175.715 44.4293 178.457 47.1749 181.839 47.1749Z" fill="url(#paint13_linear_2755_17277)"/>
<path d="M233.347 64.4405C236.729 64.4405 239.47 61.6949 239.47 58.3081C239.47 54.9213 236.729 52.1758 233.347 52.1758C229.964 52.1758 227.223 54.9213 227.223 58.3081C227.223 61.6949 229.964 64.4405 233.347 64.4405Z" fill="#FFCD00"/>
<path d="M233.347 64.4405C236.729 64.4405 239.47 61.6949 239.47 58.3081C239.47 54.9213 236.729 52.1758 233.347 52.1758C229.964 52.1758 227.223 54.9213 227.223 58.3081C227.223 61.6949 229.964 64.4405 233.347 64.4405Z" fill="url(#paint14_linear_2755_17277)"/>
<path d="M213.526 64.4405C216.908 64.4405 219.65 61.6949 219.65 58.3081C219.65 54.9213 216.908 52.1758 213.526 52.1758C210.144 52.1758 207.402 54.9213 207.402 58.3081C207.402 61.6949 210.144 64.4405 213.526 64.4405Z" fill="#FFCD00"/>
<path d="M213.526 64.4405C216.908 64.4405 219.65 61.6949 219.65 58.3081C219.65 54.9213 216.908 52.1758 213.526 52.1758C210.144 52.1758 207.402 54.9213 207.402 58.3081C207.402 61.6949 210.144 64.4405 213.526 64.4405Z" fill="url(#paint15_linear_2755_17277)"/>
<path d="M193.725 64.4405C197.108 64.4405 199.849 61.6949 199.849 58.3081C199.849 54.9213 197.108 52.1758 193.725 52.1758C190.343 52.1758 187.602 54.9213 187.602 58.3081C187.602 61.6949 190.343 64.4405 193.725 64.4405Z" fill="#FFCD00"/>
<path d="M193.725 64.4405C197.108 64.4405 199.849 61.6949 199.849 58.3081C199.849 54.9213 197.108 52.1758 193.725 52.1758C190.343 52.1758 187.602 54.9213 187.602 58.3081C187.602 61.6949 190.343 64.4405 193.725 64.4405Z" fill="url(#paint16_linear_2755_17277)"/>
<path d="M173.901 64.4405C177.283 64.4405 180.025 61.6949 180.025 58.3081C180.025 54.9213 177.283 52.1758 173.901 52.1758C170.519 52.1758 167.777 54.9213 167.777 58.3081C167.777 61.6949 170.519 64.4405 173.901 64.4405Z" fill="#FFCD00"/>
<path d="M173.901 64.4405C177.283 64.4405 180.025 61.6949 180.025 58.3081C180.025 54.9213 177.283 52.1758 173.901 52.1758C170.519 52.1758 167.777 54.9213 167.777 58.3081C167.777 61.6949 170.519 64.4405 173.901 64.4405Z" fill="url(#paint17_linear_2755_17277)"/>
<path d="M225.429 81.7061C228.811 81.7061 231.552 78.9606 231.552 75.5738C231.552 72.187 228.811 69.4414 225.429 69.4414C222.046 69.4414 219.305 72.187 219.305 75.5738C219.305 78.9606 222.046 81.7061 225.429 81.7061Z" fill="#FFCD00"/>
<path d="M225.429 81.7061C228.811 81.7061 231.552 78.9606 231.552 75.5738C231.552 72.187 228.811 69.4414 225.429 69.4414C222.046 69.4414 219.305 72.187 219.305 75.5738C219.305 78.9606 222.046 81.7061 225.429 81.7061Z" fill="url(#paint18_linear_2755_17277)"/>
<path d="M205.608 81.7061C208.99 81.7061 211.732 78.9606 211.732 75.5738C211.732 72.187 208.99 69.4414 205.608 69.4414C202.226 69.4414 199.484 72.187 199.484 75.5738C199.484 78.9606 202.226 81.7061 205.608 81.7061Z" fill="#FFCD00"/>
<path d="M205.608 81.7061C208.99 81.7061 211.732 78.9606 211.732 75.5738C211.732 72.187 208.99 69.4414 205.608 69.4414C202.226 69.4414 199.484 72.187 199.484 75.5738C199.484 78.9606 202.226 81.7061 205.608 81.7061Z" fill="url(#paint19_linear_2755_17277)"/>
<path d="M185.784 81.7061C189.166 81.7061 191.908 78.9606 191.908 75.5738C191.908 72.187 189.166 69.4414 185.784 69.4414C182.402 69.4414 179.66 72.187 179.66 75.5738C179.66 78.9606 182.402 81.7061 185.784 81.7061Z" fill="#FFCD00"/>
<path d="M185.784 81.7061C189.166 81.7061 191.908 78.9606 191.908 75.5738C191.908 72.187 189.166 69.4414 185.784 69.4414C182.402 69.4414 179.66 72.187 179.66 75.5738C179.66 78.9606 182.402 81.7061 185.784 81.7061Z" fill="url(#paint20_linear_2755_17277)"/>
<path d="M165.983 81.7061C169.365 81.7061 172.107 78.9606 172.107 75.5738C172.107 72.187 169.365 69.4414 165.983 69.4414C162.601 69.4414 159.859 72.187 159.859 75.5738C159.859 78.9606 162.601 81.7061 165.983 81.7061Z" fill="#FFCD00"/>
<path d="M165.983 81.7061C169.365 81.7061 172.107 78.9606 172.107 75.5738C172.107 72.187 169.365 69.4414 165.983 69.4414C162.601 69.4414 159.859 72.187 159.859 75.5738C159.859 78.9606 162.601 81.7061 165.983 81.7061Z" fill="url(#paint21_linear_2755_17277)"/>
<path d="M217.495 98.9717C220.877 98.9717 223.619 96.2262 223.619 92.8394C223.619 89.4526 220.877 86.707 217.495 86.707C214.113 86.707 211.371 89.4526 211.371 92.8394C211.371 96.2262 214.113 98.9717 217.495 98.9717Z" fill="#FFCD00"/>
<path d="M217.495 98.9717C220.877 98.9717 223.619 96.2262 223.619 92.8394C223.619 89.4526 220.877 86.707 217.495 86.707C214.113 86.707 211.371 89.4526 211.371 92.8394C211.371 96.2262 214.113 98.9717 217.495 98.9717Z" fill="url(#paint22_linear_2755_17277)"/>
<path d="M197.694 98.9717C201.076 98.9717 203.818 96.2262 203.818 92.8394C203.818 89.4526 201.076 86.707 197.694 86.707C194.312 86.707 191.57 89.4526 191.57 92.8394C191.57 96.2262 194.312 98.9717 197.694 98.9717Z" fill="#FFCD00"/>
<path d="M197.694 98.9717C201.076 98.9717 203.818 96.2262 203.818 92.8394C203.818 89.4526 201.076 86.707 197.694 86.707C194.312 86.707 191.57 89.4526 191.57 92.8394C191.57 96.2262 194.312 98.9717 197.694 98.9717Z" fill="url(#paint23_linear_2755_17277)"/>
<path d="M177.87 98.9717C181.252 98.9717 183.994 96.2262 183.994 92.8394C183.994 89.4526 181.252 86.707 177.87 86.707C174.488 86.707 171.746 89.4526 171.746 92.8394C171.746 96.2262 174.488 98.9717 177.87 98.9717Z" fill="#FFCD00"/>
<path d="M177.87 98.9717C181.252 98.9717 183.994 96.2262 183.994 92.8394C183.994 89.4526 181.252 86.707 177.87 86.707C174.488 86.707 171.746 89.4526 171.746 92.8394C171.746 96.2262 174.488 98.9717 177.87 98.9717Z" fill="url(#paint24_linear_2755_17277)"/>
<path d="M158.069 98.9717C161.451 98.9717 164.193 96.2262 164.193 92.8394C164.193 89.4526 161.451 86.707 158.069 86.707C154.687 86.707 151.945 89.4526 151.945 92.8394C151.945 96.2262 154.687 98.9717 158.069 98.9717Z" fill="#FFCD00"/>
<path d="M158.069 98.9717C161.451 98.9717 164.193 96.2262 164.193 92.8394C164.193 89.4526 161.451 86.707 158.069 86.707C154.687 86.707 151.945 89.4526 151.945 92.8394C151.945 96.2262 154.687 98.9717 158.069 98.9717Z" fill="url(#paint25_linear_2755_17277)"/>
<path d="M209.577 116.233C212.959 116.233 215.701 113.488 215.701 110.101C215.701 106.714 212.959 103.969 209.577 103.969C206.195 103.969 203.453 106.714 203.453 110.101C203.453 113.488 206.195 116.233 209.577 116.233Z" fill="#FFCD00"/>
<path d="M209.577 116.233C212.959 116.233 215.701 113.488 215.701 110.101C215.701 106.714 212.959 103.969 209.577 103.969C206.195 103.969 203.453 106.714 203.453 110.101C203.453 113.488 206.195 116.233 209.577 116.233Z" fill="url(#paint26_linear_2755_17277)"/>
<path d="M189.757 116.233C193.139 116.233 195.881 113.488 195.881 110.101C195.881 106.714 193.139 103.969 189.757 103.969C186.375 103.969 183.633 106.714 183.633 110.101C183.633 113.488 186.375 116.233 189.757 116.233Z" fill="#FFCD00"/>
<path d="M189.757 116.233C193.139 116.233 195.881 113.488 195.881 110.101C195.881 106.714 193.139 103.969 189.757 103.969C186.375 103.969 183.633 106.714 183.633 110.101C183.633 113.488 186.375 116.233 189.757 116.233Z" fill="url(#paint27_linear_2755_17277)"/>
<path d="M169.956 116.233C173.338 116.233 176.08 113.488 176.08 110.101C176.08 106.714 173.338 103.969 169.956 103.969C166.574 103.969 163.832 106.714 163.832 110.101C163.832 113.488 166.574 116.233 169.956 116.233Z" fill="#FFCD00"/>
<path d="M169.956 116.233C173.338 116.233 176.08 113.488 176.08 110.101C176.08 106.714 173.338 103.969 169.956 103.969C166.574 103.969 163.832 106.714 163.832 110.101C163.832 113.488 166.574 116.233 169.956 116.233Z" fill="url(#paint28_linear_2755_17277)"/>
<path d="M150.132 116.233C153.514 116.233 156.256 113.488 156.256 110.101C156.256 106.714 153.514 103.969 150.132 103.969C146.75 103.969 144.008 106.714 144.008 110.101C144.008 113.488 146.75 116.233 150.132 116.233Z" fill="#FFCD00"/>
<path d="M150.132 116.233C153.514 116.233 156.256 113.488 156.256 110.101C156.256 106.714 153.514 103.969 150.132 103.969C146.75 103.969 144.008 106.714 144.008 110.101C144.008 113.488 146.75 116.233 150.132 116.233Z" fill="url(#paint29_linear_2755_17277)"/>
<path d="M201.659 133.48C205.041 133.48 207.783 130.734 207.783 127.347C207.783 123.96 205.041 121.215 201.659 121.215C198.277 121.215 195.535 123.96 195.535 127.347C195.535 130.734 198.277 133.48 201.659 133.48Z" fill="#FFCD00"/>
<path d="M201.659 133.48C205.041 133.48 207.783 130.734 207.783 127.347C207.783 123.96 205.041 121.215 201.659 121.215C198.277 121.215 195.535 123.96 195.535 127.347C195.535 130.734 198.277 133.48 201.659 133.48Z" fill="url(#paint30_linear_2755_17277)"/>
<path d="M181.839 133.48C185.221 133.48 187.963 130.734 187.963 127.347C187.963 123.96 185.221 121.215 181.839 121.215C178.457 121.215 175.715 123.96 175.715 127.347C175.715 130.734 178.457 133.48 181.839 133.48Z" fill="#FFCD00"/>
<path d="M181.839 133.48C185.221 133.48 187.963 130.734 187.963 127.347C187.963 123.96 185.221 121.215 181.839 121.215C178.457 121.215 175.715 123.96 175.715 127.347C175.715 130.734 178.457 133.48 181.839 133.48Z" fill="url(#paint31_linear_2755_17277)"/>
<path d="M162.015 133.48C165.397 133.48 168.138 130.734 168.138 127.347C168.138 123.96 165.397 121.215 162.015 121.215C158.632 121.215 155.891 123.96 155.891 127.347C155.891 130.734 158.632 133.48 162.015 133.48Z" fill="#FFCD00"/>
<path d="M162.015 133.48C165.397 133.48 168.138 130.734 168.138 127.347C168.138 123.96 165.397 121.215 162.015 121.215C158.632 121.215 155.891 123.96 155.891 127.347C155.891 130.734 158.632 133.48 162.015 133.48Z" fill="url(#paint32_linear_2755_17277)"/>
<path d="M142.214 133.48C145.596 133.48 148.338 130.734 148.338 127.347C148.338 123.96 145.596 121.215 142.214 121.215C138.832 121.215 136.09 123.96 136.09 127.347C136.09 130.734 138.832 133.48 142.214 133.48Z" fill="#FFCD00"/>
<path d="M142.214 133.48C145.596 133.48 148.338 130.734 148.338 127.347C148.338 123.96 145.596 121.215 142.214 121.215C138.832 121.215 136.09 123.96 136.09 127.347C136.09 130.734 138.832 133.48 142.214 133.48Z" fill="url(#paint33_linear_2755_17277)"/>
<path d="M193.725 150.741C197.108 150.741 199.849 147.996 199.849 144.609C199.849 141.222 197.108 138.477 193.725 138.477C190.343 138.477 187.602 141.222 187.602 144.609C187.602 147.996 190.343 150.741 193.725 150.741Z" fill="#FFCD00"/>
<path d="M193.725 150.741C197.108 150.741 199.849 147.996 199.849 144.609C199.849 141.222 197.108 138.477 193.725 138.477C190.343 138.477 187.602 141.222 187.602 144.609C187.602 147.996 190.343 150.741 193.725 150.741Z" fill="url(#paint34_linear_2755_17277)"/>
<path d="M173.925 150.741C177.307 150.741 180.049 147.996 180.049 144.609C180.049 141.222 177.307 138.477 173.925 138.477C170.543 138.477 167.801 141.222 167.801 144.609C167.801 147.996 170.543 150.741 173.925 150.741Z" fill="#FFCD00"/>
<path d="M173.925 150.741C177.307 150.741 180.049 147.996 180.049 144.609C180.049 141.222 177.307 138.477 173.925 138.477C170.543 138.477 167.801 141.222 167.801 144.609C167.801 147.996 170.543 150.741 173.925 150.741Z" fill="url(#paint35_linear_2755_17277)"/>
<path d="M154.1 150.741C157.483 150.741 160.224 147.996 160.224 144.609C160.224 141.222 157.483 138.477 154.1 138.477C150.718 138.477 147.977 141.222 147.977 144.609C147.977 147.996 150.718 150.741 154.1 150.741Z" fill="#FFCD00"/>
<path d="M154.1 150.741C157.483 150.741 160.224 147.996 160.224 144.609C160.224 141.222 157.483 138.477 154.1 138.477C150.718 138.477 147.977 141.222 147.977 144.609C147.977 147.996 150.718 150.741 154.1 150.741Z" fill="url(#paint36_linear_2755_17277)"/>
<path d="M134.3 150.741C137.682 150.741 140.424 147.996 140.424 144.609C140.424 141.222 137.682 138.477 134.3 138.477C130.918 138.477 128.176 141.222 128.176 144.609C128.176 147.996 130.918 150.741 134.3 150.741Z" fill="#FFCD00"/>
<path d="M134.3 150.741C137.682 150.741 140.424 147.996 140.424 144.609C140.424 141.222 137.682 138.477 134.3 138.477C130.918 138.477 128.176 141.222 128.176 144.609C128.176 147.996 130.918 150.741 134.3 150.741Z" fill="url(#paint37_linear_2755_17277)"/>
<path d="M185.807 168.007C189.19 168.007 191.931 165.261 191.931 161.875C191.931 158.488 189.19 155.742 185.807 155.742C182.425 155.742 179.684 158.488 179.684 161.875C179.684 165.261 182.425 168.007 185.807 168.007Z" fill="#FFCD00"/>
<path d="M185.807 168.007C189.19 168.007 191.931 165.261 191.931 161.875C191.931 158.488 189.19 155.742 185.807 155.742C182.425 155.742 179.684 158.488 179.684 161.875C179.684 165.261 182.425 168.007 185.807 168.007Z" fill="url(#paint38_linear_2755_17277)"/>
<path d="M165.987 168.007C169.369 168.007 172.111 165.261 172.111 161.875C172.111 158.488 169.369 155.742 165.987 155.742C162.605 155.742 159.863 158.488 159.863 161.875C159.863 165.261 162.605 168.007 165.987 168.007Z" fill="#FFCD00"/>
<path d="M165.987 168.007C169.369 168.007 172.111 165.261 172.111 161.875C172.111 158.488 169.369 155.742 165.987 155.742C162.605 155.742 159.863 158.488 159.863 161.875C159.863 165.261 162.605 168.007 165.987 168.007Z" fill="url(#paint39_linear_2755_17277)"/>
<path d="M146.186 168.007C149.569 168.007 152.31 165.261 152.31 161.875C152.31 158.488 149.569 155.742 146.186 155.742C142.804 155.742 140.062 158.488 140.062 161.875C140.062 165.261 142.804 168.007 146.186 168.007Z" fill="#FFCD00"/>
<path d="M146.186 168.007C149.569 168.007 152.31 165.261 152.31 161.875C152.31 158.488 149.569 155.742 146.186 155.742C142.804 155.742 140.062 158.488 140.062 161.875C140.062 165.261 142.804 168.007 146.186 168.007Z" fill="url(#paint40_linear_2755_17277)"/>
<path d="M126.362 168.007C129.744 168.007 132.486 165.261 132.486 161.875C132.486 158.488 129.744 155.742 126.362 155.742C122.98 155.742 120.238 158.488 120.238 161.875C120.238 165.261 122.98 168.007 126.362 168.007Z" fill="#FFCD00"/>
<path d="M126.362 168.007C129.744 168.007 132.486 165.261 132.486 161.875C132.486 158.488 129.744 155.742 126.362 155.742C122.98 155.742 120.238 158.488 120.238 161.875C120.238 165.261 122.98 168.007 126.362 168.007Z" fill="url(#paint41_linear_2755_17277)"/>
<path d="M177.89 185.273C181.272 185.273 184.013 182.527 184.013 179.14C184.013 175.753 181.272 173.008 177.89 173.008C174.507 173.008 171.766 175.753 171.766 179.14C171.766 182.527 174.507 185.273 177.89 185.273Z" fill="#FFCD00"/>
<path d="M177.89 185.273C181.272 185.273 184.013 182.527 184.013 179.14C184.013 175.753 181.272 173.008 177.89 173.008C174.507 173.008 171.766 175.753 171.766 179.14C171.766 182.527 174.507 185.273 177.89 185.273Z" fill="url(#paint42_linear_2755_17277)"/>
<path d="M158.069 185.273C161.451 185.273 164.193 182.527 164.193 179.14C164.193 175.753 161.451 173.008 158.069 173.008C154.687 173.008 151.945 175.753 151.945 179.14C151.945 182.527 154.687 185.273 158.069 185.273Z" fill="#FFCD00"/>
<path d="M158.069 185.273C161.451 185.273 164.193 182.527 164.193 179.14C164.193 175.753 161.451 173.008 158.069 173.008C154.687 173.008 151.945 175.753 151.945 179.14C151.945 182.527 154.687 185.273 158.069 185.273Z" fill="url(#paint43_linear_2755_17277)"/>
<path d="M138.245 185.273C141.627 185.273 144.369 182.527 144.369 179.14C144.369 175.753 141.627 173.008 138.245 173.008C134.863 173.008 132.121 175.753 132.121 179.14C132.121 182.527 134.863 185.273 138.245 185.273Z" fill="#FFCD00"/>
<path d="M138.245 185.273C141.627 185.273 144.369 182.527 144.369 179.14C144.369 175.753 141.627 173.008 138.245 173.008C134.863 173.008 132.121 175.753 132.121 179.14C132.121 182.527 134.863 185.273 138.245 185.273Z" fill="url(#paint44_linear_2755_17277)"/>
<path d="M118.444 185.273C121.826 185.273 124.568 182.527 124.568 179.14C124.568 175.753 121.826 173.008 118.444 173.008C115.062 173.008 112.32 175.753 112.32 179.14C112.32 182.527 115.062 185.273 118.444 185.273Z" fill="#FFCD00"/>
<path d="M118.444 185.273C121.826 185.273 124.568 182.527 124.568 179.14C124.568 175.753 121.826 173.008 118.444 173.008C115.062 173.008 112.32 175.753 112.32 179.14C112.32 182.527 115.062 185.273 118.444 185.273Z" fill="url(#paint45_linear_2755_17277)"/>
<path d="M169.956 202.538C173.338 202.538 176.08 199.793 176.08 196.406C176.08 193.019 173.338 190.273 169.956 190.273C166.574 190.273 163.832 193.019 163.832 196.406C163.832 199.793 166.574 202.538 169.956 202.538Z" fill="#FFCD00"/>
<path d="M169.956 202.538C173.338 202.538 176.08 199.793 176.08 196.406C176.08 193.019 173.338 190.273 169.956 190.273C166.574 190.273 163.832 193.019 163.832 196.406C163.832 199.793 166.574 202.538 169.956 202.538Z" fill="url(#paint46_linear_2755_17277)"/>
<path d="M150.155 202.538C153.537 202.538 156.279 199.793 156.279 196.406C156.279 193.019 153.537 190.273 150.155 190.273C146.773 190.273 144.031 193.019 144.031 196.406C144.031 199.793 146.773 202.538 150.155 202.538Z" fill="#FFCD00"/>
<path d="M150.155 202.538C153.537 202.538 156.279 199.793 156.279 196.406C156.279 193.019 153.537 190.273 150.155 190.273C146.773 190.273 144.031 193.019 144.031 196.406C144.031 199.793 146.773 202.538 150.155 202.538Z" fill="url(#paint47_linear_2755_17277)"/>
<path d="M130.331 202.538C133.713 202.538 136.455 199.793 136.455 196.406C136.455 193.019 133.713 190.273 130.331 190.273C126.949 190.273 124.207 193.019 124.207 196.406C124.207 199.793 126.949 202.538 130.331 202.538Z" fill="#FFCD00"/>
<path d="M130.331 202.538C133.713 202.538 136.455 199.793 136.455 196.406C136.455 193.019 133.713 190.273 130.331 190.273C126.949 190.273 124.207 193.019 124.207 196.406C124.207 199.793 126.949 202.538 130.331 202.538Z" fill="url(#paint48_linear_2755_17277)"/>
<path d="M110.53 202.538C113.912 202.538 116.654 199.793 116.654 196.406C116.654 193.019 113.912 190.273 110.53 190.273C107.148 190.273 104.406 193.019 104.406 196.406C104.406 199.793 107.148 202.538 110.53 202.538Z" fill="#FFCD00"/>
<path d="M110.53 202.538C113.912 202.538 116.654 199.793 116.654 196.406C116.654 193.019 113.912 190.273 110.53 190.273C107.148 190.273 104.406 193.019 104.406 196.406C104.406 199.793 107.148 202.538 110.53 202.538Z" fill="url(#paint49_linear_2755_17277)"/>
<path d="M162.038 219.8C165.42 219.8 168.162 217.054 168.162 213.668C168.162 210.281 165.42 207.535 162.038 207.535C158.656 207.535 155.914 210.281 155.914 213.668C155.914 217.054 158.656 219.8 162.038 219.8Z" fill="#FFCD00"/>
<path d="M162.038 219.8C165.42 219.8 168.162 217.054 168.162 213.668C168.162 210.281 165.42 207.535 162.038 207.535C158.656 207.535 155.914 210.281 155.914 213.668C155.914 217.054 158.656 219.8 162.038 219.8Z" fill="url(#paint50_linear_2755_17277)"/>
<path d="M142.218 219.8C145.6 219.8 148.342 217.054 148.342 213.668C148.342 210.281 145.6 207.535 142.218 207.535C138.836 207.535 136.094 210.281 136.094 213.668C136.094 217.054 138.836 219.8 142.218 219.8Z" fill="#FFCD00"/>
<path d="M142.218 219.8C145.6 219.8 148.342 217.054 148.342 213.668C148.342 210.281 145.6 207.535 142.218 207.535C138.836 207.535 136.094 210.281 136.094 213.668C136.094 217.054 138.836 219.8 142.218 219.8Z" fill="url(#paint51_linear_2755_17277)"/>
<path d="M122.417 219.8C125.799 219.8 128.541 217.054 128.541 213.668C128.541 210.281 125.799 207.535 122.417 207.535C119.035 207.535 116.293 210.281 116.293 213.668C116.293 217.054 119.035 219.8 122.417 219.8Z" fill="#FFCD00"/>
<path d="M122.417 219.8C125.799 219.8 128.541 217.054 128.541 213.668C128.541 210.281 125.799 207.535 122.417 207.535C119.035 207.535 116.293 210.281 116.293 213.668C116.293 217.054 119.035 219.8 122.417 219.8Z" fill="url(#paint52_linear_2755_17277)"/>
<path d="M102.593 219.8C105.975 219.8 108.717 217.054 108.717 213.668C108.717 210.281 105.975 207.535 102.593 207.535C99.2105 207.535 96.4688 210.281 96.4688 213.668C96.4688 217.054 99.2105 219.8 102.593 219.8Z" fill="#FFCD00"/>
<path d="M102.593 219.8C105.975 219.8 108.717 217.054 108.717 213.668C108.717 210.281 105.975 207.535 102.593 207.535C99.2105 207.535 96.4688 210.281 96.4688 213.668C96.4688 217.054 99.2105 219.8 102.593 219.8Z" fill="url(#paint53_linear_2755_17277)"/>
<path d="M154.12 237.065C157.502 237.065 160.244 234.32 160.244 230.933C160.244 227.546 157.502 224.801 154.12 224.801C150.738 224.801 147.996 227.546 147.996 230.933C147.996 234.32 150.738 237.065 154.12 237.065Z" fill="#FFCD00"/>
<path d="M154.12 237.065C157.502 237.065 160.244 234.32 160.244 230.933C160.244 227.546 157.502 224.801 154.12 224.801C150.738 224.801 147.996 227.546 147.996 230.933C147.996 234.32 150.738 237.065 154.12 237.065Z" fill="url(#paint54_linear_2755_17277)"/>
<path d="M134.3 237.065C137.682 237.065 140.424 234.32 140.424 230.933C140.424 227.546 137.682 224.801 134.3 224.801C130.918 224.801 128.176 227.546 128.176 230.933C128.176 234.32 130.918 237.065 134.3 237.065Z" fill="#FFCD00"/>
<path d="M134.3 237.065C137.682 237.065 140.424 234.32 140.424 230.933C140.424 227.546 137.682 224.801 134.3 224.801C130.918 224.801 128.176 227.546 128.176 230.933C128.176 234.32 130.918 237.065 134.3 237.065Z" fill="url(#paint55_linear_2755_17277)"/>
<path d="M114.475 237.065C117.858 237.065 120.599 234.32 120.599 230.933C120.599 227.546 117.858 224.801 114.475 224.801C111.093 224.801 108.352 227.546 108.352 230.933C108.352 234.32 111.093 237.065 114.475 237.065Z" fill="#FFCD00"/>
<path d="M114.475 237.065C117.858 237.065 120.599 234.32 120.599 230.933C120.599 227.546 117.858 224.801 114.475 224.801C111.093 224.801 108.352 227.546 108.352 230.933C108.352 234.32 111.093 237.065 114.475 237.065Z" fill="url(#paint56_linear_2755_17277)"/>
<path d="M94.6747 237.065C98.0568 237.065 100.799 234.32 100.799 230.933C100.799 227.546 98.0568 224.801 94.6747 224.801C91.2925 224.801 88.5508 227.546 88.5508 230.933C88.5508 234.32 91.2925 237.065 94.6747 237.065Z" fill="#FFCD00"/>
<path d="M94.6747 237.065C98.0568 237.065 100.799 234.32 100.799 230.933C100.799 227.546 98.0568 224.801 94.6747 224.801C91.2925 224.801 88.5508 227.546 88.5508 230.933C88.5508 234.32 91.2925 237.065 94.6747 237.065Z" fill="url(#paint57_linear_2755_17277)"/>
<path d="M146.182 254.331C149.565 254.331 152.306 251.586 152.306 248.199C152.306 244.812 149.565 242.066 146.182 242.066C142.8 242.066 140.059 244.812 140.059 248.199C140.059 251.586 142.8 254.331 146.182 254.331Z" fill="#FFCD00"/>
<path d="M146.182 254.331C149.565 254.331 152.306 251.586 152.306 248.199C152.306 244.812 149.565 242.066 146.182 242.066C142.8 242.066 140.059 244.812 140.059 248.199C140.059 251.586 142.8 254.331 146.182 254.331Z" fill="url(#paint58_linear_2755_17277)"/>
<path d="M126.382 254.331C129.764 254.331 132.506 251.586 132.506 248.199C132.506 244.812 129.764 242.066 126.382 242.066C123 242.066 120.258 244.812 120.258 248.199C120.258 251.586 123 254.331 126.382 254.331Z" fill="#FFCD00"/>
<path d="M126.382 254.331C129.764 254.331 132.506 251.586 132.506 248.199C132.506 244.812 129.764 242.066 126.382 242.066C123 242.066 120.258 244.812 120.258 248.199C120.258 251.586 123 254.331 126.382 254.331Z" fill="url(#paint59_linear_2755_17277)"/>
<path d="M106.557 254.331C109.94 254.331 112.681 251.586 112.681 248.199C112.681 244.812 109.94 242.066 106.557 242.066C103.175 242.066 100.434 244.812 100.434 248.199C100.434 251.586 103.175 254.331 106.557 254.331Z" fill="#FFCD00"/>
<path d="M106.557 254.331C109.94 254.331 112.681 251.586 112.681 248.199C112.681 244.812 109.94 242.066 106.557 242.066C103.175 242.066 100.434 244.812 100.434 248.199C100.434 251.586 103.175 254.331 106.557 254.331Z" fill="url(#paint60_linear_2755_17277)"/>
<path d="M86.7567 254.331C90.1388 254.331 92.8806 251.586 92.8806 248.199C92.8806 244.812 90.1388 242.066 86.7567 242.066C83.3746 242.066 80.6328 244.812 80.6328 248.199C80.6328 251.586 83.3746 254.331 86.7567 254.331Z" fill="#FFCD00"/>
<path d="M86.7567 254.331C90.1388 254.331 92.8806 251.586 92.8806 248.199C92.8806 244.812 90.1388 242.066 86.7567 242.066C83.3746 242.066 80.6328 244.812 80.6328 248.199C80.6328 251.586 83.3746 254.331 86.7567 254.331Z" fill="url(#paint61_linear_2755_17277)"/>
<path d="M138.265 271.573C141.647 271.573 144.388 268.828 144.388 265.441C144.388 262.054 141.647 259.309 138.265 259.309C134.882 259.309 132.141 262.054 132.141 265.441C132.141 268.828 134.882 271.573 138.265 271.573Z" fill="#FFCD00"/>
<path d="M138.265 271.573C141.647 271.573 144.388 268.828 144.388 265.441C144.388 262.054 141.647 259.309 138.265 259.309C134.882 259.309 132.141 262.054 132.141 265.441C132.141 268.828 134.882 271.573 138.265 271.573Z" fill="url(#paint62_linear_2755_17277)"/>
<path d="M118.444 271.573C121.826 271.573 124.568 268.828 124.568 265.441C124.568 262.054 121.826 259.309 118.444 259.309C115.062 259.309 112.32 262.054 112.32 265.441C112.32 268.828 115.062 271.573 118.444 271.573Z" fill="#FFCD00"/>
<path d="M118.444 271.573C121.826 271.573 124.568 268.828 124.568 265.441C124.568 262.054 121.826 259.309 118.444 259.309C115.062 259.309 112.32 262.054 112.32 265.441C112.32 268.828 115.062 271.573 118.444 271.573Z" fill="url(#paint63_linear_2755_17277)"/>
<path d="M98.6434 271.573C102.026 271.573 104.767 268.828 104.767 265.441C104.767 262.054 102.026 259.309 98.6434 259.309C95.2613 259.309 92.5195 262.054 92.5195 265.441C92.5195 268.828 95.2613 271.573 98.6434 271.573Z" fill="#FFCD00"/>
<path d="M98.6434 271.573C102.026 271.573 104.767 268.828 104.767 265.441C104.767 262.054 102.026 259.309 98.6434 259.309C95.2613 259.309 92.5195 262.054 92.5195 265.441C92.5195 268.828 95.2613 271.573 98.6434 271.573Z" fill="url(#paint64_linear_2755_17277)"/>
<path d="M78.8192 271.573C82.2013 271.573 84.9431 268.828 84.9431 265.441C84.9431 262.054 82.2013 259.309 78.8192 259.309C75.4371 259.309 72.6953 262.054 72.6953 265.441C72.6953 268.828 75.4371 271.573 78.8192 271.573Z" fill="#FFCD00"/>
<path d="M78.8192 271.573C82.2013 271.573 84.9431 268.828 84.9431 265.441C84.9431 262.054 82.2013 259.309 78.8192 259.309C75.4371 259.309 72.6953 262.054 72.6953 265.441C72.6953 268.828 75.4371 271.573 78.8192 271.573Z" fill="url(#paint65_linear_2755_17277)"/>
<path d="M130.35 288.839C133.733 288.839 136.474 286.093 136.474 282.707C136.474 279.32 133.733 276.574 130.35 276.574C126.968 276.574 124.227 279.32 124.227 282.707C124.227 286.093 126.968 288.839 130.35 288.839Z" fill="#FFCD00"/>
<path d="M130.35 288.839C133.733 288.839 136.474 286.093 136.474 282.707C136.474 279.32 133.733 276.574 130.35 276.574C126.968 276.574 124.227 279.32 124.227 282.707C124.227 286.093 126.968 288.839 130.35 288.839Z" fill="url(#paint66_linear_2755_17277)"/>
<path d="M110.53 288.839C113.912 288.839 116.654 286.093 116.654 282.707C116.654 279.32 113.912 276.574 110.53 276.574C107.148 276.574 104.406 279.32 104.406 282.707C104.406 286.093 107.148 288.839 110.53 288.839Z" fill="#FFCD00"/>
<path d="M110.53 288.839C113.912 288.839 116.654 286.093 116.654 282.707C116.654 279.32 113.912 276.574 110.53 276.574C107.148 276.574 104.406 279.32 104.406 282.707C104.406 286.093 107.148 288.839 110.53 288.839Z" fill="url(#paint67_linear_2755_17277)"/>
<path d="M90.7059 288.839C94.088 288.839 96.8298 286.093 96.8298 282.707C96.8298 279.32 94.088 276.574 90.7059 276.574C87.3238 276.574 84.582 279.32 84.582 282.707C84.582 286.093 87.3238 288.839 90.7059 288.839Z" fill="#FFCD00"/>
<path d="M90.7059 288.839C94.088 288.839 96.8298 286.093 96.8298 282.707C96.8298 279.32 94.088 276.574 90.7059 276.574C87.3238 276.574 84.582 279.32 84.582 282.707C84.582 286.093 87.3238 288.839 90.7059 288.839Z" fill="url(#paint68_linear_2755_17277)"/>
<path d="M70.9051 288.839C74.2873 288.839 77.029 286.093 77.029 282.707C77.029 279.32 74.2873 276.574 70.9051 276.574C67.523 276.574 64.7812 279.32 64.7812 282.707C64.7812 286.093 67.523 288.839 70.9051 288.839Z" fill="#FFCD00"/>
<path d="M70.9051 288.839C74.2873 288.839 77.029 286.093 77.029 282.707C77.029 279.32 74.2873 276.574 70.9051 276.574C67.523 276.574 64.7812 279.32 64.7812 282.707C64.7812 286.093 67.523 288.839 70.9051 288.839Z" fill="url(#paint69_linear_2755_17277)"/>
<path d="M122.413 306.105C125.795 306.105 128.537 303.359 128.537 299.972C128.537 296.585 125.795 293.84 122.413 293.84C119.031 293.84 116.289 296.585 116.289 299.972C116.289 303.359 119.031 306.105 122.413 306.105Z" fill="#FFCD00"/>
<path d="M122.413 306.105C125.795 306.105 128.537 303.359 128.537 299.972C128.537 296.585 125.795 293.84 122.413 293.84C119.031 293.84 116.289 296.585 116.289 299.972C116.289 303.359 119.031 306.105 122.413 306.105Z" fill="url(#paint70_linear_2755_17277)"/>
<path d="M102.612 306.105C105.994 306.105 108.736 303.359 108.736 299.972C108.736 296.585 105.994 293.84 102.612 293.84C99.23 293.84 96.4883 296.585 96.4883 299.972C96.4883 303.359 99.23 306.105 102.612 306.105Z" fill="#FFCD00"/>
<path d="M102.612 306.105C105.994 306.105 108.736 303.359 108.736 299.972C108.736 296.585 105.994 293.84 102.612 293.84C99.23 293.84 96.4883 296.585 96.4883 299.972C96.4883 303.359 99.23 306.105 102.612 306.105Z" fill="url(#paint71_linear_2755_17277)"/>
<path d="M82.7879 306.105C86.1701 306.105 88.9118 303.359 88.9118 299.972C88.9118 296.585 86.1701 293.84 82.7879 293.84C79.4058 293.84 76.6641 296.585 76.6641 299.972C76.6641 303.359 79.4058 306.105 82.7879 306.105Z" fill="#FFCD00"/>
<path d="M82.7879 306.105C86.1701 306.105 88.9118 303.359 88.9118 299.972C88.9118 296.585 86.1701 293.84 82.7879 293.84C79.4058 293.84 76.6641 296.585 76.6641 299.972C76.6641 303.359 79.4058 306.105 82.7879 306.105Z" fill="url(#paint72_linear_2755_17277)"/>
<path d="M62.9872 306.105C66.3693 306.105 69.1111 303.359 69.1111 299.972C69.1111 296.585 66.3693 293.84 62.9872 293.84C59.605 293.84 56.8633 296.585 56.8633 299.972C56.8633 303.359 59.605 306.105 62.9872 306.105Z" fill="#FFCD00"/>
<path d="M62.9872 306.105C66.3693 306.105 69.1111 303.359 69.1111 299.972C69.1111 296.585 66.3693 293.84 62.9872 293.84C59.605 293.84 56.8633 296.585 56.8633 299.972C56.8633 303.359 59.605 306.105 62.9872 306.105Z" fill="url(#paint73_linear_2755_17277)"/>
<path d="M114.495 323.366C117.877 323.366 120.619 320.621 120.619 317.234C120.619 313.847 117.877 311.102 114.495 311.102C111.113 311.102 108.371 313.847 108.371 317.234C108.371 320.621 111.113 323.366 114.495 323.366Z" fill="#FFCD00"/>
<path d="M114.495 323.366C117.877 323.366 120.619 320.621 120.619 317.234C120.619 313.847 117.877 311.102 114.495 311.102C111.113 311.102 108.371 313.847 108.371 317.234C108.371 320.621 111.113 323.366 114.495 323.366Z" fill="url(#paint74_linear_2755_17277)"/>
<path d="M94.6747 323.366C98.0568 323.366 100.799 320.621 100.799 317.234C100.799 313.847 98.0568 311.102 94.6747 311.102C91.2925 311.102 88.5508 313.847 88.5508 317.234C88.5508 320.621 91.2925 323.366 94.6747 323.366Z" fill="#FFCD00"/>
<path d="M94.6747 323.366C98.0568 323.366 100.799 320.621 100.799 317.234C100.799 313.847 98.0568 311.102 94.6747 311.102C91.2925 311.102 88.5508 313.847 88.5508 317.234C88.5508 320.621 91.2925 323.366 94.6747 323.366Z" fill="url(#paint75_linear_2755_17277)"/>
<path d="M74.8739 323.366C78.256 323.366 80.9978 320.621 80.9978 317.234C80.9978 313.847 78.256 311.102 74.8739 311.102C71.4918 311.102 68.75 313.847 68.75 317.234C68.75 320.621 71.4918 323.366 74.8739 323.366Z" fill="#FFCD00"/>
<path d="M74.8739 323.366C78.256 323.366 80.9978 320.621 80.9978 317.234C80.9978 313.847 78.256 311.102 74.8739 311.102C71.4918 311.102 68.75 313.847 68.75 317.234C68.75 320.621 71.4918 323.366 74.8739 323.366Z" fill="url(#paint76_linear_2755_17277)"/>
<path d="M55.0497 323.366C58.4318 323.366 61.1736 320.621 61.1736 317.234C61.1736 313.847 58.4318 311.102 55.0497 311.102C51.6675 311.102 48.9258 313.847 48.9258 317.234C48.9258 320.621 51.6675 323.366 55.0497 323.366Z" fill="#FFCD00"/>
<path d="M55.0497 323.366C58.4318 323.366 61.1736 320.621 61.1736 317.234C61.1736 313.847 58.4318 311.102 55.0497 311.102C51.6675 311.102 48.9258 313.847 48.9258 317.234C48.9258 320.621 51.6675 323.366 55.0497 323.366Z" fill="url(#paint77_linear_2755_17277)"/>
<path d="M106.581 340.632C109.963 340.632 112.705 337.886 112.705 334.5C112.705 331.113 109.963 328.367 106.581 328.367C103.199 328.367 100.457 331.113 100.457 334.5C100.457 337.886 103.199 340.632 106.581 340.632Z" fill="#FFCD00"/>
<path d="M106.581 340.632C109.963 340.632 112.705 337.886 112.705 334.5C112.705 331.113 109.963 328.367 106.581 328.367C103.199 328.367 100.457 331.113 100.457 334.5C100.457 337.886 103.199 340.632 106.581 340.632Z" fill="url(#paint78_linear_2755_17277)"/>
<path d="M86.7606 340.632C90.1427 340.632 92.8845 337.886 92.8845 334.5C92.8845 331.113 90.1427 328.367 86.7606 328.367C83.3785 328.367 80.6367 331.113 80.6367 334.5C80.6367 337.886 83.3785 340.632 86.7606 340.632Z" fill="#FFCD00"/>
<path d="M86.7606 340.632C90.1427 340.632 92.8845 337.886 92.8845 334.5C92.8845 331.113 90.1427 328.367 86.7606 328.367C83.3785 328.367 80.6367 331.113 80.6367 334.5C80.6367 337.886 83.3785 340.632 86.7606 340.632Z" fill="url(#paint79_linear_2755_17277)"/>
<path d="M66.9364 340.632C70.3185 340.632 73.0603 337.886 73.0603 334.5C73.0603 331.113 70.3185 328.367 66.9364 328.367C63.5543 328.367 60.8125 331.113 60.8125 334.5C60.8125 337.886 63.5543 340.632 66.9364 340.632Z" fill="#FFCD00"/>
<path d="M66.9364 340.632C70.3185 340.632 73.0603 337.886 73.0603 334.5C73.0603 331.113 70.3185 328.367 66.9364 328.367C63.5543 328.367 60.8125 331.113 60.8125 334.5C60.8125 337.886 63.5543 340.632 66.9364 340.632Z" fill="url(#paint80_linear_2755_17277)"/>
<path d="M47.1356 340.632C50.5177 340.632 53.2595 337.886 53.2595 334.5C53.2595 331.113 50.5177 328.367 47.1356 328.367C43.7535 328.367 41.0117 331.113 41.0117 334.5C41.0117 337.886 43.7535 340.632 47.1356 340.632Z" fill="#FFCD00"/>
<path d="M47.1356 340.632C50.5177 340.632 53.2595 337.886 53.2595 334.5C53.2595 331.113 50.5177 328.367 47.1356 328.367C43.7535 328.367 41.0117 331.113 41.0117 334.5C41.0117 337.886 43.7535 340.632 47.1356 340.632Z" fill="url(#paint81_linear_2755_17277)"/>
<path d="M98.6434 357.898C102.026 357.898 104.767 355.152 104.767 351.765C104.767 348.378 102.026 345.633 98.6434 345.633C95.2613 345.633 92.5195 348.378 92.5195 351.765C92.5195 355.152 95.2613 357.898 98.6434 357.898Z" fill="#FFCD00"/>
<path d="M98.6434 357.898C102.026 357.898 104.767 355.152 104.767 351.765C104.767 348.378 102.026 345.633 98.6434 345.633C95.2613 345.633 92.5195 348.378 92.5195 351.765C92.5195 355.152 95.2613 357.898 98.6434 357.898Z" fill="url(#paint82_linear_2755_17277)"/>
<path d="M78.8426 357.898C82.2248 357.898 84.9665 355.152 84.9665 351.765C84.9665 348.378 82.2248 345.633 78.8426 345.633C75.4605 345.633 72.7188 348.378 72.7188 351.765C72.7188 355.152 75.4605 357.898 78.8426 357.898Z" fill="#FFCD00"/>
<path d="M78.8426 357.898C82.2248 357.898 84.9665 355.152 84.9665 351.765C84.9665 348.378 82.2248 345.633 78.8426 345.633C75.4605 345.633 72.7188 348.378 72.7188 351.765C72.7188 355.152 75.4605 357.898 78.8426 357.898Z" fill="url(#paint83_linear_2755_17277)"/>
<path d="M59.0184 357.898C62.4005 357.898 65.1423 355.152 65.1423 351.765C65.1423 348.378 62.4005 345.633 59.0184 345.633C55.6363 345.633 52.8945 348.378 52.8945 351.765C52.8945 355.152 55.6363 357.898 59.0184 357.898Z" fill="#FFCD00"/>
<path d="M59.0184 357.898C62.4005 357.898 65.1423 355.152 65.1423 351.765C65.1423 348.378 62.4005 345.633 59.0184 345.633C55.6363 345.633 52.8945 348.378 52.8945 351.765C52.8945 355.152 55.6363 357.898 59.0184 357.898Z" fill="url(#paint84_linear_2755_17277)"/>
<path d="M39.2176 357.898C42.5998 357.898 45.3415 355.152 45.3415 351.765C45.3415 348.378 42.5998 345.633 39.2176 345.633C35.8355 345.633 33.0938 348.378 33.0938 351.765C33.0938 355.152 35.8355 357.898 39.2176 357.898Z" fill="#FFCD00"/>
<path d="M39.2176 357.898C42.5998 357.898 45.3415 355.152 45.3415 351.765C45.3415 348.378 42.5998 345.633 39.2176 345.633C35.8355 345.633 33.0938 348.378 33.0938 351.765C33.0938 355.152 35.8355 357.898 39.2176 357.898Z" fill="url(#paint85_linear_2755_17277)"/>
<path d="M90.7254 375.163C94.1076 375.163 96.8493 372.418 96.8493 369.031C96.8493 365.644 94.1076 362.898 90.7254 362.898C87.3433 362.898 84.6016 365.644 84.6016 369.031C84.6016 372.418 87.3433 375.163 90.7254 375.163Z" fill="#FFCD00"/>
<path d="M90.7254 375.163C94.1076 375.163 96.8493 372.418 96.8493 369.031C96.8493 365.644 94.1076 362.898 90.7254 362.898C87.3433 362.898 84.6016 365.644 84.6016 369.031C84.6016 372.418 87.3433 375.163 90.7254 375.163Z" fill="url(#paint86_linear_2755_17277)"/>
<path d="M70.9051 375.163C74.2873 375.163 77.029 372.418 77.029 369.031C77.029 365.644 74.2873 362.898 70.9051 362.898C67.523 362.898 64.7812 365.644 64.7812 369.031C64.7812 372.418 67.523 375.163 70.9051 375.163Z" fill="#FFCD00"/>
<path d="M70.9051 375.163C74.2873 375.163 77.029 372.418 77.029 369.031C77.029 365.644 74.2873 362.898 70.9051 362.898C67.523 362.898 64.7812 365.644 64.7812 369.031C64.7812 372.418 67.523 375.163 70.9051 375.163Z" fill="url(#paint87_linear_2755_17277)"/>
<path d="M51.1044 375.163C54.4865 375.163 57.2282 372.418 57.2282 369.031C57.2282 365.644 54.4865 362.898 51.1044 362.898C47.7222 362.898 44.9805 365.644 44.9805 369.031C44.9805 372.418 47.7222 375.163 51.1044 375.163Z" fill="#FFCD00"/>
<path d="M51.1044 375.163C54.4865 375.163 57.2282 372.418 57.2282 369.031C57.2282 365.644 54.4865 362.898 51.1044 362.898C47.7222 362.898 44.9805 365.644 44.9805 369.031C44.9805 372.418 47.7222 375.163 51.1044 375.163Z" fill="url(#paint88_linear_2755_17277)"/>
<path d="M31.2801 375.163C34.6623 375.163 37.404 372.418 37.404 369.031C37.404 365.644 34.6623 362.898 31.2801 362.898C27.898 362.898 25.1562 365.644 25.1562 369.031C25.1562 372.418 27.898 375.163 31.2801 375.163Z" fill="#FFCD00"/>
<path d="M31.2801 375.163C34.6623 375.163 37.404 372.418 37.404 369.031C37.404 365.644 34.6623 362.898 31.2801 362.898C27.898 362.898 25.1562 365.644 25.1562 369.031C25.1562 372.418 27.898 375.163 31.2801 375.163Z" fill="url(#paint89_linear_2755_17277)"/>
<path d="M82.7919 392.425C86.174 392.425 88.9157 389.679 88.9157 386.293C88.9157 382.906 86.174 380.16 82.7919 380.16C79.4097 380.16 76.668 382.906 76.668 386.293C76.668 389.679 79.4097 392.425 82.7919 392.425Z" fill="#FFCD00"/>
<path d="M82.7919 392.425C86.174 392.425 88.9157 389.679 88.9157 386.293C88.9157 382.906 86.174 380.16 82.7919 380.16C79.4097 380.16 76.668 382.906 76.668 386.293C76.668 389.679 79.4097 392.425 82.7919 392.425Z" fill="url(#paint90_linear_2755_17277)"/>
<path d="M62.9911 392.425C66.3732 392.425 69.115 389.679 69.115 386.293C69.115 382.906 66.3732 380.16 62.9911 380.16C59.6089 380.16 56.8672 382.906 56.8672 386.293C56.8672 389.679 59.6089 392.425 62.9911 392.425Z" fill="#FFCD00"/>
<path d="M62.9911 392.425C66.3732 392.425 69.115 389.679 69.115 386.293C69.115 382.906 66.3732 380.16 62.9911 380.16C59.6089 380.16 56.8672 382.906 56.8672 386.293C56.8672 389.679 59.6089 392.425 62.9911 392.425Z" fill="url(#paint91_linear_2755_17277)"/>
<path d="M43.1669 392.425C46.549 392.425 49.2907 389.679 49.2907 386.293C49.2907 382.906 46.549 380.16 43.1669 380.16C39.7847 380.16 37.043 382.906 37.043 386.293C37.043 389.679 39.7847 392.425 43.1669 392.425Z" fill="#FFCD00"/>
<path d="M43.1669 392.425C46.549 392.425 49.2907 389.679 49.2907 386.293C49.2907 382.906 46.549 380.16 43.1669 380.16C39.7847 380.16 37.043 382.906 37.043 386.293C37.043 389.679 39.7847 392.425 43.1669 392.425Z" fill="url(#paint92_linear_2755_17277)"/>
<path d="M23.3661 392.425C26.7482 392.425 29.49 389.679 29.49 386.293C29.49 382.906 26.7482 380.16 23.3661 380.16C19.9839 380.16 17.2422 382.906 17.2422 386.293C17.2422 389.679 19.9839 392.425 23.3661 392.425Z" fill="#FFCD00"/>
<path d="M23.3661 392.425C26.7482 392.425 29.49 389.679 29.49 386.293C29.49 382.906 26.7482 380.16 23.3661 380.16C19.9839 380.16 17.2422 382.906 17.2422 386.293C17.2422 389.679 19.9839 392.425 23.3661 392.425Z" fill="url(#paint93_linear_2755_17277)"/>
<path d="M74.8739 409.671C78.256 409.671 80.9978 406.925 80.9978 403.539C80.9978 400.152 78.256 397.406 74.8739 397.406C71.4918 397.406 68.75 400.152 68.75 403.539C68.75 406.925 71.4918 409.671 74.8739 409.671Z" fill="#FFCD00"/>
<path d="M74.8739 409.671C78.256 409.671 80.9978 406.925 80.9978 403.539C80.9978 400.152 78.256 397.406 74.8739 397.406C71.4918 397.406 68.75 400.152 68.75 403.539C68.75 406.925 71.4918 409.671 74.8739 409.671Z" fill="url(#paint94_linear_2755_17277)"/>
<path d="M55.0731 409.671C58.4552 409.671 61.197 406.925 61.197 403.539C61.197 400.152 58.4552 397.406 55.0731 397.406C51.691 397.406 48.9492 400.152 48.9492 403.539C48.9492 406.925 51.691 409.671 55.0731 409.671Z" fill="#FFCD00"/>
<path d="M55.0731 409.671C58.4552 409.671 61.197 406.925 61.197 403.539C61.197 400.152 58.4552 397.406 55.0731 397.406C51.691 397.406 48.9492 400.152 48.9492 403.539C48.9492 406.925 51.691 409.671 55.0731 409.671Z" fill="url(#paint95_linear_2755_17277)"/>
<path d="M35.2528 409.671C38.6349 409.671 41.3767 406.925 41.3767 403.539C41.3767 400.152 38.6349 397.406 35.2528 397.406C31.8707 397.406 29.1289 400.152 29.1289 403.539C29.1289 406.925 31.8707 409.671 35.2528 409.671Z" fill="#FFCD00"/>
<path d="M35.2528 409.671C38.6349 409.671 41.3767 406.925 41.3767 403.539C41.3767 400.152 38.6349 397.406 35.2528 397.406C31.8707 397.406 29.1289 400.152 29.1289 403.539C29.1289 406.925 31.8707 409.671 35.2528 409.671Z" fill="url(#paint96_linear_2755_17277)"/>
<path d="M15.4286 409.671C18.8107 409.671 21.5525 406.925 21.5525 403.539C21.5525 400.152 18.8107 397.406 15.4286 397.406C12.0464 397.406 9.30469 400.152 9.30469 403.539C9.30469 406.925 12.0464 409.671 15.4286 409.671Z" fill="#FFCD00"/>
<path d="M15.4286 409.671C18.8107 409.671 21.5525 406.925 21.5525 403.539C21.5525 400.152 18.8107 397.406 15.4286 397.406C12.0464 397.406 9.30469 400.152 9.30469 403.539C9.30469 406.925 12.0464 409.671 15.4286 409.671Z" fill="url(#paint97_linear_2755_17277)"/>
<path d="M66.9559 426.933C70.338 426.933 73.0798 424.187 73.0798 420.8C73.0798 417.414 70.338 414.668 66.9559 414.668C63.5738 414.668 60.832 417.414 60.832 420.8C60.832 424.187 63.5738 426.933 66.9559 426.933Z" fill="#FFCD00"/>
<path d="M66.9559 426.933C70.338 426.933 73.0798 424.187 73.0798 420.8C73.0798 417.414 70.338 414.668 66.9559 414.668C63.5738 414.668 60.832 417.414 60.832 420.8C60.832 424.187 63.5738 426.933 66.9559 426.933Z" fill="url(#paint98_linear_2755_17277)"/>
<path d="M47.1356 426.933C50.5177 426.933 53.2595 424.187 53.2595 420.8C53.2595 417.414 50.5177 414.668 47.1356 414.668C43.7535 414.668 41.0117 417.414 41.0117 420.8C41.0117 424.187 43.7535 426.933 47.1356 426.933Z" fill="#FFCD00"/>
<path d="M47.1356 426.933C50.5177 426.933 53.2595 424.187 53.2595 420.8C53.2595 417.414 50.5177 414.668 47.1356 414.668C43.7535 414.668 41.0117 417.414 41.0117 420.8C41.0117 424.187 43.7535 426.933 47.1356 426.933Z" fill="url(#paint99_linear_2755_17277)"/>
<path d="M27.3348 426.933C30.717 426.933 33.4587 424.187 33.4587 420.8C33.4587 417.414 30.717 414.668 27.3348 414.668C23.9527 414.668 21.2109 417.414 21.2109 420.8C21.2109 424.187 23.9527 426.933 27.3348 426.933Z" fill="#FFCD00"/>
<path d="M27.3348 426.933C30.717 426.933 33.4587 424.187 33.4587 420.8C33.4587 417.414 30.717 414.668 27.3348 414.668C23.9527 414.668 21.2109 417.414 21.2109 420.8C21.2109 424.187 23.9527 426.933 27.3348 426.933Z" fill="url(#paint100_linear_2755_17277)"/>
<path d="M7.5106 426.933C10.8927 426.933 13.6345 424.187 13.6345 420.8C13.6345 417.414 10.8927 414.668 7.5106 414.668C4.12848 414.668 1.38672 417.414 1.38672 420.8C1.38672 424.187 4.12848 426.933 7.5106 426.933Z" fill="#FFCD00"/>
<path d="M7.5106 426.933C10.8927 426.933 13.6345 424.187 13.6345 420.8C13.6345 417.414 10.8927 414.668 7.5106 414.668C4.12848 414.668 1.38672 417.414 1.38672 420.8C1.38672 424.187 4.12848 426.933 7.5106 426.933Z" fill="url(#paint101_linear_2755_17277)"/>
<path d="M104.086 177.753L23.3229 0H16.8789L100.842 184.783L104.086 177.753Z" fill="#FFCD00"/>
<path d="M104.086 177.753L23.3229 0H16.8789L100.842 184.783L104.086 177.753Z" fill="url(#paint102_linear_2755_17277)"/>
<path d="M112.579 159.292L40.2018 0H33.7578L109.336 166.321L112.579 159.292Z" fill="#FFCD00"/>
<path d="M112.579 159.292L40.2018 0H33.7578L109.336 166.321L112.579 159.292Z" fill="url(#paint103_linear_2755_17277)"/>
<path d="M121.07 140.809L57.0789 0H50.6562L117.827 147.839L121.07 140.809Z" fill="#FFCD00"/>
<path d="M121.07 140.809L57.0789 0H50.6562L117.827 147.839L121.07 140.809Z" fill="url(#paint104_linear_2755_17277)"/>
<path d="M129.564 122.348L73.9578 0H67.5352L126.32 129.378L129.564 122.348Z" fill="#FFCD00"/>
<path d="M129.564 122.348L73.9578 0H67.5352L126.32 129.378L129.564 122.348Z" fill="url(#paint105_linear_2755_17277)"/>
<path d="M95.5923 196.214L6.42261 0H0L92.349 203.244L95.5923 196.214Z" fill="#FFCD00"/>
<path d="M95.5923 196.214L6.42261 0H0L92.349 203.244L95.5923 196.214Z" fill="url(#paint106_linear_2755_17277)"/>
<path d="M174.989 222.324L171.746 229.333L261.577 427H268L174.989 222.324Z" fill="#FFCD00"/>
<path d="M174.989 222.324L171.746 229.333L261.577 427H268L174.989 222.324Z" fill="url(#paint107_linear_2755_17277)"/>
<path d="M163.211 247.731L244.678 427.001H251.122L166.476 240.723L163.211 247.731Z" fill="#FFCD00"/>
<path d="M163.211 247.731L244.678 427.001H251.122L166.476 240.723L163.211 247.731Z" fill="url(#paint108_linear_2755_17277)"/>
<path d="M137.648 302.901L194.044 427.001H200.466L140.892 295.914L137.648 302.901Z" fill="#FFCD00"/>
<path d="M137.648 302.901L194.044 427.001H200.466L140.892 295.914L137.648 302.901Z" fill="url(#paint109_linear_2755_17277)"/>
<path d="M146.164 284.524L210.924 427H217.346L149.407 277.516L146.164 284.524Z" fill="#FFCD00"/>
<path d="M146.164 284.524L210.924 427H217.346L149.407 277.516L146.164 284.524Z" fill="url(#paint110_linear_2755_17277)"/>
<path d="M154.699 266.126L227.802 426.998H234.224L157.943 259.117L154.699 266.126Z" fill="#FFCD00"/>
<path d="M154.699 266.126L227.802 426.998H234.224L157.943 259.117L154.699 266.126Z" fill="url(#paint111_linear_2755_17277)"/>
</g>
<defs>
<linearGradient id="paint0_linear_2755_17277" x1="109.609" y1="26.3168" x2="157.076" y2="26.3168" gradientUnits="userSpaceOnUse">
<stop stop-color="#BDD7E7"/>
<stop offset="0.23" stop-color="#BDB7D5"/>
<stop offset="0.465" stop-color="#F1C7C7"/>
<stop offset="0.735" stop-color="#F5F0C9"/>
<stop offset="1" stop-color="#CCE2C8"/>
</linearGradient>
<linearGradient id="paint1_linear_2755_17277" x1="106.625" y1="403.688" x2="160.205" y2="403.688" gradientUnits="userSpaceOnUse">
<stop stop-color="#BDD7E7"/>
<stop offset="0.23" stop-color="#BDB7D5"/>
<stop offset="0.465" stop-color="#F1C7C7"/>
<stop offset="0.735" stop-color="#F5F0C9"/>
<stop offset="1" stop-color="#CCE2C8"/>
</linearGradient>
<linearGradient id="paint2_linear_2755_17277" x1="250.992" y1="6.54343" x2="263.525" y2="6.54343" gradientUnits="userSpaceOnUse">
<stop stop-color="#BDD7E7"/>
<stop offset="0.23" stop-color="#BDB7D5"/>
<stop offset="0.465" stop-color="#F1C7C7"/>
<stop offset="0.735" stop-color="#F5F0C9"/>
<stop offset="1" stop-color="#CCE2C8"/>
</linearGradient>
<linearGradient id="paint3_linear_2755_17277" x1="231.172" y1="6.54343" x2="243.704" y2="6.54343" gradientUnits="userSpaceOnUse">
<stop stop-color="#BDD7E7"/>
<stop offset="0.23" stop-color="#BDB7D5"/>
<stop offset="0.465" stop-color="#F1C7C7"/>
<stop offset="0.735" stop-color="#F5F0C9"/>
<stop offset="1" stop-color="#CCE2C8"/>
</linearGradient>
<linearGradient id="paint4_linear_2755_17277" x1="211.371" y1="6.54343" x2="223.904" y2="6.54343" gradientUnits="userSpaceOnUse">
<stop stop-color="#BDD7E7"/>
<stop offset="0.23" stop-color="#BDB7D5"/>
<stop offset="0.465" stop-color="#F1C7C7"/>
<stop offset="0.735" stop-color="#F5F0C9"/>
<stop offset="1" stop-color="#CCE2C8"/>
</linearGradient>
<linearGradient id="paint5_linear_2755_17277" x1="191.547" y1="6.54343" x2="204.079" y2="6.54343" gradientUnits="userSpaceOnUse">
<stop stop-color="#BDD7E7"/>
<stop offset="0.23" stop-color="#BDB7D5"/>
<stop offset="0.465" stop-color="#F1C7C7"/>
<stop offset="0.735" stop-color="#F5F0C9"/>
<stop offset="1" stop-color="#CCE2C8"/>
</linearGradient>
<linearGradient id="paint6_linear_2755_17277" x1="243.078" y1="23.8091" x2="255.611" y2="23.8091" gradientUnits="userSpaceOnUse">
<stop stop-color="#BDD7E7"/>
<stop offset="0.23" stop-color="#BDB7D5"/>
<stop offset="0.465" stop-color="#F1C7C7"/>
<stop offset="0.735" stop-color="#F5F0C9"/>
<stop offset="1" stop-color="#CCE2C8"/>
</linearGradient>
<linearGradient id="paint7_linear_2755_17277" x1="223.258" y1="23.8091" x2="235.79" y2="23.8091" gradientUnits="userSpaceOnUse">
<stop stop-color="#BDD7E7"/>
<stop offset="0.23" stop-color="#BDB7D5"/>
<stop offset="0.465" stop-color="#F1C7C7"/>
<stop offset="0.735" stop-color="#F5F0C9"/>
<stop offset="1" stop-color="#CCE2C8"/>
</linearGradient>
<linearGradient id="paint8_linear_2755_17277" x1="203.434" y1="23.8091" x2="215.966" y2="23.8091" gradientUnits="userSpaceOnUse">
<stop stop-color="#BDD7E7"/>
<stop offset="0.23" stop-color="#BDB7D5"/>
<stop offset="0.465" stop-color="#F1C7C7"/>
<stop offset="0.735" stop-color="#F5F0C9"/>
<stop offset="1" stop-color="#CCE2C8"/>
</linearGradient>
<linearGradient id="paint9_linear_2755_17277" x1="183.633" y1="23.8091" x2="196.165" y2="23.8091" gradientUnits="userSpaceOnUse">
<stop stop-color="#BDD7E7"/>
<stop offset="0.23" stop-color="#BDB7D5"/>
<stop offset="0.465" stop-color="#F1C7C7"/>
<stop offset="0.735" stop-color="#F5F0C9"/>
<stop offset="1" stop-color="#CCE2C8"/>
</linearGradient>
<linearGradient id="paint10_linear_2755_17277" x1="235.141" y1="41.0708" x2="247.673" y2="41.0708" gradientUnits="userSpaceOnUse">
<stop stop-color="#BDD7E7"/>
<stop offset="0.23" stop-color="#BDB7D5"/>
<stop offset="0.465" stop-color="#F1C7C7"/>
<stop offset="0.735" stop-color="#F5F0C9"/>
<stop offset="1" stop-color="#CCE2C8"/>
</linearGradient>
<linearGradient id="paint11_linear_2755_17277" x1="215.34" y1="41.0708" x2="227.872" y2="41.0708" gradientUnits="userSpaceOnUse">
<stop stop-color="#BDD7E7"/>
<stop offset="0.23" stop-color="#BDB7D5"/>
<stop offset="0.465" stop-color="#F1C7C7"/>
<stop offset="0.735" stop-color="#F5F0C9"/>
<stop offset="1" stop-color="#CCE2C8"/>
</linearGradient>
<linearGradient id="paint12_linear_2755_17277" x1="195.516" y1="41.0708" x2="208.048" y2="41.0708" gradientUnits="userSpaceOnUse">
<stop stop-color="#BDD7E7"/>
<stop offset="0.23" stop-color="#BDB7D5"/>
<stop offset="0.465" stop-color="#F1C7C7"/>
<stop offset="0.735" stop-color="#F5F0C9"/>
<stop offset="1" stop-color="#CCE2C8"/>
</linearGradient>
<linearGradient id="paint13_linear_2755_17277" x1="175.715" y1="41.0708" x2="188.247" y2="41.0708" gradientUnits="userSpaceOnUse">
<stop stop-color="#BDD7E7"/>
<stop offset="0.23" stop-color="#BDB7D5"/>
<stop offset="0.465" stop-color="#F1C7C7"/>
<stop offset="0.735" stop-color="#F5F0C9"/>
<stop offset="1" stop-color="#CCE2C8"/>
</linearGradient>
<linearGradient id="paint14_linear_2755_17277" x1="227.223" y1="58.3364" x2="239.755" y2="58.3364" gradientUnits="userSpaceOnUse">
<stop stop-color="#BDD7E7"/>
<stop offset="0.23" stop-color="#BDB7D5"/>
<stop offset="0.465" stop-color="#F1C7C7"/>
<stop offset="0.735" stop-color="#F5F0C9"/>
<stop offset="1" stop-color="#CCE2C8"/>
</linearGradient>
<linearGradient id="paint15_linear_2755_17277" x1="207.402" y1="58.3364" x2="219.935" y2="58.3364" gradientUnits="userSpaceOnUse">
<stop stop-color="#BDD7E7"/>
<stop offset="0.23" stop-color="#BDB7D5"/>
<stop offset="0.465" stop-color="#F1C7C7"/>
<stop offset="0.735" stop-color="#F5F0C9"/>
<stop offset="1" stop-color="#CCE2C8"/>
</linearGradient>
<linearGradient id="paint16_linear_2755_17277" x1="187.602" y1="58.3364" x2="200.134" y2="58.3364" gradientUnits="userSpaceOnUse">
<stop stop-color="#BDD7E7"/>
<stop offset="0.23" stop-color="#BDB7D5"/>
<stop offset="0.465" stop-color="#F1C7C7"/>
<stop offset="0.735" stop-color="#F5F0C9"/>
<stop offset="1" stop-color="#CCE2C8"/>
</linearGradient>
<linearGradient id="paint17_linear_2755_17277" x1="167.777" y1="58.3364" x2="180.31" y2="58.3364" gradientUnits="userSpaceOnUse">
<stop stop-color="#BDD7E7"/>
<stop offset="0.23" stop-color="#BDB7D5"/>
<stop offset="0.465" stop-color="#F1C7C7"/>
<stop offset="0.735" stop-color="#F5F0C9"/>
<stop offset="1" stop-color="#CCE2C8"/>
</linearGradient>
<linearGradient id="paint18_linear_2755_17277" x1="219.305" y1="75.602" x2="231.837" y2="75.602" gradientUnits="userSpaceOnUse">
<stop stop-color="#BDD7E7"/>
<stop offset="0.23" stop-color="#BDB7D5"/>
<stop offset="0.465" stop-color="#F1C7C7"/>
<stop offset="0.735" stop-color="#F5F0C9"/>
<stop offset="1" stop-color="#CCE2C8"/>
</linearGradient>
<linearGradient id="paint19_linear_2755_17277" x1="199.484" y1="75.602" x2="212.017" y2="75.602" gradientUnits="userSpaceOnUse">
<stop stop-color="#BDD7E7"/>
<stop offset="0.23" stop-color="#BDB7D5"/>
<stop offset="0.465" stop-color="#F1C7C7"/>
<stop offset="0.735" stop-color="#F5F0C9"/>
<stop offset="1" stop-color="#CCE2C8"/>
</linearGradient>
<linearGradient id="paint20_linear_2755_17277" x1="179.66" y1="75.602" x2="192.193" y2="75.602" gradientUnits="userSpaceOnUse">
<stop stop-color="#BDD7E7"/>
<stop offset="0.23" stop-color="#BDB7D5"/>
<stop offset="0.465" stop-color="#F1C7C7"/>
<stop offset="0.735" stop-color="#F5F0C9"/>
<stop offset="1" stop-color="#CCE2C8"/>
</linearGradient>
<linearGradient id="paint21_linear_2755_17277" x1="159.859" y1="75.602" x2="172.392" y2="75.602" gradientUnits="userSpaceOnUse">
<stop stop-color="#BDD7E7"/>
<stop offset="0.23" stop-color="#BDB7D5"/>
<stop offset="0.465" stop-color="#F1C7C7"/>
<stop offset="0.735" stop-color="#F5F0C9"/>
<stop offset="1" stop-color="#CCE2C8"/>
</linearGradient>
<linearGradient id="paint22_linear_2755_17277" x1="211.371" y1="92.8676" x2="223.904" y2="92.8676" gradientUnits="userSpaceOnUse">
<stop stop-color="#BDD7E7"/>
<stop offset="0.23" stop-color="#BDB7D5"/>
<stop offset="0.465" stop-color="#F1C7C7"/>
<stop offset="0.735" stop-color="#F5F0C9"/>
<stop offset="1" stop-color="#CCE2C8"/>
</linearGradient>
<linearGradient id="paint23_linear_2755_17277" x1="191.57" y1="92.8676" x2="204.103" y2="92.8676" gradientUnits="userSpaceOnUse">
<stop stop-color="#BDD7E7"/>
<stop offset="0.23" stop-color="#BDB7D5"/>
<stop offset="0.465" stop-color="#F1C7C7"/>
<stop offset="0.735" stop-color="#F5F0C9"/>
<stop offset="1" stop-color="#CCE2C8"/>
</linearGradient>
<linearGradient id="paint24_linear_2755_17277" x1="171.746" y1="92.8676" x2="184.279" y2="92.8676" gradientUnits="userSpaceOnUse">
<stop stop-color="#BDD7E7"/>
<stop offset="0.23" stop-color="#BDB7D5"/>
<stop offset="0.465" stop-color="#F1C7C7"/>
<stop offset="0.735" stop-color="#F5F0C9"/>
<stop offset="1" stop-color="#CCE2C8"/>
</linearGradient>
<linearGradient id="paint25_linear_2755_17277" x1="151.945" y1="92.8676" x2="164.478" y2="92.8676" gradientUnits="userSpaceOnUse">
<stop stop-color="#BDD7E7"/>
<stop offset="0.23" stop-color="#BDB7D5"/>
<stop offset="0.465" stop-color="#F1C7C7"/>
<stop offset="0.735" stop-color="#F5F0C9"/>
<stop offset="1" stop-color="#CCE2C8"/>
</linearGradient>
<linearGradient id="paint26_linear_2755_17277" x1="203.453" y1="110.129" x2="215.986" y2="110.129" gradientUnits="userSpaceOnUse">
<stop stop-color="#BDD7E7"/>
<stop offset="0.23" stop-color="#BDB7D5"/>
<stop offset="0.465" stop-color="#F1C7C7"/>
<stop offset="0.735" stop-color="#F5F0C9"/>
<stop offset="1" stop-color="#CCE2C8"/>
</linearGradient>
<linearGradient id="paint27_linear_2755_17277" x1="183.633" y1="110.129" x2="196.165" y2="110.129" gradientUnits="userSpaceOnUse">
<stop stop-color="#BDD7E7"/>
<stop offset="0.23" stop-color="#BDB7D5"/>
<stop offset="0.465" stop-color="#F1C7C7"/>
<stop offset="0.735" stop-color="#F5F0C9"/>
<stop offset="1" stop-color="#CCE2C8"/>
</linearGradient>
<linearGradient id="paint28_linear_2755_17277" x1="163.832" y1="110.129" x2="176.365" y2="110.129" gradientUnits="userSpaceOnUse">
<stop stop-color="#BDD7E7"/>
<stop offset="0.23" stop-color="#BDB7D5"/>
<stop offset="0.465" stop-color="#F1C7C7"/>
<stop offset="0.735" stop-color="#F5F0C9"/>
<stop offset="1" stop-color="#CCE2C8"/>
</linearGradient>
<linearGradient id="paint29_linear_2755_17277" x1="144.008" y1="110.129" x2="156.54" y2="110.129" gradientUnits="userSpaceOnUse">
<stop stop-color="#BDD7E7"/>
<stop offset="0.23" stop-color="#BDB7D5"/>
<stop offset="0.465" stop-color="#F1C7C7"/>
<stop offset="0.735" stop-color="#F5F0C9"/>
<stop offset="1" stop-color="#CCE2C8"/>
</linearGradient>
<linearGradient id="paint30_linear_2755_17277" x1="195.535" y1="127.375" x2="208.068" y2="127.375" gradientUnits="userSpaceOnUse">
<stop stop-color="#BDD7E7"/>
<stop offset="0.23" stop-color="#BDB7D5"/>
<stop offset="0.465" stop-color="#F1C7C7"/>
<stop offset="0.735" stop-color="#F5F0C9"/>
<stop offset="1" stop-color="#CCE2C8"/>
</linearGradient>
<linearGradient id="paint31_linear_2755_17277" x1="175.715" y1="127.375" x2="188.247" y2="127.375" gradientUnits="userSpaceOnUse">
<stop stop-color="#BDD7E7"/>
<stop offset="0.23" stop-color="#BDB7D5"/>
<stop offset="0.465" stop-color="#F1C7C7"/>
<stop offset="0.735" stop-color="#F5F0C9"/>
<stop offset="1" stop-color="#CCE2C8"/>
</linearGradient>
<linearGradient id="paint32_linear_2755_17277" x1="155.891" y1="127.375" x2="168.423" y2="127.375" gradientUnits="userSpaceOnUse">
<stop stop-color="#BDD7E7"/>
<stop offset="0.23" stop-color="#BDB7D5"/>
<stop offset="0.465" stop-color="#F1C7C7"/>
<stop offset="0.735" stop-color="#F5F0C9"/>
<stop offset="1" stop-color="#CCE2C8"/>
</linearGradient>
<linearGradient id="paint33_linear_2755_17277" x1="136.09" y1="127.375" x2="148.622" y2="127.375" gradientUnits="userSpaceOnUse">
<stop stop-color="#BDD7E7"/>
<stop offset="0.23" stop-color="#BDB7D5"/>
<stop offset="0.465" stop-color="#F1C7C7"/>
<stop offset="0.735" stop-color="#F5F0C9"/>
<stop offset="1" stop-color="#CCE2C8"/>
</linearGradient>
<linearGradient id="paint34_linear_2755_17277" x1="187.602" y1="144.637" x2="200.134" y2="144.637" gradientUnits="userSpaceOnUse">
<stop stop-color="#BDD7E7"/>
<stop offset="0.23" stop-color="#BDB7D5"/>
<stop offset="0.465" stop-color="#F1C7C7"/>
<stop offset="0.735" stop-color="#F5F0C9"/>
<stop offset="1" stop-color="#CCE2C8"/>
</linearGradient>
<linearGradient id="paint35_linear_2755_17277" x1="167.801" y1="144.637" x2="180.333" y2="144.637" gradientUnits="userSpaceOnUse">
<stop stop-color="#BDD7E7"/>
<stop offset="0.23" stop-color="#BDB7D5"/>
<stop offset="0.465" stop-color="#F1C7C7"/>
<stop offset="0.735" stop-color="#F5F0C9"/>
<stop offset="1" stop-color="#CCE2C8"/>
</linearGradient>
<linearGradient id="paint36_linear_2755_17277" x1="147.977" y1="144.637" x2="160.509" y2="144.637" gradientUnits="userSpaceOnUse">
<stop stop-color="#BDD7E7"/>
<stop offset="0.23" stop-color="#BDB7D5"/>
<stop offset="0.465" stop-color="#F1C7C7"/>
<stop offset="0.735" stop-color="#F5F0C9"/>
<stop offset="1" stop-color="#CCE2C8"/>
</linearGradient>
<linearGradient id="paint37_linear_2755_17277" x1="128.176" y1="144.637" x2="140.708" y2="144.637" gradientUnits="userSpaceOnUse">
<stop stop-color="#BDD7E7"/>
<stop offset="0.23" stop-color="#BDB7D5"/>
<stop offset="0.465" stop-color="#F1C7C7"/>
<stop offset="0.735" stop-color="#F5F0C9"/>
<stop offset="1" stop-color="#CCE2C8"/>
</linearGradient>
<linearGradient id="paint38_linear_2755_17277" x1="179.684" y1="161.903" x2="192.216" y2="161.903" gradientUnits="userSpaceOnUse">
<stop stop-color="#BDD7E7"/>
<stop offset="0.23" stop-color="#BDB7D5"/>
<stop offset="0.465" stop-color="#F1C7C7"/>
<stop offset="0.735" stop-color="#F5F0C9"/>
<stop offset="1" stop-color="#CCE2C8"/>
</linearGradient>
<linearGradient id="paint39_linear_2755_17277" x1="159.863" y1="161.903" x2="172.396" y2="161.903" gradientUnits="userSpaceOnUse">
<stop stop-color="#BDD7E7"/>
<stop offset="0.23" stop-color="#BDB7D5"/>
<stop offset="0.465" stop-color="#F1C7C7"/>
<stop offset="0.735" stop-color="#F5F0C9"/>
<stop offset="1" stop-color="#CCE2C8"/>
</linearGradient>
<linearGradient id="paint40_linear_2755_17277" x1="140.063" y1="161.903" x2="152.595" y2="161.903" gradientUnits="userSpaceOnUse">
<stop stop-color="#BDD7E7"/>
<stop offset="0.23" stop-color="#BDB7D5"/>
<stop offset="0.465" stop-color="#F1C7C7"/>
<stop offset="0.735" stop-color="#F5F0C9"/>
<stop offset="1" stop-color="#CCE2C8"/>
</linearGradient>
<linearGradient id="paint41_linear_2755_17277" x1="120.238" y1="161.903" x2="132.771" y2="161.903" gradientUnits="userSpaceOnUse">
<stop stop-color="#BDD7E7"/>
<stop offset="0.23" stop-color="#BDB7D5"/>
<stop offset="0.465" stop-color="#F1C7C7"/>
<stop offset="0.735" stop-color="#F5F0C9"/>
<stop offset="1" stop-color="#CCE2C8"/>
</linearGradient>
<linearGradient id="paint42_linear_2755_17277" x1="171.766" y1="179.168" x2="184.298" y2="179.168" gradientUnits="userSpaceOnUse">
<stop stop-color="#BDD7E7"/>
<stop offset="0.23" stop-color="#BDB7D5"/>
<stop offset="0.465" stop-color="#F1C7C7"/>
<stop offset="0.735" stop-color="#F5F0C9"/>
<stop offset="1" stop-color="#CCE2C8"/>
</linearGradient>
<linearGradient id="paint43_linear_2755_17277" x1="151.945" y1="179.168" x2="164.478" y2="179.168" gradientUnits="userSpaceOnUse">
<stop stop-color="#BDD7E7"/>
<stop offset="0.23" stop-color="#BDB7D5"/>
<stop offset="0.465" stop-color="#F1C7C7"/>
<stop offset="0.735" stop-color="#F5F0C9"/>
<stop offset="1" stop-color="#CCE2C8"/>
</linearGradient>
<linearGradient id="paint44_linear_2755_17277" x1="132.121" y1="179.168" x2="144.654" y2="179.168" gradientUnits="userSpaceOnUse">
<stop stop-color="#BDD7E7"/>
<stop offset="0.23" stop-color="#BDB7D5"/>
<stop offset="0.465" stop-color="#F1C7C7"/>
<stop offset="0.735" stop-color="#F5F0C9"/>
<stop offset="1" stop-color="#CCE2C8"/>
</linearGradient>
<linearGradient id="paint45_linear_2755_17277" x1="112.32" y1="179.168" x2="124.853" y2="179.168" gradientUnits="userSpaceOnUse">
<stop stop-color="#BDD7E7"/>
<stop offset="0.23" stop-color="#BDB7D5"/>
<stop offset="0.465" stop-color="#F1C7C7"/>
<stop offset="0.735" stop-color="#F5F0C9"/>
<stop offset="1" stop-color="#CCE2C8"/>
</linearGradient>
<linearGradient id="paint46_linear_2755_17277" x1="163.832" y1="196.434" x2="176.365" y2="196.434" gradientUnits="userSpaceOnUse">
<stop stop-color="#BDD7E7"/>
<stop offset="0.23" stop-color="#BDB7D5"/>
<stop offset="0.465" stop-color="#F1C7C7"/>
<stop offset="0.735" stop-color="#F5F0C9"/>
<stop offset="1" stop-color="#CCE2C8"/>
</linearGradient>
<linearGradient id="paint47_linear_2755_17277" x1="144.031" y1="196.434" x2="156.564" y2="196.434" gradientUnits="userSpaceOnUse">
<stop stop-color="#BDD7E7"/>
<stop offset="0.23" stop-color="#BDB7D5"/>
<stop offset="0.465" stop-color="#F1C7C7"/>
<stop offset="0.735" stop-color="#F5F0C9"/>
<stop offset="1" stop-color="#CCE2C8"/>
</linearGradient>
<linearGradient id="paint48_linear_2755_17277" x1="124.207" y1="196.434" x2="136.74" y2="196.434" gradientUnits="userSpaceOnUse">
<stop stop-color="#BDD7E7"/>
<stop offset="0.23" stop-color="#BDB7D5"/>
<stop offset="0.465" stop-color="#F1C7C7"/>
<stop offset="0.735" stop-color="#F5F0C9"/>
<stop offset="1" stop-color="#CCE2C8"/>
</linearGradient>
<linearGradient id="paint49_linear_2755_17277" x1="104.406" y1="196.434" x2="116.939" y2="196.434" gradientUnits="userSpaceOnUse">
<stop stop-color="#BDD7E7"/>
<stop offset="0.23" stop-color="#BDB7D5"/>
<stop offset="0.465" stop-color="#F1C7C7"/>
<stop offset="0.735" stop-color="#F5F0C9"/>
<stop offset="1" stop-color="#CCE2C8"/>
</linearGradient>
<linearGradient id="paint50_linear_2755_17277" x1="155.914" y1="213.696" x2="168.447" y2="213.696" gradientUnits="userSpaceOnUse">
<stop stop-color="#BDD7E7"/>
<stop offset="0.23" stop-color="#BDB7D5"/>
<stop offset="0.465" stop-color="#F1C7C7"/>
<stop offset="0.735" stop-color="#F5F0C9"/>
<stop offset="1" stop-color="#CCE2C8"/>
</linearGradient>
<linearGradient id="paint51_linear_2755_17277" x1="136.094" y1="213.696" x2="148.626" y2="213.696" gradientUnits="userSpaceOnUse">
<stop stop-color="#BDD7E7"/>
<stop offset="0.23" stop-color="#BDB7D5"/>
<stop offset="0.465" stop-color="#F1C7C7"/>
<stop offset="0.735" stop-color="#F5F0C9"/>
<stop offset="1" stop-color="#CCE2C8"/>
</linearGradient>
<linearGradient id="paint52_linear_2755_17277" x1="116.293" y1="213.696" x2="128.826" y2="213.696" gradientUnits="userSpaceOnUse">
<stop stop-color="#BDD7E7"/>
<stop offset="0.23" stop-color="#BDB7D5"/>
<stop offset="0.465" stop-color="#F1C7C7"/>
<stop offset="0.735" stop-color="#F5F0C9"/>
<stop offset="1" stop-color="#CCE2C8"/>
</linearGradient>
<linearGradient id="paint53_linear_2755_17277" x1="96.4688" y1="213.696" x2="109.001" y2="213.696" gradientUnits="userSpaceOnUse">
<stop stop-color="#BDD7E7"/>
<stop offset="0.23" stop-color="#BDB7D5"/>
<stop offset="0.465" stop-color="#F1C7C7"/>
<stop offset="0.735" stop-color="#F5F0C9"/>
<stop offset="1" stop-color="#CCE2C8"/>
</linearGradient>
<linearGradient id="paint54_linear_2755_17277" x1="147.996" y1="230.961" x2="160.529" y2="230.961" gradientUnits="userSpaceOnUse">
<stop stop-color="#BDD7E7"/>
<stop offset="0.23" stop-color="#BDB7D5"/>
<stop offset="0.465" stop-color="#F1C7C7"/>
<stop offset="0.735" stop-color="#F5F0C9"/>
<stop offset="1" stop-color="#CCE2C8"/>
</linearGradient>
<linearGradient id="paint55_linear_2755_17277" x1="128.176" y1="230.961" x2="140.708" y2="230.961" gradientUnits="userSpaceOnUse">
<stop stop-color="#BDD7E7"/>
<stop offset="0.23" stop-color="#BDB7D5"/>
<stop offset="0.465" stop-color="#F1C7C7"/>
<stop offset="0.735" stop-color="#F5F0C9"/>
<stop offset="1" stop-color="#CCE2C8"/>
</linearGradient>
<linearGradient id="paint56_linear_2755_17277" x1="108.352" y1="230.961" x2="120.884" y2="230.961" gradientUnits="userSpaceOnUse">
<stop stop-color="#BDD7E7"/>
<stop offset="0.23" stop-color="#BDB7D5"/>
<stop offset="0.465" stop-color="#F1C7C7"/>
<stop offset="0.735" stop-color="#F5F0C9"/>
<stop offset="1" stop-color="#CCE2C8"/>
</linearGradient>
<linearGradient id="paint57_linear_2755_17277" x1="88.5508" y1="230.961" x2="101.083" y2="230.961" gradientUnits="userSpaceOnUse">
<stop stop-color="#BDD7E7"/>
<stop offset="0.23" stop-color="#BDB7D5"/>
<stop offset="0.465" stop-color="#F1C7C7"/>
<stop offset="0.735" stop-color="#F5F0C9"/>
<stop offset="1" stop-color="#CCE2C8"/>
</linearGradient>
<linearGradient id="paint58_linear_2755_17277" x1="140.059" y1="248.227" x2="152.591" y2="248.227" gradientUnits="userSpaceOnUse">
<stop stop-color="#BDD7E7"/>
<stop offset="0.23" stop-color="#BDB7D5"/>
<stop offset="0.465" stop-color="#F1C7C7"/>
<stop offset="0.735" stop-color="#F5F0C9"/>
<stop offset="1" stop-color="#CCE2C8"/>
</linearGradient>
<linearGradient id="paint59_linear_2755_17277" x1="120.258" y1="248.227" x2="132.79" y2="248.227" gradientUnits="userSpaceOnUse">
<stop stop-color="#BDD7E7"/>
<stop offset="0.23" stop-color="#BDB7D5"/>
<stop offset="0.465" stop-color="#F1C7C7"/>
<stop offset="0.735" stop-color="#F5F0C9"/>
<stop offset="1" stop-color="#CCE2C8"/>
</linearGradient>
<linearGradient id="paint60_linear_2755_17277" x1="100.434" y1="248.227" x2="112.966" y2="248.227" gradientUnits="userSpaceOnUse">
<stop stop-color="#BDD7E7"/>
<stop offset="0.23" stop-color="#BDB7D5"/>
<stop offset="0.465" stop-color="#F1C7C7"/>
<stop offset="0.735" stop-color="#F5F0C9"/>
<stop offset="1" stop-color="#CCE2C8"/>
</linearGradient>
<linearGradient id="paint61_linear_2755_17277" x1="80.6328" y1="248.227" x2="93.1654" y2="248.227" gradientUnits="userSpaceOnUse">
<stop stop-color="#BDD7E7"/>
<stop offset="0.23" stop-color="#BDB7D5"/>
<stop offset="0.465" stop-color="#F1C7C7"/>
<stop offset="0.735" stop-color="#F5F0C9"/>
<stop offset="1" stop-color="#CCE2C8"/>
</linearGradient>
<linearGradient id="paint62_linear_2755_17277" x1="132.141" y1="265.469" x2="144.673" y2="265.469" gradientUnits="userSpaceOnUse">
<stop stop-color="#BDD7E7"/>
<stop offset="0.23" stop-color="#BDB7D5"/>
<stop offset="0.465" stop-color="#F1C7C7"/>
<stop offset="0.735" stop-color="#F5F0C9"/>
<stop offset="1" stop-color="#CCE2C8"/>
</linearGradient>
<linearGradient id="paint63_linear_2755_17277" x1="112.32" y1="265.469" x2="124.853" y2="265.469" gradientUnits="userSpaceOnUse">
<stop stop-color="#BDD7E7"/>
<stop offset="0.23" stop-color="#BDB7D5"/>
<stop offset="0.465" stop-color="#F1C7C7"/>
<stop offset="0.735" stop-color="#F5F0C9"/>
<stop offset="1" stop-color="#CCE2C8"/>
</linearGradient>
<linearGradient id="paint64_linear_2755_17277" x1="92.5195" y1="265.469" x2="105.052" y2="265.469" gradientUnits="userSpaceOnUse">
<stop stop-color="#BDD7E7"/>
<stop offset="0.23" stop-color="#BDB7D5"/>
<stop offset="0.465" stop-color="#F1C7C7"/>
<stop offset="0.735" stop-color="#F5F0C9"/>
<stop offset="1" stop-color="#CCE2C8"/>
</linearGradient>
<linearGradient id="paint65_linear_2755_17277" x1="72.6953" y1="265.469" x2="85.2279" y2="265.469" gradientUnits="userSpaceOnUse">
<stop stop-color="#BDD7E7"/>
<stop offset="0.23" stop-color="#BDB7D5"/>
<stop offset="0.465" stop-color="#F1C7C7"/>
<stop offset="0.735" stop-color="#F5F0C9"/>
<stop offset="1" stop-color="#CCE2C8"/>
</linearGradient>
<linearGradient id="paint66_linear_2755_17277" x1="124.227" y1="282.735" x2="136.759" y2="282.735" gradientUnits="userSpaceOnUse">
<stop stop-color="#BDD7E7"/>
<stop offset="0.23" stop-color="#BDB7D5"/>
<stop offset="0.465" stop-color="#F1C7C7"/>
<stop offset="0.735" stop-color="#F5F0C9"/>
<stop offset="1" stop-color="#CCE2C8"/>
</linearGradient>
<linearGradient id="paint67_linear_2755_17277" x1="104.406" y1="282.735" x2="116.939" y2="282.735" gradientUnits="userSpaceOnUse">
<stop stop-color="#BDD7E7"/>
<stop offset="0.23" stop-color="#BDB7D5"/>
<stop offset="0.465" stop-color="#F1C7C7"/>
<stop offset="0.735" stop-color="#F5F0C9"/>
<stop offset="1" stop-color="#CCE2C8"/>
</linearGradient>
<linearGradient id="paint68_linear_2755_17277" x1="84.582" y1="282.735" x2="97.1146" y2="282.735" gradientUnits="userSpaceOnUse">
<stop stop-color="#BDD7E7"/>
<stop offset="0.23" stop-color="#BDB7D5"/>
<stop offset="0.465" stop-color="#F1C7C7"/>
<stop offset="0.735" stop-color="#F5F0C9"/>
<stop offset="1" stop-color="#CCE2C8"/>
</linearGradient>
<linearGradient id="paint69_linear_2755_17277" x1="64.7813" y1="282.735" x2="77.3138" y2="282.735" gradientUnits="userSpaceOnUse">
<stop stop-color="#BDD7E7"/>
<stop offset="0.23" stop-color="#BDB7D5"/>
<stop offset="0.465" stop-color="#F1C7C7"/>
<stop offset="0.735" stop-color="#F5F0C9"/>
<stop offset="1" stop-color="#CCE2C8"/>
</linearGradient>
<linearGradient id="paint70_linear_2755_17277" x1="116.289" y1="300" x2="128.822" y2="300" gradientUnits="userSpaceOnUse">
<stop stop-color="#BDD7E7"/>
<stop offset="0.23" stop-color="#BDB7D5"/>
<stop offset="0.465" stop-color="#F1C7C7"/>
<stop offset="0.735" stop-color="#F5F0C9"/>
<stop offset="1" stop-color="#CCE2C8"/>
</linearGradient>
<linearGradient id="paint71_linear_2755_17277" x1="96.4883" y1="300" x2="109.021" y2="300" gradientUnits="userSpaceOnUse">
<stop stop-color="#BDD7E7"/>
<stop offset="0.23" stop-color="#BDB7D5"/>
<stop offset="0.465" stop-color="#F1C7C7"/>
<stop offset="0.735" stop-color="#F5F0C9"/>
<stop offset="1" stop-color="#CCE2C8"/>
</linearGradient>
<linearGradient id="paint72_linear_2755_17277" x1="76.6641" y1="300" x2="89.1967" y2="300" gradientUnits="userSpaceOnUse">
<stop stop-color="#BDD7E7"/>
<stop offset="0.23" stop-color="#BDB7D5"/>
<stop offset="0.465" stop-color="#F1C7C7"/>
<stop offset="0.735" stop-color="#F5F0C9"/>
<stop offset="1" stop-color="#CCE2C8"/>
</linearGradient>
<linearGradient id="paint73_linear_2755_17277" x1="56.8633" y1="300" x2="69.3959" y2="300" gradientUnits="userSpaceOnUse">
<stop stop-color="#BDD7E7"/>
<stop offset="0.23" stop-color="#BDB7D5"/>
<stop offset="0.465" stop-color="#F1C7C7"/>
<stop offset="0.735" stop-color="#F5F0C9"/>
<stop offset="1" stop-color="#CCE2C8"/>
</linearGradient>
<linearGradient id="paint74_linear_2755_17277" x1="108.371" y1="317.262" x2="120.904" y2="317.262" gradientUnits="userSpaceOnUse">
<stop stop-color="#BDD7E7"/>
<stop offset="0.23" stop-color="#BDB7D5"/>
<stop offset="0.465" stop-color="#F1C7C7"/>
<stop offset="0.735" stop-color="#F5F0C9"/>
<stop offset="1" stop-color="#CCE2C8"/>
</linearGradient>
<linearGradient id="paint75_linear_2755_17277" x1="88.5508" y1="317.262" x2="101.083" y2="317.262" gradientUnits="userSpaceOnUse">
<stop stop-color="#BDD7E7"/>
<stop offset="0.23" stop-color="#BDB7D5"/>
<stop offset="0.465" stop-color="#F1C7C7"/>
<stop offset="0.735" stop-color="#F5F0C9"/>
<stop offset="1" stop-color="#CCE2C8"/>
</linearGradient>
<linearGradient id="paint76_linear_2755_17277" x1="68.75" y1="317.262" x2="81.2826" y2="317.262" gradientUnits="userSpaceOnUse">
<stop stop-color="#BDD7E7"/>
<stop offset="0.23" stop-color="#BDB7D5"/>
<stop offset="0.465" stop-color="#F1C7C7"/>
<stop offset="0.735" stop-color="#F5F0C9"/>
<stop offset="1" stop-color="#CCE2C8"/>
</linearGradient>
<linearGradient id="paint77_linear_2755_17277" x1="48.9258" y1="317.262" x2="61.4584" y2="317.262" gradientUnits="userSpaceOnUse">
<stop stop-color="#BDD7E7"/>
<stop offset="0.23" stop-color="#BDB7D5"/>
<stop offset="0.465" stop-color="#F1C7C7"/>
<stop offset="0.735" stop-color="#F5F0C9"/>
<stop offset="1" stop-color="#CCE2C8"/>
</linearGradient>
<linearGradient id="paint78_linear_2755_17277" x1="100.457" y1="334.528" x2="112.99" y2="334.528" gradientUnits="userSpaceOnUse">
<stop stop-color="#BDD7E7"/>
<stop offset="0.23" stop-color="#BDB7D5"/>
<stop offset="0.465" stop-color="#F1C7C7"/>
<stop offset="0.735" stop-color="#F5F0C9"/>
<stop offset="1" stop-color="#CCE2C8"/>
</linearGradient>
<linearGradient id="paint79_linear_2755_17277" x1="80.6367" y1="334.528" x2="93.1693" y2="334.528" gradientUnits="userSpaceOnUse">
<stop stop-color="#BDD7E7"/>
<stop offset="0.23" stop-color="#BDB7D5"/>
<stop offset="0.465" stop-color="#F1C7C7"/>
<stop offset="0.735" stop-color="#F5F0C9"/>
<stop offset="1" stop-color="#CCE2C8"/>
</linearGradient>
<linearGradient id="paint80_linear_2755_17277" x1="60.8125" y1="334.528" x2="73.3451" y2="334.528" gradientUnits="userSpaceOnUse">
<stop stop-color="#BDD7E7"/>
<stop offset="0.23" stop-color="#BDB7D5"/>
<stop offset="0.465" stop-color="#F1C7C7"/>
<stop offset="0.735" stop-color="#F5F0C9"/>
<stop offset="1" stop-color="#CCE2C8"/>
</linearGradient>
<linearGradient id="paint81_linear_2755_17277" x1="41.0117" y1="334.528" x2="53.5443" y2="334.528" gradientUnits="userSpaceOnUse">
<stop stop-color="#BDD7E7"/>
<stop offset="0.23" stop-color="#BDB7D5"/>
<stop offset="0.465" stop-color="#F1C7C7"/>
<stop offset="0.735" stop-color="#F5F0C9"/>
<stop offset="1" stop-color="#CCE2C8"/>
</linearGradient>
<linearGradient id="paint82_linear_2755_17277" x1="92.5195" y1="351.793" x2="105.052" y2="351.793" gradientUnits="userSpaceOnUse">
<stop stop-color="#BDD7E7"/>
<stop offset="0.23" stop-color="#BDB7D5"/>
<stop offset="0.465" stop-color="#F1C7C7"/>
<stop offset="0.735" stop-color="#F5F0C9"/>
<stop offset="1" stop-color="#CCE2C8"/>
</linearGradient>
<linearGradient id="paint83_linear_2755_17277" x1="72.7188" y1="351.793" x2="85.2513" y2="351.793" gradientUnits="userSpaceOnUse">
<stop stop-color="#BDD7E7"/>
<stop offset="0.23" stop-color="#BDB7D5"/>
<stop offset="0.465" stop-color="#F1C7C7"/>
<stop offset="0.735" stop-color="#F5F0C9"/>
<stop offset="1" stop-color="#CCE2C8"/>
</linearGradient>
<linearGradient id="paint84_linear_2755_17277" x1="52.8945" y1="351.793" x2="65.4271" y2="351.793" gradientUnits="userSpaceOnUse">
<stop stop-color="#BDD7E7"/>
<stop offset="0.23" stop-color="#BDB7D5"/>
<stop offset="0.465" stop-color="#F1C7C7"/>
<stop offset="0.735" stop-color="#F5F0C9"/>
<stop offset="1" stop-color="#CCE2C8"/>
</linearGradient>
<linearGradient id="paint85_linear_2755_17277" x1="33.0938" y1="351.793" x2="45.6264" y2="351.793" gradientUnits="userSpaceOnUse">
<stop stop-color="#BDD7E7"/>
<stop offset="0.23" stop-color="#BDB7D5"/>
<stop offset="0.465" stop-color="#F1C7C7"/>
<stop offset="0.735" stop-color="#F5F0C9"/>
<stop offset="1" stop-color="#CCE2C8"/>
</linearGradient>
<linearGradient id="paint86_linear_2755_17277" x1="84.6016" y1="369.059" x2="97.1342" y2="369.059" gradientUnits="userSpaceOnUse">
<stop stop-color="#BDD7E7"/>
<stop offset="0.23" stop-color="#BDB7D5"/>
<stop offset="0.465" stop-color="#F1C7C7"/>
<stop offset="0.735" stop-color="#F5F0C9"/>
<stop offset="1" stop-color="#CCE2C8"/>
</linearGradient>
<linearGradient id="paint87_linear_2755_17277" x1="64.7813" y1="369.059" x2="77.3138" y2="369.059" gradientUnits="userSpaceOnUse">
<stop stop-color="#BDD7E7"/>
<stop offset="0.23" stop-color="#BDB7D5"/>
<stop offset="0.465" stop-color="#F1C7C7"/>
<stop offset="0.735" stop-color="#F5F0C9"/>
<stop offset="1" stop-color="#CCE2C8"/>
</linearGradient>
<linearGradient id="paint88_linear_2755_17277" x1="44.9805" y1="369.059" x2="57.5131" y2="369.059" gradientUnits="userSpaceOnUse">
<stop stop-color="#BDD7E7"/>
<stop offset="0.23" stop-color="#BDB7D5"/>
<stop offset="0.465" stop-color="#F1C7C7"/>
<stop offset="0.735" stop-color="#F5F0C9"/>
<stop offset="1" stop-color="#CCE2C8"/>
</linearGradient>
<linearGradient id="paint89_linear_2755_17277" x1="25.1563" y1="369.059" x2="37.6889" y2="369.059" gradientUnits="userSpaceOnUse">
<stop stop-color="#BDD7E7"/>
<stop offset="0.23" stop-color="#BDB7D5"/>
<stop offset="0.465" stop-color="#F1C7C7"/>
<stop offset="0.735" stop-color="#F5F0C9"/>
<stop offset="1" stop-color="#CCE2C8"/>
</linearGradient>
<linearGradient id="paint90_linear_2755_17277" x1="76.668" y1="386.321" x2="89.2006" y2="386.321" gradientUnits="userSpaceOnUse">
<stop stop-color="#BDD7E7"/>
<stop offset="0.23" stop-color="#BDB7D5"/>
<stop offset="0.465" stop-color="#F1C7C7"/>
<stop offset="0.735" stop-color="#F5F0C9"/>
<stop offset="1" stop-color="#CCE2C8"/>
</linearGradient>
<linearGradient id="paint91_linear_2755_17277" x1="56.8672" y1="386.321" x2="69.3998" y2="386.321" gradientUnits="userSpaceOnUse">
<stop stop-color="#BDD7E7"/>
<stop offset="0.23" stop-color="#BDB7D5"/>
<stop offset="0.465" stop-color="#F1C7C7"/>
<stop offset="0.735" stop-color="#F5F0C9"/>
<stop offset="1" stop-color="#CCE2C8"/>
</linearGradient>
<linearGradient id="paint92_linear_2755_17277" x1="37.043" y1="386.321" x2="49.5756" y2="386.321" gradientUnits="userSpaceOnUse">
<stop stop-color="#BDD7E7"/>
<stop offset="0.23" stop-color="#BDB7D5"/>
<stop offset="0.465" stop-color="#F1C7C7"/>
<stop offset="0.735" stop-color="#F5F0C9"/>
<stop offset="1" stop-color="#CCE2C8"/>
</linearGradient>
<linearGradient id="paint93_linear_2755_17277" x1="17.2422" y1="386.321" x2="29.7748" y2="386.321" gradientUnits="userSpaceOnUse">
<stop stop-color="#BDD7E7"/>
<stop offset="0.23" stop-color="#BDB7D5"/>
<stop offset="0.465" stop-color="#F1C7C7"/>
<stop offset="0.735" stop-color="#F5F0C9"/>
<stop offset="1" stop-color="#CCE2C8"/>
</linearGradient>
<linearGradient id="paint94_linear_2755_17277" x1="68.75" y1="403.567" x2="81.2826" y2="403.567" gradientUnits="userSpaceOnUse">
<stop stop-color="#BDD7E7"/>
<stop offset="0.23" stop-color="#BDB7D5"/>
<stop offset="0.465" stop-color="#F1C7C7"/>
<stop offset="0.735" stop-color="#F5F0C9"/>
<stop offset="1" stop-color="#CCE2C8"/>
</linearGradient>
<linearGradient id="paint95_linear_2755_17277" x1="48.9492" y1="403.567" x2="61.4818" y2="403.567" gradientUnits="userSpaceOnUse">
<stop stop-color="#BDD7E7"/>
<stop offset="0.23" stop-color="#BDB7D5"/>
<stop offset="0.465" stop-color="#F1C7C7"/>
<stop offset="0.735" stop-color="#F5F0C9"/>
<stop offset="1" stop-color="#CCE2C8"/>
</linearGradient>
<linearGradient id="paint96_linear_2755_17277" x1="29.1289" y1="403.567" x2="41.6615" y2="403.567" gradientUnits="userSpaceOnUse">
<stop stop-color="#BDD7E7"/>
<stop offset="0.23" stop-color="#BDB7D5"/>
<stop offset="0.465" stop-color="#F1C7C7"/>
<stop offset="0.735" stop-color="#F5F0C9"/>
<stop offset="1" stop-color="#CCE2C8"/>
</linearGradient>
<linearGradient id="paint97_linear_2755_17277" x1="9.30469" y1="403.567" x2="21.8373" y2="403.567" gradientUnits="userSpaceOnUse">
<stop stop-color="#BDD7E7"/>
<stop offset="0.23" stop-color="#BDB7D5"/>
<stop offset="0.465" stop-color="#F1C7C7"/>
<stop offset="0.735" stop-color="#F5F0C9"/>
<stop offset="1" stop-color="#CCE2C8"/>
</linearGradient>
<linearGradient id="paint98_linear_2755_17277" x1="60.832" y1="420.829" x2="73.3646" y2="420.829" gradientUnits="userSpaceOnUse">
<stop stop-color="#BDD7E7"/>
<stop offset="0.23" stop-color="#BDB7D5"/>
<stop offset="0.465" stop-color="#F1C7C7"/>
<stop offset="0.735" stop-color="#F5F0C9"/>
<stop offset="1" stop-color="#CCE2C8"/>
</linearGradient>
<linearGradient id="paint99_linear_2755_17277" x1="41.0117" y1="420.829" x2="53.5443" y2="420.829" gradientUnits="userSpaceOnUse">
<stop stop-color="#BDD7E7"/>
<stop offset="0.23" stop-color="#BDB7D5"/>
<stop offset="0.465" stop-color="#F1C7C7"/>
<stop offset="0.735" stop-color="#F5F0C9"/>
<stop offset="1" stop-color="#CCE2C8"/>
</linearGradient>
<linearGradient id="paint100_linear_2755_17277" x1="21.2109" y1="420.829" x2="33.7435" y2="420.829" gradientUnits="userSpaceOnUse">
<stop stop-color="#BDD7E7"/>
<stop offset="0.23" stop-color="#BDB7D5"/>
<stop offset="0.465" stop-color="#F1C7C7"/>
<stop offset="0.735" stop-color="#F5F0C9"/>
<stop offset="1" stop-color="#CCE2C8"/>
</linearGradient>
<linearGradient id="paint101_linear_2755_17277" x1="1.38672" y1="420.829" x2="13.9193" y2="420.829" gradientUnits="userSpaceOnUse">
<stop stop-color="#BDD7E7"/>
<stop offset="0.23" stop-color="#BDB7D5"/>
<stop offset="0.465" stop-color="#F1C7C7"/>
<stop offset="0.735" stop-color="#F5F0C9"/>
<stop offset="1" stop-color="#CCE2C8"/>
</linearGradient>
<linearGradient id="paint102_linear_2755_17277" x1="16.8789" y1="92.8171" x2="106.114" y2="92.8171" gradientUnits="userSpaceOnUse">
<stop stop-color="#BDD7E7"/>
<stop offset="0.23" stop-color="#BDB7D5"/>
<stop offset="0.465" stop-color="#F1C7C7"/>
<stop offset="0.735" stop-color="#F5F0C9"/>
<stop offset="1" stop-color="#CCE2C8"/>
</linearGradient>
<linearGradient id="paint103_linear_2755_17277" x1="33.7578" y1="83.544" x2="114.412" y2="83.544" gradientUnits="userSpaceOnUse">
<stop stop-color="#BDD7E7"/>
<stop offset="0.23" stop-color="#BDB7D5"/>
<stop offset="0.465" stop-color="#F1C7C7"/>
<stop offset="0.735" stop-color="#F5F0C9"/>
<stop offset="1" stop-color="#CCE2C8"/>
</linearGradient>
<linearGradient id="paint104_linear_2755_17277" x1="50.6563" y1="74.2601" x2="122.708" y2="74.2601" gradientUnits="userSpaceOnUse">
<stop stop-color="#BDD7E7"/>
<stop offset="0.23" stop-color="#BDB7D5"/>
<stop offset="0.465" stop-color="#F1C7C7"/>
<stop offset="0.735" stop-color="#F5F0C9"/>
<stop offset="1" stop-color="#CCE2C8"/>
</linearGradient>
<linearGradient id="paint105_linear_2755_17277" x1="67.5352" y1="64.987" x2="131.006" y2="64.987" gradientUnits="userSpaceOnUse">
<stop stop-color="#BDD7E7"/>
<stop offset="0.23" stop-color="#BDB7D5"/>
<stop offset="0.465" stop-color="#F1C7C7"/>
<stop offset="0.735" stop-color="#F5F0C9"/>
<stop offset="1" stop-color="#CCE2C8"/>
</linearGradient>
<linearGradient id="paint106_linear_2755_17277" x1="0" y1="102.09" x2="97.8154" y2="102.09" gradientUnits="userSpaceOnUse">
<stop stop-color="#BDD7E7"/>
<stop offset="0.23" stop-color="#BDB7D5"/>
<stop offset="0.465" stop-color="#F1C7C7"/>
<stop offset="0.735" stop-color="#F5F0C9"/>
<stop offset="1" stop-color="#CCE2C8"/>
</linearGradient>
<linearGradient id="paint107_linear_2755_17277" x1="171.746" y1="325.134" x2="270.238" y2="325.134" gradientUnits="userSpaceOnUse">
<stop stop-color="#BDD7E7"/>
<stop offset="0.23" stop-color="#BDB7D5"/>
<stop offset="0.465" stop-color="#F1C7C7"/>
<stop offset="0.735" stop-color="#F5F0C9"/>
<stop offset="1" stop-color="#CCE2C8"/>
</linearGradient>
<linearGradient id="paint108_linear_2755_17277" x1="163.211" y1="334.291" x2="253.166" y2="334.291" gradientUnits="userSpaceOnUse">
<stop stop-color="#BDD7E7"/>
<stop offset="0.23" stop-color="#BDB7D5"/>
<stop offset="0.465" stop-color="#F1C7C7"/>
<stop offset="0.735" stop-color="#F5F0C9"/>
<stop offset="1" stop-color="#CCE2C8"/>
</linearGradient>
<linearGradient id="paint109_linear_2755_17277" x1="137.648" y1="361.76" x2="201.927" y2="361.76" gradientUnits="userSpaceOnUse">
<stop stop-color="#BDD7E7"/>
<stop offset="0.23" stop-color="#BDB7D5"/>
<stop offset="0.465" stop-color="#F1C7C7"/>
<stop offset="0.735" stop-color="#F5F0C9"/>
<stop offset="1" stop-color="#CCE2C8"/>
</linearGradient>
<linearGradient id="paint110_linear_2755_17277" x1="146.164" y1="352.602" x2="219.002" y2="352.602" gradientUnits="userSpaceOnUse">
<stop stop-color="#BDD7E7"/>
<stop offset="0.23" stop-color="#BDB7D5"/>
<stop offset="0.465" stop-color="#F1C7C7"/>
<stop offset="0.735" stop-color="#F5F0C9"/>
<stop offset="1" stop-color="#CCE2C8"/>
</linearGradient>
<linearGradient id="paint111_linear_2755_17277" x1="154.699" y1="343.445" x2="236.074" y2="343.445" gradientUnits="userSpaceOnUse">
<stop stop-color="#BDD7E7"/>
<stop offset="0.23" stop-color="#BDB7D5"/>
<stop offset="0.465" stop-color="#F1C7C7"/>
<stop offset="0.735" stop-color="#F5F0C9"/>
<stop offset="1" stop-color="#CCE2C8"/>
</linearGradient>
<clipPath id="clip0_2755_17277">
<rect width="268" height="427" fill="white"/>
</clipPath>
</defs>
</svg>
