<svg width="1585" height="1118" viewBox="0 0 1585 1118" fill="none" xmlns="http://www.w3.org/2000/svg">
<g opacity="0.5" filter="url(#filter0_f_2491_2)">
<path d="M696.287 394.328C419.807 467.928 272.82 634.062 233.887 707.928C167.754 864.195 78.527 1113.05 250.687 858.328C465.887 539.928 680.287 579.128 1162.69 442.328C1548.61 332.888 1441.35 202.061 1339.49 150.328H1118.69C1093.09 200.995 972.767 320.728 696.287 394.328Z" fill="url(#paint0_linear_2491_2)"/>
<path d="M696.287 394.328C419.807 467.928 272.82 634.062 233.887 707.928C167.754 864.195 78.527 1113.05 250.687 858.328C465.887 539.928 680.287 579.128 1162.69 442.328C1548.61 332.888 1441.35 202.061 1339.49 150.328H1118.69C1093.09 200.995 972.767 320.728 696.287 394.328Z" fill="url(#paint1_linear_2491_2)"/>
</g>
<defs>
<filter id="filter0_f_2491_2" x="0.973633" y="0.328125" width="1583.99" height="1117.47" filterUnits="userSpaceOnUse" color-interpolation-filters="sRGB">
<feFlood flood-opacity="0" result="BackgroundImageFix"/>
<feBlend mode="normal" in="SourceGraphic" in2="BackgroundImageFix" result="shape"/>
<feGaussianBlur stdDeviation="75" result="effect1_foregroundBlur_2491_2"/>
</filter>
<linearGradient id="paint0_linear_2491_2" x1="1435.94" y1="118.475" x2="624.709" y2="1278.14" gradientUnits="userSpaceOnUse">
<stop stop-color="#F257A0"/>
<stop offset="1" stop-color="#484EB7" stop-opacity="0"/>
<stop offset="1" stop-color="#D03F92" stop-opacity="0"/>
</linearGradient>
<linearGradient id="paint1_linear_2491_2" x1="150.974" y1="560.947" x2="1464.82" y2="560.947" gradientUnits="userSpaceOnUse">
<stop stop-color="#BDD7E7"/>
<stop offset="0.23" stop-color="#BDB7D5"/>
<stop offset="0.465" stop-color="#F1C7C7"/>
<stop offset="0.735" stop-color="#F5F0C9"/>
<stop offset="1" stop-color="#CCE2C8"/>
</linearGradient>
</defs>
</svg>
