<svg width="480" height="306" viewBox="0 0 480 306" fill="none" xmlns="http://www.w3.org/2000/svg">
<path fill-rule="evenodd" clip-rule="evenodd" d="M239.576 306C216.695 306 199.18 299.483 187.033 286.45C174.886 273.417 168.812 255 168.812 231.2V74.8C168.812 51 174.886 32.5833 187.033 19.55C199.18 6.51667 216.695 0 239.576 0C262.458 0 279.972 6.51667 292.119 19.55C304.267 32.5833 310.34 51 310.34 74.8V231.2C310.34 255 304.267 273.417 292.119 286.45C279.972 299.483 262.458 306 239.576 306ZM240.955 36.1248C235.932 36.1248 231.859 40.2473 231.859 45.3326V53.4848C221.302 56.9369 213.666 66.9668 213.666 78.8019V240.449H212.656C207.951 240.449 204.137 244.309 204.137 249.072C204.137 253.834 207.951 257.695 212.656 257.695H269.255C273.96 257.695 277.774 253.834 277.774 249.072C277.774 244.309 273.96 240.449 269.255 240.449H268.244V78.8019C268.244 66.9668 260.609 56.9369 250.052 53.4848V45.3326C250.052 40.2473 245.979 36.1248 240.955 36.1248Z" fill="white"/>
<path fill-rule="evenodd" clip-rule="evenodd" d="M88.9845 247.775H0V205.275L84.7472 4.25H135.595V205.275H157.63V247.775H135.595V301.75H88.9845V247.775ZM88.9845 205.275V89.25H88.137L42.3736 205.275H88.9845Z" fill="white"/>
<path fill-rule="evenodd" clip-rule="evenodd" d="M322.37 247.775H411.355V301.75H457.966V247.775H480V205.275H457.966V4.25H407.117L322.37 205.275V247.775ZM411.355 89.25V205.275H364.744L410.507 89.25H411.355Z" fill="white"/>
</svg>
