<svg version="1.1" xmlns="http://www.w3.org/2000/svg" xmlns:xlink="http://www.w3.org/1999/xlink">

    <symbol viewBox="0 0 123 41" id="logo">
        <path d="M15.092 40.3156L19.1094 25.9278V40.1302C19.1094 40.4936 19.3968 40.7977 19.7562 40.7977H24.6216C24.9809 40.7977 25.2755 40.4936 25.2755 40.1302V0.667477C25.2755 0.304073 24.9809 0 24.6216 0H20.3239C20.0293 0 19.7777 0.200243 19.7059 0.482067L12.6557 26.039L5.56249 0.482067C5.48344 0.200243 5.2319 0 4.94444 0H0.646801C0.287467 0 0 0.304073 0 0.667477V40.1302C0 40.4936 0.287467 40.7977 0.646801 40.7977H5.51218C5.86433 40.7977 6.15898 40.4936 6.15898 40.1302V25.9278L10.1763 40.3156C10.2554 40.6049 10.5069 40.7977 10.7944 40.7977H14.474C14.7614 40.7977 15.013 40.6049 15.0992 40.3156H15.092Z" />
        <path d="M99.3367 0.667477C99.3367 0.304073 99.042 0 98.6899 0H93.8173C93.4579 0 93.1777 0.296657 93.1777 0.667477V29.636C93.1777 31.809 92.7968 33.2849 92.0494 33.9004C91.4529 34.4344 90.7558 34.4344 90.1449 34.4344C89.534 34.4344 88.8297 34.4344 88.2117 33.8782C87.493 33.2774 87.1049 31.809 87.1049 29.636V0.667477C87.1049 0.304073 86.8175 0 86.4653 0H81.5927C81.2406 0 80.9531 0.296657 80.9531 0.667477V29.636C80.9531 33.1143 81.679 35.7174 83.1522 37.579C84.2015 39.0474 86.2713 40.7977 90.1449 40.7977C94.0185 40.7977 96.0883 39.0474 97.116 37.6086C98.6108 35.7249 99.3367 33.1143 99.3367 29.6434V0.667477Z" />
        <path d="M113.236 -0.00118826C110.469 -0.00118826 107.961 1.18544 106.172 3.3362C104.411 5.44988 103.477 8.43127 103.477 11.9615C103.477 15.4917 104.59 18.1542 106.782 20.3643C108.5 22.0849 110.397 22.9155 111.576 23.4347L112.517 23.8648C113.531 24.3172 114.681 24.8883 115.471 25.6522C116.369 26.5792 116.786 27.7065 116.786 29.1972C116.786 30.6879 116.585 31.8226 116.19 32.631C115.543 33.8547 114.609 34.4184 113.236 34.4184C112.431 34.4184 111.82 34.2997 111.425 34.0772C111.245 33.9734 110.829 33.7287 110.685 33.4913C109.988 32.5717 109.636 31.0439 109.636 28.9228V26.4087C109.636 26.0453 109.341 25.7486 108.989 25.7486H104.123C103.771 25.7486 103.477 26.0453 103.477 26.4087V28.9228C103.477 36.5691 106.941 40.7817 113.236 40.7817C119.072 40.7817 122.996 36.1242 122.996 29.1898C122.996 25.8153 121.846 23.0045 119.589 20.8389C117.994 19.2444 116.219 18.4879 115.169 18.0429L114.034 17.5386C112.726 17.0343 111.705 16.3743 110.958 15.5584C110.06 14.5721 109.636 13.4225 109.636 11.9467C109.636 10.6117 109.844 9.43249 110.254 8.51285C110.857 7.05182 111.77 6.40659 113.236 6.40659C113.847 6.40659 114.767 6.40659 115.464 6.99991C115.96 7.41523 116.786 8.6241 116.786 11.9467V14.4608C116.786 14.8316 117.074 15.1283 117.426 15.1283H122.349C122.701 15.1283 122.996 14.8242 122.996 14.4608V11.9467C122.996 8.2607 122.227 5.44246 120.638 3.34361C119.481 1.80842 117.261 -0.0234375 113.236 -0.0234375V-0.00118826Z" />
        <path d="M45.9603 40.3297C46.025 40.6338 46.2837 40.8489 46.5856 40.8489H51.6953C52.0546 40.8489 52.3349 40.5448 52.3349 40.1814C52.3349 40.0553 52.299 39.9366 52.2415 39.8328L43.3803 0.570326C43.3156 0.266253 43.0497 0.0585938 42.7479 0.0585938H38.8671C38.5652 0.0585938 38.3065 0.27367 38.2418 0.570326L29.4382 40.0331C29.395 40.2259 29.4382 40.441 29.5603 40.5967C29.6825 40.7599 29.8694 40.8489 30.0634 40.8489H35.0869C35.3887 40.8489 35.6546 40.6338 35.7193 40.3297L37.0489 34.3669H44.638L45.9675 40.3297H45.9603ZM38.4646 28.0111L40.8362 17.3759L43.2078 28.0111H38.4574H38.4646Z" />
        <path d="M66.7472 5.85783L64.3828 0.0507812H69.0182L66.7472 5.85783Z" />
        <path d="M66.7519 34.4453L64.1719 40.8012H69.2457L66.7519 34.4453Z" />
        <path d="M78.4623 0.0507812H73.022C72.7705 0.0507812 72.5477 0.19911 72.4399 0.436435L66.7121 12.9108L61.1209 0.443851C61.0203 0.206526 60.7903 0.0581977 60.5387 0.0581977H55.0984C54.8828 0.0581977 54.6744 0.17686 54.5522 0.369687C54.4373 0.562514 54.4157 0.807255 54.5091 1.0075L63.2409 20.4311L54.3582 39.9066C54.2648 40.1142 54.2791 40.3516 54.3941 40.5518C54.5091 40.7372 54.7175 40.8633 54.9403 40.8633H60.3806C60.6322 40.8633 60.855 40.715 60.9628 40.4777L66.6977 27.9439L72.3824 40.4777C72.4902 40.715 72.713 40.8633 72.9645 40.8633H78.3473C78.5701 40.8633 78.7713 40.7372 78.8935 40.5518C79.0157 40.359 79.0229 40.1142 78.9366 39.9066L70.1042 20.4385L79.0444 1.0075C79.1379 0.799839 79.1235 0.562514 79.0085 0.362271C78.8863 0.169444 78.6851 0.0507812 78.4623 0.0507812Z" />
    </symbol>

    <symbol viewBox="0 0 172 79" id="logo-with-title">
        <path d="M4.32136 75.5021C4.32136 76.6157 3.86912 77.1828 3.06515 77.1828C2.26117 77.1828 1.80894 76.6157 1.80894 75.5021V68.3672H0V75.5021C0 77.688 1.16576 78.9562 3.0551 78.9562C4.94443 78.9562 6.13029 77.688 6.13029 75.5021V68.3672H4.31131V75.5021H4.32136Z" />
        <path d="M10.8658 68.3672H9.11719V78.7912H13.9812V77.0487H10.8658V68.3672Z" />
        <path d="M15.5781 70.1097H17.578V78.7912H19.3769V70.1097H21.3768V68.3672H15.5781V70.1097Z" />
        <path d="M29.6368 71.7285C29.6368 69.5942 28.5113 68.3672 26.5616 68.3672H23.8281V78.7912H25.5768V75.1619H26.3707L28.1495 78.7912H30.069L28.059 74.832C29.0741 74.3267 29.6268 73.2544 29.6268 71.7388L29.6368 71.7285ZM26.5516 73.4091H25.5868V70.0994H26.5516C27.3958 70.0994 27.848 70.6665 27.848 71.7388C27.848 72.8111 27.3958 73.4091 26.5516 73.4091Z" />
        <path d="M34.0302 68.3672L31.5781 78.7912H33.3971L33.7991 76.9044H36.1306L36.5326 78.7912H38.3516L35.8995 68.3672H34.0202H34.0302ZM34.1609 75.1619L34.5629 73.2235C34.7036 72.5121 34.8644 71.3573 34.9448 70.6665H34.985C35.0855 71.3676 35.2362 72.5121 35.3869 73.2235L35.7889 75.1619H34.1709H34.1609Z" />
        <path d="M47.6152 68.3672H44.8516V78.7912H46.6002V75.2959H47.6152C49.6252 75.2959 50.801 74.0277 50.801 71.8419C50.801 69.656 49.6151 68.3672 47.6152 68.3672ZM47.6052 73.5637H46.6103V70.1097H47.6052C48.5398 70.1097 49.0121 70.6871 49.0121 71.8419C49.0121 72.9967 48.5398 73.5741 47.6052 73.5741V73.5637Z" />
        <path d="M59.254 71.7285C59.254 69.5942 58.1285 68.3672 56.1788 68.3672H53.4453V78.7912H55.194V75.1619H55.9879L57.7667 78.7912H59.6862L57.6762 74.832C58.6912 74.3267 59.244 73.2544 59.244 71.7388L59.254 71.7285ZM56.1688 73.4091H55.204V70.0994H56.1688C57.0129 70.0994 57.4652 70.6665 57.4652 71.7388C57.4652 72.8111 57.0129 73.4091 56.1688 73.4091Z" />
        <path d="M63.8268 74.337H66.8115V72.6667H63.8268V70.0891H67.0829V68.3672H62.0781V78.7912H67.2236V77.059H63.8268V74.337Z" />
        <path d="M74.7926 72.4424C74.5815 72.9888 74.2198 73.9477 74.0992 74.3808H74.0389C73.9082 73.9477 73.5665 72.9992 73.3555 72.4424L71.7375 68.3594H69.9688V78.7834H71.6772V75.5253C71.637 74.3086 71.5968 73.1126 71.5365 71.9372L71.6068 71.9062C71.9083 72.7723 72.2199 73.7106 72.5314 74.6489L73.2047 76.4945H74.9433L75.6167 74.6489C75.9282 73.7106 76.2598 72.7723 76.5412 71.9062L76.6116 71.9372C76.5513 73.1126 76.5111 74.3086 76.4709 75.5253V78.7834H78.1894V68.3594H76.4106L74.8026 72.4424H74.7926Z" />
        <path d="M83.069 68.3672H81.3203V78.7912H83.069V68.3672Z" />
        <path d="M90.3604 75.5021C90.3604 76.6157 89.9082 77.1828 89.1042 77.1828C88.3002 77.1828 87.848 76.6157 87.848 75.5021V68.3672H86.0391V75.5021C86.0391 77.688 87.2048 78.9562 89.0942 78.9562C90.9835 78.9562 92.1694 77.688 92.1694 75.5021V68.3672H90.3504V75.5021H90.3604Z" />
        <path d="M99.9879 72.4424C99.7769 72.9888 99.4151 73.9477 99.2945 74.3808H99.2342C99.1035 73.9477 98.7618 72.9992 98.5508 72.4424L96.9328 68.3594H95.1641V78.7834H96.8725V75.5253C96.8323 74.3086 96.7921 73.1126 96.7318 71.9372L96.8022 71.9062C97.1036 72.7723 97.4152 73.7106 97.7267 74.6489L98.4001 76.4945H100.139L100.812 74.6489C101.124 73.7106 101.455 72.7723 101.737 71.9062L101.807 71.9372C101.747 73.1126 101.706 74.3086 101.666 75.5253V78.7834H103.385V68.3594H101.606L99.9979 72.4424H99.9879Z" />
        <path d="M113.44 77.1948C112.696 77.1948 112.254 76.6999 112.254 75.6585V71.493C112.254 70.4207 112.696 69.9258 113.42 69.9258C114.274 69.9258 114.696 70.3897 114.757 71.4621H116.505C116.425 69.3278 115.34 68.1523 113.43 68.1523C111.521 68.1523 110.445 69.3278 110.445 71.493V75.6585C110.445 77.8031 111.581 78.9682 113.43 78.9682C115.279 78.9682 116.475 77.8031 116.545 75.6894H114.797C114.726 76.7308 114.294 77.1948 113.43 77.1948H113.44Z" />
        <path d="M121.966 68.1836C119.986 68.1836 118.82 69.5137 118.82 71.7098V75.432C118.82 77.6384 119.986 78.9582 121.966 78.9582C123.946 78.9582 125.101 77.6281 125.101 75.432V71.7098C125.101 69.5034 123.936 68.1836 121.966 68.1836ZM123.292 75.4423C123.292 76.5764 122.85 77.1951 121.966 77.1951C121.081 77.1951 120.629 76.5661 120.629 75.4423V71.7201C120.629 70.586 121.081 69.9673 121.966 69.9673C122.85 69.9673 123.292 70.5963 123.292 71.7201V75.4423Z" />
        <path d="M132.381 71.535C132.381 72.4836 132.481 74.1746 132.622 75.35L132.582 75.3912C132.34 74.752 132.039 73.9271 131.788 73.2569L129.707 68.3594H127.969V78.7834H129.687V75.7933C129.687 74.7107 129.607 72.9373 129.476 71.7619L129.516 71.7206C129.788 72.4939 130.139 73.4528 130.441 74.2674L132.36 78.7937H134.099V68.3697H132.381V71.5454V71.535Z" />
        <path d="M139.861 68.3672H137.258V78.7912H139.891C141.84 78.7912 142.996 77.523 142.996 75.3784V71.7285C142.996 69.5942 141.84 68.3672 139.861 68.3672ZM141.227 75.3681C141.227 76.4713 140.755 77.0487 139.891 77.0487H139.006V70.1097H139.891C140.755 70.1097 141.227 70.6561 141.227 71.7285V75.3681Z" />
        <path d="M148.724 68.1836C146.744 68.1836 145.578 69.5137 145.578 71.7098V75.432C145.578 77.6384 146.744 78.9582 148.724 78.9582C150.703 78.9582 151.859 77.6281 151.859 75.432V71.7098C151.859 69.5034 150.693 68.1836 148.724 68.1836ZM150.05 75.4423C150.05 76.5764 149.608 77.1951 148.724 77.1951C147.839 77.1951 147.387 76.5661 147.387 75.4423V71.7201C147.387 70.586 147.839 69.9673 148.724 69.9673C149.608 69.9673 150.05 70.5963 150.05 71.7201V75.4423Z" />
        <path d="M159.558 72.4424C159.347 72.9888 158.985 73.9477 158.865 74.3808H158.804C158.674 73.9477 158.332 72.9992 158.121 72.4424L156.503 68.3594H154.734V78.7834H156.443V75.5253C156.403 74.3086 156.362 73.1126 156.302 71.9372L156.372 71.9062C156.674 72.7723 156.986 73.7106 157.297 74.6489L157.97 76.4945H159.709L160.382 74.6489C160.694 73.7106 161.025 72.7723 161.307 71.9062L161.377 71.9372C161.317 73.1126 161.277 74.3086 161.237 75.5253V78.7834H162.955V68.3594H161.176L159.568 72.4424H159.558Z" />
        <path d="M167.441 70.917C167.441 70.319 167.823 69.9375 168.476 69.9375C169.129 69.9375 169.541 70.3396 169.561 71.1748H171.35C171.34 69.3085 170.255 68.1641 168.476 68.1641C166.697 68.1641 165.662 69.3292 165.662 70.8758C165.662 74.0205 169.672 74.1648 169.672 76.062C169.672 76.7322 169.29 77.2271 168.486 77.2271C167.732 77.2271 167.26 76.7941 167.25 75.8558H165.461C165.471 77.8664 166.647 79.0108 168.476 79.0108C170.305 79.0108 171.491 77.7117 171.491 76.0723C171.491 72.7935 167.431 72.7317 167.431 70.917H167.441Z" />
        <path d="M21.1043 56.0485L26.7221 36.0459V55.7908C26.7221 56.296 27.124 56.7187 27.6265 56.7187H34.4301C34.9326 56.7187 35.3447 56.296 35.3447 55.7908V0.927956C35.3447 0.422736 34.9326 0 34.4301 0H28.4205C28.0084 0 27.6567 0.278387 27.5562 0.670191L17.6975 36.2006L7.77844 0.670191C7.66789 0.278387 7.31616 0 6.91417 0H0.90447C0.401987 0 0 0.422736 0 0.927956V55.7908C0 56.296 0.401987 56.7187 0.90447 56.7187H7.70809C8.20053 56.7187 8.61256 56.296 8.61256 55.7908V36.0459L14.2303 56.0485C14.3409 56.4507 14.6926 56.7187 15.0946 56.7187H20.24C20.642 56.7187 20.9937 56.4507 21.1143 56.0485H21.1043Z" />
        <path d="M138.91 0.927956C138.91 0.422736 138.498 0 138.006 0H131.192C130.69 0 130.298 0.412425 130.298 0.927956V41.2013C130.298 44.2223 129.765 46.2741 128.72 47.1299C127.886 47.8722 126.911 47.8722 126.057 47.8722C125.202 47.8722 124.218 47.8722 123.353 47.0989C122.348 46.2638 121.806 44.2223 121.806 41.2013V0.927956C121.806 0.422736 121.404 0 120.911 0H114.098C113.605 0 113.203 0.412425 113.203 0.927956V41.2013C113.203 46.0369 114.218 49.656 116.278 52.2439C117.746 54.2854 120.64 56.7187 126.057 56.7187C131.473 56.7187 134.368 54.2854 135.805 52.2852C137.895 49.6663 138.91 46.0369 138.91 41.2116V0.927956Z" />
        <path d="M158.351 -0.000318127C154.481 -0.000318127 150.974 1.64938 148.472 4.63946C146.01 7.57799 144.703 11.7229 144.703 16.6307C144.703 21.5386 146.261 25.2401 149.326 28.3127C151.728 30.7047 154.381 31.8595 156.029 32.5813L157.346 33.1793C158.763 33.8082 160.371 34.6021 161.476 35.6641C162.732 36.953 163.315 38.5202 163.315 40.5926C163.315 42.665 163.034 44.2426 162.481 45.3664C161.576 47.0677 160.27 47.8513 158.351 47.8513C157.225 47.8513 156.371 47.6863 155.818 47.377C155.567 47.2327 154.984 46.8924 154.783 46.5625C153.808 45.2839 153.316 43.16 153.316 40.2111V36.7158C153.316 36.2106 152.904 35.7982 152.411 35.7982H145.608C145.115 35.7982 144.703 36.2106 144.703 36.7158V40.2111C144.703 50.8414 149.547 56.6978 158.351 56.6978C166.511 56.6978 171.998 50.2227 171.998 40.5823C171.998 35.891 170.39 31.9832 167.234 28.9725C165.003 26.7558 162.521 25.7041 161.054 25.0854L159.466 24.3843C157.637 23.6832 156.21 22.7655 155.165 21.6314C153.909 20.2601 153.316 18.6619 153.316 16.6101C153.316 14.7542 153.607 13.1148 154.18 11.8363C155.024 9.80509 156.3 8.90806 158.351 8.90806C159.205 8.90806 160.491 8.90806 161.466 9.73291C162.159 10.3103 163.315 11.9909 163.315 16.6101V20.1054C163.315 20.6209 163.717 21.0334 164.21 21.0334H171.094C171.586 21.0334 171.998 20.6106 171.998 20.1054V16.6101C171.998 11.4857 170.923 7.56768 168.702 4.64977C167.084 2.51547 163.978 -0.03125 158.351 -0.03125V-0.000318127Z" />
        <path d="M64.2676 56.0687C64.358 56.4915 64.7198 56.7905 65.1419 56.7905H72.2872C72.7897 56.7905 73.1816 56.3677 73.1816 55.8625C73.1816 55.6872 73.1314 55.5223 73.051 55.3779L60.6597 0.793464C60.5693 0.370729 60.1975 0.0820312 59.7754 0.0820312H54.3486C53.9265 0.0820312 53.5647 0.381039 53.4742 0.793464L41.1634 55.6563C41.1031 55.9244 41.1634 56.2234 41.3342 56.4399C41.5051 56.6667 41.7664 56.7905 42.0377 56.7905H49.0624C49.4845 56.7905 49.8564 56.4915 49.9468 56.0687L51.806 47.779H62.4184L64.2776 56.0687H64.2676ZM53.7858 38.9428L57.1022 24.1573L60.4186 38.9428H53.7757H53.7858Z" />
        <path d="M93.3376 8.14353L90.0312 0.0703125H96.5133L93.3376 8.14353Z" />
        <path d="M93.3422 47.8828L89.7344 56.719H96.8294L93.3422 47.8828Z" />
        <path d="M109.722 0.0703125H102.114C101.763 0.0703125 101.451 0.276525 101.3 0.606465L93.2908 17.9489L85.4722 0.616776C85.3315 0.286836 85.0099 0.0806231 84.6582 0.0806231H77.0506C76.7491 0.0806231 76.4576 0.245593 76.2868 0.513669C76.126 0.781745 76.0958 1.122 76.2265 1.40038L88.4368 28.4039L76.0154 55.4796C75.8848 55.7683 75.9049 56.0982 76.0657 56.3766C76.2265 56.6344 76.5179 56.8097 76.8295 56.8097H84.4371C84.7888 56.8097 85.1003 56.6035 85.2511 56.2735L93.2707 38.8486L101.22 56.2735C101.371 56.6035 101.682 56.8097 102.034 56.8097H109.561C109.873 56.8097 110.154 56.6344 110.325 56.3766C110.496 56.1085 110.506 55.7683 110.385 55.4796L98.0343 28.4142L110.536 1.40038C110.667 1.11169 110.647 0.781745 110.486 0.503359C110.315 0.235282 110.034 0.0703125 109.722 0.0703125Z" />
    </symbol>

    <symbol viewBox="0 0 34 34" id="icon-search">
        <path d="M15.5833 26.9167C21.8426 26.9167 26.9167 21.8426 26.9167 15.5833C26.9167 9.32411 21.8426 4.25 15.5833 4.25C9.32411 4.25 4.25 9.32411 4.25 15.5833C4.25 21.8426 9.32411 26.9167 15.5833 26.9167Z" stroke-width="3" stroke-linecap="round" stroke-linejoin="round" />
        <path d="M29.7484 29.7523L23.5859 23.5898" stroke-width="3" stroke-linecap="round" stroke-linejoin="round" />
    </symbol>

    <symbol viewBox="0 0 24 24" id="icon-search-menu">
        <path d="M11 18C14.866 18 18 14.866 18 11C18 7.13401 14.866 4 11 4C7.13401 4 4 7.13401 4 11C4 14.866 7.13401 18 11 18Z" stroke-width="2.11765" stroke-linecap="round" stroke-linejoin="round" />
        <path d="M20 20L16 16" stroke-width="2.11765" stroke-linecap="round" stroke-linejoin="round" />
    </symbol>

    <symbol viewBox="0 0 16 16" id="icon-search-submit">
        <path d="M7.33333 12.6667C10.2789 12.6667 12.6667 10.2789 12.6667 7.33333C12.6667 4.38781 10.2789 2 7.33333 2C4.38781 2 2 4.38781 2 7.33333C2 10.2789 4.38781 12.6667 7.33333 12.6667Z" stroke-width="1.33333" stroke-linecap="round" stroke-linejoin="round" />
        <path d="M14.0016 13.9977L11.1016 11.0977" stroke-width="1.33333" stroke-linecap="round" stroke-linejoin="round" />
    </symbol>

    <symbol viewBox="0 0 34 34" id="header-nav-link">
        <path d="M2 6H32" stroke-width="3" stroke-linecap="round" stroke-linejoin="round" />
        <path d="M2 17H32" stroke-width="3" stroke-linecap="round" stroke-linejoin="round" />
        <path d="M17 28H32" stroke-width="3" stroke-linecap="round" stroke-linejoin="round" />
    </symbol>

    <symbol viewBox="0 0 24 24" id="panel-close">
        <path d="M18 6L6 18" stroke-width="2" stroke-linecap="round" stroke-linejoin="round" />
        <path d="M6 6L18 18" stroke-width="2" stroke-linecap="round" stroke-linejoin="round" />
    </symbol>

    <symbol viewBox="0 0 32 32" id="arrow-prev">
        <path d="M19 10L13 16L19 22" stroke-width="2" stroke-linecap="round" stroke-linejoin="round" />
    </symbol>

    <symbol viewBox="0 0 32 32" id="arrow-next">
        <path d="M13 22L19 16L13 10" stroke-width="2" stroke-linecap="round" stroke-linejoin="round" />
    </symbol>

    <symbol viewBox="0 0 32 32" id="icon-vk">
        <path fill-rule="evenodd" clip-rule="evenodd" d="M20.9118 0H11.0882C2.12279 0 0 2.12279 0 11.0882V20.9118C0 29.8772 2.12279 32 11.0882 32H20.9118C29.8772 32 32 29.8772 32 20.9118V11.0882C32 2.12279 29.8772 0 20.9118 0ZM25.4964 10.1632C26.1965 10.1632 26.3545 10.5245 26.1965 11.0214C25.9497 12.16 23.901 15.1804 23.2665 16.1159C23.1459 16.2936 23.0764 16.3961 23.08 16.3961C22.8316 16.8026 22.7413 16.9833 23.08 17.4349C23.2025 17.6019 23.4621 17.8567 23.7589 18.1479C24.0641 18.4474 24.4086 18.7854 24.6834 19.106C25.677 20.2352 26.4449 21.1837 26.6481 21.8386C26.8288 22.4935 26.5126 22.8322 25.8351 22.8322H23.5091C22.8927 22.8322 22.5749 22.4782 21.8977 21.7238C21.6074 21.4003 21.2509 21.0032 20.7766 20.5288C19.399 19.1964 18.7893 19.0157 18.4505 19.0157C17.9763 19.0157 17.8408 19.1286 17.8408 19.8061V21.9063C17.8408 22.4709 17.6601 22.8096 16.1696 22.8096C13.7081 22.8096 10.9756 21.3192 9.05602 18.5415C6.1654 14.4765 5.375 11.4053 5.375 10.7955C5.375 10.4568 5.48791 10.1406 6.1654 10.1406H8.51403C9.10118 10.1406 9.32701 10.389 9.55284 11.0439C10.7046 14.3636 12.6241 17.2768 13.4145 17.2768C13.7081 17.2768 13.8436 17.1413 13.8436 16.3961V12.9635C13.7878 11.9878 13.4482 11.5627 13.1963 11.2475C13.0401 11.052 12.9177 10.8987 12.9177 10.6826C12.9177 10.4116 13.1435 10.1406 13.5049 10.1406H17.1633C17.6601 10.1406 17.8408 10.4116 17.8408 10.9988V15.6283C17.8408 16.1251 18.044 16.3058 18.2021 16.3058C18.4957 16.3058 18.7441 16.1251 19.2861 15.5831C20.9572 13.7087 22.1541 10.8181 22.1541 10.8181C22.3122 10.4794 22.5832 10.1632 23.1703 10.1632H25.4964Z" />
    </symbol>

    <symbol viewBox="0 0 33 32" id="icon-telegram">
        <path fill-rule="evenodd" clip-rule="evenodd" d="M32.2031 16C32.2031 24.8366 25.0397 32 16.2031 32C7.36657 32 0.203125 24.8366 0.203125 16C0.203125 7.16344 7.36657 0 16.2031 0C25.0397 0 32.2031 7.16344 32.2031 16ZM10.9223 14.5333C9.31949 15.2331 7.67264 15.9521 6.16676 16.7816L6.16665 16.7817C5.38033 17.3574 6.42552 17.7646 7.40596 18.1466C7.56184 18.2073 7.71607 18.2674 7.86105 18.3274C7.9817 18.3645 8.10439 18.4036 8.22871 18.4432C9.31916 18.7906 10.5351 19.178 11.5937 18.5953C13.3328 17.5963 14.9739 16.4413 16.6138 15.2873C17.1511 14.9091 17.6882 14.5311 18.2287 14.1587C18.254 14.1425 18.2825 14.124 18.3138 14.1038C18.7741 13.8053 19.8095 13.1342 19.4265 14.059C18.5209 15.0494 17.5509 15.9261 16.5756 16.8076C15.9183 17.4017 15.2586 17.9979 14.6145 18.6326C14.0536 19.0883 13.4712 20.0048 14.0993 20.643C15.5459 21.6557 17.0151 22.6439 18.4835 23.6314C18.9613 23.9528 19.439 24.2741 19.9158 24.5962C20.7239 25.2414 21.9869 24.7195 22.1646 23.7113C22.2436 23.2474 22.323 22.7835 22.4023 22.3196C22.8407 19.7565 23.2792 17.1926 23.6666 14.6213C23.7193 14.2179 23.7789 13.8146 23.8387 13.411C23.9834 12.4329 24.1283 11.4537 24.1736 10.4703C24.0569 9.48903 22.8671 9.70479 22.2049 9.92545C18.8014 11.2205 15.432 12.6116 12.0758 14.0272C11.6956 14.1956 11.3102 14.3639 10.9223 14.5333Z" />
    </symbol>

    <symbol viewBox="0 0 32 32" id="icon-instagram">
        <path fill-rule="evenodd" clip-rule="evenodd" d="M32 16C32 24.8366 24.8366 32 16 32C7.16344 32 0 24.8366 0 16C0 7.16344 7.16344 0 16 0C24.8366 0 32 7.16344 32 16ZM16.0008 5C13.0134 5 12.6384 5.01306 11.4651 5.06646C10.294 5.12008 9.49469 5.30548 8.79527 5.5775C8.07178 5.85846 7.45807 6.23429 6.84664 6.84594C6.23476 7.45735 5.85893 8.07106 5.57705 8.79431C5.30434 9.49396 5.11871 10.2935 5.066 11.4641C5.01375 12.6374 5 13.0126 5 16C5 18.9874 5.01329 19.3612 5.06646 20.5345C5.12031 21.7056 5.30571 22.5049 5.57751 23.2043C5.8587 23.9278 6.23453 24.5415 6.84619 25.1529C7.45738 25.7648 8.07109 26.1415 8.79412 26.4225C9.49401 26.6945 10.2936 26.8799 11.4644 26.9335C12.6377 26.9869 13.0124 27 15.9997 27C18.9873 27 19.3611 26.9869 20.5345 26.9335C21.7055 26.8799 22.5058 26.6945 23.2057 26.4225C23.9289 26.1415 24.5417 25.7648 25.1529 25.1529C25.7648 24.5415 26.1406 23.9278 26.4225 23.2045C26.6929 22.5049 26.8785 21.7053 26.9335 20.5347C26.9862 19.3614 27 18.9874 27 16C27 13.0126 26.9862 12.6377 26.9335 11.4643C26.8785 10.2933 26.6929 9.49396 26.4225 8.79454C26.1406 8.07106 25.7648 7.45735 25.1529 6.84594C24.541 6.23406 23.9291 5.85823 23.205 5.5775C22.5037 5.30548 21.7039 5.12008 20.5329 5.06646C19.3595 5.01306 18.986 5 15.9976 5H16.0008ZM15.6339 6.98218H15.6342L16.0008 6.98229C18.9378 6.98229 19.2859 6.99283 20.4458 7.04554C21.5183 7.09458 22.1004 7.27379 22.4881 7.42435C23.0015 7.62373 23.3674 7.86206 23.7522 8.24706C24.1372 8.63206 24.3756 8.99873 24.5754 9.51206C24.726 9.89935 24.9054 10.4814 24.9542 11.5539C25.0069 12.7135 25.0184 13.0619 25.0184 15.9975C25.0184 18.9331 25.0069 19.2814 24.9542 20.441C24.9052 21.5135 24.726 22.0956 24.5754 22.4829C24.376 22.9962 24.1372 23.3618 23.7522 23.7465C23.3672 24.1315 23.0017 24.3699 22.4881 24.5692C22.1008 24.7205 21.5183 24.8992 20.4458 24.9483C19.2862 25.001 18.9378 25.0124 16.0008 25.0124C13.0635 25.0124 12.7154 25.001 11.5558 24.9483C10.4833 24.8988 9.90124 24.7196 9.51326 24.569C8.99992 24.3696 8.63325 24.1313 8.24824 23.7463C7.86324 23.3613 7.6249 22.9955 7.42507 22.482C7.2745 22.0947 7.09506 21.5126 7.04625 20.4401C6.99354 19.2805 6.983 18.9322 6.983 15.9947C6.983 13.0573 6.99354 12.7108 7.04625 11.5512C7.09529 10.4787 7.2745 9.8966 7.42507 9.50885C7.62444 8.99552 7.86324 8.62885 8.24824 8.24385C8.63325 7.85885 8.99992 7.62052 9.51326 7.42069C9.90101 7.26944 10.4833 7.09069 11.5558 7.04142C12.5706 6.99558 12.9639 6.98183 15.014 6.97954V6.98229C15.2054 6.98199 15.4112 6.98208 15.6334 6.98218H15.6336H15.6339ZM21.8489 8.78173C21.5878 8.78173 21.3326 8.85916 21.1155 9.00422C20.8984 9.14929 20.7292 9.35547 20.6293 9.59669C20.5294 9.83792 20.5033 10.1033 20.5543 10.3594C20.6053 10.6155 20.731 10.8507 20.9157 11.0353C21.1003 11.2199 21.3356 11.3455 21.5917 11.3964C21.8478 11.4473 22.1132 11.4211 22.3544 11.3211C22.5956 11.2211 22.8017 11.0519 22.9467 10.8347C23.0917 10.6176 23.169 10.3624 23.1689 10.1013C23.1689 9.37252 22.5777 8.78173 21.8489 8.78173ZM10.3281 15.973C10.3281 12.8533 12.8575 10.324 15.9771 10.324C19.0968 10.324 21.6255 12.8533 21.6255 15.973C21.6255 19.0926 19.0968 21.6208 15.9771 21.6208C12.8575 21.6208 10.3281 19.0926 10.3281 15.973ZM19.6094 16C19.6094 17.9934 17.9934 19.6094 16 19.6094C14.0066 19.6094 12.3906 17.9934 12.3906 16C12.3906 14.0066 14.0066 12.3906 16 12.3906C17.9934 12.3906 19.6094 14.0066 19.6094 16Z" />
    </symbol>

    <symbol viewBox="0 0 32 32" id="icon-dzen">
        <path d="M19.0857 19.0857C16.5714 21.68 16.3886 24.9143 16.1714 32C22.7771 32 27.3371 31.9771 29.6914 29.6914C31.9771 27.3371 32 22.56 32 16.1714C24.9143 16.4 21.68 16.5714 19.0857 19.0857ZM0 16.1714C0 22.56 0.0228571 27.3371 2.30857 29.6914C4.66286 31.9771 9.22286 32 15.8286 32C15.6 24.9143 15.4286 21.68 12.9143 19.0857C10.32 16.5714 7.08571 16.3886 0 16.1714ZM15.8286 0C9.23429 0 4.66286 0.0228571 2.30857 2.30857C0.0228571 4.66286 0 9.44 0 15.8286C7.08571 15.6 10.32 15.4286 12.9143 12.9143C15.4286 10.32 15.6114 7.08571 15.8286 0ZM19.0857 12.9143C16.5714 10.32 16.3886 7.08571 16.1714 0C22.7771 0 27.3371 0.0228571 29.6914 2.30857C31.9771 4.66286 32 9.44 32 15.8286C24.9143 15.6 21.68 15.4286 19.0857 12.9143Z" />
        <path d="M32 16.1714V15.8286C24.9143 15.6 21.68 15.4286 19.0857 12.9143C16.5714 10.32 16.3886 7.08571 16.1714 0H15.8286C15.6 7.08571 15.4286 10.32 12.9143 12.9143C10.32 15.4286 7.08571 15.6114 0 15.8286V16.1714C7.08571 16.4 10.32 16.5714 12.9143 19.0857C15.4286 21.68 15.6114 24.9143 15.8286 32H16.1714C16.4 24.9143 16.5714 21.68 19.0857 19.0857C21.68 16.5714 24.9143 16.3886 32 16.1714Z" fill="black" />
    </symbol>

    <symbol viewBox="0 0 17 16" id="icon-download">
        <path d="M14.5 10V12.6667C14.5 13.0203 14.3595 13.3594 14.1095 13.6095C13.8594 13.8595 13.5203 14 13.1667 14H3.83333C3.47971 14 3.14057 13.8595 2.89052 13.6095C2.64048 13.3594 2.5 13.0203 2.5 12.6667V10" stroke-width="1.375" stroke-linecap="round" stroke-linejoin="round" />
        <path d="M5.17188 6.66406L8.50521 9.9974L11.8385 6.66406" stroke-width="1.375" stroke-linecap="round" stroke-linejoin="round" />
        <path d="M8.5 10V2" stroke-width="1.375" stroke-linecap="round" stroke-linejoin="round" />
    </symbol>

    <symbol viewBox="0 0 24 24" id="detail-back">
        <path d="M15 6L9 12L15 18" stroke-width="2" stroke-linecap="round" stroke-linejoin="round" />
    </symbol>

    <symbol viewBox="0 0 25 24" id="collections-filter-select">
        <path d="M9.5 19L16.25 12.25L9.5 5.5" stroke-width="2.25" stroke-linecap="round" stroke-linejoin="round" />
    </symbol>

    <symbol viewBox="0 0 25 24" id="collections-filter-random">
        <path d="M1.5 4V10H7.5" stroke-width="2" stroke-linecap="round" stroke-linejoin="round" />
        <path d="M23.5 20V14H17.5" stroke-width="2" stroke-linecap="round" stroke-linejoin="round" />
        <path d="M20.99 9.00154C20.4828 7.56833 19.6209 6.28694 18.4845 5.27696C17.3482 4.26697 15.9745 3.56131 14.4917 3.2258C13.0089 2.89029 11.4652 2.93588 10.0048 3.35831C8.54437 3.78075 7.21475 4.56625 6.14 5.64154L1.5 10.0015M23.5 14.0015L18.86 18.3615C17.7853 19.4368 16.4556 20.2223 14.9952 20.6448C13.5348 21.0672 11.9911 21.1128 10.5083 20.7773C9.02547 20.4418 7.6518 19.7361 6.51547 18.7261C5.37913 17.7161 4.51717 16.4348 4.01 15.0015" stroke-width="2" stroke-linecap="round" stroke-linejoin="round" />
    </symbol>

    <symbol viewBox="0 0 24 24" id="faq-arrow">
        <path d="M6 9L12 15L18 9" stroke-width="2" stroke-linecap="round" stroke-linejoin="round" />
    </symbol>

    <symbol viewBox="0 0 25 24" id="icon-fortune">
        <path d="M13.8099 9.51127C22.427 2.96796 15.2965 -0.965527 12.5004 2.00788C9.70582 -0.963872 2.57291 2.96744 11.1908 9.51125C0.961392 5.64078 0.967246 13.5175 5.0559 14.3483C3.87295 17.8301 9.7475 21.4334 11.984 14.0178C12.2278 19.5831 9.27933 21.2192 9.25858 21.2367C8.22287 22.1103 9.60233 23.6096 10.6387 22.7355L10.6507 22.7254C11.7036 21.8373 13.695 19.4307 13.2742 14.782C15.6706 21.1715 21.0855 17.7057 19.9448 14.3484C24.0312 13.518 24.0403 5.64033 13.8099 9.51127Z" />
    </symbol>

    <symbol viewBox="0 0 37 37" id="buy-marketplace">
        <path d="M13.875 27.75L23.125 18.5L13.875 9.25" stroke-width="4" stroke-linecap="round" stroke-linejoin="round" />
    </symbol>

    <symbol viewBox="0 0 17 24" id="article-back">
        <path d="M8 6L2 12L8 18" stroke-width="2" stroke-linecap="round" stroke-linejoin="round" />
    </symbol>

    <symbol viewBox="0 0 32 32" id="pager-prev">
        <path d="M19 10L13 16L19 22" stroke-width="2" stroke-linecap="round" stroke-linejoin="round" />
    </symbol>

    <symbol viewBox="0 0 32 32" id="pager-next">
        <path d="M13 22L19 16L13 10" stroke-width="2" stroke-linecap="round" stroke-linejoin="round" />
    </symbol>

</svg>