<svg version="1.1" xmlns="http://www.w3.org/2000/svg" xmlns:xlink="http://www.w3.org/1999/xlink">

    <symbol viewBox="0 0 131 44" id="logo">
        <path d="M15.4478 42.7458L19.5581 28.5843V42.5623C19.5581 42.9188 19.8539 43.2177 20.2185 43.2177H25.1952C25.565 43.2177 25.8608 42.924 25.8608 42.5623V3.72179C25.8608 3.36002 25.5597 3.06641 25.1952 3.06641H20.7996C20.5037 3.06641 20.2396 3.2604 20.1656 3.53828L12.9489 28.6944L5.68991 3.53828C5.61066 3.2604 5.35179 3.06641 5.05594 3.06641H0.660389C0.295854 3.06641 0 3.36002 0 3.72179V42.5675C0 42.924 0.295854 43.2229 0.660389 43.2229H5.64236C6.0069 43.2229 6.30275 42.9293 6.30275 42.5675V28.5896L10.4183 42.751C10.5028 43.0341 10.7564 43.2229 11.0523 43.2229H14.8138C15.1097 43.2229 15.3686 43.0341 15.4478 42.751V42.7458Z" />
        <path d="M101.341 3.72179C101.341 3.36002 101.04 3.06641 100.681 3.06641H95.6933C95.3287 3.06641 95.0329 3.36002 95.0329 3.72179V32.2387C95.0329 34.3779 94.6419 35.8302 93.8811 36.4332C93.2736 36.9627 92.5604 36.9627 91.9317 36.9627C91.2977 36.9627 90.5845 36.9627 89.9558 36.4174C89.2162 35.8302 88.8252 34.3831 88.8252 32.2387V3.72179C88.8252 3.36002 88.5294 3.06641 88.1648 3.06641H83.1776C82.8183 3.06641 82.5225 3.36002 82.5225 3.72179V32.2387C82.5225 35.6624 83.2621 38.2263 84.7731 40.0561C85.8455 41.5032 87.9641 43.2229 91.9317 43.2229C95.8993 43.2229 98.0178 41.5032 99.0692 40.0823C100.596 38.2263 101.341 35.6572 101.341 32.2387V3.72179Z" />
        <path d="M115.578 3.06127C112.747 3.06127 110.179 4.23047 108.346 6.34341C106.539 8.41966 105.588 11.361 105.588 14.8371C105.588 18.156 106.729 20.9348 108.969 23.1107C110.723 24.8042 112.667 25.6221 113.877 26.1359L114.844 26.5606C115.885 27.0063 117.058 27.5673 117.866 28.317C118.785 29.2293 119.213 30.3356 119.213 31.8036C119.213 33.2402 119.007 34.3832 118.605 35.1854C117.945 36.3861 116.984 36.9418 115.578 36.9418C114.754 36.9418 114.131 36.8265 113.724 36.6063C113.539 36.5067 113.111 36.2655 112.968 36.0295C112.25 35.1277 111.896 33.6177 111.896 31.5363V29.0615C111.896 28.6998 111.595 28.4114 111.236 28.4114H106.254C105.889 28.4114 105.593 28.705 105.593 29.0615V31.5363C105.593 39.0653 109.143 43.2073 115.584 43.2073C121.553 43.2073 125.574 38.6196 125.574 31.7984C125.574 28.4796 124.396 25.7112 122.087 23.5826C120.449 22.0096 118.637 21.2704 117.559 20.83L116.397 20.3319C115.061 19.839 114.009 19.1836 113.248 18.3814C112.329 17.4115 111.896 16.279 111.896 14.8319C111.896 13.5211 112.113 12.3572 112.53 11.4501C113.143 10.0135 114.083 9.37389 115.584 9.37389C116.207 9.37389 117.147 9.3739 117.861 9.96112C118.368 10.3701 119.213 11.555 119.213 14.8319V17.3119C119.213 17.6736 119.504 17.9725 119.868 17.9725H124.908C125.273 17.9725 125.569 17.6736 125.569 17.3119V14.8319C125.569 11.2037 124.781 8.43015 123.154 6.36439C121.966 4.85439 119.694 3.05078 115.578 3.05078V3.06127Z" />
        <path d="M45.6035 42.7612C45.6722 43.06 45.9364 43.275 46.2428 43.275H51.4361H51.4731C51.8376 43.275 52.1335 42.9762 52.1335 42.6144C52.1335 42.4886 52.0965 42.3732 52.0384 42.2736L42.962 3.62186C42.8933 3.323 42.6239 3.11328 42.3175 3.11328H38.3446C38.0329 3.11328 37.774 3.323 37.7 3.62186L28.687 42.4728C28.6395 42.6668 28.687 42.8713 28.8138 43.0286C28.9406 43.1859 29.1308 43.2803 29.3263 43.2803H34.4668C34.7732 43.2803 35.0426 43.0705 35.1113 42.7664L36.4691 36.8995H44.2405L45.5983 42.7664L45.6035 42.7612ZM37.9325 30.634L40.3627 20.1637L42.7929 30.634H37.9325Z" />
        <path d="M67.1273 8.8282L64.7129 3.11328H69.4571L67.1273 8.8282Z" />
        <path d="M67.1322 36.9688L64.4854 43.2237H69.6786L67.1322 36.9688Z" />
        <path d="M79.1198 3.11462H73.5514C73.2978 3.11462 73.0654 3.26142 72.9597 3.49212L67.0954 15.7713L61.3738 3.49736C61.2682 3.26667 61.0357 3.11462 60.7768 3.11462H55.2137C54.9918 3.11462 54.7752 3.22997 54.6537 3.41871C54.5375 3.60746 54.5164 3.84864 54.6115 4.04788L63.5505 23.164L54.4582 42.3326C54.3632 42.5371 54.3737 42.773 54.4952 42.967C54.6167 43.1505 54.8281 43.2764 55.05 43.2764H60.6184C60.8772 43.2764 61.1044 43.1295 61.2153 42.8989L67.0849 30.5567L72.9069 42.8989C73.0178 43.1295 73.245 43.2764 73.5039 43.2764H79.0141C79.2413 43.2764 79.4526 43.1558 79.5689 42.967C79.6904 42.7783 79.7062 42.5371 79.6111 42.3326L70.5717 23.1693L79.7168 4.05312C79.8119 3.84864 79.796 3.61271 79.6798 3.41871C79.5583 3.22997 79.3523 3.10938 79.1198 3.10938V3.11462Z" />
        <path d="M129.593 2.77285C129.688 2.6208 129.73 2.4373 129.73 2.22758C129.73 1.91299 129.62 1.66133 129.392 1.47258C129.165 1.28383 128.853 1.18945 128.457 1.18945H127.179V4.10459H127.966V3.2657H128.457H128.489L129.038 4.10459H129.826L129.186 3.12938C129.366 3.04549 129.503 2.9249 129.598 2.77285H129.593ZM128.816 2.56313C128.716 2.64178 128.579 2.67848 128.404 2.67848H127.961V1.77143H128.404C128.579 1.77143 128.716 1.81338 128.816 1.89202C128.917 1.97067 128.964 2.08601 128.964 2.22758C128.964 2.37438 128.917 2.48449 128.816 2.56313Z" />
        <path d="M130.655 1.29503C130.423 0.891318 130.106 0.576735 129.699 0.346041C129.292 0.115347 128.838 0 128.341 0C127.845 0 127.39 0.115347 126.983 0.351284C126.577 0.587221 126.254 0.907047 126.022 1.31076C125.789 1.71448 125.668 2.16014 125.668 2.64774C125.668 3.13534 125.784 3.581 126.022 3.98472C126.254 4.38843 126.577 4.7135 126.983 4.94419C127.39 5.18013 127.839 5.29548 128.331 5.29548C128.822 5.29548 129.276 5.17489 129.683 4.94419C130.09 4.70826 130.412 4.38843 130.65 3.97947C130.888 3.57051 131.004 3.11961 131.004 2.63201C131.004 2.13916 130.888 1.6935 130.655 1.28979V1.29503ZM130.206 3.73829C130.016 4.07385 129.757 4.336 129.43 4.52475C129.102 4.71874 128.732 4.81312 128.331 4.81312C127.929 4.81312 127.565 4.71874 127.237 4.52999C126.91 4.34124 126.656 4.07909 126.471 3.74878C126.286 3.41847 126.191 3.05145 126.191 2.65298C126.191 2.25451 126.286 1.8875 126.471 1.55718C126.656 1.22687 126.915 0.964721 127.242 0.775971C127.57 0.587221 127.94 0.492846 128.347 0.492846C128.753 0.492846 129.123 0.587221 129.451 0.775971C129.778 0.964721 130.032 1.22163 130.217 1.5467C130.402 1.87177 130.491 2.23878 130.491 2.6425C130.491 3.04097 130.396 3.40798 130.206 3.74353V3.73829Z" />
    </symbol>

    <symbol viewBox="0 0 177 80" id="logo-with-title">
        <path d="M4.26086 69.7889H6.0597V76.6351C6.0597 78.7394 4.9033 79.9551 3.0188 79.9551C1.14858 79.9551 -0.0078125 78.7394 -0.0078125 76.6351V69.7889H1.77675V76.6351C1.77675 77.7086 2.22646 78.2489 3.0188 78.2489C3.80401 78.2489 4.26086 77.7015 4.26086 76.6351V69.7889ZM10.7353 69.7889H9.00066V79.7987H13.8118V78.128H10.7281V69.7889H10.7353ZM15.3965 71.4596H17.381V79.7987H19.1512V71.4596H21.1357V69.7889H15.3965V71.4596ZM27.7528 75.9952L29.7373 79.7987H27.8385L26.0753 76.3081H25.2901V79.7987H23.5627V69.7889H26.2681C28.1954 69.7889 29.309 70.9761 29.309 73.0236C29.309 74.481 28.7593 75.5118 27.76 75.9952H27.7528ZM27.5315 73.0378C27.5315 72.007 27.0818 71.4667 26.2538 71.4667H25.2973V74.6445H26.2538C27.0818 74.6445 27.5315 74.0829 27.5315 73.0449V73.0378ZM35.5121 69.7889L37.932 79.7987H36.1331L35.7405 77.9858H33.4349L33.0423 79.7987H31.2434L33.6633 69.7889H35.5192H35.5121ZM35.3836 76.3081L34.991 74.4454C34.8483 73.7558 34.6983 72.661 34.5984 71.9857H34.5556C34.4699 72.661 34.3129 73.7558 34.1773 74.4454L33.7847 76.3081H35.3908H35.3836ZM50.2455 73.116C50.2455 75.2203 49.0748 76.436 47.0904 76.436H46.091V79.7987H44.3564V69.7889H47.0904C49.0748 69.7889 50.2455 71.0188 50.2455 73.1231V73.116ZM48.4752 73.116C48.4752 72.0141 48.0112 71.4596 47.0832 71.4596H46.0981V74.7796H47.0832C48.0112 74.7796 48.4752 74.2251 48.4752 73.1231V73.116ZM57.0625 75.9881L59.0469 79.7916H57.1481L55.385 76.3009H54.5998V79.7916H52.8723V69.7818H55.5777C57.5051 69.7818 58.6186 70.969 58.6186 73.0165C58.6186 74.4739 58.069 75.5047 57.0696 75.9881H57.0625ZM56.8341 73.0307C56.8341 71.9999 56.3843 71.4596 55.5563 71.4596H54.5998V74.6374H55.5563C56.3843 74.6374 56.8341 74.0758 56.8341 73.0378V73.0307ZM63.1229 75.5189H66.0781V73.9194H63.1229V71.4453H66.3493V69.7889H61.3954V79.7987H66.4921V78.1422H63.13V75.526L63.1229 75.5189ZM73.973 73.7061C73.7588 74.2322 73.4091 75.1493 73.2806 75.5687H73.2235C73.095 75.1564 72.7595 74.2393 72.5453 73.7061L70.9392 69.7889H69.1904V79.7987H70.8821V76.6635C70.8393 75.4905 70.7965 74.3459 70.7394 73.2155L70.8107 73.1871C71.1034 74.0189 71.4175 74.9146 71.7244 75.8175L72.3883 77.5877H74.1086L74.7725 75.8175C75.0794 74.9146 75.4078 74.0189 75.6862 73.1871L75.7576 73.2155C75.7004 74.3459 75.6576 75.4905 75.6148 76.6635V79.7987H77.3208V69.7889H75.5577L73.9659 73.7061H73.973ZM80.4331 79.7987H82.1677V69.7889H80.4331V79.7987ZM89.3702 76.6351C89.3702 77.7086 88.9205 78.2489 88.1281 78.2489C87.3358 78.2489 86.8861 77.7015 86.8861 76.6351V69.7889H85.1015V76.6351C85.1015 78.7394 86.2579 79.9551 88.1281 79.9551C90.0126 79.9551 91.169 78.7394 91.169 76.6351V69.7889H89.3702V76.6351ZM98.8855 73.7061C98.6713 74.2322 98.3215 75.1493 98.1931 75.5687H98.136C98.0075 75.1564 97.672 74.2393 97.4578 73.7061L95.8517 69.7889H94.1028V79.7987H95.7946V76.6635C95.7518 75.4905 95.709 74.3459 95.6518 73.2155L95.7232 73.1871C96.0159 74.0189 96.33 74.9146 96.6369 75.8175L97.3008 77.5877H99.014L99.6778 75.8175C99.9848 74.9146 100.313 74.0189 100.592 73.1871L100.663 73.2155C100.606 74.3459 100.563 75.4905 100.52 76.6635V79.7987H102.226V69.7889H100.463L98.8712 73.7061H98.8855ZM112.198 78.2702C111.463 78.2702 111.028 77.801 111.028 76.7986V72.7961C111.028 71.7653 111.463 71.2961 112.184 71.2961C113.026 71.2961 113.447 71.7368 113.505 72.7677H115.239C115.154 70.7202 114.083 69.5898 112.198 69.5898C110.357 69.5898 109.243 70.7202 109.243 72.7961V76.7986C109.243 78.8603 110.371 79.9764 112.198 79.9764C114.097 79.9764 115.211 78.8603 115.282 76.827H113.547C113.476 77.8294 113.055 78.2702 112.198 78.2702ZM123.727 73.0094V76.5853C123.727 78.7039 122.57 79.9764 120.629 79.9764C118.687 79.9764 117.516 78.7039 117.516 76.5853V73.0094C117.516 70.8908 118.673 69.6183 120.629 69.6183C122.57 69.6183 123.727 70.8908 123.727 73.0094ZM121.942 73.0094C121.942 71.9217 121.507 71.3245 120.636 71.3245C119.765 71.3245 119.315 71.9288 119.315 73.0094V76.5853C119.315 77.673 119.765 78.2702 120.636 78.2702C121.507 78.2702 121.942 77.673 121.942 76.5853V73.0094ZM130.936 72.8388C130.936 73.7558 131.036 75.3696 131.179 76.5L131.136 76.5427C130.893 75.9242 130.601 75.1421 130.351 74.4952L128.295 69.7889H126.575V79.7987H128.281V76.9266C128.281 75.8815 128.195 74.1824 128.067 73.052L128.109 73.0094C128.374 73.7558 128.73 74.6658 129.023 75.4549L130.922 79.7987H132.642V69.7889H130.936V72.8316V72.8388ZM141.437 73.0236V76.5284C141.437 78.5901 140.294 79.8058 138.367 79.8058H135.762V69.796H138.339C140.294 69.796 141.437 70.9833 141.437 73.0307V73.0236ZM139.688 73.0236C139.688 71.9928 139.224 71.4667 138.367 71.4667H137.496V78.128H138.367C139.224 78.128 139.688 77.5664 139.688 76.5142V73.0236ZM150.202 73.0094V76.5853C150.202 78.7039 149.046 79.9764 147.104 79.9764C145.148 79.9764 143.992 78.7039 143.992 76.5853V73.0094C143.992 70.8908 145.148 69.6183 147.104 69.6183C149.06 69.6183 150.202 70.8908 150.202 73.0094ZM148.418 73.0094C148.418 71.9217 147.982 71.3245 147.111 71.3245C146.241 71.3245 145.791 71.9288 145.791 73.0094V76.5853C145.791 77.673 146.241 78.2702 147.111 78.2702C147.982 78.2702 148.418 77.673 148.418 76.5853V73.0094ZM157.819 73.7132C157.605 74.2393 157.255 75.1564 157.126 75.5758H157.069C156.941 75.1635 156.605 74.2464 156.391 73.7132L154.785 69.796H153.036V79.8058H154.728V76.6706C154.685 75.4976 154.642 74.353 154.585 73.2227L154.657 73.1942C154.949 74.026 155.263 74.9218 155.57 75.8246L156.234 77.5948H157.947L158.611 75.8246C158.918 74.9218 159.246 74.026 159.525 73.1942L159.596 73.2227C159.539 74.353 159.496 75.4976 159.454 76.6706V79.8058H161.16V69.796H159.396L157.805 73.7132H157.819ZM165.614 72.2416C165.614 71.6728 165.992 71.2961 166.642 71.2961C167.306 71.2961 167.698 71.68 167.712 72.4833H169.483C169.468 70.6989 168.398 69.597 166.642 69.597C164.9 69.597 163.858 70.7131 163.858 72.1989C163.858 75.2132 167.827 75.3625 167.827 77.1754C167.827 77.8152 167.448 78.2915 166.656 78.2915C165.914 78.2915 165.443 77.8792 165.428 76.9763H163.658C163.672 78.91 164.829 80.0048 166.642 80.0048C168.455 80.0048 169.626 78.7607 169.626 77.1896C169.626 74.0402 165.614 73.9833 165.614 72.2416Z" />
        <path d="M20.8722 57.9588L26.4258 38.7568V57.71C26.4258 58.1934 26.8255 58.5986 27.3181 58.5986H34.0423C34.542 58.5986 34.9417 58.2005 34.9417 57.71V5.0449C34.9417 4.55437 34.5348 4.15625 34.0423 4.15625H28.1033C27.7035 4.15625 27.3466 4.41929 27.2467 4.79608L17.4958 38.9061L7.68789 4.79608C7.58082 4.41929 7.23105 4.15625 6.8313 4.15625H0.892281C0.399742 4.15625 0 4.55437 0 5.0449V57.7171C0 58.2005 0.399742 58.6057 0.892281 58.6057H7.62365C8.11619 58.6057 8.51593 58.2076 8.51593 57.7171V38.7639L14.0766 57.9659C14.1908 58.3498 14.5335 58.6057 14.9332 58.6057H20.0156C20.4154 58.6057 20.7652 58.3498 20.8722 57.9659V57.9588Z" />
        <path d="M136.926 5.0449C136.926 4.55437 136.52 4.15625 136.034 4.15625H129.296C128.803 4.15625 128.403 4.55437 128.403 5.0449V43.7119C128.403 46.6125 127.875 48.5817 126.847 49.3993C126.026 50.1173 125.063 50.1173 124.213 50.1173C123.357 50.1173 122.393 50.1173 121.544 49.378C120.544 48.5817 120.016 46.6196 120.016 43.7119V5.0449C120.016 4.55437 119.616 4.15625 119.124 4.15625H112.385C111.9 4.15625 111.5 4.55437 111.5 5.0449V43.7119C111.5 48.3542 112.499 51.8307 114.541 54.3118C115.99 56.2739 118.852 58.6057 124.213 58.6057C129.574 58.6057 132.436 56.2739 133.857 54.3473C135.92 51.8306 136.926 48.3471 136.926 43.7119V5.0449Z" />
        <path d="M156.162 4.15094C152.336 4.15094 148.867 5.73629 146.39 8.60131C143.949 11.4166 142.664 15.4048 142.664 20.1182C142.664 24.6184 144.206 28.3863 147.233 31.3366C149.602 33.6329 152.229 34.7419 153.864 35.4386L155.17 36.0144C156.577 36.6187 158.161 37.3794 159.253 38.396C160.495 39.633 161.074 41.1331 161.074 43.1237C161.074 45.0716 160.795 46.6214 160.253 47.7091C159.36 49.3371 158.061 50.0907 156.162 50.0907C155.049 50.0907 154.207 49.9343 153.657 49.6357C153.407 49.5006 152.829 49.1736 152.636 48.8537C151.665 47.6309 151.187 45.5834 151.187 42.7611V39.4055C151.187 38.915 150.78 38.524 150.295 38.524H143.563C143.071 38.524 142.671 38.9221 142.671 39.4055V42.7611C142.671 52.9699 147.468 58.5862 156.17 58.5862C164.236 58.5862 169.668 52.3656 169.668 43.1165C169.668 38.6164 168.076 34.8627 164.957 31.9764C162.744 29.8436 160.296 28.8412 158.839 28.2441L157.269 27.5687C155.463 26.9004 154.042 26.0118 153.015 24.9241C151.772 23.6089 151.187 22.0733 151.187 20.1111C151.187 18.3338 151.48 16.7556 152.044 15.5257C152.872 13.5778 154.142 12.7104 156.17 12.7104C157.012 12.7104 158.283 12.7104 159.246 13.5067C159.931 14.0612 161.074 15.6679 161.074 20.1111V23.4738C161.074 23.9643 161.466 24.3695 161.959 24.3695H168.769C169.261 24.3695 169.661 23.9643 169.661 23.4738V20.1111C169.661 15.1915 168.597 11.4308 166.399 8.62974C164.793 6.58229 161.723 4.13672 156.162 4.13672V4.15094Z" />
        <path d="M61.6155 57.9825C61.7083 58.3878 62.0652 58.6792 62.4792 58.6792H69.4961H69.5461C70.0386 58.6792 70.4384 58.274 70.4384 57.7835C70.4384 57.6129 70.3884 57.4565 70.3099 57.3214L58.0464 4.91225C57.9536 4.50702 57.5895 4.22266 57.1755 4.22266H51.8075C51.3864 4.22266 51.0366 4.50702 50.9367 4.91225L38.7588 57.5915C38.6946 57.8546 38.7588 58.1318 38.9301 58.3451C39.1014 58.5584 39.3584 58.6864 39.6225 58.6864H46.5681C46.9821 58.6864 47.3461 58.402 47.4389 57.9897L49.2735 50.0344H59.7738L61.6083 57.9897L61.6155 57.9825ZM51.2507 41.5389L54.5343 27.3418L57.8179 41.5389H51.2507Z" />
        <path d="M90.6997 11.9717L87.4375 4.22266H93.8476L90.6997 11.9717Z" />
        <path d="M90.7052 50.125L87.1289 58.6063H94.1458L90.7052 50.125Z" />
        <path d="M106.904 4.22195H99.3798C99.0372 4.22195 98.7231 4.42101 98.5803 4.73382L90.6569 21.3836L82.9261 4.74093C82.7834 4.42812 82.4693 4.22195 82.1195 4.22195H74.603C74.3031 4.22195 74.0105 4.37836 73.8463 4.63429C73.6893 4.89022 73.6607 5.21724 73.7892 5.48739L85.8671 31.4076L73.5822 57.3989C73.4537 57.6761 73.468 57.9961 73.6322 58.2591C73.7963 58.5079 74.0819 58.6785 74.3817 58.6785H81.9054C82.2552 58.6785 82.5621 58.4795 82.712 58.1667L90.6426 41.4316L98.5089 58.1667C98.6588 58.4795 98.9658 58.6785 99.3156 58.6785H106.761C107.068 58.6785 107.353 58.515 107.51 58.2591C107.674 58.0032 107.696 57.6761 107.567 57.3989L95.3538 31.4147L107.71 5.4945C107.839 5.21724 107.817 4.89733 107.66 4.63429C107.496 4.37836 107.218 4.21484 106.904 4.21484V4.22195Z" />
        <path d="M175.102 3.76026C175.231 3.5541 175.288 3.30527 175.288 3.02091C175.288 2.59435 175.138 2.25311 174.831 1.99718C174.524 1.74125 174.103 1.61328 173.567 1.61328H171.84V5.566H172.903V4.42853H173.567H173.61L174.353 5.566H175.416L174.552 4.24369C174.795 4.12994 174.981 3.96643 175.109 3.76026H175.102ZM174.053 3.4759C173.917 3.58253 173.731 3.6323 173.496 3.6323H172.896V2.4024H173.496C173.731 2.4024 173.917 2.45928 174.053 2.56592C174.188 2.67255 174.253 2.82896 174.253 3.02091C174.253 3.21996 174.188 3.36926 174.053 3.4759Z" />
        <path d="M176.535 1.75598C176.221 1.20857 175.793 0.782014 175.243 0.469208C174.694 0.156403 174.08 0 173.409 0C172.738 0 172.124 0.156403 171.574 0.476317C171.025 0.796232 170.589 1.22989 170.275 1.7773C169.961 2.32471 169.797 2.929 169.797 3.59015C169.797 4.25131 169.954 4.85559 170.275 5.403C170.589 5.95041 171.025 6.39118 171.574 6.70399C172.124 7.0239 172.731 7.18031 173.395 7.18031C174.058 7.18031 174.672 7.0168 175.222 6.70399C175.772 6.38408 176.207 5.95041 176.528 5.39589C176.849 4.84138 177.007 4.22998 177.007 3.56883C177.007 2.90056 176.849 2.29628 176.535 1.74887V1.75598ZM175.929 5.06887C175.672 5.52386 175.322 5.87932 174.879 6.13525C174.437 6.39829 173.937 6.52626 173.395 6.52626C172.852 6.52626 172.36 6.39829 171.917 6.14236C171.474 5.88643 171.132 5.53097 170.882 5.08309C170.632 4.63521 170.504 4.13756 170.504 3.59726C170.504 3.05696 170.632 2.55932 170.882 2.11144C171.132 1.66356 171.482 1.3081 171.924 1.05216C172.367 0.796232 172.866 0.668266 173.416 0.668266C173.966 0.668266 174.465 0.796232 174.908 1.05216C175.35 1.3081 175.693 1.65645 175.943 2.09722C176.193 2.53799 176.314 3.03563 176.314 3.58304C176.314 4.12334 176.186 4.62099 175.929 5.07598V5.06887Z" />
    </symbol>

    <symbol viewBox="0 0 34 34" id="icon-search">
        <path d="M15.5833 26.9167C21.8426 26.9167 26.9167 21.8426 26.9167 15.5833C26.9167 9.32411 21.8426 4.25 15.5833 4.25C9.32411 4.25 4.25 9.32411 4.25 15.5833C4.25 21.8426 9.32411 26.9167 15.5833 26.9167Z" stroke-width="3" stroke-linecap="round" stroke-linejoin="round" />
        <path d="M29.7484 29.7523L23.5859 23.5898" stroke-width="3" stroke-linecap="round" stroke-linejoin="round" />
    </symbol>

    <symbol viewBox="0 0 24 24" id="icon-search-menu">
        <path d="M11 18C14.866 18 18 14.866 18 11C18 7.13401 14.866 4 11 4C7.13401 4 4 7.13401 4 11C4 14.866 7.13401 18 11 18Z" stroke-width="2.11765" stroke-linecap="round" stroke-linejoin="round" />
        <path d="M20 20L16 16" stroke-width="2.11765" stroke-linecap="round" stroke-linejoin="round" />
    </symbol>

    <symbol viewBox="0 0 16 16" id="icon-search-submit">
        <path d="M7.33333 12.6667C10.2789 12.6667 12.6667 10.2789 12.6667 7.33333C12.6667 4.38781 10.2789 2 7.33333 2C4.38781 2 2 4.38781 2 7.33333C2 10.2789 4.38781 12.6667 7.33333 12.6667Z" stroke-width="1.33333" stroke-linecap="round" stroke-linejoin="round" />
        <path d="M14.0016 13.9977L11.1016 11.0977" stroke-width="1.33333" stroke-linecap="round" stroke-linejoin="round" />
    </symbol>

    <symbol viewBox="0 0 34 34" id="header-nav-link">
        <path d="M2 6H32" stroke-width="3" stroke-linecap="round" stroke-linejoin="round" />
        <path d="M2 17H32" stroke-width="3" stroke-linecap="round" stroke-linejoin="round" />
        <path d="M17 28H32" stroke-width="3" stroke-linecap="round" stroke-linejoin="round" />
    </symbol>

    <symbol viewBox="0 0 24 24" id="panel-close">
        <path d="M18 6L6 18" stroke-width="2" stroke-linecap="round" stroke-linejoin="round" />
        <path d="M6 6L18 18" stroke-width="2" stroke-linecap="round" stroke-linejoin="round" />
    </symbol>

    <symbol viewBox="0 0 32 32" id="arrow-prev">
        <path d="M19 10L13 16L19 22" stroke-width="2" stroke-linecap="round" stroke-linejoin="round" />
    </symbol>

    <symbol viewBox="0 0 32 32" id="arrow-next">
        <path d="M13 22L19 16L13 10" stroke-width="2" stroke-linecap="round" stroke-linejoin="round" />
    </symbol>

    <symbol viewBox="0 0 32 32" id="icon-vk">
        <path fill-rule="evenodd" clip-rule="evenodd" d="M20.9118 0H11.0882C2.12279 0 0 2.12279 0 11.0882V20.9118C0 29.8772 2.12279 32 11.0882 32H20.9118C29.8772 32 32 29.8772 32 20.9118V11.0882C32 2.12279 29.8772 0 20.9118 0ZM25.4964 10.1632C26.1965 10.1632 26.3545 10.5245 26.1965 11.0214C25.9497 12.16 23.901 15.1804 23.2665 16.1159C23.1459 16.2936 23.0764 16.3961 23.08 16.3961C22.8316 16.8026 22.7413 16.9833 23.08 17.4349C23.2025 17.6019 23.4621 17.8567 23.7589 18.1479C24.0641 18.4474 24.4086 18.7854 24.6834 19.106C25.677 20.2352 26.4449 21.1837 26.6481 21.8386C26.8288 22.4935 26.5126 22.8322 25.8351 22.8322H23.5091C22.8927 22.8322 22.5749 22.4782 21.8977 21.7238C21.6074 21.4003 21.2509 21.0032 20.7766 20.5288C19.399 19.1964 18.7893 19.0157 18.4505 19.0157C17.9763 19.0157 17.8408 19.1286 17.8408 19.8061V21.9063C17.8408 22.4709 17.6601 22.8096 16.1696 22.8096C13.7081 22.8096 10.9756 21.3192 9.05602 18.5415C6.1654 14.4765 5.375 11.4053 5.375 10.7955C5.375 10.4568 5.48791 10.1406 6.1654 10.1406H8.51403C9.10118 10.1406 9.32701 10.389 9.55284 11.0439C10.7046 14.3636 12.6241 17.2768 13.4145 17.2768C13.7081 17.2768 13.8436 17.1413 13.8436 16.3961V12.9635C13.7878 11.9878 13.4482 11.5627 13.1963 11.2475C13.0401 11.052 12.9177 10.8987 12.9177 10.6826C12.9177 10.4116 13.1435 10.1406 13.5049 10.1406H17.1633C17.6601 10.1406 17.8408 10.4116 17.8408 10.9988V15.6283C17.8408 16.1251 18.044 16.3058 18.2021 16.3058C18.4957 16.3058 18.7441 16.1251 19.2861 15.5831C20.9572 13.7087 22.1541 10.8181 22.1541 10.8181C22.3122 10.4794 22.5832 10.1632 23.1703 10.1632H25.4964Z" />
    </symbol>

    <symbol viewBox="0 0 33 32" id="icon-telegram">
        <path fill-rule="evenodd" clip-rule="evenodd" d="M32.2031 16C32.2031 24.8366 25.0397 32 16.2031 32C7.36657 32 0.203125 24.8366 0.203125 16C0.203125 7.16344 7.36657 0 16.2031 0C25.0397 0 32.2031 7.16344 32.2031 16ZM10.9223 14.5333C9.31949 15.2331 7.67264 15.9521 6.16676 16.7816L6.16665 16.7817C5.38033 17.3574 6.42552 17.7646 7.40596 18.1466C7.56184 18.2073 7.71607 18.2674 7.86105 18.3274C7.9817 18.3645 8.10439 18.4036 8.22871 18.4432C9.31916 18.7906 10.5351 19.178 11.5937 18.5953C13.3328 17.5963 14.9739 16.4413 16.6138 15.2873C17.1511 14.9091 17.6882 14.5311 18.2287 14.1587C18.254 14.1425 18.2825 14.124 18.3138 14.1038C18.7741 13.8053 19.8095 13.1342 19.4265 14.059C18.5209 15.0494 17.5509 15.9261 16.5756 16.8076C15.9183 17.4017 15.2586 17.9979 14.6145 18.6326C14.0536 19.0883 13.4712 20.0048 14.0993 20.643C15.5459 21.6557 17.0151 22.6439 18.4835 23.6314C18.9613 23.9528 19.439 24.2741 19.9158 24.5962C20.7239 25.2414 21.9869 24.7195 22.1646 23.7113C22.2436 23.2474 22.323 22.7835 22.4023 22.3196C22.8407 19.7565 23.2792 17.1926 23.6666 14.6213C23.7193 14.2179 23.7789 13.8146 23.8387 13.411C23.9834 12.4329 24.1283 11.4537 24.1736 10.4703C24.0569 9.48903 22.8671 9.70479 22.2049 9.92545C18.8014 11.2205 15.432 12.6116 12.0758 14.0272C11.6956 14.1956 11.3102 14.3639 10.9223 14.5333Z" />
    </symbol>

    <symbol viewBox="0 0 32 32" id="icon-instagram">
        <path fill-rule="evenodd" clip-rule="evenodd" d="M32 16C32 24.8366 24.8366 32 16 32C7.16344 32 0 24.8366 0 16C0 7.16344 7.16344 0 16 0C24.8366 0 32 7.16344 32 16ZM16.0008 5C13.0134 5 12.6384 5.01306 11.4651 5.06646C10.294 5.12008 9.49469 5.30548 8.79527 5.5775C8.07178 5.85846 7.45807 6.23429 6.84664 6.84594C6.23476 7.45735 5.85893 8.07106 5.57705 8.79431C5.30434 9.49396 5.11871 10.2935 5.066 11.4641C5.01375 12.6374 5 13.0126 5 16C5 18.9874 5.01329 19.3612 5.06646 20.5345C5.12031 21.7056 5.30571 22.5049 5.57751 23.2043C5.8587 23.9278 6.23453 24.5415 6.84619 25.1529C7.45738 25.7648 8.07109 26.1415 8.79412 26.4225C9.49401 26.6945 10.2936 26.8799 11.4644 26.9335C12.6377 26.9869 13.0124 27 15.9997 27C18.9873 27 19.3611 26.9869 20.5345 26.9335C21.7055 26.8799 22.5058 26.6945 23.2057 26.4225C23.9289 26.1415 24.5417 25.7648 25.1529 25.1529C25.7648 24.5415 26.1406 23.9278 26.4225 23.2045C26.6929 22.5049 26.8785 21.7053 26.9335 20.5347C26.9862 19.3614 27 18.9874 27 16C27 13.0126 26.9862 12.6377 26.9335 11.4643C26.8785 10.2933 26.6929 9.49396 26.4225 8.79454C26.1406 8.07106 25.7648 7.45735 25.1529 6.84594C24.541 6.23406 23.9291 5.85823 23.205 5.5775C22.5037 5.30548 21.7039 5.12008 20.5329 5.06646C19.3595 5.01306 18.986 5 15.9976 5H16.0008ZM15.6339 6.98218H15.6342L16.0008 6.98229C18.9378 6.98229 19.2859 6.99283 20.4458 7.04554C21.5183 7.09458 22.1004 7.27379 22.4881 7.42435C23.0015 7.62373 23.3674 7.86206 23.7522 8.24706C24.1372 8.63206 24.3756 8.99873 24.5754 9.51206C24.726 9.89935 24.9054 10.4814 24.9542 11.5539C25.0069 12.7135 25.0184 13.0619 25.0184 15.9975C25.0184 18.9331 25.0069 19.2814 24.9542 20.441C24.9052 21.5135 24.726 22.0956 24.5754 22.4829C24.376 22.9962 24.1372 23.3618 23.7522 23.7465C23.3672 24.1315 23.0017 24.3699 22.4881 24.5692C22.1008 24.7205 21.5183 24.8992 20.4458 24.9483C19.2862 25.001 18.9378 25.0124 16.0008 25.0124C13.0635 25.0124 12.7154 25.001 11.5558 24.9483C10.4833 24.8988 9.90124 24.7196 9.51326 24.569C8.99992 24.3696 8.63325 24.1313 8.24824 23.7463C7.86324 23.3613 7.6249 22.9955 7.42507 22.482C7.2745 22.0947 7.09506 21.5126 7.04625 20.4401C6.99354 19.2805 6.983 18.9322 6.983 15.9947C6.983 13.0573 6.99354 12.7108 7.04625 11.5512C7.09529 10.4787 7.2745 9.8966 7.42507 9.50885C7.62444 8.99552 7.86324 8.62885 8.24824 8.24385C8.63325 7.85885 8.99992 7.62052 9.51326 7.42069C9.90101 7.26944 10.4833 7.09069 11.5558 7.04142C12.5706 6.99558 12.9639 6.98183 15.014 6.97954V6.98229C15.2054 6.98199 15.4112 6.98208 15.6334 6.98218H15.6336H15.6339ZM21.8489 8.78173C21.5878 8.78173 21.3326 8.85916 21.1155 9.00422C20.8984 9.14929 20.7292 9.35547 20.6293 9.59669C20.5294 9.83792 20.5033 10.1033 20.5543 10.3594C20.6053 10.6155 20.731 10.8507 20.9157 11.0353C21.1003 11.2199 21.3356 11.3455 21.5917 11.3964C21.8478 11.4473 22.1132 11.4211 22.3544 11.3211C22.5956 11.2211 22.8017 11.0519 22.9467 10.8347C23.0917 10.6176 23.169 10.3624 23.1689 10.1013C23.1689 9.37252 22.5777 8.78173 21.8489 8.78173ZM10.3281 15.973C10.3281 12.8533 12.8575 10.324 15.9771 10.324C19.0968 10.324 21.6255 12.8533 21.6255 15.973C21.6255 19.0926 19.0968 21.6208 15.9771 21.6208C12.8575 21.6208 10.3281 19.0926 10.3281 15.973ZM19.6094 16C19.6094 17.9934 17.9934 19.6094 16 19.6094C14.0066 19.6094 12.3906 17.9934 12.3906 16C12.3906 14.0066 14.0066 12.3906 16 12.3906C17.9934 12.3906 19.6094 14.0066 19.6094 16Z" />
    </symbol>

    <symbol viewBox="0 0 32 32" id="icon-dzen">
        <path d="M19.0857 19.0857C16.5714 21.68 16.3886 24.9143 16.1714 32C22.7771 32 27.3371 31.9771 29.6914 29.6914C31.9771 27.3371 32 22.56 32 16.1714C24.9143 16.4 21.68 16.5714 19.0857 19.0857ZM0 16.1714C0 22.56 0.0228571 27.3371 2.30857 29.6914C4.66286 31.9771 9.22286 32 15.8286 32C15.6 24.9143 15.4286 21.68 12.9143 19.0857C10.32 16.5714 7.08571 16.3886 0 16.1714ZM15.8286 0C9.23429 0 4.66286 0.0228571 2.30857 2.30857C0.0228571 4.66286 0 9.44 0 15.8286C7.08571 15.6 10.32 15.4286 12.9143 12.9143C15.4286 10.32 15.6114 7.08571 15.8286 0ZM19.0857 12.9143C16.5714 10.32 16.3886 7.08571 16.1714 0C22.7771 0 27.3371 0.0228571 29.6914 2.30857C31.9771 4.66286 32 9.44 32 15.8286C24.9143 15.6 21.68 15.4286 19.0857 12.9143Z" />
        <path d="M32 16.1714V15.8286C24.9143 15.6 21.68 15.4286 19.0857 12.9143C16.5714 10.32 16.3886 7.08571 16.1714 0H15.8286C15.6 7.08571 15.4286 10.32 12.9143 12.9143C10.32 15.4286 7.08571 15.6114 0 15.8286V16.1714C7.08571 16.4 10.32 16.5714 12.9143 19.0857C15.4286 21.68 15.6114 24.9143 15.8286 32H16.1714C16.4 24.9143 16.5714 21.68 19.0857 19.0857C21.68 16.5714 24.9143 16.3886 32 16.1714Z" fill="black" />
    </symbol>

    <symbol viewBox="0 0 17 16" id="icon-download">
        <path d="M14.5 10V12.6667C14.5 13.0203 14.3595 13.3594 14.1095 13.6095C13.8594 13.8595 13.5203 14 13.1667 14H3.83333C3.47971 14 3.14057 13.8595 2.89052 13.6095C2.64048 13.3594 2.5 13.0203 2.5 12.6667V10" stroke-width="1.375" stroke-linecap="round" stroke-linejoin="round" />
        <path d="M5.17188 6.66406L8.50521 9.9974L11.8385 6.66406" stroke-width="1.375" stroke-linecap="round" stroke-linejoin="round" />
        <path d="M8.5 10V2" stroke-width="1.375" stroke-linecap="round" stroke-linejoin="round" />
    </symbol>

    <symbol viewBox="0 0 24 24" id="detail-back">
        <path d="M15 6L9 12L15 18" stroke-width="2" stroke-linecap="round" stroke-linejoin="round" />
    </symbol>

    <symbol viewBox="0 0 25 24" id="collections-filter-select">
        <path d="M9.5 19L16.25 12.25L9.5 5.5" stroke-width="2.25" stroke-linecap="round" stroke-linejoin="round" />
    </symbol>

    <symbol viewBox="0 0 25 24" id="collections-filter-random">
        <path d="M1.5 4V10H7.5" stroke-width="2" stroke-linecap="round" stroke-linejoin="round" />
        <path d="M23.5 20V14H17.5" stroke-width="2" stroke-linecap="round" stroke-linejoin="round" />
        <path d="M20.99 9.00154C20.4828 7.56833 19.6209 6.28694 18.4845 5.27696C17.3482 4.26697 15.9745 3.56131 14.4917 3.2258C13.0089 2.89029 11.4652 2.93588 10.0048 3.35831C8.54437 3.78075 7.21475 4.56625 6.14 5.64154L1.5 10.0015M23.5 14.0015L18.86 18.3615C17.7853 19.4368 16.4556 20.2223 14.9952 20.6448C13.5348 21.0672 11.9911 21.1128 10.5083 20.7773C9.02547 20.4418 7.6518 19.7361 6.51547 18.7261C5.37913 17.7161 4.51717 16.4348 4.01 15.0015" stroke-width="2" stroke-linecap="round" stroke-linejoin="round" />
    </symbol>

    <symbol viewBox="0 0 24 24" id="faq-arrow">
        <path d="M6 9L12 15L18 9" stroke-width="2" stroke-linecap="round" stroke-linejoin="round" />
    </symbol>

    <symbol viewBox="0 0 25 24" id="icon-fortune">
        <path d="M13.8099 9.51127C22.427 2.96796 15.2965 -0.965527 12.5004 2.00788C9.70582 -0.963872 2.57291 2.96744 11.1908 9.51125C0.961392 5.64078 0.967246 13.5175 5.0559 14.3483C3.87295 17.8301 9.7475 21.4334 11.984 14.0178C12.2278 19.5831 9.27933 21.2192 9.25858 21.2367C8.22287 22.1103 9.60233 23.6096 10.6387 22.7355L10.6507 22.7254C11.7036 21.8373 13.695 19.4307 13.2742 14.782C15.6706 21.1715 21.0855 17.7057 19.9448 14.3484C24.0312 13.518 24.0403 5.64033 13.8099 9.51127Z" />
    </symbol>

    <symbol viewBox="0 0 37 37" id="buy-marketplace">
        <path d="M13.875 27.75L23.125 18.5L13.875 9.25" stroke-width="4" stroke-linecap="round" stroke-linejoin="round" />
    </symbol>

    <symbol viewBox="0 0 17 24" id="article-back">
        <path d="M8 6L2 12L8 18" stroke-width="2" stroke-linecap="round" stroke-linejoin="round" />
    </symbol>

    <symbol viewBox="0 0 32 32" id="pager-prev">
        <path d="M19 10L13 16L19 22" stroke-width="2" stroke-linecap="round" stroke-linejoin="round" />
    </symbol>

    <symbol viewBox="0 0 32 32" id="pager-next">
        <path d="M13 22L19 16L13 10" stroke-width="2" stroke-linecap="round" stroke-linejoin="round" />
    </symbol>

</svg>