<svg width="161" height="26" viewBox="0 0 161 26" fill="none" xmlns="http://www.w3.org/2000/svg">
<g clip-path="url(#clip0_3341_3747)">
<path fill-rule="evenodd" clip-rule="evenodd" d="M155.508 20.0468C154.226 21.1668 152.843 22.3448 151.062 21.9768C150.6 21.8735 150.176 21.6432 149.838 21.3119C149.5 20.9807 149.261 20.5615 149.148 20.1018C148.939 19.2778 148.991 18.4878 149.096 17.6368L156.325 17.6228L156.129 17.3688C152.481 12.9438 149.585 7.94878 147.649 2.68678C145.567 8.01578 142.646 13.2798 139.168 17.6508L146.253 17.6368C146.211 18.6108 146.432 19.8008 145.995 20.6368C145.554 21.5548 144.52 22.0098 143.564 22.0298C140.707 21.7558 138.807 19.1708 137.72 16.7258C136.455 13.7198 136.921 9.59478 138.909 7.02678C141.676 3.24678 146.561 1.72078 151.114 3.16878C153.889 4.06478 156.359 6.28778 157.577 9.11678C159.021 12.6218 158.168 17.3088 155.508 20.0468ZM159.594 7.08078C158.53 5.16178 156.965 3.35478 155.198 2.20378C151.228 -0.502217 145.334 -0.716217 141.185 1.56178C136.933 3.80978 133.999 8.51078 134.307 13.6168C134.568 19.0898 138.445 23.8578 143.46 25.3518C148.784 27.0868 154.806 25.2378 158.249 21.0118C161.217 17.2838 161.968 11.4168 159.594 7.08078Z" fill="#008348"/>
<path fill-rule="evenodd" clip-rule="evenodd" d="M125.336 18.057C125.541 18.342 125.607 18.908 125.416 19.398C125.239 19.852 125.003 20.12 124.544 20.311C123.918 20.573 123.092 20.33 122.826 20.011C122.826 20.011 120.68 17.476 119.494 16.034C119.284 15.821 119.177 15.626 118.956 15.409L113.237 15.436C111.818 15.442 110.144 13.796 110.144 12.485V11.979L120.794 11.966C121.192 11.966 121.639 11.604 121.857 11.131C122.054 10.705 122.051 10.36 121.857 9.931C121.626 9.421 121.1 9.056 120.687 9.058L109.104 9.089L109.07 9.202V19.222C109.07 19.89 108.121 20.748 107.192 20.663C106.334 20.583 105.63 19.736 105.631 19.144L105.644 8.524C105.645 7.418 105.977 6.987 106.697 6.378C107.398 5.785 108.032 5.654 108.962 5.655L121.535 5.668C123.33 5.67 125.01 6.99 125.683 8.893C126.406 10.933 125.739 12.739 124.114 14.209C123.752 14.536 123.093 14.939 123.093 14.939L125.336 18.057ZM99.721 20.155C99.181 20.645 98.294 20.749 97.68 20.468C96.71 19.628 96.04 18.585 95.261 17.651L82.205 17.624L80.663 19.656C80.175 20.296 79.557 20.736 78.605 20.573C78.111 20.474 77.641 20.071 77.477 19.633C77.224 19.067 77.251 18.533 77.584 18.017L85.86 7.376C86.554 6.369 87.304 5.648 88.6 5.655C90.637 5.681 90.777 6.179 92.182 7.932C94.14 10.575 98.094 15.534 100.097 18.329C100.35 18.963 100.054 19.64 99.721 20.155ZM70.707 15.356H62.218C60.976 15.209 60.023 14.335 59.532 13.323C59.364 12.927 59.355 12.371 59.308 11.958L59.747 11.966H70.008C70.451 11.966 70.874 11.573 71.083 11.079C71.275 10.627 71.263 10.261 71.03 9.829C70.772 9.348 70.306 9.045 69.848 9.045H58.403L58.296 9.15V18.986C58.296 19.901 57.473 20.576 56.502 20.558C55.651 20.543 54.857 19.872 54.857 19.004V8.47C54.857 7.6 55.199 7.087 55.836 6.5C56.504 5.886 57.383 5.653 58.027 5.654L70.654 5.667C73.087 5.669 75.06 8.097 74.994 10.639C74.93 13.091 72.727 15.355 70.707 15.355V15.356ZM47.013 19.007C45.71 20.567 43.927 20.587 41.963 20.585L30.518 20.573C29.277 20.571 28.231 19.384 28.055 18.164L28.047 17.547L43.155 17.562C43.661 17.562 44.309 16.884 44.326 16.191C44.346 15.442 43.813 14.731 43.04 14.731H32.157C30.275 14.731 28.356 13.015 28.047 10.871C27.797 9.137 28.384 7.824 29.77 6.704C30.817 5.859 31.613 5.617 33.078 5.615L43.144 5.603C44.699 5.574 46.392 5.835 47.121 7.271C47.342 7.71 47.458 8.187 47.443 8.771L33.224 8.776C32.79 8.776 32.111 9.016 31.862 9.566C31.551 10.252 31.909 11.037 32.613 11.34C32.894 11.461 33.392 11.444 33.392 11.444H43.736C45.586 11.571 47.236 12.726 47.872 14.626C48.427 16.28 48.143 17.656 47.013 19.007ZM0 0V26H129L129.027 0H0Z" fill="#EC1D24"/>
<path fill-rule="evenodd" clip-rule="evenodd" d="M89.3114 9.65265C89.2054 9.64465 89.0944 9.79465 89.0944 9.79465L84.9844 14.2477H93.2464C92.0764 12.7137 90.7264 11.2897 89.4984 9.81265C89.4984 9.81265 89.4134 9.66065 89.3114 9.65265Z" fill="#EC1D24"/>
</g>
<defs>
<clipPath id="clip0_3341_3747">
<rect width="161" height="26" fill="white"/>
</clipPath>
</defs>
</svg>
