<svg width="156" height="38" viewBox="0 0 156 38" fill="none" xmlns="http://www.w3.org/2000/svg">
<path fill-rule="evenodd" clip-rule="evenodd" d="M0 10.3477H2.84823V17.5823V24.8168H0V10.3477ZM2.84823 17.5823L9.15502 10.3477H12.8171L6.51024 17.5823L12.8171 24.8168H9.15502L2.84823 17.5823ZM79.5469 24.8168H69.985V10.3477H79.5469V12.7441H73.0228V16.2939H78.5297V18.8706H73.0228V22.4205H79.5469V24.8168ZM99.4227 22.0815C100.056 22.4907 100.8 22.7075 101.561 22.7043C102.578 22.702 103.552 22.3064 104.268 21.6046C104.986 20.9027 105.388 19.952 105.386 18.9617C105.386 18.2209 105.16 17.4968 104.736 16.8812C104.314 16.2656 103.713 15.7861 103.01 15.5034C102.308 15.2207 101.535 15.1477 100.789 15.2935C100.044 15.4392 99.3593 15.7972 98.8231 16.3222C98.2859 16.8472 97.9222 17.5155 97.7759 18.2424C97.6297 18.9693 97.7077 19.7222 98.0011 20.4056C98.2946 21.089 98.7889 21.6723 99.4227 22.0815ZM98.006 14.3593C99.0561 13.2396 100.522 12.5279 102.195 12.5279C105.545 12.5279 108.233 15.409 108.233 18.9697C108.233 22.5303 105.378 25.015 102.028 25.015C100.356 25.015 98.9079 24.5694 97.8568 23.3303V29.5738H95.0088V12.7261H98.006V14.3593ZM112.708 14.51C113.1 13.9102 114.279 12.5279 116.37 12.5279C117.998 12.627 118.609 13.1226 118.609 13.1226L117.083 15.1047C117.083 15.1047 116.37 15.0056 115.964 15.0056C114.092 15.0056 112.987 16.3528 112.708 17.2849V24.8168H109.86V12.7261H112.708V14.51ZM130.002 21.0509C129.45 23.1347 127.36 25.015 124.275 25.015C120.285 25.015 117.795 22.6581 117.795 18.8964C117.795 15.1971 120.345 12.5279 124.138 12.5279C127.395 12.5279 130.204 14.44 130.204 18.6466L130.162 19.5441H120.941C120.967 21.5967 122.259 22.8923 124.275 22.8923C124.275 22.8923 126.326 22.924 127.153 21.0509H130.002ZM124.156 15.0207C122.294 15.0207 121.044 16.3084 120.95 17.8381H127.172C127.155 16.2069 125.949 15.0207 124.156 15.0207ZM134.685 21.8263C134.539 21.609 134.413 21.4152 134.375 21.0509H131.425C131.442 21.7571 131.592 22.1756 131.869 22.6989V22.7005L131.87 22.702C132.162 23.2099 132.553 23.641 133.041 23.9948L133.042 23.9959L133.044 23.9969C133.547 24.3349 134.13 24.5874 134.791 24.7554C135.47 24.9239 136.138 25.015 136.918 25.015C137.556 25.015 138.273 24.939 138.935 24.8015C139.595 24.6642 140.192 24.4428 140.727 24.1364C141.279 23.8286 141.727 23.4277 142.069 22.9342C142.414 22.4357 142.615 21.7589 142.615 21.0509C142.615 20.4625 142.462 20.0371 142.216 19.6328C141.986 19.2299 141.675 18.896 141.281 18.6322C140.907 18.3704 140.477 18.1632 139.992 18.0102C139.513 17.8588 139.025 17.7303 138.53 17.6244L138.529 17.6243C138.021 17.5189 137.529 17.4212 137.052 17.3309C136.58 17.2416 136.156 17.1376 135.78 17.0192C135.426 16.8874 135.136 16.7281 134.91 16.5424C134.711 16.3675 134.61 16.1393 134.61 15.8484C134.61 15.613 134.683 15.4369 134.818 15.3085L134.82 15.3069L134.822 15.3051C134.969 15.1516 135.146 15.0404 135.351 14.9706L135.353 14.97L135.355 14.9693C135.585 14.8822 135.822 14.8243 136.068 14.7953C136.335 14.7655 136.56 14.7508 136.746 14.7508C137.337 14.7508 137.852 14.8538 138.296 15.0567L138.298 15.0573C138.721 15.2444 139.021 15.7292 139.156 16.2939H142.085C142 15.649 141.752 14.9052 141.496 14.51C141.187 14.0328 140.861 13.6481 140.373 13.3549C139.902 13.0628 139.366 12.8558 138.769 12.7333C138.19 12.5963 137.578 12.5279 136.936 12.5279C136.374 12.5279 135.78 12.5812 135.156 12.6873C134.543 12.7943 133.976 12.9856 133.458 13.2615C132.953 13.5239 132.529 13.8791 132.187 14.3262C131.854 14.7668 131.691 15.3142 131.691 15.961C131.691 16.5584 131.804 17.0706 132.035 17.4935L132.036 17.4947C132.266 17.8976 132.569 18.2318 132.947 18.4961L132.948 18.4972C133.338 18.7583 133.767 18.9652 134.236 19.1184L134.237 19.1186C134.717 19.2701 135.212 19.3987 135.724 19.5045C136.216 19.6099 136.701 19.7076 137.178 19.798C137.65 19.8873 138.064 19.9985 138.423 20.1313L138.425 20.1322L138.428 20.133C138.797 20.2498 139.094 20.4088 139.319 20.6077C139.535 20.7994 139.652 21.0453 139.667 21.3525C139.681 21.6635 139.6 21.9083 139.43 22.0964L139.429 22.0968C139.267 22.2782 139.052 22.4197 138.78 22.5199C138.503 22.6218 138.201 22.6952 137.876 22.7393C137.562 22.769 137.281 22.7837 137.031 22.7837C136.318 22.7837 135.785 22.645 135.279 22.3547C135.027 22.2101 134.829 22.0434 134.685 21.8263ZM147.094 21.8263C146.949 21.609 146.824 21.4152 146.785 21.0509H143.836C143.852 21.7571 144.003 22.1756 144.279 22.6989L144.28 22.7005L144.28 22.702C144.573 23.2099 144.963 23.641 145.45 23.9948L145.452 23.9959L145.453 23.9969C145.957 24.3349 146.54 24.5874 147.201 24.7554C147.88 24.9239 148.548 25.015 149.328 25.015C149.966 25.015 150.682 24.939 151.344 24.8015C152.005 24.6642 152.603 24.4428 153.136 24.1364C153.689 23.8286 154.138 23.4277 154.479 22.9342C154.825 22.4357 155.025 21.7589 155.025 21.0509C155.025 20.4625 154.872 20.0371 154.626 19.6328C154.397 19.2299 154.085 18.896 153.692 18.6322C153.318 18.3704 152.888 18.1632 152.402 18.0102C151.923 17.8588 151.436 17.7303 150.941 17.6244L150.94 17.6243C150.431 17.5189 149.938 17.4212 149.462 17.3309C148.99 17.2416 148.567 17.1376 148.191 17.0192C147.836 16.8874 147.547 16.7281 147.32 16.5424C147.122 16.3675 147.02 16.1393 147.02 15.8484C147.02 15.613 147.092 15.4369 147.229 15.3085L147.23 15.3069L147.232 15.3051C147.379 15.1516 147.556 15.0404 147.762 14.9706L147.763 14.97L147.765 14.9693C147.995 14.8822 148.232 14.8243 148.478 14.7953C148.745 14.7655 148.97 14.7508 149.155 14.7508C149.746 14.7508 150.262 14.8538 150.707 15.0567L150.708 15.0573C151.131 15.2444 151.431 15.7292 151.567 16.2939H154.495C154.411 15.649 154.162 14.9052 153.906 14.51C153.597 14.0328 153.272 13.6481 152.782 13.3549C152.312 13.0628 151.776 12.8558 151.179 12.7333C150.599 12.5963 149.988 12.5279 149.347 12.5279C148.784 12.5279 148.19 12.5812 147.566 12.6873C146.952 12.7943 146.386 12.9856 145.868 13.2615C145.363 13.5239 144.939 13.8791 144.596 14.3262C144.264 14.7668 144.101 15.3142 144.101 15.961C144.101 16.5584 144.214 17.0706 144.446 17.4935V17.4947C144.675 17.8976 144.98 18.2318 145.357 18.4961L145.359 18.4972C145.748 18.7583 146.177 18.9652 146.646 19.1184L146.647 19.1186C147.127 19.2701 147.623 19.3987 148.134 19.5045C148.626 19.6099 149.111 19.7076 149.588 19.798C150.059 19.8873 150.475 19.9985 150.832 20.1313L150.835 20.1322L150.837 20.133C151.208 20.2498 151.503 20.4088 151.729 20.6077C151.946 20.7994 152.062 21.0453 152.077 21.3525C152.092 21.6635 152.01 21.9083 151.84 22.0964C151.677 22.2778 151.462 22.4197 151.19 22.5199C150.912 22.6218 150.612 22.6952 150.286 22.7393C149.973 22.769 149.691 22.7837 149.441 22.7837C148.727 22.7837 148.195 22.645 147.689 22.3547C147.438 22.2101 147.24 22.0434 147.094 21.8263ZM93.7881 12.7261H90.5329L87.2778 16.7564L84.0227 12.7261H80.7676L85.6502 18.7715L80.7676 24.8168H84.0227L87.2778 20.7866L90.5329 24.8168H93.7881L88.9054 18.7715L93.7881 12.7261ZM62.8645 12.5279C60.773 12.5279 59.5943 13.9102 59.2025 14.51V12.7261H56.3542V24.8168H59.2025V17.2849C59.4806 16.3528 60.5856 15.0056 62.4576 15.0056C64.2174 15.0056 64.4921 17.2849 64.4921 17.2849V22.8348L64.4918 22.8629C64.4819 23.9347 65.3679 24.8103 66.468 24.816L66.5021 24.8167L66.5265 24.8168H68.3575L68.3574 22.4383H68.1541C67.5923 22.4383 67.3402 21.9947 67.3402 21.4473V17.7142V16.9389C67.2673 15.7159 67.0125 13.4689 64.6954 12.7532C64.2314 12.6099 63.4895 12.5279 62.8645 12.5279ZM44.741 21.7806C45.3606 22.1769 46.0881 22.3867 46.8313 22.3835C47.8248 22.3811 48.7766 21.998 49.4775 21.3182C50.1785 20.6385 50.571 19.7178 50.5689 18.7588C50.5688 18.0414 50.348 17.3401 49.9346 16.7439C49.5213 16.1476 48.9339 15.6833 48.2469 15.4095C47.5599 15.1358 46.8042 15.0651 46.0755 15.2063C45.3469 15.3475 44.678 15.6944 44.1537 16.2028C43.6294 16.7113 43.2731 17.3586 43.1303 18.0626C42.9874 18.7666 43.0641 19.4958 43.3508 20.1577C43.6376 20.8196 44.1214 21.3845 44.741 21.7806ZM53.3026 12.7261V21.4146C53.3026 22.7717 54.7267 22.4383 54.7267 22.4383V24.8168H52.7113C51.5599 24.8168 50.884 24.0693 50.6565 23.1237C50.1213 23.7234 49.4571 24.2032 48.7101 24.5299C47.9632 24.8564 47.1514 25.0219 46.3314 25.0148C42.9906 25.0148 40.2821 22.2201 40.2821 18.7717C40.2821 15.3233 42.9906 12.5279 46.3314 12.5279C47.8998 12.5279 49.2198 13.259 50.2509 14.3118V12.7261H53.3026ZM39.0614 15.1047V12.7261H28.4823V15.1047H35.3994L28.4823 22.4383V24.8169H39.0614V22.4383H32.1443L39.0614 15.1047ZM16.8691 21.7806C17.4887 22.1769 18.2161 22.3867 18.9593 22.3835C19.9529 22.3811 20.9047 21.998 21.6056 21.3182C22.3065 20.6385 22.6991 19.7178 22.6969 18.7588C22.6968 18.0414 22.4761 17.3401 22.0627 16.7439C21.6494 16.1476 21.0619 15.6833 20.375 15.4095C19.688 15.1358 18.9323 15.0651 18.2035 15.2063C17.4749 15.3475 16.8061 15.6944 16.2817 16.2028C15.7574 16.7113 15.4012 17.3586 15.2584 18.0626C15.1154 18.7666 15.1922 19.4958 15.4789 20.1577C15.7657 20.8196 16.2494 21.3845 16.8691 21.7806ZM25.4306 12.7261V21.4146C25.4306 22.7717 26.8547 22.4383 26.8547 22.4383V24.8168H24.8394C23.6878 24.8168 23.012 24.0693 22.7846 23.1237C22.2493 23.7234 21.5851 24.2032 20.8382 24.5299C20.0912 24.8564 19.2795 25.0219 18.4595 25.0148C15.1186 25.0148 12.4101 22.2201 12.4101 18.7717C12.4101 15.3233 15.1186 12.5279 18.4595 12.5279C20.0279 12.5279 21.3478 13.259 22.379 14.3118V12.7261H25.4306Z" fill="#FF1919"/>
</svg>
