<svg width="136" height="36" viewBox="0 0 136 36" fill="none" xmlns="http://www.w3.org/2000/svg">
<g clip-path="url(#clip0_2755_13027)">
<path fill-rule="evenodd" clip-rule="evenodd" d="M8.09476 23.7168C7.70636 19.7639 6.76623 19.942 5.13316 16.5066C3.80904 13.7158 2.94395 11.0523 3.76932 7.17578C1.05047 10.5391 0 14.5217 0 18.2964C0 26.5203 6.51024 34.2309 15.2935 35.7154C11.7493 33.3742 8.57586 28.6451 8.09476 23.7168Z" fill="#20A357"/>
<path fill-rule="evenodd" clip-rule="evenodd" d="M20.44 22.0026C34.9434 11.8744 23.4678 0.872563 23.1279 0.507812C24.2402 9.77501 16.088 12.5997 13.453 15.1954C9.68372 18.9107 9.10993 21.799 10.0192 25.6841C11.0211 29.9508 14.786 35.0785 19.6014 35.9989C14.5918 34.1624 12.8528 27.3 20.44 22.0026Z" fill="#20A357"/>
<path fill-rule="evenodd" clip-rule="evenodd" d="M25.6634 1.26953C28.0953 3.98819 29.8961 8.35247 29.031 12.8779C27.3627 21.5895 18.3189 22.9086 17.0169 28.5791C16.2092 32.1164 18.4249 35.0725 22.2692 35.081C30.2536 35.098 37.6201 26.8233 37.4833 17.9038C37.373 10.8803 33.2108 4.19602 25.6634 1.26953Z" fill="#00A0E3"/>
<path fill-rule="evenodd" clip-rule="evenodd" d="M15.6898 11.7144C23.4359 6.87088 21.5822 0.19934 21.5822 0.19934C20.8848 0.0678605 20.0506 0 19.1281 0C14.1495 0.00424128 6.66379 2.04006 5.34409 7.10839C3.60949 13.7757 8.71176 19.196 8.71176 19.196C8.71176 19.196 9.92994 15.311 15.6898 11.7144ZM123.994 20.3073C122.568 20.3073 121.293 20.918 120.427 21.8765L123.958 12.6093L126.889 20.3073H123.994ZM127.432 6.74364H122.727C122.07 6.74329 121.43 6.93674 120.891 7.29782C120.353 7.6589 119.943 8.17018 119.717 8.76249L111.913 29.2564H117.62L119.284 24.8794H128.628L130.297 29.2564H136.003L127.432 6.74364ZM113.489 9.14844V6.74364H96.3992C95.5501 6.74476 94.7362 7.06967 94.1362 7.647C93.5362 8.22434 93.1992 9.0069 93.1992 9.82281V12.2276H100.491V29.2564H106.198V12.2276H110.289C112.055 12.2276 113.489 10.8492 113.489 9.14844ZM83.2066 8.41046L74.6263 20.0401V6.74364H72.1237C71.2738 6.74364 70.4588 7.06805 69.8579 7.64551C69.2569 8.22296 68.9193 9.00616 68.9193 9.82281V29.2564H74.6263L84.438 16.2696V29.2564H90.1449V6.74364H86.561C85.9039 6.74351 85.2564 6.89481 84.6727 7.18483C84.089 7.47485 83.5863 7.89515 83.2066 8.41046ZM58.631 24.3492H51.4322V19.9552H58.6089C59.1909 19.9872 59.7384 20.2312 60.1398 20.6376C60.5411 21.0439 60.7661 21.582 60.7689 22.1422C60.7717 22.7025 60.5521 23.2426 60.1549 23.6527C59.7577 24.0628 59.2127 24.3118 58.631 24.3492ZM51.4322 11.6508H58.4588C59.3901 11.6508 60.2111 12.3167 60.2861 13.2116C60.3055 13.4443 60.2748 13.6784 60.196 13.8992C60.1172 14.12 59.9919 14.3229 59.8279 14.4952C59.6639 14.6675 59.4648 14.8055 59.243 14.9006C59.0211 14.9957 58.7812 15.0459 58.5383 15.0481H55.8194C53.9392 15.0481 52.3017 16.0363 51.4322 17.4953V11.6508ZM65.3795 12.8808C65.1279 9.40292 62.0251 6.74364 58.397 6.74364H48.9296C48.0797 6.74364 47.2647 7.06805 46.6638 7.64551C46.0628 8.22296 45.7252 9.00616 45.7252 9.82281V29.2564H58.4853C62.4268 29.2564 65.7679 26.3341 65.9842 22.5509C66.1034 20.5405 65.3354 18.6786 64.0201 17.3172C64.9735 16.0914 65.4987 14.5391 65.3795 12.8808Z" fill="#EC691F"/>
</g>
<defs>
<clipPath id="clip0_2755_13027">
<rect width="136" height="36" fill="white"/>
</clipPath>
</defs>
</svg>
