<svg width="151" height="36" viewBox="0 0 151 36" fill="none" xmlns="http://www.w3.org/2000/svg">
<path d="M9.15459 25.2008H11.9738V9.30078H7.87327C3.75001 9.30078 1.58364 11.3836 1.58364 14.4488C1.58364 16.8959 2.77069 18.3376 4.89167 19.8248L1.21094 25.1999H4.26236L8.36205 19.1836L6.94108 18.2459C5.21724 17.1025 4.37845 16.2102 4.37845 14.2885C4.37845 12.5956 5.58994 11.4514 7.89596 11.4514H9.15371L9.15459 25.2008ZM46.1705 24.4225V22.2034C45.3082 22.7751 43.8645 23.2791 42.5134 23.2791C40.4866 23.2791 39.7177 22.3405 39.6016 20.4188H46.2875V18.9788C46.2875 14.9751 44.493 13.4648 41.7208 13.4648C38.343 13.4648 36.7361 16.0045 36.7361 19.4819C36.7361 23.4848 38.7392 25.4288 42.2803 25.4288C44.0504 25.4288 45.3553 24.9711 46.1705 24.4225ZM63.5015 25.4288C64.7828 25.4288 65.6914 25.1999 66.367 24.7199V22.5008C65.6687 22.9808 64.8291 23.2791 63.6647 23.2791C61.6843 23.2791 60.869 21.7688 60.869 19.3894C60.869 16.8959 61.871 15.6154 63.6883 15.6154C64.7593 15.6154 65.8075 15.9814 66.367 16.3242V14.0151C65.7848 13.6945 64.7593 13.4665 63.3854 13.4665C59.8443 13.4665 58.0044 15.9591 58.0044 19.4596C58.0044 23.3022 59.7981 25.4288 63.5015 25.4288ZM20.779 13.6936V18.2459H17.0755V13.6936H14.3034V25.1999H17.0755V20.3965H20.779V25.1999H23.5511V13.6936H20.779ZM36.0605 23.0502H34.8255V13.6936H26.743V14.6776C26.743 17.4908 26.5562 21.1285 25.5778 23.0502H24.7163V27.8314H27.2781V25.1999H33.4979V27.8314H36.0605V23.0494V23.0502ZM55.0219 25.1999H58.1667L53.7179 19.0011L57.6317 13.6936H54.836L50.9222 19.0011V13.6936H48.1501V25.1999H50.9222V19.5496L55.0219 25.1999ZM41.6746 15.6154C43.0493 15.6154 43.4682 16.7365 43.4682 18.1774V18.4062H39.6016C39.6714 16.5762 40.347 15.6154 41.6746 15.6154ZM32.0533 23.0494H28.1404C28.9085 21.3102 29.118 18.1765 29.118 16.1862V15.8434H32.0533V23.0494Z" fill="black"/>
<path d="M91.8141 17.3231C91.8141 11.4577 86.9717 6.70312 80.9989 6.70312C75.0252 6.70312 70.1836 11.4577 70.1836 17.3231C70.1836 23.1894 75.0252 27.9448 80.998 27.9448C86.9717 27.9448 91.8141 23.1894 91.8141 17.3231Z" fill="#00ADFF"/>
<path d="M81.4321 17.506C82.3459 12.778 82.9962 11.9586 84.9897 12.1103C86.5495 12.2286 88.3624 14.4392 86.7258 19.2143C85.1495 23.8172 81.6721 24.6349 79.1444 23.164C77.3123 22.0969 75.8678 19.792 75.3214 18.52C74.4599 16.5212 74.0078 14.3372 75.1407 13.1449C76.0685 12.1678 77.1342 11.6972 79.1444 13.9412C81.1545 16.1843 81.4321 17.506 81.4321 17.506Z" fill="white"/>
<path d="M94.3594 22.6834V25.1991C94.3594 25.1991 94.7556 25.4279 95.5246 25.4279C98.2732 25.4279 99.0421 23.2096 99.1818 17.3991L99.345 11.4505H103.305V25.1999H106.123V9.30078H96.8059L96.5956 17.4436C96.503 21.3102 96.2927 22.8891 95.1519 22.8891C94.5924 22.8891 94.3594 22.6834 94.3594 22.6834ZM117.219 17.3528C117.219 14.5619 115.775 13.5094 112.84 13.5094C110.999 13.5094 109.555 14.0819 108.717 14.5619V16.8265C109.462 16.2779 111.092 15.6831 112.513 15.6831C113.841 15.6831 114.447 16.1408 114.447 17.3759V18.0162H114.004C109.765 18.0162 107.878 19.3894 107.878 21.7225C107.878 24.0556 109.322 25.3594 111.465 25.3594C113.096 25.3594 113.795 24.8331 114.331 24.2845H114.447C114.47 24.5819 114.564 24.9702 114.656 25.1991H117.359C117.266 24.2641 117.219 23.3253 117.219 22.3859V17.3528ZM114.447 22.4545C114.098 22.9576 113.446 23.3691 112.467 23.3691C111.302 23.3691 110.72 22.6834 110.72 21.6539C110.72 20.3039 111.675 19.8239 114.051 19.8239H114.447V22.4545ZM124.06 25.1999C126.809 25.1999 128.44 24.0556 128.44 21.8596C128.44 20.3494 127.508 19.4802 125.947 19.2059C127.205 18.8631 127.997 17.9931 127.997 16.6208C127.997 14.6536 126.669 13.6928 124.107 13.6928H119.448V25.1991L124.06 25.1999ZM123.711 15.7516C124.712 15.7516 125.272 16.1631 125.272 17.0331C125.272 17.8336 124.666 18.3136 123.618 18.3136H122.22V15.7516H123.711ZM123.757 20.3039C124.945 20.3039 125.574 20.7154 125.574 21.6762C125.574 22.7288 124.875 23.1402 123.757 23.1402H122.22V20.3039H123.757ZM137.171 25.1999H140.316L135.867 19.0002L139.78 13.6928H136.985L133.071 19.0002V13.6928H130.299V25.1991H133.071V19.5488L137.171 25.1999ZM149.75 17.3528C149.75 14.5619 148.306 13.5094 145.37 13.5094C143.53 13.5094 142.086 14.0819 141.247 14.5619V16.8265C141.992 16.2779 143.623 15.6831 145.044 15.6831C146.372 15.6831 146.978 16.1408 146.978 17.3759V18.0162H146.536C142.295 18.0162 140.408 19.3894 140.408 21.7225C140.408 24.0556 141.853 25.3594 143.996 25.3594C145.627 25.3594 146.325 24.8331 146.861 24.2845H146.978C147.001 24.5819 147.094 24.9702 147.188 25.1991H149.89C149.797 24.2641 149.75 23.3253 149.75 22.3859V17.3528ZM146.978 22.4545C146.628 22.9576 145.976 23.3691 144.998 23.3691C143.833 23.3691 143.25 22.6834 143.25 21.6539C143.25 20.3039 144.206 19.8239 146.582 19.8239H146.978V22.4545Z" fill="black"/>
</svg>
