<svg width="145" height="46" viewBox="0 0 145 46" fill="none" xmlns="http://www.w3.org/2000/svg">
<mask id="mask0_2755_13013" style="mask-type:luminance" maskUnits="userSpaceOnUse" x="0" y="9" width="145" height="28">
<path d="M145 9.85547H0V36.8064H145V9.85547Z" fill="white"/>
</mask>
<g mask="url(#mask0_2755_13013)">
<path d="M23.3097 18.3692H23.8104C25.5031 18.3692 26.8781 19.747 26.8781 21.4434V25.2184C26.8781 26.9148 25.5031 28.2926 23.8104 28.2926H19.789C18.8353 28.2926 18.3823 28.7784 18.3823 29.7023V33.7322C18.3823 35.4285 17.0074 36.8064 15.3146 36.8064H11.5476C9.85476 36.8064 8.47988 35.4285 8.47988 33.7322C8.47988 33.7322 8.47988 30.7138 8.47988 29.7023C8.47988 28.6988 7.98712 28.2926 7.06522 28.2926H3.06769C1.37489 28.2846 0 26.9068 0 25.2104V21.4354C0 19.7391 1.37489 18.3613 3.06769 18.3613H7.08112C7.97122 18.3613 8.49577 17.8595 8.49577 16.9277V12.9297C8.49577 11.2333 9.87065 9.85547 11.5635 9.85547H15.3305C17.0233 9.85547 18.3982 11.2333 18.3982 12.9297V16.9356C18.3982 17.9152 18.7558 18.3692 19.781 18.3692H20.4883L18.422 21.1965C16.8405 21.069 15.5768 19.7391 15.5768 18.1223V14.1083C15.5768 13.1288 15.2034 12.6827 14.1543 12.6827H12.7238C11.8336 12.6827 11.317 13.1607 11.317 14.1083V18.1223C11.317 19.8187 9.94217 21.1965 8.24935 21.1965H4.2439C3.21074 21.1965 2.82132 21.8735 2.82132 22.6301V24.0477C2.82132 24.8999 3.3379 25.4653 4.22801 25.4653H8.24935C9.94217 25.4653 11.317 26.8431 11.317 28.5395V32.5614C11.317 33.4693 11.7701 33.979 12.7079 33.979H14.1463C15.0364 33.979 15.5689 33.4375 15.5689 32.5455V28.5395C15.5689 26.8431 16.9438 25.4653 18.6366 25.4653H22.658C23.6275 25.4653 24.0647 24.9716 24.0647 24.0318V22.6141C24.0647 21.6425 23.556 21.1965 22.6262 21.1965H21.2433L23.3097 18.3692Z" fill="url(#paint0_linear_2755_13013)"/>
<path d="M58.53 15.5312L64.9323 31.1344H61.9757L60.4865 27.4338H53.3506L51.8832 31.1344H49.0625L55.3724 15.5312H58.53ZM54.3506 24.8724H59.4648L56.9104 18.4742L54.3506 24.8724Z" fill="#8168F0"/>
<path d="M78.1982 18.0981H69.91V31.1344H67.1328V15.5312H80.9809V31.1344H78.2036V18.0981H78.1982Z" fill="#8168F0"/>
<path d="M96.4841 18.0927H91.2395V31.1289H88.4624V18.0927H83.3047V15.5312H96.4841V18.0927Z" fill="#8168F0"/>
<path d="M108.763 24.3819H101.605V28.5729H109.828V31.1344H98.8281V15.5312H109.584V18.0927H101.605V21.815H108.763V24.3819Z" fill="#8168F0"/>
<path d="M46.7161 24.3819H39.5585V28.5729H47.7813V31.1344H36.7812V15.5312H47.5368V18.0927H39.5585V21.815H46.7161V24.3819Z" fill="#8168F0"/>
<path d="M115.91 31.1344H113.133V15.5312H115.91V22.0821H118.242L123.242 15.5312H126.623L120.688 22.954L127.579 31.1344H124.024L118.377 24.3819H115.91V31.1344Z" fill="#8168F0"/>
<path d="M137.319 15.5312L143.721 31.1344H140.765L139.275 27.4338H132.14L130.672 31.1344H127.852L134.162 15.5312H137.319ZM133.14 24.8724H138.254L135.7 18.4742L133.14 24.8724Z" fill="#8168F0"/>
</g>
<defs>
<linearGradient id="paint0_linear_2755_13013" x1="7.55046" y1="33.5475" x2="19.7338" y2="12.4899" gradientUnits="userSpaceOnUse">
<stop stop-color="#8168F0"/>
<stop offset="0.137" stop-color="#7F6DF0"/>
<stop offset="0.2924" stop-color="#787AF0"/>
<stop offset="0.4568" stop-color="#6C91F1"/>
<stop offset="0.6273" stop-color="#5DB1F1"/>
<stop offset="0.8012" stop-color="#48D9F2"/>
<stop offset="0.8195" stop-color="#46DEF2"/>
<stop offset="1" stop-color="#50E3C2"/>
</linearGradient>
</defs>
</svg>
