<svg width="92" height="75" viewBox="0 0 92 75" fill="none" xmlns="http://www.w3.org/2000/svg">
<g clip-path="url(#clip0_3341_3758)">
<path d="M57.2879 57.1371C57.2879 53.9716 61.2924 50.0509 69.6568 50.0509C70.1577 50.0509 70.6586 50.0509 71.1518 50.1026C70.5103 56.1879 65.6982 60.3543 60.996 60.3543C58.7394 60.3543 57.2879 59.2966 57.2879 57.1371ZM41.0627 23.8681H41.1649L38.5531 47.8914C35.7297 47.0458 32.8498 46.4071 29.9358 45.9802L41.0627 23.8681ZM22.9361 45.4784C16.7287 45.4784 10.2197 47.0379 6.86167 50.7543C4.98836 47.2011 4.04108 43.2233 4.10933 39.1966C4.10933 28.4897 11.0707 18.5431 24.4413 12.2276L22.7393 8.6069C7.06356 15.7319 0 27.4862 0 39.1966C0 44.7259 1.30333 50.0586 4.75333 55.125C4.65452 55.6905 4.60511 56.2612 4.60511 56.8371C4.60511 61.1043 7.26033 64.1716 12.7701 64.1716C18.5303 64.1716 23.4344 60.1991 26.3912 52.3629H22.0826C19.9308 57.5871 16.4246 60.3078 12.7701 60.3078C9.91556 60.3078 8.66333 59.0017 8.66333 56.8422C8.66333 53.1233 13.1688 49.3526 22.9872 49.3526C28.1367 49.3681 33.2529 50.1828 38.157 51.7655L37.4593 58.3448H41.4639L45.2206 22.9164C47.5257 22.425 49.8717 22.1767 52.2304 22.1664C61.0446 22.1664 63.4493 25.2853 63.4493 28.6526C63.4493 33.1267 59.7949 36.2379 51.0293 37.2466L52.3327 25.1353L48.3256 25.2853L44.8193 58.35H48.8264L50.577 41.6172C53.563 40.8067 56.635 40.3647 59.7259 40.3009C65.6343 40.3009 69.644 42.7138 70.8451 46.2957C70.446 46.2555 70.045 46.2391 69.644 46.2466C58.2718 46.2466 53.2194 52.0759 53.2194 57.2043C53.2194 61.725 56.58 64.2388 60.9321 64.2388C67.2776 64.2388 74.1546 59.1103 75.1154 50.7181C78.0134 51.3983 80.7888 52.5362 83.329 54.0905C76.4673 64.2905 62.5958 70.9733 45.9693 70.9733C37.8069 70.9733 27.5949 69.2147 20.8329 64.5414L18.7271 67.9138C25.392 72.7371 36.0538 75 45.977 75C72.9688 75 92 59.0172 92 39.269C92 18.5147 71.3153 3.54052 46.0307 3.54052C44.4769 3.54052 43.3754 3.58966 41.8702 3.69052L42.2714 7.66034C43.4726 7.61121 44.7759 7.5569 45.977 7.5569C68.5604 7.5569 87.8932 21.2276 87.8932 39.269C87.9034 43.2402 87.0097 47.1605 85.2814 50.7259C82.7259 49.0681 79.0203 47.5603 75.0643 46.8078C74.2133 41.9845 70.2599 37.8621 62.5958 37.0681C64.0946 36.2396 65.3475 35.0209 66.2247 33.5379C67.0983 32.0587 67.5609 30.3681 67.5638 28.6448C67.5638 22.4638 63.2091 18.2922 52.2407 18.2922C50.0395 18.2974 47.8536 18.4819 45.6831 18.8457L46.1176 14.6095L42.0644 13.5052L38.5608 20.4517C32.9002 22.1017 27.393 24.525 24.1372 26.3819L25.9389 29.85C29.2298 28.1555 32.6255 26.6783 36.1049 25.4276L25.9926 45.5793C24.9397 45.5276 23.9353 45.4784 22.9336 45.4784M38.6144 9.54828C38.6144 5.17759 33.6567 1.25431 28.1622 0C27.6116 2.25434 27.3065 4.56293 27.2524 6.88448C27.2524 13.0164 30.406 14.8241 33.3628 14.8241C36.5112 14.8241 38.6144 12.7138 38.6144 9.54828Z" fill="#63C634"/>
</g>
<defs>
<clipPath id="clip0_3341_3758">
<rect width="92" height="75" fill="white"/>
</clipPath>
</defs>
</svg>
