<svg width="125" height="67" viewBox="0 0 125 67" fill="none" xmlns="http://www.w3.org/2000/svg">
<g clip-path="url(#clip0_2755_12944)">
<g clip-path="url(#clip1_2755_12944)">
<mask id="mask0_2755_12944" style="mask-type:luminance" maskUnits="userSpaceOnUse" x="0" y="0" width="125" height="67">
<path d="M125 0H0V67H125V0Z" fill="white"/>
</mask>
<g mask="url(#mask0_2755_12944)">
<path d="M81.8794 52.707C80.2669 52.7669 78.7044 52.8136 77.2387 52.8403C74.0603 52.8969 70.4044 52.9569 66.625 52.9769V54.7396C70.9914 54.743 75.3386 55.3164 79.5557 56.4457C80.3036 55.3394 81.0949 54.0832 81.8794 52.707Z" fill="#00AB4E"/>
<path d="M77.5391 60.9029C79.5634 60.4017 81.5495 59.7569 83.482 58.9735C82.3391 58.4457 81.1596 58.0002 79.953 57.6406C79.0215 58.9868 78.1835 60.0898 77.5391 60.9029Z" fill="#00AB4E"/>
<path d="M80.5547 56.7465C81.987 57.189 83.3768 57.7578 84.708 58.4459C88.3455 56.8601 91.7045 54.7022 94.6573 52.0547C90.9346 52.2847 86.8815 52.5079 83.052 52.6645C82.2073 54.1574 81.3559 55.5336 80.5547 56.7465Z" fill="#00AB4E"/>
<path d="M51.7741 52.7854L50.0312 52.7188C50.8325 54.1216 51.6406 55.3846 52.3951 56.5176C56.7094 55.3363 61.1628 54.7378 65.6363 54.7382V52.9854H64.007C59.5198 52.9854 55.5201 52.922 51.7741 52.7854Z" fill="#00AB4E"/>
<path d="M66.6094 55.7734V62.2846C69.7515 62.2529 72.8825 61.9123 75.9577 61.2682C76.5353 60.5818 77.6271 59.2256 78.9625 57.3395C74.9271 56.3022 70.7768 55.776 66.6094 55.7734Z" fill="#00AB4E"/>
<path d="M48.8572 52.6734C43.4352 52.4635 39.1751 52.2636 37.5625 52.1836C40.4892 54.7907 43.8112 56.9187 47.4049 58.4882C48.6896 57.8184 50.0301 57.2609 51.4113 56.8221C50.5833 55.5958 49.7119 54.2029 48.8572 52.6734Z" fill="#00AB4E"/>
<path d="M48.6562 58.9999C50.5036 59.746 52.4 60.3648 54.332 60.8526C53.7077 60.0662 52.903 59.0032 51.9949 57.707C50.853 58.0595 49.7377 58.4917 48.6562 58.9999Z" fill="#00AB4E"/>
<path d="M55.9336 61.2249C59.125 61.9087 62.3782 62.2659 65.6425 62.2912V55.7734C61.3803 55.7724 57.1362 56.3222 53.0156 57.4095C54.2976 59.2456 55.3694 60.5651 55.9336 61.2249Z" fill="#00AB4E"/>
<path d="M66.1365 65.18C52.7818 65.18 40.9161 59.9517 33.6311 51.941L31.4844 51.7978C38.9463 60.7948 51.6934 66.7328 66.1365 66.7328C80.6631 66.7328 93.4702 60.7348 100.908 51.6445L98.7754 51.7878C91.5071 59.8851 79.5913 65.18 66.1365 65.18Z" fill="#00AB4E"/>
<path d="M123.614 22.367C122.987 21.5985 122.105 21.0805 121.127 20.9075C119.491 20.6809 114.984 20.3976 111.956 20.3477C110.136 20.3477 108.587 21.8272 108.347 23.7932C108.29 24.303 107.125 31.6572 106.847 34.2664C106.604 36.539 108.24 37.692 109.972 37.702C109.972 37.702 114.076 37.702 115.675 37.6553C115.488 38.725 115.208 40.2878 115.054 41.1142L112.129 41.2641C112.155 41.0985 112.172 40.9316 112.179 40.7643C112.192 40.4964 112.152 40.2285 112.06 39.9765C111.969 39.7246 111.827 39.493 111.645 39.2958C111.464 39.0985 111.244 38.9396 111 38.8279C110.755 38.716 110.491 38.654 110.223 38.645L106.293 38.7716C106.195 38.7763 106.102 38.8153 106.03 38.8816C105.958 38.9479 105.912 39.0375 105.899 39.1348C105.605 40.9319 105.307 42.719 105.005 44.4964C104.9 44.9722 104.895 45.4644 104.99 45.9422C105.085 46.4201 105.279 46.8729 105.559 47.2721C105.81 47.6107 106.14 47.8843 106.519 48.0699C106.898 48.2551 107.317 48.3474 107.739 48.3384C107.799 48.3384 112.921 48.0719 117.244 47.5854C118.943 47.3921 120.673 45.726 121.187 43.7833C121.838 41.3108 122.316 39.0049 122.856 34.523C122.997 33.3667 122.816 32.6169 122.189 31.8572C121.905 31.5137 121.548 31.2381 121.143 31.0507C120.739 30.8633 120.298 30.7688 119.852 30.7742H113.972C114.046 30.3277 114.496 27.6852 114.573 27.1654C115.328 27.1654 117.438 27.2354 117.438 27.2354C117.401 27.4027 117.388 27.5742 117.398 27.7452C117.414 28.2944 117.637 28.8172 118.022 29.2103C118.406 29.6034 118.925 29.838 119.474 29.8678C120.713 29.8678 121.948 29.8912 123.207 29.9112C123.31 29.9126 123.409 29.8759 123.486 29.8082C123.564 29.7404 123.613 29.6465 123.624 29.5446C123.865 28.0351 124.095 26.459 124.315 24.8595C124.373 24.4183 124.34 23.9702 124.219 23.542C124.099 23.1137 123.893 22.7141 123.614 22.367Z" fill="#C74A1B"/>
<path d="M123.495 24.7636C123.291 26.2231 123.081 27.666 122.867 29.0622C121.735 29.0622 120.614 29.0322 119.482 29.0222C119.149 29.0007 118.837 28.8563 118.607 28.6171C118.376 28.378 118.242 28.0614 118.233 27.7293C118.256 27.4665 118.308 27.2071 118.39 26.9562C118.409 26.8934 118.413 26.8269 118.402 26.7621C118.391 26.6974 118.365 26.6361 118.327 26.583C118.289 26.5284 118.24 26.4836 118.182 26.4523C118.124 26.4209 118.059 26.4041 117.993 26.4031L114.22 26.3098C114.115 26.3084 114.013 26.3463 113.935 26.4159C113.856 26.4856 113.807 26.582 113.796 26.6863C113.739 27.1128 113.128 30.6617 113.065 31.1582C113.055 31.2198 113.058 31.2827 113.075 31.3429C113.091 31.4031 113.119 31.4594 113.158 31.508C113.197 31.5549 113.245 31.5926 113.3 31.6185C113.355 31.6445 113.415 31.658 113.475 31.658H119.819C120.144 31.6525 120.466 31.7199 120.761 31.8555C121.057 31.9911 121.318 32.1912 121.525 32.4411C121.926 32.9242 122.119 33.3874 121.996 34.4404C121.472 38.8722 120.994 41.1448 120.356 43.5807C119.946 45.1468 118.467 46.5963 117.131 46.7463C112.834 47.2328 107.853 47.4927 107.853 47.4927C107.536 47.5244 107.216 47.4741 106.923 47.3471C106.631 47.2198 106.376 47.0199 106.184 46.7663C105.976 46.4644 105.834 46.1228 105.765 45.7633C105.697 45.4037 105.704 45.0339 105.786 44.677C106.084 42.9875 106.364 41.3114 106.641 39.6387L110.204 39.5187C110.361 39.524 110.516 39.5603 110.66 39.6257C110.803 39.6913 110.932 39.7846 111.039 39.9002C111.145 40.0159 111.228 40.1515 111.282 40.2994C111.336 40.4474 111.36 40.6043 111.352 40.7616C111.332 41.0615 111.291 41.3601 111.232 41.6547C111.223 41.7183 111.229 41.7829 111.247 41.8443C111.266 41.9059 111.297 41.9626 111.339 42.0112C111.379 42.0595 111.43 42.0975 111.489 42.1218C111.547 42.1462 111.61 42.1562 111.673 42.1512L115.435 41.9546C115.527 41.9486 115.615 41.9129 115.685 41.8529C115.755 41.7926 115.803 41.7113 115.823 41.6213C115.966 40.8682 116.403 38.439 116.597 37.2894C116.608 37.2261 116.605 37.1611 116.588 37.0988C116.571 37.0368 116.541 36.9792 116.5 36.9296C116.459 36.8819 116.408 36.8439 116.35 36.8186C116.292 36.7933 116.229 36.7809 116.166 36.7829C115.051 36.8229 109.98 36.8362 109.98 36.8362C108.561 36.8362 107.533 35.8366 107.686 34.3171C107.953 31.748 109.125 24.4204 109.182 23.8972C109.369 22.3677 110.564 21.2148 111.963 21.2148C116.06 21.2914 119.358 21.548 121.034 21.7679C121.779 21.8994 122.454 22.2887 122.941 22.8676C123.158 23.1289 123.32 23.432 123.415 23.7581C123.51 24.0843 123.538 24.4266 123.495 24.7636Z" fill="#F47920"/>
<path d="M14.9039 29.8043L18.75 29.7776C18.8486 29.7735 18.9428 29.7353 19.0164 29.6697C19.09 29.6041 19.1387 29.5151 19.154 29.4178C19.4244 27.6417 19.7149 25.8556 20.0087 24.0629C20.1067 23.5683 20.103 23.059 19.998 22.5658C19.893 22.0727 19.6888 21.6059 19.3977 21.1938C19.1247 20.838 18.7697 20.5531 18.3629 20.3634C17.956 20.1737 17.5093 20.0848 17.0607 20.1042C14.7236 20.1042 10.7172 20.2675 7.58882 20.5807C5.84269 20.764 3.6258 22.4067 3.26856 24.3428C1.98985 31.3404 0.78125 41.004 0.78125 43.3365C0.78125 43.903 0.864717 45.3359 1.61592 46.2289C2.23691 46.9887 3.24185 47.2486 4.13327 47.4052C7.21752 47.8777 10.3288 48.1536 13.4482 48.2316H13.6051C15.6083 48.2083 16.7034 47.1553 17.084 44.8994C17.5815 41.9503 18.5297 33.903 18.6098 33.2732C18.678 32.9626 18.6796 32.6411 18.6146 32.3299C18.5496 32.0186 18.4194 31.7246 18.2325 31.4671C17.8686 31.0306 17.291 30.8006 16.4998 30.8006H10.42C10.3195 30.8028 10.2231 30.8405 10.1479 30.907C10.0727 30.9735 10.0236 31.0646 10.0094 31.1638C10.0094 31.1638 9.61539 33.7031 9.44846 34.8893C9.40586 35.2099 9.4295 35.5358 9.51794 35.847C9.60635 36.1582 9.75769 36.4482 9.96262 36.6987C10.1298 36.9117 10.3403 37.0869 10.5803 37.2126C10.8203 37.3385 11.0843 37.4118 11.3549 37.4285H11.652C11.5886 37.8384 11.1445 40.2609 10.9843 41.2339C10.3165 41.2006 7.97944 41.0606 7.55543 41.034C7.79915 38.6281 9.16801 29.1145 9.52525 27.1152C10.1529 27.1152 12.4566 27.0819 12.9107 27.0719C12.8706 27.3451 12.8539 27.5917 12.8539 27.5917C12.8358 28.1554 13.0407 28.7035 13.4243 29.1176C13.8079 29.5316 14.3394 29.7783 14.9039 29.8043Z" fill="#C74A1B"/>
<path d="M9.16813 26.3094C9.07457 26.3117 8.98466 26.3461 8.91352 26.4068C8.84241 26.4675 8.79436 26.5507 8.7775 26.6426C8.53712 27.6423 6.75092 39.9715 6.68081 41.4711C6.67436 41.5827 6.71203 41.6923 6.78572 41.7763C6.85936 41.8606 6.96316 41.9122 7.07477 41.9209C7.60562 41.9509 10.5136 42.1275 11.2949 42.1642C11.3945 42.1678 11.4922 42.1365 11.571 42.0759C11.6498 42.0149 11.7045 41.9282 11.7256 41.8309C11.9292 40.6347 12.4601 37.7223 12.5402 37.1458C12.5495 37.0872 12.5463 37.0269 12.5307 36.9695C12.5152 36.9122 12.4877 36.8586 12.4501 36.8126C12.4138 36.7669 12.3676 36.73 12.315 36.7046C12.2624 36.679 12.2047 36.666 12.1463 36.666L11.375 36.6393C11.2214 36.628 11.072 36.584 10.9367 36.5104C10.8014 36.4367 10.6834 36.3354 10.5904 36.2128C10.4603 36.0558 10.3635 35.8742 10.3061 35.679C10.2487 35.4837 10.2318 35.2784 10.2566 35.0765C10.4235 33.9236 10.5905 32.8705 10.7641 31.7442H16.4999C16.6976 31.7223 16.8978 31.743 17.0867 31.8051C17.2757 31.8672 17.449 31.9692 17.595 32.1041C17.7011 32.27 17.772 32.4559 17.803 32.6502C17.834 32.8445 17.8246 33.0432 17.7753 33.2338C17.6952 33.9002 16.747 41.8976 16.2562 44.8299C15.9457 46.6593 15.1711 47.4157 13.5852 47.4357H13.4417C10.3705 47.3561 7.30738 47.0845 4.27028 46.6227C3.47569 46.4827 2.68777 46.2895 2.23705 45.733C1.78633 45.1765 1.60938 44.1602 1.60938 43.4004C1.60938 41.3044 2.71448 32.0341 4.07666 24.5566C4.36378 23.0071 6.2401 21.6409 7.66572 21.4976C10.754 21.1844 14.7271 21.0178 17.0541 21.0178C17.377 21.003 17.6989 21.0644 17.9935 21.197C18.2882 21.3296 18.5474 21.5296 18.7502 21.7809C18.9677 22.0992 19.1188 22.458 19.1945 22.8358C19.2702 23.2136 19.269 23.6028 19.1909 23.9802C18.9171 25.6463 18.6467 27.3124 18.3896 28.9785L14.8907 29.0052C14.5535 28.9846 14.2377 28.834 14.0097 28.5853C13.7817 28.3366 13.6594 28.0092 13.6687 27.6723C13.6687 27.559 13.8757 26.3194 13.8757 26.3194C13.8757 26.3194 9.88928 26.2894 9.16813 26.3094Z" fill="#F47920"/>
<path d="M33.2253 14.686C32.9663 14.3217 32.6177 14.0302 32.213 13.8393C31.8084 13.6485 31.3613 13.5648 30.9149 13.5963C30.0202 13.643 29.1321 13.6896 28.244 13.743C28.1538 13.7491 28.0682 13.7852 28.001 13.8457C27.9338 13.9061 27.8889 13.9872 27.8734 14.0762C25.8969 25.0725 24.4513 34.9759 23.453 44.3628C23.3248 45.3711 23.5955 46.3895 24.2075 47.2019C24.481 47.5717 24.8316 47.8776 25.235 48.0992C25.6385 48.3208 26.0853 48.4521 26.5446 48.4848L29.2155 48.638H29.2189C29.3197 48.6367 29.4165 48.5984 29.4905 48.5301C29.5645 48.4618 29.6104 48.3685 29.6195 48.2682C30.5644 38.878 31.9266 28.8346 33.7762 17.5584C33.8789 17.067 33.8831 16.5602 33.7885 16.0672C33.694 15.5742 33.5026 15.1047 33.2253 14.686Z" fill="#C74A1B"/>
<path d="M32.9918 17.4186C31.1656 28.5616 29.8134 38.4982 28.8685 47.7885L26.5749 47.6552C26.2277 47.6312 25.89 47.5319 25.5854 47.3636C25.2809 47.1957 25.0169 46.9631 24.8121 46.6822C24.3366 46.0447 24.1272 45.248 24.2278 44.4596C25.2294 35.186 26.645 25.3993 28.5848 14.5562L31.0554 14.4263C31.3513 14.4195 31.6443 14.4859 31.9081 14.6197C32.172 14.7534 32.3987 14.9502 32.5678 15.1927C32.7835 15.5168 32.9322 15.8806 33.005 16.2629C33.0778 16.6451 33.0733 17.0381 32.9918 17.4186Z" fill="#F47920"/>
<path d="M54.8594 21.0812C54.6714 20.8134 54.4217 20.5948 54.1309 20.444C53.8405 20.2932 53.5176 20.2146 53.1901 20.2148C50.0885 20.2448 46.9668 20.2981 43.8885 20.3681C42.4629 20.4014 41.1441 21.7443 40.8837 23.427C39.7052 31.1478 38.767 38.1654 38.0191 44.8799C37.9146 45.6646 38.1166 46.459 38.5834 47.0992C38.7854 47.3857 39.0498 47.623 39.357 47.7926C39.6638 47.9625 40.0057 48.0602 40.3562 48.0788C43.4745 48.2154 46.5728 48.3221 49.5643 48.3887H49.6177C50.9532 48.3887 52.1818 47.0991 52.3921 45.4597C53.337 37.9155 54.3686 30.4081 55.3402 23.4204C55.4827 22.608 55.3111 21.7719 54.8594 21.0812ZM50.1152 26.2294C49.8481 27.8956 48.0418 41.4144 47.9417 42.494C47.9343 42.5953 47.8889 42.6903 47.8148 42.7599C47.7407 42.8299 47.6429 42.8692 47.541 42.8706C46.249 42.8506 44.9502 42.8239 43.6615 42.7906C43.6054 42.7899 43.55 42.7772 43.4992 42.7529C43.4485 42.7289 43.4034 42.6939 43.3677 42.6506C43.3306 42.608 43.3029 42.558 43.2862 42.5043C43.2695 42.4504 43.2642 42.3934 43.2709 42.3374C43.4211 40.7079 45.234 27.2125 45.4343 26.1128C45.451 26.0209 45.4991 25.9377 45.5702 25.877C45.6413 25.8163 45.7315 25.7819 45.825 25.7796C47.1237 25.7796 48.4225 25.7796 49.7212 25.7496C49.7806 25.7476 49.8401 25.7602 49.8935 25.7864C49.9472 25.8125 49.9933 25.8514 50.0284 25.8996C50.0657 25.9451 50.0928 25.9982 50.1078 26.0551C50.1228 26.112 50.1252 26.1715 50.1152 26.2294Z" fill="#F47920"/>
<path d="M55.5079 20.5791C55.2441 20.2061 54.8939 19.9025 54.4866 19.6941C54.0796 19.4858 53.6282 19.379 53.1708 19.3829C50.0892 19.4129 46.9609 19.4628 43.8793 19.5328C42.0797 19.5728 40.4171 21.2323 40.0999 23.2949C38.9213 31.029 37.9798 38.0567 37.2253 44.7778C37.1021 45.7808 37.3618 46.7931 37.9531 47.6135C38.2269 47.9951 38.5835 48.3103 38.9961 48.5352C39.4088 48.7605 39.8672 48.8894 40.3369 48.9131C43.4586 49.0497 46.5636 49.1497 49.5617 49.2196H49.6285C51.3713 49.2196 52.9404 47.6135 53.2009 45.5542C54.1457 38.0134 55.1774 30.5059 56.1522 23.5248C56.3215 22.4968 56.0911 21.4431 55.5079 20.5791ZM47.1979 42.032L44.1263 41.9687C44.4302 39.3563 45.8491 28.7998 46.1796 26.6071C47.2079 26.6071 48.2362 26.5872 49.2646 26.5838C48.8673 29.3096 47.4717 39.7261 47.1979 42.032Z" fill="#C74A1B"/>
<path d="M54.8594 21.0812C54.6714 20.8134 54.4217 20.5948 54.1309 20.444C53.8405 20.2932 53.5176 20.2146 53.1901 20.2148C50.0885 20.2448 46.9668 20.2981 43.8885 20.3681C42.4629 20.4014 41.1441 21.7443 40.8837 23.427C39.7052 31.1478 38.767 38.1654 38.0191 44.8799C37.9146 45.6646 38.1166 46.459 38.5834 47.0992C38.7854 47.3857 39.0498 47.623 39.357 47.7926C39.6638 47.9625 40.0057 48.0602 40.3562 48.0788C43.4745 48.2154 46.5728 48.3221 49.5643 48.3887H49.6177C50.9532 48.3887 52.1818 47.0991 52.3921 45.4597C53.337 37.9155 54.3686 30.4081 55.3402 23.4204C55.4827 22.608 55.3111 21.7719 54.8594 21.0812ZM50.1152 26.2261C49.8481 27.8922 48.0418 41.411 47.9417 42.4873C47.9343 42.5886 47.8889 42.6836 47.8148 42.7533C47.7407 42.8232 47.6429 42.8626 47.541 42.8639C46.249 42.8439 44.9502 42.8172 43.6615 42.7839C43.6054 42.7839 43.5503 42.7716 43.4996 42.7483C43.4488 42.7246 43.4038 42.6903 43.3677 42.6473C43.331 42.6046 43.3036 42.5547 43.2869 42.5007C43.2702 42.4467 43.2649 42.39 43.2709 42.3341C43.4211 40.7046 45.234 27.2058 45.4343 26.1095C45.4507 26.0173 45.4984 25.9337 45.5699 25.8729C45.641 25.8121 45.7312 25.778 45.825 25.7763L49.7212 25.7463C49.7806 25.7442 49.8401 25.7569 49.8935 25.783C49.9472 25.8092 49.9933 25.848 50.0284 25.8962C50.0657 25.9418 50.0928 25.9948 50.1078 26.0517C50.1228 26.1087 50.1252 26.1681 50.1152 26.2261Z" fill="#F47920"/>
<path d="M77.1938 20.6567C76.9998 20.3816 76.7806 20.4176 76.4831 20.2595C76.1856 20.1015 75.8524 20.1052 75.5155 20.0984C73.3854 20.0651 71.492 20.1095 69.362 20.0984C69.3042 20.0983 69.2475 20.0854 69.1954 20.0607C69.1436 20.0359 69.0979 19.9998 69.0615 19.9551C69.0231 19.9092 68.9944 19.856 68.9774 19.7987C68.96 19.7415 68.9547 19.6813 68.9613 19.6219C69.0648 18.8755 69.31 16.8473 69.31 16.8473C69.4412 16.0337 69.26 15.2007 68.8026 14.5147C68.6159 14.2391 68.3649 14.0129 68.0711 13.8556C67.7776 13.6982 66.9641 13.4013 66.6309 13.3984H64.3272C63.8765 16.7306 61.1839 38.4631 60.2691 45.5774C60.1359 46.3915 60.3185 47.2255 60.7799 47.91C60.9729 48.1882 61.2303 48.4158 61.5301 48.5734C61.8303 48.7314 62.1638 48.8147 62.5027 48.8163C65.581 48.8163 68.6993 48.8163 71.7008 48.7664C73.0896 48.7497 74.7023 46.9129 74.9561 45.2234C76.2148 36.7662 77.4746 29.9496 78.3126 23.4484C78.4358 22.6392 77.6537 21.3343 77.1938 20.6567ZM70.3684 42.612C70.3524 42.7073 70.3043 42.7943 70.2322 42.8586C70.1597 42.9229 70.0679 42.9606 69.9711 42.9653C68.679 42.9653 67.3836 42.9653 66.0949 42.9653C66.0365 42.9656 65.9791 42.9529 65.926 42.9289C65.8729 42.9046 65.8258 42.8693 65.7878 42.8253C65.75 42.7793 65.7223 42.7257 65.7063 42.6684C65.6903 42.611 65.6859 42.5511 65.6943 42.4921C65.6943 42.4921 67.8377 26.7973 67.9312 26.0576C67.9425 25.9589 67.9893 25.8676 68.0631 25.8008C68.1368 25.734 68.2323 25.6961 68.3318 25.6944H72.2314C72.2882 25.6948 72.3442 25.7075 72.3953 25.7317C72.4467 25.7558 72.4921 25.7908 72.5285 25.8343C72.5673 25.88 72.596 25.9332 72.6133 25.9905C72.6307 26.0479 72.6357 26.1081 72.6287 26.1675C72.4284 27.8137 70.512 41.6424 70.3684 42.6087V42.612Z" fill="#F47920"/>
<path d="M72.526 25.8626C72.4896 25.8192 72.4442 25.7841 72.3927 25.76C72.3417 25.7358 72.2856 25.7231 72.2288 25.7227H68.3292C68.2297 25.7245 68.1343 25.7623 68.0605 25.8291C67.9867 25.8959 67.94 25.9872 67.9286 26.0859C67.8351 26.8257 65.6917 42.5205 65.6917 42.5205C65.6833 42.5795 65.6877 42.6394 65.7037 42.6968C65.7197 42.7541 65.7474 42.8074 65.7852 42.8537C65.8232 42.8977 65.8703 42.933 65.9234 42.9573C65.9765 42.9813 66.0339 42.9937 66.0923 42.9937C67.3811 42.9937 68.6765 42.9937 69.9685 42.9937C70.0654 42.989 70.1572 42.9513 70.2296 42.887C70.3017 42.8227 70.3498 42.7358 70.3658 42.6404C70.5094 41.6741 72.4258 27.8453 72.6261 26.2259C72.6378 26.1617 72.6348 26.0958 72.6174 26.0329C72.6001 25.9701 72.5687 25.9119 72.526 25.8626ZM69.6146 42.1306H66.5497C66.5497 42.1306 68.4628 28.1352 68.6765 26.5324H71.7647C71.4142 29.2548 69.9485 39.9147 69.6146 42.1306Z" fill="#C74A1B"/>
<path d="M101.483 20.2122C101.447 20.1699 101.402 20.1352 101.353 20.11C101.303 20.0849 101.248 20.0698 101.193 20.0656L98.1376 19.939C96.3648 19.939 94.8357 21.4552 94.582 23.4612C93.8675 29.2759 93.0094 35.2638 91.9644 41.755L89.1132 41.8383C90.1148 35.4238 90.9561 29.5092 91.674 23.7711C91.8289 22.7519 91.5785 21.7127 90.9762 20.8754C90.7084 20.5026 90.3582 20.196 89.9532 19.9794C89.5479 19.7628 89.0985 19.6418 88.6391 19.6258C87.7377 19.6058 86.8362 19.5791 85.9348 19.5625C85.8326 19.5618 85.7338 19.5989 85.6573 19.6666C85.5809 19.7342 85.5325 19.8277 85.5208 19.929C84.616 27.4065 83.5176 35.4005 82.0385 45.0906C81.8589 46.0849 82.0733 47.1099 82.6362 47.9496C82.8886 48.3128 83.2254 48.6091 83.6181 48.8134C84.0107 49.0176 84.4471 49.1239 84.8898 49.1226H84.9966C88.0749 49.0226 91.1765 48.886 94.2314 48.7227C95.9942 48.6261 97.6535 46.9833 98.0008 44.9873C99.5332 36.2702 100.705 28.2696 101.587 20.5421C101.597 20.4228 101.56 20.3042 101.483 20.2122Z" fill="#C74A1B"/>
<path d="M97.1996 44.8259C96.9192 46.432 95.5637 47.8016 94.1781 47.8782C91.1299 48.0382 88.0283 48.1748 84.96 48.2748H84.8799C84.5637 48.2774 84.2516 48.2024 83.9708 48.0568C83.6903 47.9109 83.4499 47.6986 83.2707 47.4384C82.839 46.7793 82.6801 45.9792 82.8266 45.2058C84.2723 35.6723 85.3707 27.7682 86.2721 20.3906L88.6092 20.4473C88.9501 20.4571 89.2843 20.5458 89.5851 20.7066C89.8856 20.8674 90.145 21.0957 90.342 21.3737C90.8124 22.033 91.0067 22.8496 90.8829 23.6496C90.1417 29.5276 89.2803 35.589 88.242 42.1868C88.2326 42.2458 88.2359 42.3061 88.252 42.3637C88.2683 42.421 88.2967 42.4744 88.3354 42.52C88.3725 42.5663 88.4199 42.6036 88.4737 42.6283C88.5274 42.6533 88.5865 42.6653 88.6459 42.6633L92.3185 42.56C92.413 42.5547 92.5031 42.517 92.5729 42.4534C92.643 42.3897 92.6887 42.3037 92.7024 42.2101C93.7741 35.5756 94.6455 29.4743 95.3734 23.5496C95.5704 21.9601 96.7556 20.7605 98.1278 20.7605L100.715 20.8638C99.8505 28.4546 98.6954 36.2987 97.1996 44.8259Z" fill="#F47920"/>
<path d="M77.9191 20.6619C77.6544 20.2866 77.3048 19.9789 76.8988 19.7635C76.4928 19.5482 76.0418 19.4313 75.582 19.4223C73.6022 19.3956 71.6257 19.3723 69.6425 19.359C69.7227 18.7692 69.9297 17.173 69.9297 17.173C70.0883 16.139 69.8499 15.0833 69.2619 14.2174C69.0022 13.8376 68.6536 13.5268 68.2463 13.312C67.839 13.0971 67.3856 12.9847 66.9249 12.9844H64.2539C64.1561 12.9862 64.0623 13.0233 63.9898 13.0889C63.9174 13.1545 63.8713 13.244 63.86 13.341C63.3925 16.8032 60.4912 38.0195 59.5664 45.1904C59.4182 46.2051 59.6566 47.2381 60.2342 48.0862C60.4996 48.4697 60.8535 48.7843 61.2658 49.0035C61.6785 49.2228 62.1375 49.3401 62.6046 49.3457C63.3625 49.3457 69.5457 49.3291 71.8227 49.2958C73.5889 49.2724 75.2215 47.6296 75.532 45.5337C76.7906 37.0765 77.7655 30.1087 78.6002 23.6076C78.7598 22.5748 78.5161 21.5203 77.9191 20.6619ZM77.8056 23.4943C76.9709 29.9921 75.9927 36.9532 74.734 45.407C74.4803 47.0965 73.1982 48.436 71.8093 48.456C68.8045 48.506 65.6896 48.5193 62.6146 48.506C62.2731 48.5027 61.9375 48.4167 61.6364 48.2561C61.3356 48.0955 61.0775 47.8646 60.8852 47.583C60.4218 46.8995 60.2378 46.0648 60.371 45.2504C61.2892 38.1295 64.1571 17.1697 64.6112 13.8142H66.9315C67.2644 13.8173 67.5916 13.9007 67.8854 14.0573C68.1789 14.214 68.4299 14.4393 68.6176 14.7139C69.076 15.3995 69.2573 16.2329 69.125 17.0464C69.125 17.0464 68.8813 18.9524 68.7912 19.7122C68.7835 19.7714 68.7882 19.8316 68.8045 19.8889C68.8212 19.9463 68.8496 19.9995 68.888 20.0454C68.9237 20.0911 68.9691 20.128 69.0212 20.1535C69.0733 20.1789 69.1304 20.1921 69.1885 20.192C71.3186 20.192 73.4486 20.222 75.5787 20.2587C75.9159 20.2636 76.2474 20.3487 76.5452 20.5069C76.8431 20.6651 77.0988 20.8918 77.2914 21.1684C77.7535 21.8524 77.9375 22.6865 77.8056 23.5009V23.4943Z" fill="#C74A1B"/>
<path d="M54.3363 5.875C52.3815 6.36973 50.4627 6.99766 48.5938 7.75437C49.6878 8.2762 50.8167 8.72155 51.9725 9.08726C52.874 7.78436 53.6919 6.69473 54.3363 5.875Z" fill="#00AB4E"/>
<path d="M83.7891 7.87916C81.7672 7.04587 79.6859 6.36423 77.5625 5.83984C78.2302 6.65623 79.105 7.83917 80.0999 9.27536C81.3613 8.89825 82.5942 8.43168 83.7891 7.87916Z" fill="#00AB4E"/>
<path d="M79.0928 9.56361C77.6371 7.46764 76.4452 6.03478 75.9577 5.46497C72.8828 4.81859 69.7515 4.47703 66.6094 4.44531V9.37367C68.215 9.38517 69.7692 9.93832 71.0198 10.9431C73.7462 10.7215 76.4479 10.2598 79.0928 9.56361Z" fill="#00AB4E"/>
<path d="M52.9688 9.39977C55.7108 10.1711 58.5203 10.681 61.3589 10.9226C62.5608 9.35312 64.6608 9.35312 65.4955 9.35312H65.6324V4.44141C62.3692 4.46554 59.1169 4.82282 55.9268 5.50772C55.3024 6.24748 54.2275 7.5937 52.9688 9.39977Z" fill="#00AB4E"/>
<path d="M60.1813 15.6935C60.2948 14.9571 60.4417 13.9508 60.5318 13.1477C60.5766 12.7408 60.6684 12.3405 60.8056 11.9548C57.936 11.6837 55.0985 11.1403 52.332 10.332C51.1318 12.1219 50.0277 13.9738 49.0234 15.8801C52.312 15.8368 57.8909 15.7369 60.1813 15.6935Z" fill="#00AB4E"/>
<path d="M72 11.9374C72.8072 13.0131 73.305 14.2887 73.4389 15.6261L76.8978 15.7261C78.6406 15.7728 80.7373 15.8294 82.9441 15.8961C81.9736 14.0437 80.9039 12.245 79.739 10.5078C77.2049 11.2046 74.6158 11.6829 72 11.9374Z" fill="#00AB4E"/>
<path d="M84.0697 15.9295C88.5602 16.0628 93.3278 16.2261 96.3794 16.3894C93.1616 13.0363 89.3224 10.3384 85.0746 8.44531C83.6817 9.15624 82.2294 9.74495 80.7344 10.2048C81.9506 12.0505 83.0641 13.9616 84.0697 15.9295Z" fill="#00AB4E"/>
<path d="M65.8868 -0.00390625C53.3568 -0.00390625 42.1088 4.46796 34.4766 11.5222C34.7767 11.7351 35.0408 11.9951 35.2578 12.292C35.3436 12.4096 35.4228 12.5319 35.4949 12.6585C42.84 5.86083 53.7374 1.54225 65.8768 1.54225C80.2331 1.54225 92.8333 7.57027 99.9113 16.6006L101.888 16.6972C94.6996 6.72054 81.2547 -0.00390625 65.8868 -0.00390625Z" fill="#00AB4E"/>
<path d="M47.1043 8.29688C43.1697 10.02 39.5693 12.4202 36.4673 15.3878C36.4673 15.5578 36.4339 15.721 36.4072 15.911C36.3805 16.1009 36.3637 16.1709 36.3438 16.3009C40.437 16.1542 44.1896 16.0276 47.722 15.921C48.7603 13.8939 49.9104 11.926 51.1674 10.0263C49.7659 9.56698 48.4067 8.98838 47.1043 8.29688Z" fill="#00AB4E"/>
</g>
</g>
</g>
<defs>
<clipPath id="clip0_2755_12944">
<rect width="125" height="67" fill="white"/>
</clipPath>
<clipPath id="clip1_2755_12944">
<rect width="125" height="67" fill="white"/>
</clipPath>
</defs>
</svg>
