<svg width="150" height="20" viewBox="0 0 150 20" fill="none" xmlns="http://www.w3.org/2000/svg">
<path d="M4.71413 19H0.594815L6.87145 0.818181H11.8253L18.093 19H13.9737L9.41939 4.97301H9.27734L4.71413 19ZM4.45668 11.8533H14.1868V14.854H4.45668V11.8533ZM34.2377 0.818181V19H30.438V3.94318H23.0872V19H19.2875V0.818181H34.2377ZM35.7052 3.98757V0.818181H50.6377V3.98757H45.0713V19H41.2716V3.98757H35.7052ZM51.5969 19V0.818181H63.8483V3.98757H55.441V8.31996H63.218V11.4893H55.441V15.8306H63.8838V19H51.5969ZM76.4041 19L70.5625 11.2496H69.2486V19H65.4045V0.818181H69.2486V8.08026H70.021L76.0579 0.818181H80.843L73.7496 9.25213L81.1715 19H76.4041ZM84.7385 19H80.6192L86.8959 0.818181H91.8497L98.1175 19H93.9981L89.4438 4.97301H89.3018L84.7385 19ZM84.4811 11.8533H94.2112V14.854H84.4811V11.8533ZM112.955 6.04723C112.884 5.33108 112.579 4.77474 112.041 4.3782C111.502 3.98165 110.771 3.78338 109.848 3.78338C109.221 3.78338 108.691 3.87216 108.259 4.04972C107.827 4.22135 107.495 4.46106 107.265 4.76882C107.04 5.07659 106.927 5.42578 106.927 5.81641C106.915 6.14193 106.983 6.42602 107.131 6.66868C107.285 6.91134 107.495 7.12145 107.762 7.29901C108.028 7.47064 108.336 7.62157 108.685 7.75178C109.034 7.87607 109.407 7.9826 109.804 8.07138L111.437 8.462C112.23 8.63956 112.958 8.8763 113.621 9.17223C114.284 9.46816 114.858 9.83215 115.343 10.2642C115.829 10.6963 116.205 11.2053 116.471 11.7912C116.743 12.3771 116.882 13.0489 116.888 13.8065C116.882 14.9192 116.598 15.8839 116.036 16.7006C115.48 17.5115 114.675 18.1418 113.621 18.5916C112.574 19.0355 111.31 19.2575 109.83 19.2575C108.362 19.2575 107.084 19.0326 105.995 18.5827C104.912 18.1329 104.066 17.4671 103.456 16.5852C102.852 15.6974 102.536 14.5996 102.506 13.2915H106.226C106.267 13.9012 106.442 14.4102 106.75 14.8185C107.063 15.221 107.481 15.5258 108.001 15.733C108.528 15.9342 109.123 16.0348 109.786 16.0348C110.437 16.0348 111.002 15.9401 111.482 15.7507C111.967 15.5613 112.343 15.2979 112.609 14.9606C112.875 14.6232 113.009 14.2356 113.009 13.7976C113.009 13.3892 112.887 13.0459 112.645 12.7678C112.408 12.4896 112.059 12.2528 111.597 12.0575C111.141 11.8622 110.582 11.6847 109.919 11.5249L107.939 11.0277C106.406 10.6548 105.196 10.0719 104.308 9.27876C103.42 8.48568 102.98 7.41738 102.985 6.07386C102.98 4.97301 103.272 4.01124 103.864 3.18857C104.462 2.36589 105.282 1.72372 106.324 1.26207C107.365 0.800426 108.549 0.569602 109.875 0.569602C111.224 0.569602 112.402 0.800426 113.408 1.26207C114.42 1.72372 115.207 2.36589 115.77 3.18857C116.332 4.01124 116.622 4.96413 116.64 6.04723H112.955ZM134.682 9.90909C134.682 11.8918 134.306 13.5786 133.554 14.9695C132.809 16.3603 131.791 17.4227 130.5 18.1566C129.216 18.8846 127.772 19.2486 126.168 19.2486C124.552 19.2486 123.102 18.8816 121.818 18.1477C120.534 17.4138 119.519 16.3514 118.773 14.9606C118.027 13.5697 117.654 11.8859 117.654 9.90909C117.654 7.92637 118.027 6.23958 118.773 4.84872C119.519 3.45786 120.534 2.39844 121.818 1.67045C123.102 0.936553 124.552 0.569602 126.168 0.569602C127.772 0.569602 129.216 0.936553 130.5 1.67045C131.791 2.39844 132.809 3.45786 133.554 4.84872C134.306 6.23958 134.682 7.92637 134.682 9.90909ZM130.785 9.90909C130.785 8.62476 130.592 7.54167 130.207 6.6598C129.829 5.77794 129.293 5.10914 128.601 4.65341C127.908 4.19768 127.097 3.96982 126.168 3.96982C125.239 3.96982 124.428 4.19768 123.736 4.65341C123.043 5.10914 122.504 5.77794 122.12 6.6598C121.741 7.54167 121.552 8.62476 121.552 9.90909C121.552 11.1934 121.741 12.2765 122.12 13.1584C122.504 14.0402 123.043 14.709 123.736 15.1648C124.428 15.6205 125.239 15.8484 126.168 15.8484C127.097 15.8484 127.908 15.6205 128.601 15.1648C129.293 14.709 129.829 14.0402 130.207 13.1584C130.592 12.2765 130.785 11.1934 130.785 9.90909ZM145.893 6.04723C145.822 5.33108 145.517 4.77474 144.978 4.3782C144.44 3.98165 143.709 3.78338 142.786 3.78338C142.158 3.78338 141.628 3.87216 141.196 4.04972C140.764 4.22135 140.433 4.46106 140.202 4.76882C139.977 5.07659 139.865 5.42578 139.865 5.81641C139.853 6.14193 139.921 6.42602 140.069 6.66868C140.223 6.91134 140.433 7.12145 140.699 7.29901C140.966 7.47064 141.273 7.62157 141.623 7.75178C141.972 7.87607 142.345 7.9826 142.741 8.07138L144.375 8.462C145.168 8.63956 145.896 8.8763 146.559 9.17223C147.221 9.46816 147.796 9.83215 148.281 10.2642C148.766 10.6963 149.142 11.2053 149.408 11.7912C149.681 12.3771 149.82 13.0489 149.826 13.8065C149.82 14.9192 149.536 15.8839 148.973 16.7006C148.417 17.5115 147.612 18.1418 146.559 18.5916C145.511 19.0355 144.247 19.2575 142.768 19.2575C141.3 19.2575 140.022 19.0326 138.933 18.5827C137.849 18.1329 137.003 17.4671 136.393 16.5852C135.79 15.6974 135.473 14.5996 135.444 13.2915H139.163C139.205 13.9012 139.379 14.4102 139.687 14.8185C140.001 15.221 140.418 15.5258 140.939 15.733C141.466 15.9342 142.06 16.0348 142.723 16.0348C143.374 16.0348 143.94 15.9401 144.419 15.7507C144.904 15.5613 145.28 15.2979 145.547 14.9606C145.813 14.6232 145.946 14.2356 145.946 13.7976C145.946 13.3892 145.825 13.0459 145.582 12.7678C145.345 12.4896 144.996 12.2528 144.534 12.0575C144.079 11.8622 143.519 11.6847 142.857 11.5249L140.877 11.0277C139.344 10.6548 138.134 10.0719 137.246 9.27876C136.358 8.48568 135.917 7.41738 135.923 6.07386C135.917 4.97301 136.21 4.01124 136.802 3.18857C137.4 2.36589 138.219 1.72372 139.261 1.26207C140.303 0.800426 141.486 0.569602 142.812 0.569602C144.162 0.569602 145.339 0.800426 146.346 1.26207C147.358 1.72372 148.145 2.36589 148.707 3.18857C149.269 4.01124 149.559 4.96413 149.577 6.04723H145.893Z" fill="black"/>
</svg>
