<svg width="145" height="47" viewBox="0 0 145 47" fill="none" xmlns="http://www.w3.org/2000/svg">
<g clip-path="url(#clip0_2755_13035)">
<path d="M70.4422 8.72266H67.1719V24.2809H70.4422V8.72266Z" fill="black"/>
<path d="M80.9675 20.9171C81.5215 20.2924 81.8067 19.4747 81.7613 18.6413C81.8067 17.8079 81.5215 16.9902 80.9675 16.3654C80.7033 16.086 80.3827 15.8658 80.0269 15.7195C79.6711 15.5732 79.2882 15.5042 78.9037 15.5169C78.5167 15.5039 78.1314 15.5728 77.773 15.719C77.4146 15.8653 77.0912 16.0855 76.824 16.3654C76.5474 16.6734 76.3348 17.0331 76.1986 17.4238C76.0623 17.8145 76.0051 18.2283 76.0302 18.6413C75.9848 19.4747 76.27 20.2924 76.824 20.9171C77.0924 21.1954 77.416 21.4146 77.7742 21.5607C78.1323 21.7068 78.517 21.7766 78.9037 21.7656C79.288 21.7769 79.6705 21.7071 80.026 21.5609C80.3816 21.4147 80.7024 21.1954 80.9675 20.9171ZM75.6968 23.7005C74.7801 23.2337 74.0128 22.5194 73.4822 21.6387C72.9447 20.7323 72.6699 19.6946 72.6884 18.6413C72.6699 17.5879 72.9447 16.5502 73.4822 15.6438C74.014 14.7621 74.7808 14.0455 75.6968 13.5741C76.6797 13.0739 77.7689 12.8182 78.8719 12.8287C79.9754 12.814 81.0656 13.07 82.0471 13.5741C82.9602 14.0467 83.7241 14.7632 84.2538 15.6438C84.7912 16.5502 85.066 17.5879 85.0475 18.6413C85.066 19.6946 84.7912 20.7323 84.2538 21.6387C83.7259 22.5188 82.9613 23.2332 82.0471 23.7005C81.0669 24.208 79.9758 24.4642 78.8719 24.4459C77.7685 24.4602 76.6783 24.2043 75.6968 23.7005Z" fill="black"/>
<path d="M98.1254 12.9961L93.3627 24.2802H89.9812L85.2344 12.9961H88.6159L91.7434 20.6722L94.9741 12.9961H98.1254Z" fill="black"/>
<path d="M102.496 15.9369C101.994 16.3749 101.676 16.987 101.607 17.6497H107.164C107.076 16.988 106.748 16.3814 106.243 15.9448C105.726 15.5123 105.068 15.2838 104.393 15.3025C103.715 15.2821 103.053 15.5074 102.528 15.9369H102.496ZM110.156 19.5608H101.607C101.741 20.233 102.131 20.8271 102.695 21.2181C103.327 21.6418 104.077 21.8554 104.838 21.8287C105.38 21.8428 105.919 21.7512 106.425 21.5591C106.897 21.3817 107.329 21.1121 107.695 20.7661L109.434 22.6534C108.84 23.2823 108.115 23.7721 107.309 24.0874C106.503 24.4028 105.638 24.5359 104.774 24.4773C103.606 24.502 102.449 24.2464 101.401 23.7319C100.461 23.2781 99.6721 22.562 99.1306 21.6701C98.5931 20.7637 98.3183 19.726 98.3368 18.6727C98.3243 17.6226 98.5987 16.589 99.1306 15.6831C99.6462 14.8061 100.393 14.0874 101.29 13.6055C102.235 13.1043 103.291 12.848 104.362 12.8601C105.406 12.8441 106.437 13.0894 107.362 13.5738C108.249 14.0381 108.982 14.7486 109.474 15.6197C110.011 16.561 110.285 17.629 110.267 18.7123C110.267 18.7123 110.267 19.0454 110.204 19.5925L110.156 19.5608Z" fill="black"/>
<path d="M85.0002 30.1331C85.4473 30.644 85.7879 31.2389 86.0019 31.883C86.2159 32.5271 86.299 33.2073 86.2464 33.8839V40.3388H82.9761V34.3914C83.0311 33.6784 82.8346 32.9685 82.4204 32.3852C82.2228 32.1627 81.9773 31.9879 81.7023 31.8739C81.4273 31.7599 81.1301 31.7096 80.8328 31.727C80.4925 31.7106 80.1527 31.7688 79.8373 31.8976C79.5219 32.0263 79.2385 32.2225 79.0071 32.4724C78.5199 33.1028 78.2825 33.8905 78.3404 34.6848V40.3467H75.0621V34.3914C75.0621 32.6151 74.3477 31.727 72.9188 31.727C72.5821 31.7114 72.2461 31.7701 71.9347 31.8989C71.6232 32.0277 71.344 32.2235 71.117 32.4724C70.6269 33.1016 70.3866 33.8895 70.4422 34.6848V40.3467H67.1719V29.0626H70.2994V30.3631C70.7254 29.8911 71.2515 29.5199 71.8393 29.2767C72.4693 29.0208 73.1437 28.8914 73.8238 28.8961C74.5706 28.8853 75.3098 29.0482 75.9828 29.3719C76.6299 29.672 77.1799 30.1472 77.5704 30.7437C78.0367 30.1546 78.6385 29.6866 79.3247 29.3798C80.0526 29.0511 80.8438 28.886 81.6425 28.8961C82.2567 28.8661 82.8706 28.9602 83.4475 29.1728C84.0245 29.3853 84.5526 29.7119 85.0002 30.1331Z" fill="black"/>
<path d="M94.9801 37.9184C95.4183 37.6631 95.7484 37.2572 95.9088 36.7765V35.6267H93.6704C92.3209 35.6267 91.6542 36.0628 91.6542 36.9509C91.6476 37.144 91.6891 37.3356 91.775 37.5086C91.8609 37.6816 91.9885 37.8306 92.1463 37.9422C92.5469 38.2083 93.0235 38.3364 93.5037 38.3069C94.025 38.3179 94.5391 38.1834 94.9881 37.9184H94.9801ZM97.7742 30.1313C98.2694 30.6187 98.6517 31.2084 98.8944 31.8591C99.1372 32.5098 99.2344 33.2057 99.1792 33.898V40.337H96.1152V38.9413C95.4961 39.9881 94.353 40.5273 92.6702 40.5273C91.896 40.5469 91.1268 40.3981 90.4159 40.0912C89.8232 39.8228 89.3173 39.3943 88.9553 38.8541C88.6191 38.3291 88.4452 37.7168 88.4552 37.0937C88.4372 36.6164 88.5354 36.142 88.7414 35.711C88.9474 35.2801 89.2551 34.9055 89.638 34.6196C90.7327 33.9354 92.0176 33.6187 93.3052 33.7156H95.9088C95.9271 33.4111 95.8783 33.1063 95.7658 32.8226C95.6534 32.539 95.48 32.2835 95.2579 32.0741C94.7003 31.6481 94.0052 31.442 93.3052 31.4952C92.7011 31.4951 92.1008 31.5915 91.5272 31.7807C90.992 31.9558 90.4921 32.2242 90.0507 32.5737L88.9077 30.2582C89.5808 29.7949 90.3306 29.454 91.1223 29.2511C91.9858 29.0128 92.8777 28.8927 93.7736 28.8943C95.2136 28.8046 96.6367 29.2446 97.7742 30.1313Z" fill="black"/>
<path d="M106.848 29.3392C107.577 29.0476 108.357 28.9047 109.142 28.9189V31.9402C108.777 31.9402 108.531 31.9006 108.404 31.9006C108.003 31.8786 107.601 31.9375 107.223 32.0737C106.846 32.2099 106.499 32.4207 106.205 32.6935C105.918 33.0154 105.699 33.3923 105.563 33.8013C105.426 34.2103 105.375 34.6429 105.411 35.0725V40.4013H102.141V29.0617H105.268V30.5525C105.669 29.9975 106.219 29.5683 106.856 29.3154L106.848 29.3392Z" fill="black"/>
<path d="M115.952 35.9225L114.372 37.4768V40.3474H111.102V24.7891H114.372V33.5912L119.158 29.0632H123.064L118.365 33.8449L123.485 40.3474H119.516L115.952 35.9225Z" fill="black"/>
<path d="M127.796 32.0073C127.284 32.442 126.955 33.0537 126.875 33.7201H132.432C132.346 33.0559 132.015 32.4476 131.503 32.0152C130.989 31.5819 130.334 31.3532 129.662 31.3729C128.981 31.3541 128.317 31.5792 127.788 32.0073H127.796ZM135.464 35.6312H126.915C127.06 36.297 127.451 36.8834 128.011 37.2727C128.643 37.6963 129.393 37.91 130.154 37.8833C130.695 37.8927 131.233 37.8013 131.741 37.6137C132.215 37.4392 132.647 37.1693 133.011 36.8207L134.75 38.708C134.156 39.3364 133.43 39.8259 132.624 40.1412C131.819 40.4565 130.953 40.5899 130.09 40.5318C128.92 40.5556 127.761 40.3001 126.709 39.7864C125.773 39.3299 124.987 38.6143 124.446 37.7247C123.924 36.8135 123.648 35.7815 123.648 34.7312C123.648 33.6809 123.924 32.6489 124.446 31.7377C124.96 30.8588 125.707 30.1396 126.606 29.6601C127.55 29.1569 128.607 28.9005 129.677 28.9147C130.721 28.9003 131.753 29.1456 132.678 29.6283C133.565 30.0927 134.298 30.8032 134.789 31.6742C135.323 32.617 135.597 33.684 135.583 34.7669C135.583 34.7669 135.583 35.0999 135.52 35.6471L135.464 35.6312Z" fill="black"/>
<path d="M144.995 39.8011C144.64 40.0556 144.238 40.2387 143.813 40.3404C143.327 40.4593 142.828 40.5179 142.328 40.5148C141.196 40.5889 140.08 40.2191 139.217 39.484C138.832 39.0885 138.536 38.6162 138.347 38.0983C138.158 37.5803 138.081 37.0283 138.121 36.4786V31.8317H136.375V29.3417H138.121V26.5742H141.392V29.3417H144.21V31.8555H141.392V36.4468C141.37 36.8471 141.5 37.241 141.757 37.5491C141.893 37.6834 142.056 37.7875 142.235 37.8544C142.414 37.9214 142.606 37.9497 142.797 37.9376C143.274 37.9543 143.742 37.8059 144.122 37.5174L145.003 39.8249L144.995 39.8011Z" fill="black"/>
<path d="M50.6048 4.93018C47.6122 1.94143 43.6036 0.18678 39.3755 0.0148891C35.1474 -0.157002 31.0093 1.26645 27.7836 4.00239C24.4729 1.12948 20.1719 -0.341754 15.7934 -0.099127C11.4148 0.1435 7.3031 2.08089 4.33078 5.30197C1.35845 8.52304 -0.240628 12.7743 -0.127162 17.1537C-0.0136949 21.5332 1.80339 25.6961 4.93853 28.7593L23.1955 46.9978L27.7836 42.4303L9.52659 24.1917C7.66149 22.2908 6.59798 19.7472 6.5555 17.0858C6.51301 14.4243 7.49481 11.8482 9.29828 9.88882C11.1018 7.92948 13.5893 6.73648 16.2476 6.556C18.9059 6.37551 21.5322 7.22132 23.5844 8.91888L27.7836 12.4714L31.9668 8.91888C33.848 7.32745 36.233 6.45366 38.698 6.45271C40.7549 6.45368 42.7653 7.06402 44.4749 8.20653C46.1845 9.34904 47.5166 10.9724 48.3025 12.8713C49.0885 14.7701 49.2931 16.8592 48.8905 18.8743C48.4878 20.8893 47.496 22.7398 46.0405 24.1917L27.7836 42.4303L32.3557 46.9978L50.6127 28.7593C53.7755 25.5992 55.5524 21.3135 55.5524 16.8447C55.5524 12.376 53.7755 8.09026 50.6127 4.93018H50.6048Z" fill="#8F11B4"/>
</g>
<defs>
<clipPath id="clip0_2755_13035">
<rect width="145" height="47" fill="white"/>
</clipPath>
</defs>
</svg>
