<svg width="132" height="40" viewBox="0 0 132 40" fill="none" xmlns="http://www.w3.org/2000/svg">
<g clip-path="url(#clip0_3341_3676)">
<path d="M31.8804 0H8.11961C3.65267 0 0 3.65268 0 8.11961V31.8804C0 36.3473 3.65267 40 8.11961 40H31.8804C36.3473 40 40 36.3473 40 31.8804V8.11961C40 3.65728 36.3473 0 31.8804 0Z" fill="white"/>
<path d="M20.196 13.9331L14.1328 20.0009L20.196 26.0688C23.5451 29.4178 28.9735 29.4178 32.3179 26.0688C35.667 22.7197 35.667 17.2867 32.3179 13.9377C28.9689 10.584 23.5405 10.584 20.196 13.9331Z" fill="#043E44"/>
<path d="M9.22582 20.0025L3.16257 13.9346C2.71633 13.4884 2.2333 13.1112 1.72266 12.7891V27.2158C2.2333 26.8938 2.71633 26.512 3.16257 26.0657L9.22582 20.0025Z" fill="#043E44"/>
<path d="M17.7393 28.5249L11.6806 22.457L5.61734 28.5249C3.58858 30.5537 2.80653 33.3691 3.23436 36.0005C4.40745 37.3898 6.16478 38.2776 8.12453 38.2776H19.423C20.9365 35.0896 20.3753 31.1609 17.7393 28.5249Z" fill="#043E44"/>
<path d="M5.61566 11.4761L11.6744 17.544L17.7376 11.4761C20.3736 8.84008 20.9257 4.90679 19.4121 1.71875H8.11825C6.15851 1.71875 4.40117 2.60661 3.22808 4.00052C2.80485 6.62731 3.59151 9.45193 5.61566 11.4761Z" fill="#043E44"/>
<path d="M46 2.80078H49.5447L53.5871 15.2724L57.6032 2.80078H61.1705L55.5933 19.0265H51.5508L46 2.80078Z" fill="#043E44"/>
<path d="M73.6753 13.2345C73.6753 16.6889 71.0772 19.3556 67.9096 19.3556C66.1825 19.3556 64.9305 18.7306 64.0821 17.6617V23.6645H61.0352V7.43874H64.0821V8.80722C64.9343 7.74203 66.1863 7.11328 67.9096 7.11328C71.0772 7.11328 73.6753 9.77995 73.6753 13.2345ZM70.6247 13.2345C70.6247 11.289 69.2294 9.96488 67.3402 9.96488C65.4736 9.96488 64.0783 11.2853 64.0783 13.2345C64.0783 15.1799 65.4736 16.504 67.3402 16.504C69.2332 16.5003 70.6247 15.1799 70.6247 13.2345Z" fill="#043E44"/>
<path d="M81.8281 7.20312V10.5393C80.2443 10.3543 78.2344 11.0497 78.2344 13.4833V19.0238H75.1875V7.43244H78.2344V9.42597C78.8491 7.85037 80.3386 7.20312 81.8281 7.20312Z" fill="#043E44"/>
<path d="M81.8984 13.2345C81.8984 9.77995 84.6625 7.11328 88.1393 7.11328C91.6123 7.11328 94.4028 9.77995 94.4028 13.2345C94.4028 16.6889 91.6123 19.3556 88.1393 19.3556C84.6625 19.3519 81.8984 16.6852 81.8984 13.2345ZM91.3521 13.2345C91.3521 11.3556 89.9569 10.0352 88.1393 10.0352C86.3443 10.0352 84.949 11.3556 84.949 13.2345C84.949 15.1133 86.3443 16.4337 88.1393 16.4337C89.9569 16.43 91.3521 15.1096 91.3521 13.2345Z" fill="#043E44"/>
<path d="M103.263 19.0265L98.9611 13.7634V19.0265H95.9141V2.80078H98.9611V12.5355L103.026 7.43511H106.665L101.913 13.1606L106.804 19.0265H103.263Z" fill="#043E44"/>
<path d="M107.445 17.3581C107.445 16.267 108.342 15.3867 109.455 15.3867C110.567 15.3867 111.464 16.267 111.464 17.3581C111.464 18.4491 110.567 19.3294 109.455 19.3294C108.342 19.3294 107.445 18.4491 107.445 17.3581Z" fill="#043E44"/>
<path d="M120.015 7.20312V10.5392C118.431 10.3543 116.421 11.0496 116.421 13.4833V19.0238H113.371V7.43244H116.421V9.42597C117.04 7.85037 118.525 7.20312 120.015 7.20312Z" fill="#043E44"/>
<path d="M131.999 7.4375V19.0289H128.952V17.7307C128.243 18.7737 127.014 19.3544 125.43 19.3544C122.926 19.3544 120.961 17.6382 120.961 14.5573V7.4412H124.008V14.1874C124.008 15.763 124.977 16.5767 126.35 16.5767C127.84 16.5767 128.948 15.7187 128.948 13.7029V7.44491H131.999V7.4375Z" fill="#043E44"/>
<path d="M55.627 34.5184H53.745V26.9125H50.3741V34.5184H48.4883V25.1445H55.627V34.5184Z" fill="#043E44"/>
<path d="M60.5959 33.1409C61.2799 33.1409 61.8241 32.8592 62.1264 32.4701L63.5473 33.2744C62.9049 34.1862 61.8808 34.7088 60.5694 34.7088C58.2755 34.7088 56.8281 33.1669 56.8281 31.1728C56.8281 29.1786 58.2906 27.6367 60.4334 27.6367C62.4552 27.6367 63.8874 29.2046 63.8874 31.1728C63.8874 31.4285 63.861 31.6546 63.8194 31.8807H58.6723C58.918 32.7666 59.6662 33.1409 60.5959 33.1409ZM62.1264 30.5426C61.9072 29.5789 61.1703 29.1897 60.4334 29.1897C59.4924 29.1897 58.8499 29.6864 58.6459 30.5426H62.1264Z" fill="#043E44"/>
<path d="M72.2856 31.1728C72.2856 33.1669 70.7853 34.7088 68.9562 34.7088C67.9585 34.7088 67.2367 34.3456 66.7455 33.7303V37.1996H64.9844V27.8257H66.7455V28.6152C67.2367 27.9999 67.9585 27.6367 68.9562 27.6367C70.7815 27.6404 72.2856 29.1786 72.2856 31.1728ZM70.5245 31.1728C70.5245 30.0497 69.7196 29.2861 68.6274 29.2861C67.5504 29.2861 66.7417 30.0497 66.7417 31.1728C66.7417 32.2958 67.5466 33.0594 68.6274 33.0594C69.7196 33.0631 70.5245 32.2996 70.5245 31.1728Z" fill="#043E44"/>
<path d="M76.8068 33.141C77.4908 33.141 78.035 32.8593 78.3374 32.4701L79.7583 33.2744C79.1159 34.1862 78.0917 34.7089 76.7804 34.7089C74.4865 34.7089 73.0391 33.1669 73.0391 31.1728C73.0391 29.1787 74.5016 27.6367 76.6443 27.6367C78.6661 27.6367 80.0984 29.2046 80.0984 31.1728C80.0984 31.4285 80.072 31.6547 80.0304 31.8808H74.8833C75.1251 32.7666 75.8772 33.141 76.8068 33.141ZM78.3336 30.5427C78.1144 29.579 77.3775 29.1898 76.6406 29.1898C75.6996 29.1898 75.0571 29.6865 74.853 30.5427H78.3336Z" fill="#043E44"/>
<path d="M85.4314 34.5222L82.9485 31.4828V34.5222H81.1875V27.8281H82.9485V30.7748L85.2953 27.8281H87.3965L84.6529 31.1344L87.4796 34.5222H85.4314Z" fill="#043E44"/>
<path d="M95.5239 31.1728C95.5239 33.1669 94.0236 34.7089 92.1946 34.7089C91.1969 34.7089 90.4751 34.3456 89.9838 33.7303V37.1997H88.2227V27.8258H89.9838V28.6153C90.4751 28 91.1969 27.6367 92.1946 27.6367C94.0199 27.6404 95.5239 29.1787 95.5239 31.1728ZM93.7629 31.1728C93.7629 30.0497 92.9579 29.2862 91.8658 29.2862C90.7887 29.2862 89.9838 30.0497 89.9838 31.1728C89.9838 32.2959 90.7887 33.0594 91.8658 33.0594C92.9579 33.0631 93.7629 32.2996 93.7629 31.1728Z" fill="#043E44"/>
<path d="M100.045 33.1406C100.729 33.1406 101.274 32.8589 101.576 32.4697L102.997 33.274C102.354 34.1859 101.33 34.7085 100.019 34.7085C97.7247 34.7085 96.2773 33.1666 96.2773 31.1724C96.2773 29.1783 97.7398 27.6364 99.8826 27.6364C101.905 27.6364 103.337 29.2042 103.337 31.1724C103.337 31.4282 103.311 31.6543 103.269 31.8804H98.1215C98.3672 32.7663 99.1154 33.1406 100.045 33.1406ZM97.5736 26.2204C97.5736 25.7238 97.9969 25.3086 98.5033 25.3086C99.0097 25.3086 99.4177 25.7238 99.4177 26.2204C99.4177 26.7171 99.0097 27.1174 98.5033 27.1174C97.9969 27.1174 97.5736 26.7134 97.5736 26.2204ZM101.576 30.5423C101.357 29.5786 100.62 29.1894 99.8826 29.1894C98.9416 29.1894 98.2991 29.6861 98.0951 30.5423H101.576ZM100.166 26.2204C100.166 25.7238 100.59 25.3086 101.096 25.3086C101.602 25.3086 102.01 25.7238 102.01 26.2204C102.01 26.7171 101.602 27.1174 101.096 27.1174C100.59 27.1174 100.166 26.7134 100.166 26.2204Z" fill="#043E44"/>
<path d="M104.016 31.1728C104.016 29.1787 105.546 27.6367 107.621 27.6367C108.959 27.6367 110.119 28.3336 110.678 29.364L109.163 30.235C108.891 29.6865 108.301 29.338 107.606 29.338C106.555 29.338 105.777 30.1016 105.777 31.1728C105.777 32.2292 106.555 32.9927 107.606 32.9927C108.316 32.9927 108.902 32.6591 109.174 32.1106L110.705 32.9668C110.119 34.012 108.959 34.7089 107.621 34.7089C105.546 34.7089 104.016 33.1669 104.016 31.1728Z" fill="#043E44"/>
<path d="M117.202 29.4886H115.07V34.5221H113.309V29.4886H111.152V27.8281H117.198V29.4886H117.202Z" fill="#043E44"/>
<path d="M117.383 31.1728C117.383 29.1787 118.982 27.6367 120.988 27.6367C122.995 27.6367 124.605 29.175 124.605 31.1728C124.605 33.1669 122.995 34.7089 120.988 34.7089C118.982 34.7089 117.383 33.1669 117.383 31.1728ZM122.844 31.1728C122.844 30.0868 122.039 29.3269 120.988 29.3269C119.953 29.3269 119.144 30.0905 119.144 31.1728C119.144 32.2551 119.949 33.0224 120.988 33.0224C122.039 33.0224 122.844 32.2588 122.844 31.1728Z" fill="#043E44"/>
<path d="M129.954 34.5222L127.468 31.4828V34.5222H125.707V27.8281H127.468V30.7748L129.815 27.8281H131.916L129.172 31.1344L131.999 34.5222H129.954Z" fill="#043E44"/>
</g>
<defs>
<clipPath id="clip0_3341_3676">
<rect width="132" height="40" fill="white"/>
</clipPath>
</defs>
</svg>
