<svg width="137" height="32" viewBox="0 0 137 32" fill="none" xmlns="http://www.w3.org/2000/svg">
<g clip-path="url(#clip0_2755_12988)">
<path fill-rule="evenodd" clip-rule="evenodd" d="M120.797 11.4606C120.786 10.9583 120.584 10.4801 120.234 10.1273C119.883 9.77445 119.413 9.57469 118.921 9.57031H117.223C116.879 9.57145 116.542 9.66962 116.249 9.85399C115.956 10.0384 115.719 10.3018 115.563 10.6152L110.61 18.7311V11.4606C110.608 10.9599 110.412 10.4805 110.065 10.1265C109.719 9.77248 109.249 9.57259 108.759 9.57031H107.062C106.571 9.57259 106.102 9.77248 105.755 10.1265C105.409 10.4805 105.213 10.9599 105.211 11.4606V24.4669C105.212 24.9683 105.407 25.4489 105.754 25.8038C106.101 26.1588 106.571 26.3592 107.062 26.3615H108.955C109.257 26.3622 109.555 26.287 109.822 26.1426C110.089 25.9982 110.317 25.789 110.487 25.5335L115.36 18.2109L115.381 24.4583C115.378 24.7057 115.423 24.9512 115.514 25.1807C115.604 25.4101 115.739 25.619 115.909 25.7951C116.079 25.9713 116.281 26.1113 116.505 26.207C116.728 26.3027 116.968 26.3523 117.21 26.3529H119.133C119.376 26.354 119.618 26.3056 119.843 26.2103C120.067 26.115 120.271 25.9748 120.443 25.798C120.614 25.6211 120.749 25.4111 120.839 25.1804C120.93 24.9496 120.975 24.7026 120.971 24.4539L120.797 11.4606Z" fill="#474530"/>
<path fill-rule="evenodd" clip-rule="evenodd" d="M52.2789 3.85938H37.9792C37.4894 3.86166 37.0205 4.06169 36.6746 4.41581C36.3287 4.76993 36.1339 5.24941 36.1328 5.74963V7.01992C36.1361 7.51945 36.3316 7.99763 36.677 8.35126C37.0224 8.7049 37.4901 8.90564 37.9792 8.91018H42.2237V24.4528C42.2259 24.9546 42.4221 25.4351 42.7694 25.79C43.1168 26.1448 43.5873 26.3451 44.0785 26.3474H46.2008C46.6916 26.3451 47.1617 26.1446 47.5084 25.7897C47.8551 25.4347 48.0503 24.9542 48.0514 24.4528V8.91018H52.2959C52.7857 8.90677 53.2545 8.70653 53.6008 8.35277C53.9471 7.99902 54.1432 7.5202 54.1465 7.01992V5.74963C54.1443 5.24901 53.9486 4.76954 53.602 4.41554C53.2554 4.06154 52.786 3.86166 52.2959 3.85938" fill="#474530"/>
<path fill-rule="evenodd" clip-rule="evenodd" d="M67.0956 20.4308V16.5073C67.0956 12.2325 65.2365 9.37109 59.8247 9.37109C55.733 9.37109 53.3773 10.9839 53.3773 12.9088C53.3773 14.3569 54.0947 15.0289 54.8544 15.3497C55.7627 14.6734 56.896 14.2008 58.8782 14.2008C60.7373 14.2008 62.104 14.7557 62.1507 16.1517H59.5446C59.4342 16.1517 56.9979 16.1517 55.4317 16.8021C55.2407 16.8931 55.0497 16.9928 54.8756 17.0969C54.8272 17.1314 54.7761 17.1618 54.7228 17.1879C54.0094 17.6187 53.421 18.2357 53.0182 18.9755C52.6154 19.7153 52.4127 20.5513 52.4308 21.3976C52.4308 24.7403 54.9181 26.5092 57.8723 26.5092C60.5166 26.5092 61.8366 24.9961 62.2484 24.0336L62.312 24.0683C62.7365 25.577 63.5854 26.4701 65.2832 26.4701C67.4564 26.4701 68.2543 24.9961 68.3986 24.0033C67.7025 23.7128 67.1253 22.7026 67.1253 20.4352M59.8332 19.0262H62.1847V19.9193C62.1847 20.2642 62.1176 20.6056 61.9872 20.9238C61.8569 21.242 61.6659 21.5305 61.4253 21.7726C61.1848 22.0146 60.8995 22.2054 60.5861 22.3338C60.2727 22.4622 59.9374 22.5257 59.5998 22.5205C58.3774 22.5205 57.4775 21.7878 57.4775 20.7603C57.4775 19.5377 58.6023 19.0262 59.8332 19.0262Z" fill="#474530"/>
<path fill-rule="evenodd" clip-rule="evenodd" d="M134.354 20.5006C133.972 20.9196 133.509 21.252 132.993 21.476C132.477 21.7001 131.922 21.8109 131.361 21.8012H131.255C130.49 21.8101 129.743 21.5584 129.133 21.0858C128.759 20.7829 128.464 20.3915 128.271 19.9456C127.989 19.3528 127.844 18.7016 127.847 18.0423C127.845 17.3752 127.998 16.7172 128.293 16.1217C128.533 15.604 128.909 15.1643 129.379 14.8515C129.396 14.8374 129.415 14.8258 129.434 14.8168C129.452 14.8036 129.47 14.792 129.49 14.7821C129.877 14.5593 130.302 14.4123 130.742 14.3485C130.775 14.3527 130.81 14.3527 130.844 14.3485H130.937C131.006 14.3442 131.076 14.3442 131.145 14.3485H131.264C131.799 14.3393 132.328 14.4617 132.806 14.7055C133.285 14.9492 133.699 15.3071 134.014 15.7489C135.759 15.7489 136.845 14.6824 136.845 13.3384C136.845 11.3441 134.99 9.28906 130.962 9.28906C126.718 9.28906 122.562 11.9554 122.562 18.0944C122.562 24.2334 126.871 26.6786 131.124 26.6786C134.549 26.6786 137.007 25.0354 137.007 22.9501C137.007 21.6494 135.861 20.6219 134.362 20.5396" fill="#474530"/>
<path fill-rule="evenodd" clip-rule="evenodd" d="M82.8052 11.6572L82.767 11.6312C82.737 11.608 82.7042 11.5891 82.6694 11.5748C81.5848 10.9169 80.344 10.5765 79.0827 10.5906C77.3785 10.5528 75.7274 11.197 74.4817 12.3855C74.9061 9.62817 76.2177 8.50963 79.8255 8.21915C84.0149 7.89833 85.3689 6.80579 85.3689 4.7161C85.3689 3.20303 84.0955 2.39663 82.7542 2.33594C82.2534 2.97758 81.553 3.52385 78.5394 3.85335C72.0284 4.55569 68.9766 8.89548 68.9766 16.4262C68.9766 22.5912 71.7737 26.5451 77.1897 26.5451C81.5912 26.5451 85.4325 23.9742 85.4325 18.4465C85.4325 15.1342 84.6558 12.8668 82.8052 11.6658M79.9486 19.2095C79.9486 19.2789 79.9274 19.3526 79.9189 19.422C79.8646 20.1256 79.5526 20.7824 79.0452 21.2615C78.5378 21.7406 77.8722 22.0066 77.1812 22.0066C76.4902 22.0066 75.8246 21.7406 75.3172 21.2615C74.8098 20.7824 74.4978 20.1256 74.4435 19.422C74.4435 19.3656 74.4435 19.3006 74.4138 19.2399C74.2575 17.8006 74.2092 16.3512 74.2695 14.9044C75.1654 14.4199 76.173 14.1922 77.1854 14.2454C77.8778 14.273 78.5371 14.5548 79.0424 15.039C79.5476 15.5233 79.8649 16.1774 79.9359 16.8814C79.9908 17.2589 80.0191 17.64 80.0208 18.0216V18.221C80.0215 18.5619 79.9988 18.9023 79.9529 19.2399" fill="#474530"/>
<path fill-rule="evenodd" clip-rule="evenodd" d="M96.8833 9.4152C96.0069 9.3959 95.1421 9.62207 94.3827 10.0692C93.6232 10.5163 92.9981 11.1672 92.5751 11.9514V11.4702C92.5729 10.9684 92.3768 10.4879 92.0294 10.133C91.682 9.77824 91.2115 9.5779 90.7203 9.57561H89.0225C88.5316 9.5779 88.0616 9.77838 87.7149 10.1333C87.3682 10.4883 87.173 10.9688 87.1719 11.4702V30.1127C87.173 30.614 87.3682 31.0946 87.7149 31.4496C88.0616 31.8045 88.5316 32.005 89.0225 32.0073H90.7203C91.2115 32.005 91.682 31.8046 92.0294 31.4498C92.3768 31.095 92.5729 30.6144 92.5751 30.1127V24.5286C93.3264 25.6211 95.1218 26.4579 96.8493 26.4579C100.538 26.4579 103.526 24.1384 103.526 18.0298C103.526 11.8257 100.631 9.4152 96.8833 9.4152ZM97.9232 19.3651C97.7025 20.8175 96.6032 21.936 95.2746 21.936H94.9987C94.5407 21.9292 94.0959 21.7777 93.7254 21.5025C93.31 21.1993 92.9923 20.7767 92.8128 20.2885C92.6017 19.4259 92.5131 18.5367 92.5497 17.6482C92.5497 17.3491 92.5879 17.0543 92.6261 16.7811C92.8213 15.2811 93.9291 14.1408 95.2704 14.1408C96.6117 14.1408 97.728 15.2811 97.9232 16.7811C97.9807 17.1962 98.0091 17.6149 98.0081 18.0341C98.0075 18.4694 97.9762 18.904 97.9147 19.3347" fill="#474530"/>
<path fill-rule="evenodd" clip-rule="evenodd" d="M4.66812 3.98429C8.32284 3.9867 11.8411 5.40248 14.5154 7.9469C17.197 5.39785 20.7249 3.98185 24.3881 3.98429C21.7091 1.42016 18.174 -0.00463131 14.5026 1.13102e-05C14.2904 1.13102e-05 14.0782 1.13102e-05 13.8702 1.13102e-05H13.7981C10.3714 0.171219 7.11653 1.58375 4.61719 3.98429H4.66812Z" fill="white"/>
<path fill-rule="evenodd" clip-rule="evenodd" d="M19.1591 18.7704C19.9745 17.9935 20.8762 17.3169 21.8459 16.7544C24.0256 15.4821 26.4916 14.8098 29.0021 14.8035C29.0068 12.7695 28.5993 10.7565 27.8053 8.89117C27.0113 7.02585 25.8479 5.34857 24.3884 3.96484C20.7229 3.96711 17.1946 5.38942 14.5156 7.94479C15.9779 9.32798 17.1451 11.0045 17.9441 12.8695C18.743 14.7344 19.1567 16.7477 19.1591 18.7834" fill="#94C22B"/>
<path fill-rule="evenodd" clip-rule="evenodd" d="M7.1902 16.7567C8.15956 17.3192 9.06005 17.9974 9.87273 18.777C9.87541 16.7413 10.2892 14.7281 11.0881 12.8632C11.8871 10.9982 13.0541 9.32168 14.5162 7.93833C11.8342 5.39095 8.30585 3.97787 4.64349 3.9844H4.61803C3.16164 5.36722 1.99992 7.04182 1.20537 8.90366C0.41082 10.7655 0.000493527 12.7747 0 14.8057C2.52247 14.803 5.00158 15.4757 7.1902 16.7567Z" fill="#94C22B"/>
<path fill-rule="evenodd" clip-rule="evenodd" d="M19.162 18.7734C17.7351 20.1217 16.5889 21.7499 15.7918 23.5607C14.9947 25.3715 14.5631 27.3279 14.5227 29.3129C14.5227 29.3996 14.5227 29.482 14.5227 29.5731C14.5178 27.5431 14.1025 25.536 13.3027 23.6776C12.5029 21.8193 11.336 20.1496 9.875 18.7734V18.8168C9.87399 21.3364 10.5053 23.8142 11.7086 26.0136C12.446 27.3641 13.3839 28.5897 14.4888 29.6468H14.5185H14.5482C15.6534 28.59 16.5913 27.3644 17.3284 26.0136C18.5303 23.8136 19.1615 21.3362 19.162 18.8168V18.7734Z" fill="#474530"/>
<path fill-rule="evenodd" clip-rule="evenodd" d="M0 14.8047C0 14.8047 0 14.8047 0 14.8264C0.000959178 18.6178 1.42382 22.2648 3.9761 25.0177C6.52839 27.7707 10.0162 29.4203 13.7225 29.6276H13.7649H14.1894H14.495C13.3885 28.5765 12.4478 27.3568 11.7064 26.0119C10.5048 23.8117 9.8736 21.3343 9.87273 18.815V18.7716C9.05816 17.9937 8.15629 17.317 7.18595 16.7557C4.99927 15.4737 2.52127 14.8009 0 14.8047Z" fill="#6B8C26"/>
<path fill-rule="evenodd" clip-rule="evenodd" d="M14.5185 7.9466C13.0556 9.3293 11.888 11.0057 11.089 12.8708C10.29 14.7359 9.87666 16.7494 9.875 18.7852C11.3334 20.1612 12.4981 21.8298 13.2964 23.6865C14.0947 25.5433 14.5092 27.5483 14.5142 29.5762C14.5142 29.4895 14.5142 29.4071 14.5142 29.3204C14.5541 27.3332 14.9862 25.3746 15.7849 23.5621C16.5835 21.7496 17.7321 20.1204 19.162 18.7722C19.1596 16.7365 18.7459 14.7232 17.9469 12.8583C17.1479 10.9933 15.9808 9.31678 14.5185 7.93359" fill="#6B8C26"/>
<path fill-rule="evenodd" clip-rule="evenodd" d="M29.0079 14.8047C26.4959 14.8101 24.0284 15.4824 21.8474 16.7556C20.8778 17.3181 19.976 17.9947 19.1607 18.7716V18.815C19.1617 21.3346 18.5304 23.8124 17.327 26.0118C16.5914 27.3635 15.6533 28.5893 14.5469 29.645H14.9331H15.2472C18.9625 29.4451 22.4611 27.7965 25.0215 25.0394C27.5818 22.2822 29.0087 18.6266 29.0079 14.8264V14.8047Z" fill="#6B8C26"/>
</g>
<defs>
<clipPath id="clip0_2755_12988">
<rect width="137" height="32" fill="white"/>
</clipPath>
</defs>
</svg>
