<svg width="160" height="36" viewBox="0 0 160 36" fill="none" xmlns="http://www.w3.org/2000/svg">
<path fill-rule="evenodd" clip-rule="evenodd" d="M19.1879 0.0898438C8.9654 0.0898438 0.601562 8.15033 0.601562 18.002C0.601562 27.8537 8.9654 35.9142 19.1879 35.9142C29.4103 35.9142 37.7742 27.8537 37.7742 18.002C37.8516 8.15033 29.4878 0.0898438 19.1879 0.0898438ZM19.1879 3.82155C11.0564 3.82155 4.47371 10.1655 4.47371 18.002C4.47371 25.8386 11.0564 32.1825 19.1879 32.1825C27.3194 32.1825 33.902 25.8386 33.902 18.002C33.9795 10.2401 27.3194 3.82155 19.1879 3.82155Z" fill="#2AD1C5"/>
<path fill-rule="evenodd" clip-rule="evenodd" d="M19.8863 8.00391L23.7585 11.7356C22.5968 12.482 21.2803 12.9298 19.8863 13.079V8.00391ZM20.0412 23.6771V29.1254H18.4924V23.6771C17.4856 24.4234 16.324 24.8712 14.93 24.8712C14.233 24.8712 13.6135 24.7966 12.9939 24.5727C14.233 22.8561 16.2465 21.662 18.5698 21.4381V23.6024L18.4924 23.6771H19.8089V21.4381C22.1322 21.662 24.1457 22.7815 25.3848 24.5727C24.7653 24.7966 24.1457 24.8712 23.4487 24.8712C22.2096 24.7966 20.9705 24.4234 20.0412 23.6771ZM24.6878 12.7059L27.7081 15.6166C28.0179 15.9898 28.3276 16.3629 28.56 16.8107H19.8863V14.4224C21.6675 14.2732 23.3713 13.6015 24.6878 12.7059ZM29.1021 18.0049C29.1795 18.4527 29.2569 18.8259 29.2569 19.2737C29.2569 21.2141 28.2502 22.9307 26.7013 23.901C25.2299 21.7366 22.7517 20.3185 19.9638 20.0946V18.0049H29.1021ZM11.8323 23.9756C10.2834 23.0054 9.19922 21.2888 9.19922 19.3483C9.19922 18.9005 9.27666 18.4527 9.3541 18.0795H18.5698V20.1693C15.7819 20.3185 13.3037 21.8112 11.8323 23.9756ZM9.81876 16.7361C10.206 16.0644 10.6706 15.4673 11.2902 15.0195L13.7684 12.6312C15.1623 13.6015 16.7886 14.1985 18.5698 14.3478V16.7361H9.81876ZM14.6977 11.7356L18.5698 8.00391V13.079C17.1758 13.0044 15.7819 12.482 14.6977 11.7356Z" fill="#2AD1C5"/>
<path fill-rule="evenodd" clip-rule="evenodd" d="M45.2848 16.1338H49.1569V5.98354H53.881V16.1338H57.7531V2.77427H45.2848V16.1338ZM61.0057 16.3577C61.4704 16.3577 61.8576 16.283 62.2448 16.2084C62.632 16.1338 63.0192 15.9099 63.329 15.6113C63.6388 15.3128 63.9485 14.9396 64.2583 14.4918C64.4906 14.044 64.723 13.447 64.9553 12.7006C65.1102 11.9543 65.2651 11.1333 65.42 10.0884C65.4974 9.04354 65.5748 7.84939 65.5748 6.50598V5.98354H68.8274V16.1338H72.6996V2.77427H62.0125V4.64012C62.0125 5.75963 62.0125 6.80451 61.935 7.70012C61.8576 8.59573 61.8576 9.34207 61.7801 9.93915C61.7027 10.5362 61.6252 11.0587 61.5478 11.5065C61.4704 11.9543 61.3155 12.2528 61.238 12.4767C61.0832 12.7006 61.0057 12.9245 60.8508 12.9991C60.6959 13.1484 60.541 13.223 60.3862 13.223C60.2313 13.2977 60.0764 13.2977 59.9215 13.2977C59.8441 13.2977 59.7666 13.2977 59.6117 13.2977C59.5343 13.2977 59.3794 13.2977 59.2245 13.2977C59.1471 13.2977 58.9922 13.2977 58.9147 13.223L58.6824 16.0591C58.7599 16.0591 58.9922 16.1338 59.2245 16.2084C59.4568 16.283 59.6892 16.283 60.0764 16.3577C60.3862 16.3577 60.6959 16.3577 61.0057 16.3577ZM74.0161 16.1338H78.0432L79.0499 13.7455H84.3935L85.4002 16.1338H89.5047L83.619 2.625H79.9018L74.0161 16.1338ZM80.2116 10.9094L81.7604 7.10305L83.3093 10.9094H80.2116ZM90.8987 16.1338H94.7708V11.0587H99.7272V16.1338H103.599V2.77427H99.7272V7.77476H94.7708V2.77427H90.8987V16.1338ZM106 16.1338H117.307V12.9991H109.872V10.9094H116.532V7.99866H109.872V5.9089H117.229V2.77427H106.078V16.1338H106ZM122.65 16.1338H126.522V5.98354H130.704V2.77427H118.546V5.98354H122.728V16.1338H122.65ZM129.852 16.1338H133.88L134.886 13.7455H140.23L141.237 16.1338H145.341L139.455 2.625H135.738L129.852 16.1338ZM136.048 10.9094L137.597 7.10305L139.146 10.9094H136.048ZM50.7058 33.0757C51.5577 33.0757 52.3321 33.0011 53.0291 32.7772C53.7261 32.5533 54.2682 32.2548 54.7328 31.8816C55.1975 31.5084 55.5847 31.0606 55.817 30.5382C56.0494 30.0157 56.2042 29.4933 56.2042 28.8962C56.2042 28.2991 56.1268 27.8513 55.8945 27.4782C55.6621 27.105 55.4298 26.7318 55.0426 26.4333C54.6554 26.1348 54.2682 25.9855 53.8035 25.7616C54.1907 25.6123 54.5779 25.3138 54.8877 25.0899C55.1975 24.7913 55.4298 24.4928 55.5847 24.1196C55.7396 23.7465 55.817 23.2987 55.817 22.7762C55.817 22.2538 55.6621 21.806 55.4298 21.3582C55.1975 20.9104 54.8103 20.5372 54.3456 20.2387C53.881 19.9401 53.3389 19.6416 52.7193 19.4923C52.0998 19.3431 51.4028 19.1938 50.6283 19.1938C49.7765 19.1938 48.9246 19.2684 48.2276 19.4923C47.5306 19.7162 46.9111 19.9401 46.2915 20.3133C45.7494 20.6865 45.2073 21.0596 44.7427 21.5074L46.6788 23.6718C46.9111 23.4479 47.1434 23.2987 47.4532 23.1494C47.763 23.0001 48.0727 22.8509 48.3825 22.7016C48.6923 22.5523 49.002 22.4777 49.3893 22.403C49.699 22.3284 50.0088 22.3284 50.3186 22.3284C50.7058 22.3284 51.0156 22.403 51.2479 22.4777C51.4802 22.5523 51.7125 22.7016 51.8674 22.8509C52.0223 23.0001 52.0998 23.224 52.0998 23.4479C52.0998 23.6718 52.0223 23.8957 51.8674 24.045C51.7125 24.1943 51.5577 24.3435 51.2479 24.4928C50.9381 24.5674 50.5509 24.6421 50.0862 24.6421H48.6923V27.4035H50.1637C50.9381 27.4035 51.4802 27.4782 51.8674 27.7021C52.2546 27.926 52.4095 28.2245 52.4095 28.5977C52.4095 28.8216 52.3321 29.0455 52.1772 29.2694C52.0223 29.4933 51.79 29.6426 51.4802 29.7172C51.1704 29.7918 50.7832 29.8665 50.3186 29.8665C49.7765 29.8665 49.2344 29.7918 48.7697 29.6426C48.3051 29.4933 47.8404 29.344 47.4532 29.1201C47.066 28.8962 46.6788 28.5977 46.369 28.2991L44.3555 30.7621C44.7427 31.0606 45.1299 31.4338 45.5946 31.6577C45.9818 31.9562 46.4464 32.1801 46.9885 32.3294C47.4532 32.5533 48.0727 32.7026 48.6923 32.7772C49.1569 33.0011 49.8539 33.0757 50.7058 33.0757ZM56.9787 35.5387H60.4636L60.6959 32.8518H68.053V35.5387H71.3056L71.7703 29.6426H70.2214V19.4177H59.6117V19.7909C59.6117 20.7611 59.6117 21.7313 59.5343 22.4777C59.4568 23.2987 59.4568 24.045 59.3794 24.7167C59.302 25.3884 59.2245 25.9855 59.0696 26.5079C58.9922 27.0304 58.8373 27.6274 58.6824 28.0752C58.5275 28.5977 58.3726 29.0455 58.1403 29.5679H56.9012V35.5387H56.9787ZM62.2448 29.5679C62.3997 29.1201 62.5546 28.6723 62.7094 28.1499C62.8643 27.7021 62.9418 27.1796 63.0192 26.5826C63.0967 26.0601 63.1741 25.463 63.2516 24.7913C63.329 24.1943 63.329 23.4479 63.329 22.7762V22.627H66.3493V29.4933H62.2448V29.5679ZM80.289 33.0757C81.1409 33.0757 81.9927 32.9265 82.6897 32.7026C83.4642 32.4787 84.1611 32.1055 84.7807 31.7323C85.4002 31.2845 85.9423 30.8367 86.407 30.2396C86.8717 29.6426 87.1814 29.0455 87.4138 28.2991C87.6461 27.6274 87.801 26.8811 87.801 26.1348C87.801 25.3884 87.6461 24.6421 87.4138 23.8957C87.1814 23.224 86.7942 22.5523 86.407 21.9552C85.9423 21.3582 85.4002 20.9104 84.7807 20.4626C84.1611 20.0148 83.4642 19.7162 82.6897 19.4923C81.9153 19.2684 81.1409 19.1191 80.289 19.1191C79.4371 19.1191 78.5853 19.2684 77.8883 19.4923C77.1138 19.7162 76.4169 20.0894 75.7973 20.4626C75.1778 20.9104 74.6357 21.3582 74.171 21.9552C73.7064 22.5523 73.3966 23.1494 73.1642 23.8957C72.9319 24.6421 72.8545 25.3884 72.8545 26.1348C72.8545 26.8811 73.0094 27.6274 73.2417 28.3738C73.474 29.0455 73.8612 29.7172 74.2485 30.3143C74.7131 30.9113 75.2552 31.3591 75.8748 31.8069C76.4943 32.2548 77.1913 32.5533 77.9657 32.7772C78.6627 33.0011 79.4371 33.0757 80.289 33.0757ZM80.3664 29.7172C79.8243 29.7172 79.3597 29.6426 78.895 29.4187C78.4304 29.1948 78.1206 28.9709 77.8108 28.5977C77.5011 28.2991 77.2687 27.8513 77.1138 27.4782C76.959 27.0304 76.8815 26.5826 76.8815 26.0601C76.8815 25.5377 76.959 25.0899 77.1138 24.6421C77.2687 24.1943 77.5011 23.8211 77.8108 23.5226C78.1206 23.224 78.5078 22.9255 78.895 22.7762C79.3597 22.5523 79.8243 22.4777 80.3664 22.4777C80.9085 22.4777 81.3732 22.5523 81.8379 22.7762C82.3025 23.0001 82.6123 23.224 82.9995 23.5972C83.3093 23.8957 83.5416 24.3435 83.6965 24.7167C83.8514 25.1645 83.9288 25.6123 83.9288 26.1348C83.9288 26.6572 83.8514 27.105 83.6965 27.5528C83.5416 28.0006 83.3093 28.3738 82.9995 28.6723C82.6897 28.9709 82.3025 29.2694 81.9153 29.4187C81.3732 29.6426 80.9085 29.7172 80.3664 29.7172ZM89.8145 32.8518H93.6866V29.0455H95.6227C96.4746 29.0455 97.249 28.9709 98.0234 28.747C98.7204 28.523 99.4174 28.2245 99.8821 27.8513C100.424 27.4782 100.811 26.9557 101.121 26.3587C101.431 25.7616 101.586 25.0899 101.586 24.2689C101.586 23.5226 101.431 22.8509 101.199 22.2538C100.889 21.6567 100.502 21.1343 100.037 20.7611C99.5723 20.3879 98.9528 20.0148 98.1783 19.8655C97.4813 19.6416 96.7069 19.567 95.7776 19.567H89.8145V32.8518ZM93.6866 26.0601V22.5523H95.4678C95.9325 22.5523 96.3197 22.627 96.6295 22.7762C96.9392 22.9255 97.249 23.0748 97.4039 23.3733C97.5588 23.6718 97.6362 23.9704 97.6362 24.3435C97.6362 24.7167 97.5588 25.0152 97.4039 25.3138C97.249 25.6123 96.9392 25.7616 96.6295 25.9109C96.3197 26.0601 95.9325 26.1348 95.4678 26.1348H93.6866V26.0601ZM110.182 33.0757C111.034 33.0757 111.886 32.9265 112.583 32.7026C113.357 32.4787 114.054 32.1055 114.674 31.7323C115.293 31.2845 115.835 30.8367 116.3 30.2396C116.765 29.6426 117.074 29.0455 117.307 28.2991C117.539 27.6274 117.694 26.8811 117.694 26.1348C117.694 25.3884 117.539 24.6421 117.307 23.8957C117.074 23.224 116.687 22.5523 116.3 21.9552C115.835 21.3582 115.293 20.9104 114.674 20.4626C114.054 20.0148 113.357 19.7162 112.583 19.4923C111.808 19.2684 111.034 19.1191 110.182 19.1191C109.33 19.1191 108.478 19.2684 107.781 19.4923C107.007 19.7162 106.31 20.0894 105.69 20.4626C105.071 20.9104 104.529 21.3582 104.064 21.9552C103.599 22.5523 103.29 23.1494 103.057 23.8957C102.825 24.5674 102.67 25.3138 102.67 26.0601C102.67 26.8065 102.825 27.5528 103.057 28.2991C103.29 28.9709 103.677 29.6426 104.064 30.2396C104.529 30.8367 105.071 31.2845 105.69 31.7323C106.31 32.1801 107.007 32.4787 107.781 32.7026C108.478 33.0011 109.33 33.0757 110.182 33.0757ZM110.182 29.7172C109.64 29.7172 109.175 29.6426 108.711 29.4187C108.246 29.1948 107.936 28.9709 107.626 28.5977C107.317 28.2991 107.084 27.8513 106.929 27.4782C106.774 27.0304 106.697 26.5826 106.697 26.0601C106.697 25.5377 106.774 25.0899 106.929 24.6421C107.084 24.1943 107.317 23.8211 107.626 23.5226C107.936 23.224 108.323 22.9255 108.711 22.7762C109.175 22.5523 109.64 22.4777 110.182 22.4777C110.724 22.4777 111.189 22.5523 111.653 22.7762C112.118 23.0001 112.428 23.224 112.815 23.5972C113.125 23.8957 113.357 24.3435 113.512 24.7167C113.667 25.1645 113.744 25.6123 113.744 26.1348C113.744 26.6572 113.667 27.105 113.512 27.5528C113.357 28.0006 113.125 28.3738 112.815 28.6723C112.505 28.9709 112.118 29.2694 111.731 29.4187C111.189 29.6426 110.724 29.7172 110.182 29.7172ZM119.707 32.8518H126.91C127.994 32.8518 129.001 32.7026 129.775 32.404C130.549 32.1055 131.169 31.6577 131.556 31.1352C131.943 30.6128 132.176 29.9411 132.176 29.1948C132.176 28.5977 132.098 28.0752 131.866 27.6274C131.634 27.1796 131.324 26.8811 130.937 26.5826C130.549 26.284 130.007 26.0601 129.465 25.9109C129.852 25.7616 130.24 25.5377 130.549 25.2391C130.859 24.9406 131.092 24.6421 131.324 24.2689C131.479 23.8957 131.634 23.4479 131.634 22.9255C131.634 22.4777 131.556 22.0299 131.401 21.6567C131.246 21.2835 131.014 20.985 130.782 20.6865C130.395 20.3133 129.853 20.0148 129.233 19.7909C128.613 19.567 127.839 19.4923 126.987 19.4923H119.862V32.8518H119.707ZM123.425 29.8665V27.4035H126.368C126.987 27.4035 127.452 27.5528 127.762 27.7021C128.071 27.926 128.226 28.2245 128.226 28.5977C128.226 29.0455 128.071 29.344 127.762 29.5679C127.452 29.7918 126.987 29.8665 126.368 29.8665H123.425ZM123.425 24.7913V22.403H125.903C126.445 22.403 126.91 22.4777 127.219 22.7016C127.529 22.9255 127.684 23.1494 127.684 23.5226C127.684 23.9704 127.529 24.2689 127.219 24.4182C126.91 24.6421 126.445 24.7167 125.903 24.7167H123.425V24.7913ZM133.88 32.8518H139.998C140.849 32.8518 141.624 32.7772 142.321 32.5533C143.018 32.3294 143.56 32.0309 144.102 31.6577C144.567 31.2845 144.954 30.7621 145.186 30.165C145.419 29.5679 145.573 28.9709 145.573 28.2245C145.573 27.4782 145.419 26.8065 145.109 26.2094C144.799 25.6123 144.412 25.1645 143.87 24.7913C143.328 24.4182 142.708 24.1196 142.011 23.9704C141.314 23.7465 140.54 23.6718 139.688 23.6718H137.597V19.4177H133.725V32.8518H133.88ZM137.752 29.7172V26.5826H139.765C140.152 26.5826 140.54 26.6572 140.849 26.8065C141.159 26.9557 141.392 27.105 141.546 27.3289C141.701 27.5528 141.779 27.8513 141.779 28.1499C141.779 28.6723 141.624 29.0455 141.237 29.344C140.849 29.6426 140.385 29.7172 139.765 29.7172H137.752ZM146.58 32.8518H150.994L153.782 28.8216H155.486V32.8518H159.358V19.4177H152.776C152.001 19.4177 151.227 19.4923 150.53 19.7162C149.833 19.8655 149.213 20.164 148.671 20.5372C148.129 20.9104 147.742 21.3582 147.432 21.9552C147.122 22.5523 146.967 23.224 146.967 23.9704C146.967 24.6421 147.122 25.3138 147.355 25.8362C147.587 26.3587 147.897 26.8065 148.361 27.1796C148.826 27.5528 149.291 27.8513 149.833 28.0752L146.58 32.8518ZM153.008 25.9109C152.543 25.9109 152.234 25.8362 151.924 25.687C151.614 25.5377 151.382 25.3884 151.227 25.0899C151.072 24.866 150.994 24.5674 150.994 24.1943C150.994 23.8211 151.072 23.5226 151.227 23.2987C151.382 23.0748 151.614 22.8509 151.924 22.7016C152.234 22.5523 152.621 22.4777 153.008 22.4777H155.564V25.8362H153.008V25.9109Z" fill="#2AD1C5"/>
</svg>
