<svg width="173" height="27" viewBox="0 0 173 27" fill="none" xmlns="http://www.w3.org/2000/svg">
<g clip-path="url(#clip0_2755_12985)">
<path d="M28.3245 18.3593C28.1549 10.3908 21.8839 4 14.1702 4C6.34786 4 0 10.5845 0 18.6974H5.6649C5.6649 25.1844 10.7407 30.4483 16.9947 30.4483C23.1413 30.4483 28.1549 25.3617 28.3245 19.019V18.3593ZM16.9947 24.5728C16.2508 24.5744 15.514 24.4235 14.8264 24.1288C14.1388 23.8342 13.514 23.4016 12.9877 22.8558C12.4614 22.3099 12.0441 21.6617 11.7596 20.9481C11.4751 20.2345 11.3291 19.4697 11.3298 18.6974C11.3291 17.9251 11.4751 17.1603 11.7596 16.4467C12.0441 15.7331 12.4614 15.0848 12.9877 14.539C13.514 13.9932 14.1388 13.5606 14.8264 13.2659C15.514 12.9713 16.2508 12.8204 16.9947 12.822C17.7386 12.8204 18.4754 12.9713 19.163 13.2659C19.8506 13.5606 20.4755 13.9932 21.0017 14.539C21.528 15.0848 21.9453 15.7331 22.2298 16.4467C22.5143 17.1603 22.6604 17.9251 22.6596 18.6974C22.6604 19.4697 22.5143 20.2345 22.2298 20.9481C21.9453 21.6617 21.528 22.3099 21.0017 22.8558C20.4755 23.4016 19.8506 23.8342 19.163 24.1288C18.4754 24.4235 17.7386 24.5744 16.9947 24.5728ZM108.969 9.47278C104.033 9.47278 100.013 13.6108 100.013 18.681C100.013 23.8485 103.94 27.8891 108.969 27.8891C113.982 27.8891 117.924 23.8485 117.924 18.681C117.908 13.6097 113.904 9.47278 108.969 9.47278ZM108.969 24.041C106.331 24.041 104.406 21.5958 104.406 18.6974C104.406 15.8002 106.315 13.3526 108.969 13.3526C111.545 13.3526 113.485 15.8483 113.485 18.6974C113.485 21.5958 111.576 24.041 108.969 24.041ZM69.624 9.87543L69.6093 11.9204C69.6093 11.9204 69.4069 11.6621 69.2362 11.4696C68.3995 10.4237 66.769 9.48922 64.3944 9.48922C60.0016 9.48922 56.4161 13.6261 56.4161 18.6974C56.4161 23.784 60.0016 27.9056 64.3944 27.9056C66.7848 27.9056 68.3983 26.9723 69.2362 25.9252C69.4069 25.7162 69.6093 25.4744 69.6093 25.4744L69.6252 27.5193H73.9705V9.87543H69.624ZM69.8886 18.6974C69.8886 21.7073 68.1032 24.0422 65.403 24.0422C62.7029 24.0422 60.8089 21.7073 60.8089 18.6974C60.8089 15.6875 62.7029 13.3526 65.403 13.3526C68.1032 13.3373 69.8886 15.671 69.8886 18.6974C69.8886 18.681 69.8886 18.681 69.8886 18.6974ZM150.89 9.87543L150.874 11.9204C150.874 11.9204 150.672 11.6621 150.501 11.4696C149.663 10.4237 148.034 9.48922 145.659 9.48922C141.266 9.48922 137.682 13.6261 137.682 18.6974C137.682 23.784 141.266 27.9056 145.659 27.9056C148.05 27.9056 149.663 26.9723 150.501 25.9252C150.672 25.7162 150.874 25.4744 150.874 25.4744L150.89 27.5193H155.235V9.87543H150.89ZM151.153 18.6974C151.153 21.7073 149.368 24.0422 146.668 24.0422C143.968 24.0422 142.074 21.7073 142.074 18.6974C142.074 15.6875 143.968 13.3526 146.668 13.3526C149.368 13.3373 151.153 15.671 151.153 18.6974C151.153 18.681 151.153 18.681 151.153 18.6974ZM49.8828 16.3472H54.2756C53.2037 12.0331 50.0377 9.47396 45.7704 9.47396C40.664 9.47396 36.8151 13.4336 36.8151 18.681C36.8151 23.9283 40.664 27.8891 45.7704 27.8891C50.0377 27.8891 53.2037 25.33 54.2756 21.0159H49.867C49.0755 22.8671 47.6632 24.0258 45.7704 24.0258C43.0849 24.0258 41.2068 21.7073 41.2068 18.681C41.2068 15.6393 43.0849 13.3373 45.7704 13.3373C47.6632 13.3373 49.0913 14.496 49.8828 16.3472ZM81.5915 9.87543H77.85V27.5041H82.2112V16.6689L87.4261 23.5914L92.6093 16.6689V27.5041H96.9705V9.87426H93.23L87.3955 17.6174L81.5904 9.87426L81.5915 9.87543ZM136.611 9.87543H131.473L125.28 17.6186V9.87543H120.919V27.5041H125.28V19.8901L132.188 27.5041H137.759L129.533 18.5542L136.611 9.87543ZM163.322 27.5041H167.683V13.6754H172.82V9.87543H158.2V13.6754H163.322V27.5041Z" fill="#FF335F"/>
</g>
<defs>
<clipPath id="clip0_2755_12985">
<rect width="173" height="27" fill="white"/>
</clipPath>
</defs>
</svg>
