<svg width="173" height="29" viewBox="0 0 173 29" fill="none" xmlns="http://www.w3.org/2000/svg">
<g clip-path="url(#clip0_3341_3929)">
<path fill-rule="evenodd" clip-rule="evenodd" d="M92.4459 0C99.3077 0 104.88 5.59137 104.88 12.4763C104.88 17.3165 102.136 21.5309 98.1016 23.5755C97.4778 22.4072 96.4382 21.4475 95.149 20.8633C97.0204 18.2345 98.268 14.5209 98.8086 11.3914C99.0166 10.1396 99.2245 8.30359 98.8502 7.0518C98.767 6.80144 98.6423 6.46762 98.3512 6.34244C98.0185 6.17554 97.6442 6.38417 97.3947 6.5928C96.5629 7.26043 95.6065 8.97122 95.1074 9.97266C93.5271 13.1022 92.9033 16.7741 92.9033 20.2374C92.6538 20.1957 92.3627 20.1957 92.1132 20.1957C91.6557 20.1957 91.2399 20.2374 90.824 20.3209C91.1151 16.1482 90.2418 12.3511 88.5783 9.93093C87.705 8.67913 86.7069 8.4705 86.3327 10.1813C85.7504 13.5611 86.6653 17.4417 88.7863 21.0302C87.7466 21.5727 86.9149 22.3655 86.3327 23.2834C82.5899 21.1137 80.0947 17.1079 80.0947 12.4763C80.0115 5.59137 85.5841 0 92.4459 0Z" fill="black"/>
<path fill-rule="evenodd" clip-rule="evenodd" d="M94.0253 22.6562C94.5659 22.6562 95.0234 23.1152 95.0234 23.6576C95.0234 24.2 94.5659 24.659 94.0253 24.659C93.4847 24.659 93.0273 24.2 93.0273 23.6576C93.0273 23.1152 93.4847 22.6562 94.0253 22.6562Z" fill="black"/>
<path fill-rule="evenodd" clip-rule="evenodd" d="M90.1179 22.6562C90.6585 22.6562 91.116 23.1152 91.116 23.6576C91.116 24.2 90.6585 24.659 90.1179 24.659C89.5773 24.659 89.1198 24.2 89.1198 23.6576C89.0782 23.1152 89.5357 22.6562 90.1179 22.6562Z" fill="black"/>
<path fill-rule="evenodd" clip-rule="evenodd" d="M89.8699 28.9981C90.3273 28.9564 91.5749 28.4974 91.6997 28.2053C91.8245 28.247 92.1987 28.247 92.2819 28.2053C92.4067 28.5391 93.6127 28.9981 94.1117 28.9981C94.2365 28.7478 94.3196 28.1636 94.3612 27.8298C94.3612 27.5794 94.2365 26.9118 94.1117 26.7031C93.987 26.7031 93.1968 26.9118 93.072 26.9535C92.9057 26.9952 92.7394 27.0787 92.6146 27.1621C92.3651 27.329 92.4482 27.329 92.2819 27.496H91.7413C91.5749 27.329 91.6581 27.329 91.4086 27.1621C91.1175 26.9952 89.9946 26.578 89.9115 26.7449C89.7867 26.9535 89.662 27.5794 89.7035 27.8715C89.662 28.1636 89.7867 28.7478 89.8699 28.9981Z" fill="black"/>
<path d="M119.643 21.8523C119.144 21.8523 118.645 21.5602 118.105 20.8925L115.277 17.5961V19.8076C115.277 21.6019 114.32 21.8523 113.738 21.8523C113.156 21.8523 112.199 21.6019 112.199 19.8076V12.5472C112.199 10.753 113.156 10.5026 113.738 10.5026C114.32 10.5026 115.277 10.753 115.277 12.5472V13.8407L117.606 11.4206C118.23 10.753 118.729 10.4609 119.144 10.4609C119.56 10.4609 119.893 10.5861 120.226 10.8781C120.558 11.1702 120.683 11.5458 120.683 11.9213C120.683 12.2134 120.558 12.5472 120.267 12.881L119.643 13.5069L117.523 15.5933L120.434 18.8897C120.891 19.3904 121.099 19.8494 121.099 20.3084C121.099 20.6839 120.933 21.0594 120.642 21.3515C120.35 21.6853 120.018 21.8523 119.643 21.8523Z" fill="black"/>
<path d="M136.738 21.8535C135.116 21.8535 133.785 21.3111 132.828 20.2262C131.913 19.183 131.414 17.8478 131.414 16.2204C131.414 14.5931 131.872 13.2161 132.828 12.173C133.785 11.0881 135.116 10.5039 136.738 10.5039C138.359 10.5039 139.69 11.0463 140.647 12.1312C141.562 13.1744 142.061 14.5097 142.061 16.1787C142.061 17.8061 141.603 19.183 140.647 20.2262C139.69 21.3111 138.359 21.8535 136.738 21.8535ZM136.738 13.4248C136.031 13.4248 135.532 13.6751 135.157 14.2593C134.825 14.76 134.658 15.4276 134.658 16.2204C134.658 16.9715 134.825 17.6392 135.157 18.0981C135.532 18.6406 136.031 18.891 136.696 18.891C137.361 18.891 137.902 18.6406 138.276 18.0981C138.609 17.5974 138.775 16.9715 138.775 16.1787C138.775 15.3859 138.609 14.7183 138.276 14.2176C137.944 13.7169 137.403 13.4248 136.738 13.4248Z" fill="black"/>
<path d="M150.875 21.8523C150.085 21.8523 149.711 21.4767 149.544 21.1429C149.378 20.8508 149.336 20.3918 149.336 19.8076V13.34H147.215C147.132 13.34 147.091 13.34 147.091 13.5904V19.3487C147.091 20.9343 146.217 21.8105 144.637 21.8105C142.766 21.8105 142.391 21.0177 142.391 20.3501C142.391 19.7659 142.558 19.3904 142.932 19.14C143.14 19.0148 143.431 18.9731 143.847 18.9314C144.055 18.9314 144.18 18.8897 144.221 18.8897C144.221 18.8479 144.263 18.7645 144.263 18.5558V13.5487C144.263 12.422 144.471 11.671 144.928 11.1702C145.386 10.6695 146.134 10.4609 147.257 10.4609H150.958C151.54 10.4609 152.497 10.7112 152.497 12.5055V19.7242C152.455 21.6019 151.457 21.8523 150.875 21.8523Z" fill="black"/>
<path d="M161.648 21.8535C161.066 21.8535 160.109 21.6032 160.109 19.8089V16.2204L156.533 20.9356C156.075 21.5615 155.493 21.8535 154.869 21.8535C154.329 21.8535 153.414 21.6032 153.414 20.0593V12.5485C153.414 10.7543 154.37 10.5039 154.952 10.5039C155.535 10.5039 156.491 10.7543 156.491 12.5485V16.2622L160.151 11.4219C160.608 10.796 161.149 10.5039 161.689 10.5039C162.23 10.5039 163.145 10.7543 163.145 12.4651V19.7672C163.228 21.6032 162.23 21.8535 161.648 21.8535Z" fill="black"/>
<path d="M171.546 21.8523C171.047 21.8523 170.548 21.5602 170.008 20.8925L167.18 17.5961V19.8076C167.18 21.6019 166.223 21.8523 165.641 21.8523C165.059 21.8523 164.102 21.6019 164.102 19.8076V12.5472C164.102 10.753 165.059 10.5026 165.641 10.5026C166.223 10.5026 167.18 10.753 167.18 12.5472V13.8407L169.509 11.4206C170.133 10.753 170.632 10.4609 171.047 10.4609C171.463 10.4609 171.796 10.5861 172.129 10.8781C172.461 11.1702 172.586 11.5458 172.586 11.9213C172.586 12.2551 172.461 12.5472 172.17 12.881C172.129 12.9228 171.962 13.0897 171.546 13.5069L169.426 15.5933L172.337 18.8897C172.794 19.3904 173.002 19.8494 173.002 20.3084C173.002 20.6839 172.836 21.0594 172.545 21.3515C172.253 21.6853 171.921 21.8523 171.546 21.8523Z" fill="black"/>
<path d="M129.251 11.5053C128.502 10.8377 127.504 10.5039 126.257 10.5039H124.136C123.387 10.5039 122.888 10.6708 122.556 11.0046C122.223 11.3384 122.098 11.8392 122.098 12.5902V19.7672C122.098 21.5615 123.096 21.8535 123.678 21.8535C124.261 21.8535 125.259 21.6032 125.259 19.7672V18.3902H126.465C127.671 18.3902 128.669 18.0564 129.376 17.3471C130.083 16.6377 130.457 15.678 130.457 14.4679C130.457 13.2161 130.083 12.2147 129.251 11.5053ZM126.049 15.8449C125.175 15.4276 124.552 14.5097 124.635 13.842C124.676 13.4665 124.968 13.1744 125.342 13.1744C125.675 13.1744 125.882 13.3413 126.049 13.6751C126.215 13.3413 126.381 13.1744 126.756 13.1744C127.13 13.1744 127.421 13.4665 127.463 13.842C127.504 14.5097 126.881 15.4276 126.049 15.8449Z" fill="black"/>
<path d="M67.6209 10.4619C67.0387 10.4619 66.5396 10.295 66.1238 10.0029C65.7079 9.66907 65.5 9.29353 65.5 8.91799C65.5 8.37554 65.8327 8 66.3733 8C66.706 8 66.9555 8.16691 67.1634 8.50072C67.2466 8.66763 67.413 8.70935 67.6209 8.70935C67.8288 8.70935 67.9536 8.6259 68.0784 8.50072C68.2863 8.16691 68.5358 8 68.8685 8C69.4091 8 69.7418 8.33381 69.7418 8.91799C69.7418 9.41871 69.4923 9.83597 68.9517 10.1281C68.5358 10.3784 68.0784 10.4619 67.6209 10.4619Z" fill="black"/>
<path d="M56.6809 14.9699C55.9739 14.3023 55.0174 13.9685 53.8114 13.9685H52.9797V12.5915C52.9797 10.839 52.0232 10.5469 51.441 10.5469C50.8588 10.5469 49.9023 10.7973 49.9023 12.5915V19.6433C49.9023 20.3527 50.0686 20.8534 50.3597 21.1872C50.6508 21.521 51.1499 21.6879 51.8984 21.6879H53.6451C54.8511 21.6879 55.8491 21.3541 56.5561 20.7282C57.3463 20.0189 57.7205 19.0592 57.7205 17.8491C57.7621 16.5973 57.3878 15.6793 56.6809 14.9699ZM53.6035 19.2261C52.7717 18.8088 52.1479 17.9325 52.2311 17.2649C52.2727 16.8894 52.5222 16.5973 52.9381 16.5973C53.2708 16.5973 53.4371 16.7642 53.6035 17.098C53.7698 16.7642 53.9362 16.5973 54.2689 16.5973C54.6431 16.5973 54.8927 16.8894 54.9342 17.2649C55.059 17.9325 54.4352 18.8088 53.6035 19.2261Z" fill="black"/>
<path d="M48.4888 16.4694C48.2809 16.1773 47.9898 15.9687 47.6571 15.76C48.1977 15.2593 48.4888 14.5082 48.4888 13.5485C48.4888 12.5471 48.0313 11.7543 47.1164 11.2118C46.4095 10.7946 45.5361 10.5859 44.5381 10.5859H42.6251C41.9181 10.5859 41.3775 10.7528 41.0864 11.0867C40.7953 11.4205 40.6289 11.9212 40.6289 12.6305V19.8075C40.6289 20.5169 40.7953 21.0176 41.128 21.2679C41.4191 21.5183 41.9181 21.6852 42.6251 21.6852H44.9539C46.1184 21.6852 47.0749 21.4349 47.7818 20.8924C48.6136 20.2665 49.0294 19.3485 49.0294 18.1802C48.9878 17.4708 48.8215 16.8867 48.4888 16.4694ZM44.5797 19.2233C43.7479 18.8061 43.1241 17.9298 43.2073 17.2205C43.2489 16.8449 43.4984 16.5528 43.9143 16.5528C44.247 16.5528 44.4133 16.7197 44.6212 17.0536C44.7876 16.7197 44.9539 16.5528 45.3282 16.5528C45.7025 16.5528 45.9936 16.8449 46.0352 17.2205C46.0768 17.8881 45.453 18.7644 44.5797 19.2233ZM44.5797 15.009C43.7479 14.5917 43.1241 13.7154 43.2073 13.0061C43.2489 12.6305 43.4984 12.3385 43.9143 12.3385C44.247 12.3385 44.4133 12.5054 44.6212 12.8392C44.7876 12.5054 44.9539 12.3385 45.3282 12.3385C45.7025 12.3385 45.9936 12.6305 46.0352 13.0061C46.0768 13.6737 45.453 14.55 44.5797 15.009Z" fill="black"/>
<path d="M7.06971 11.5484C6.32115 10.8807 5.32308 10.5469 4.11707 10.5469H1.99615C1.28918 10.5469 0.748558 10.7138 0.457452 11.0476C0.166346 11.3814 0 11.8822 0 12.5915V19.7268C0 21.521 0.95649 21.7714 1.5387 21.7714C2.12091 21.7714 3.0774 21.521 3.0774 19.7268V18.3498H4.28341C5.48942 18.3498 6.44591 18.016 7.15288 17.3066C7.85986 16.639 8.23413 15.6376 8.23413 14.4275C8.27572 13.2591 7.85986 12.2577 7.06971 11.5484ZM3.86755 15.8462C3.03582 15.4289 2.41202 14.5527 2.49519 13.8433C2.53678 13.4678 2.7863 13.1757 3.20216 13.1757C3.53486 13.1757 3.7012 13.3426 3.90913 13.6764C4.07548 13.3426 4.24183 13.1757 4.61611 13.1757C4.99038 13.1757 5.28149 13.4678 5.32308 13.8433C5.36466 14.5527 4.74087 15.4289 3.86755 15.8462Z" fill="black"/>
<path d="M23.6632 21.7297C22.7899 21.7297 21.9998 21.6045 21.4176 21.4376C20.1284 21.0203 19.8789 20.2275 19.8789 19.6433C19.8789 18.8505 20.3779 18.3915 21.2096 18.3915C21.5423 18.3915 21.8334 18.475 22.1661 18.6002C22.7067 18.8088 22.8315 18.8505 22.8731 18.8922C22.9978 18.934 23.2474 18.9757 23.7464 18.9757C24.9108 18.9757 24.9108 18.4333 24.9108 18.1412C24.9108 17.8908 24.8277 17.7239 24.6613 17.5153C24.5365 17.3901 24.3286 17.3066 24.0791 17.2649C24.0375 17.2649 23.9128 17.2649 23.2058 17.2649C21.6255 17.2649 21.376 16.4304 21.376 15.9297C21.376 15.5124 21.5839 15.1786 21.9582 14.8865C22.2077 14.7196 22.5404 14.5944 22.9563 14.5527C22.9563 14.5527 23.0394 14.5527 23.8712 14.5527C24.1623 14.5527 24.3702 14.5109 24.5365 14.3858C24.7029 14.2606 24.7861 14.1354 24.7861 13.9685C24.7861 13.7181 24.7861 13.2591 23.788 13.2591C23.5385 13.2591 23.2058 13.3009 22.7483 13.4261C22.2493 13.5512 21.875 13.6347 21.6255 13.6347C20.7938 13.6347 20.2947 13.1757 20.2947 12.3829C20.2947 12.0908 20.4195 11.7987 20.669 11.5484C21.2928 10.8807 22.3741 10.5469 23.8712 10.5469C27.1981 10.5469 27.8635 12.2994 27.8635 13.7181C27.8635 14.5944 27.5308 15.3038 26.8654 15.8045C27.6971 16.3469 28.113 17.1397 28.113 18.1829C28.0298 19.7685 27.2813 21.7297 23.6632 21.7297Z" fill="black"/>
<path d="M60.1754 21.7714C59.5932 21.7714 58.6367 21.521 58.6367 19.7268V12.5915C58.6367 10.839 59.5932 10.5469 60.1754 10.5469C60.7576 10.5469 61.7141 10.7973 61.7141 12.5915V19.7685C61.7141 21.521 60.7576 21.7714 60.1754 21.7714Z" fill="black"/>
<path d="M34.2684 21.8535C32.6465 21.8535 31.3157 21.3111 30.3593 20.2262C29.4444 19.183 28.9453 17.8478 28.9453 16.2204C28.9453 14.5931 29.4028 13.2161 30.3593 12.173C31.3157 11.0881 32.6465 10.5039 34.2684 10.5039C35.8903 10.5039 37.221 11.0463 38.1775 12.1312C39.0924 13.1744 39.5915 14.5097 39.5915 16.1787C39.5915 17.8061 39.134 19.183 38.1775 20.2262C37.221 21.3111 35.8903 21.8535 34.2684 21.8535ZM34.2684 13.4248C33.5614 13.4248 33.0624 13.6751 32.6881 14.2593C32.3554 14.76 32.1891 15.4276 32.1891 16.2204C32.1891 16.9715 32.3554 17.5974 32.6881 18.0981C33.0624 18.6406 33.5614 18.891 34.2268 18.891C34.9338 18.891 35.4328 18.6406 35.8071 18.0981C36.1398 17.5974 36.3061 16.9715 36.3061 16.1787C36.3061 15.3859 36.1398 14.7183 35.8071 14.2176C35.4744 13.7169 34.9338 13.4248 34.2684 13.4248Z" fill="black"/>
<path d="M70.9453 21.7714C70.3631 21.7714 69.4066 21.521 69.4066 19.7268V16.18L65.8718 20.8534C65.4143 21.4793 64.8737 21.7714 64.2499 21.7714C63.7093 21.7714 62.8359 21.5627 62.8359 20.0189V12.5915C62.8359 10.839 63.7924 10.5469 64.3747 10.5469C64.9569 10.5469 65.9134 10.7973 65.9134 12.5915V16.2635L69.5314 11.4649C69.9888 10.8807 70.4879 10.5469 71.0701 10.5469C71.6107 10.5469 72.5256 10.7973 72.5256 12.5081V19.7685C72.484 21.521 71.5275 21.7714 70.9453 21.7714Z" fill="black"/>
<path d="M14.4715 21.8535C12.8497 21.8535 11.5189 21.3111 10.5624 20.2262C9.64748 19.183 9.14844 17.8478 9.14844 16.2204C9.14844 14.5931 9.60589 13.2161 10.5624 12.173C11.5189 11.0881 12.8497 10.5039 14.4715 10.5039C16.0934 10.5039 17.4242 11.0463 18.3807 12.1312C19.2956 13.1744 19.7946 14.5097 19.7946 16.1787C19.7946 17.8061 19.3372 19.183 18.3807 20.2262C17.4242 21.3111 16.0934 21.8535 14.4715 21.8535ZM14.4715 13.4248C13.7646 13.4248 13.2655 13.6751 12.8912 14.2593C12.5585 14.76 12.3922 15.4276 12.3922 16.2204C12.3922 16.9715 12.5585 17.5974 12.8912 18.0981C13.2655 18.6406 13.7646 18.891 14.4299 18.891C15.1369 18.891 15.6359 18.6406 16.0102 18.0981C16.3429 17.5974 16.5093 16.9715 16.5093 16.1787C16.5093 15.3859 16.3429 14.7183 16.0102 14.2176C15.6775 13.7169 15.1369 13.4248 14.4715 13.4248Z" fill="black"/>
</g>
<defs>
<clipPath id="clip0_3341_3929">
<rect width="173" height="29" fill="white"/>
</clipPath>
</defs>
</svg>
