<svg width="158" height="35" viewBox="0 0 158 35" fill="none" xmlns="http://www.w3.org/2000/svg">
<path d="M154.016 15.3406C152.534 13.863 150.132 13.863 148.65 15.3406L146.762 17.2233L144.874 15.3406C143.393 13.863 140.99 13.863 139.509 15.3406C138.027 16.8183 138.027 19.2144 139.509 20.692L141.396 22.5747L146.762 27.926L154.016 20.692C155.498 19.2144 155.498 16.8197 154.016 15.3406Z" fill="#FF5B00"/>
<path d="M12.92 24.088C12.92 26.9092 10.3657 28.3326 6.76033 28.3326C2.27823 28.334 0.500553 26.236 0 23.4134H3.63116C3.90717 25.0365 4.88254 25.6113 6.68596 25.6113C8.51369 25.6113 9.29026 24.9623 9.29026 23.8384C9.29026 23.014 8.8898 22.3651 7.2866 22.3651H4.98265V19.6181H6.9105C8.41214 19.6181 8.86409 19.1431 8.86409 18.2703C8.86409 17.3218 8.2634 16.6472 6.51006 16.6472C5.28299 16.6472 4.18176 16.9966 3.90575 18.42H0.27602C0.72652 15.9982 2.37835 14 6.56011 14C10.0153 14 12.4695 15.3977 12.4695 18.0207C12.4695 19.4184 11.7687 20.2685 10.7662 20.7677C12.1191 21.3168 12.92 22.4906 12.92 24.088Z" fill="#007FDB"/>
<path d="M31.1731 24.6621V31.504H27.592V28.0324H17.2505V31.504H13.6709V24.6621H16.125C16.6012 24.2627 16.9016 23.4641 17.1261 22.0649L18.3775 14.2988H28.6689V24.6621H31.1731ZM25.0878 24.6621V17.6705H21.4323L20.6815 22.2403C20.5055 23.3642 20.2553 24.113 19.9049 24.6621H25.0878Z" fill="#007FDB"/>
<path d="M46.8596 21.167C46.8596 25.3874 44.1551 28.334 40.5741 28.334C38.6205 28.334 37.1932 27.4854 36.2178 26.1861V34.2773H32.6367V14.2995H36.2178V16.2221C37.1703 14.8986 38.6477 14 40.5755 14C44.1051 14 46.8596 16.921 46.8596 21.167ZM43.2298 21.167C43.2298 18.9192 41.7525 17.396 39.7489 17.396C37.7452 17.396 36.2178 18.9192 36.2178 21.167C36.2178 23.4391 37.7452 24.9381 39.7489 24.9381C41.7267 24.9367 43.2298 23.4391 43.2298 21.167Z" fill="#007FDB"/>
<path d="M62.3997 14.2995L62.374 28.0331H58.7928V26.1861C57.8418 27.484 56.4145 28.334 54.4867 28.334C50.8813 28.334 48.2012 25.3874 48.2012 21.167C48.2026 16.921 50.9313 14 54.4624 14C56.416 14 57.8675 14.8986 58.8186 16.2221V14.2995H62.3997ZM58.8186 21.167C58.8186 18.9192 57.2912 17.396 55.2875 17.396C53.284 17.396 51.8066 18.9192 51.8066 21.167C51.8066 23.4391 53.3082 24.9381 55.2875 24.9381C57.2912 24.9367 58.8186 23.4391 58.8186 21.167Z" fill="#007FDB"/>
<path d="M76.4233 24.0631C76.4233 26.8842 74.245 28.0338 71.4145 28.0338H64.1279V14.2988H70.7881C73.5426 14.2988 75.7209 15.0234 75.7209 17.7704C75.7209 19.1938 74.9697 19.9426 73.9434 20.6172C75.5464 21.0907 76.4233 22.3145 76.4233 24.0631ZM70.4892 17.0957H67.7104V19.7429H70.4892C71.7163 19.7429 72.1171 19.2936 72.1171 18.445C72.1171 17.545 71.7163 17.0957 70.4892 17.0957ZM72.7929 23.7379C72.7929 22.7638 72.3426 22.2902 71.14 22.2902H67.709V25.2369H71.14C72.3914 25.2369 72.7929 24.7363 72.7929 23.7379Z" fill="#007FDB"/>
<path d="M77.4717 21.167C77.4717 17.0964 80.501 14 84.6571 14C88.0117 14 90.9922 16.0225 91.5172 19.5182H87.8365C87.4099 18.0207 86.1085 17.2961 84.6557 17.2961C82.4774 17.2961 81.0741 18.895 81.0999 21.167C81.0741 23.4647 82.5277 25.0379 84.6312 25.0379C86.1085 25.0379 87.4099 24.2891 87.8365 22.7901H91.5172C90.967 26.4114 87.9363 28.334 84.6312 28.334C80.501 28.334 77.4717 25.2376 77.4717 21.167Z" fill="#007FDB"/>
<path d="M106.129 14.2988V28.0324H102.548V23.1631L102.774 19.0925L97.0907 28.0324H92.959V14.2988H96.5398V19.1681L96.3639 23.1888L102.023 14.2988H106.129Z" fill="#007FDB"/>
<path d="M119.649 17.6705H115.393V28.0338H111.812V17.6705H107.58V14.2988H115.392H119.648V17.6705H119.649Z" fill="#007FDB"/>
<path d="M134.221 14.2988V28.0324H130.64V23.1631L130.866 19.0925L125.182 28.0324H121.051V14.2988H124.632V19.1681L124.456 23.1888L130.115 14.2988H134.221Z" fill="#007FDB"/>
<path d="M141.396 22.5767L139.508 20.694C138.026 19.2163 138.026 16.8202 139.508 15.3426C140.989 13.865 143.392 13.865 144.874 15.3426L146.761 17.2253L141.396 22.5767Z" fill="#FF8150"/>
</svg>
